<mxfile host="app.diagrams.net" modified="2022-10-14T17:53:46.766Z" agent="5.0 (X11)" etag="mxnuK4PfLh70kgd3Zdsr" version="20.3.6" type="github">
  <diagram id="ESSZJDDjVCcBVk_BPCNW" name="Page-1">
    <mxGraphModel dx="1422" dy="724" grid="1" gridSize="10" guides="1" tooltips="1" connect="1" arrows="1" fold="1" page="1" pageScale="1" pageWidth="850" pageHeight="1100" math="0" shadow="0">
      <root>
        <mxCell id="0" />
        <mxCell id="1" parent="0" />
        <mxCell id="fV4lutbLEvw6odGB0vFc-10" value="" style="shape=image;verticalLabelPosition=bottom;labelBackgroundColor=default;verticalAlign=top;aspect=fixed;imageAspect=0;image=data:image/png,iVBORw0KGgoAAAANSUhEUgAABIAAAAMACAYAAABcvxwMAACAAElEQVR4Xuzdh5scxbX4/d9f8ALOgUvG2MY24IAxxoDDdcIBRww44Gxj4wDYIAFCAWUhoYQSEkIRSSiinAPKGeWIMhKKKOd+Odo7zOw51bvdNTO7NbPfz/Oc57lP96nqmmFX1322wv+LAAAAAAAAUNb+n74AAAAAAACA8kIBCAAAAAAAoMxRAAIAAAAAAChzFIAAAAAAAADKHAUgAAAAAACAMkcBCAAAAAAAoMxRAAIAAAAAAChzFIAAAAAAAADKHAUgAAAAAACAMkcBCAAAAAAAoMxRAAIAAAAAAChzFIAAAAAAAADKHAUgAAAAAACAMkcBCAAAAAAAoMxRAAIAAAAAAChzFIAAAAAAAADKHAUgAAAAAACAMkcBCAAAAAAAoMxRAAIAAAAAAChzFIAAAAAAAADKHAUgAAAAAACAMkcBCAAAAAAAoMxRAAIAAAAAAChzFIAAAAAAAADKHAUgAAAAAACAMkcBCAAAAAAAoMxRAAIAAAAAAChzFIAAAAAAAADKHAUgAAAAAACAMkcBCAAAAAAAoMxRAAIAAAAAAChzFIAAAAAAAADKHAUgAAAAAACAMkcBCAAAAAAAoMxRAAIAAAAAAChzFIAAAAAAAADKHAUgAAAAAACAMkcBCAAAAAAAoMxRAAIAAAAAAChzFIAAAAAAAADKHAUgAAAAAACAMkcBCAAAAAAAoMxRAAIAAAAAAChzFIAAAAAAAADKHAUgAAAAAACAMkcBCAAAAAAAoMxRAAIAAAAAAChzFIAAAAAAAADKHAUgAAAAAACAMkcBCAAAAAAAoMxRAAIAAAAAAChzFIAAAAAAAADKHAUgAAAAAACAMkcBCAAAAAAAoMxRAAIAAAAAAChzFIAAAAAAAADKHAUgAAAAAACAMkcBCAAAAAAAoMxRAAIAAAAAAChzFIAAAAAAAADKHAUgAAAAAACAMkcBCAAAAAAAoMxRAAIAAAAAAChzFIAAAAAAAADKHAUgAAAAAACAMkcBCAAAAAAAoMxRAAIAAAAAAChzFIAAAAAAAADKHAUgAAAAAACAMkcBCAAAAAAAoMxRAAIAAAAAAChzFIAAAAAAAADKHAUgAAAAAACAMkcBCAAAAAAAoMxRAAIAAAAAAChzFIAAAAAAAADKHAUgAAAAAACAMkcBCAAAAAAAoMxRAAIAAAAAAChzFIAAAAAAAADKHAUgAAAAAACAMkcBCAAAAAAAoMxRAAIAAAAAAChzFIAAAAAAAADKHAUgAAAAAACAMkcBCAAAAAAAoMxRAAIAAAAAAChzFIAAAAAAAADKHAUgAAAAAACAMkcBCAAAAAAAoMxRAIK3RYsWXQgAAAAAABA2CkDw9thjj10IAAAAAAAQNgpA8EYBCAAAAACA0kABCN4oAAEAAAAAUBooAMEbBSAAAAAAAEoDBSB4owAEAAAAAEBpoAAEbxSAAAAAAAAoDRSA4I0CEAAAAAAApYECELxRAAIAAAAAoDRQAII3CkAAAAAAAJQGCkDwRgEIAAAAAIDSQAEI3igAAQAAAABQGigAwRsFIAAAAAAASgMFIHijAAQAAAAAQGmgAARvFIAAAAAAACgNFIDgjQIQAAAAAAClgQIQvFEAAgAAAACgNFAAgjcKQAAAAAAAlAYKQPBGAQgAAAAAgNJAAQjeKAABAAAAAFAaKADBGwUgAAAAAABKAwUgeKMABAAAAABAaaAABG8UgAAAAAAAKA0UgOCNAhAA1D0nTp+NBi/cFtUftiJqOGplNG7Fm9HZc+d1GgAAAAJDAQjeKAABQN2yaufb0c1NJ0dXPj46uvaJse/EuOiKd/7vb7ebGe05fFKnAwAAICAUgOCNAhAA1B1vHz8d3dR4YnRlvTHR5Y+NrhTX1B8bfb/DrOg8E4EAAACCRQEI3igAAUDd8fz0jdHVjuJPJmQm0NS1e3QzAAAABIICELxRAAKAuuN3Ly50zv7JhCwJazV+rW4GAACAQFAAgjcKQABQd/ym5/xqC0Atxq7RzQAAABAICkDwRgEIAOqO5yavj66uH18AuuKxMdH4lW/qZgAAAAgEBSB4owAEAHXHviOnousbjI+ufNwWga6qNyb6Wutp0RmOgwcAAAgWBSB4owAEAHXL/M37o089PeFCwefqemMvbAot//dXWk6Ntuw7ptMBAAAQEApA8EYBCADqngPHTkVdpm+M/tZ/SfTvQUujAfO3RqfOnNNpAAAACAwFIHijAAQAAAAAQGmgAARvFIAAAAAAACgNFIDgjQIQAFTYc/ikvlQQx0+fjfrN2xI9MnhZ9PCgZdFLc7ZER0+d0WkAAABAtSgAwRsFIAB12Y4Dx6MH+y+Orn1i7IWTsD7+5LjoyRErorePn9apXtbvORLd0mxydNXjYy4cv37N/228/Lkmk6JVO9/W6Xk7ywleAAAAZY0CELxRAAJQV8mJV59pNCG6pn5F8Sf3OPQ7W0/Luwh08sy56EvNplzoz3Xk+heemVSQmUAyw6jF2DXRjY0nXuj7uifHRv8YuCTaefC4TgUAAECJowAEbxSAANRVv+g+11mckZBZOk+NWKGbpDJ44bboysdt37nPkOVg+ZDiz3fbz7rQly4wSXFr896jugkAAABKGAUgeKMABKAueuvwyeiKKoozEtc3GB+dz2NFVb2hr5vZRblxTf0x0b9eXqqbpdJy/NoLy8t03xf6rzc2+kmXOboJAAAAShgFIHijAASgLlq67aApmLjiUB7LwOoPWxFd8397C7lCikOyKXQ+ZC8h3a+O7QdYCgYAAFAuKADBGwUgAHWRbP6sCyU6ZC+dfDZVHrp4R3RlzOwcCZm503/eVt0ssdNnz5k+XTFn4z7dFAAAACWKAhC8UQACUFe59s55tzhTf0z00MAlukkqUqC5vdXUC6d/mf7rjYluaTblwh4++fhkg/Gmbx3rdh/WzQAAAFCiKADBGwUgAHXV8u2Hoo89MdbM0pGCjZyotevQCd0kNTlp7PaW06Ir642Jrq0/9sJx81L8+XKLKdGGPUd0emqPDF5+YS8hXfSRuOKdz/WVllN1EwAAAJQwCkDwRgEIQF32+o5DF2YC5RZOftlzXkH3zZGZQLIcrN6w16PHh74eDVm0PTp15pxO87L77RPRTY0nmtPMrqpXUWhi+RcAAEB5oQAEbxSAACCK9hw+GS14Y3904NgpfSt4UqySI+1zC0B3tJ4Wzd1E8QcAAKDcUACCNwpAAFAe3nz7xIWiz/oCLC0DAABAmCgAwRsFIAAAAAAASgMFIHijAAQAAAAAQGmgAARvFIAAAAAAACgNFIDgjQIQAAAAAAClgQIQvFEAAgAAAACgNFAAgjcKQAAAAAAAlAYKQPBGAQgAAAAAgNJAAQjeKAABAAAAAFAaKADBGwUgAAAAAABKAwUgeKMABAAAAABAaaAABG8UgAAAAAAAKA0UgOCNAhAAAAAAAKWBAhC8UQACAAAAAKA0UACCNwpAAAAAAACUBgpA8EYBCAAAAACA0kABCN4oAAEAAAAAUBooAMEbBSAAAAAAAEoDBSB4owAEAAAAAEBpoAAEbxSAAAAAAAAoDRSA4I0CEAAAAAAApYECELxRAAIAAAAAoDRQAII3CkAAAAAAAJQGCkDwRgEIAAAAAIDSQAEI3igAAQAAAABQGigAwRsFIAAAAAAASgMFIHijAAQAAAAAQGmgAARvFIAAAAAAACgNFIDgjQIQAAAAAAClgQIQvFEAAgAAAACgNFAAgjcKQAAAAAAAlAYKQPBGAQgAAAAAgNJAAQjeKAABAAAAAFAaKADBGwUgAAAAAABKAwUgeKMABAB11NzOUfT8l6Ko2x1RtHqUvgsAAIAAUQCCNwpAAFAHzesaRU//f9loeHEUbV+os/JzaHsUDbw3itp+MooG3BNFB7fqDAAAAKREAQjeKAABQB1zYEsUNf1Q5QKQxKQGOjM/Xb9Suf8ut+oMAAAApEQBCN4oAAFAHdPnh7b4IzHiQZ3pT2b/6P4lmAUEAACQFwpA8EYBCADqkKX9bFEmE4N+qbP97Vxi+5fYtUxnAgAAIAUKQEhs2rRpUe/evd+Nu+66iwIQANQFR/ZEUYvLbVEmEzIzqFA2z7D9S2xfoDMBAACQAgUgJNa5c+fogQceeDc+/elPUwACgLpg8K9tQSY3enxdt/C3ZrTtX+KNWToTAAAAKVAAgjeWgAFAHbDmVVuM0dHpZt3K37KBtn+JjVN1JgAAAFKgAARvFIAAoMydeDuK2lxnizE62n5Ct/Q3v7vtX2LdOJ0JAACAFCgAwRsFIAAoc6MesoUYVzS/VLf0N6ut7V9i1UidCQAAgBQoAMEbBSAAKGObZ0ZRw4tsIcYVDS+OovPndQ9+Jje0/Uu8PkRnAgAAIAUKQPBGAQgAytTp41HU/kZbhJF46fv2msSpo7oXP2MesX1LyDH0AAAA8EYBCN4oAAFAmZr4lC3ASHS/s+I0Ln1d4vAu3YufYX+2fUss7KUzAQAAkAIFIHijAAQAZWjn0ihq9B5bgGn83ijavTKK3lxh70nsXad78jPwPtu3xLyuOhMAAAApUACCNwpAAFBmzp6Ooi632uKLxJQmFTkHtth7EjsWV+7LV+/v2b4lZrfXmQAAAEiBAhC8UQACgDIzs40tvEh0+kIUnTlZkXNsn70vsWl65b58dbvD9i0xo7XOBAAAQAoUgOCNAhAAlJG966OoyQds4UVO+No2L5t39pTNkVg9KpuTj46fs31LTG2qMwEAAJACBSB4owAEAGVCjnDv+S1bdJEY86jOdheKlg3QWX7afMz2LTGpgc4EAABAChSA4I0CEACUiQU9bMFFot317uPdW11lc+d301l+mn7I9i0x7nGdCQAAgBQoAMEbBSAAKAOHdkRRs4/YgovEhkk6u0L7G2zuzGd1VnrnzkZRw4ts3xKjH9bZAAAASIECELxRAAIQsqMnz0QD5m+N6g9bET0zenU0Y91bOgUi7tj1oX/UmVldb7P5k57WWemdOGT7zcTIv+tsAAAApEABCN4oAAEI1YI39kc3NpoYfb9+56jnU/dFrZ76S/SZxwZFP+86J3r7+GmdXnftWe2ecdPq6orTvuL0+o5tU4gZOoe2234zUVVBCgAAANWiAARvFIAAhGjXoRPRJxuMj35Tv3l09umL3y0gbG1wTXRj/aHRb1+cr5vUXSP+ZgstEite0ZmV9f+5bTPsTzorPSlI6X4zMfg3OhsAAAApUACCNwpAAELUdMzq6Jr6Y6KZT33ZFBH+U//R6PLHRkfLtx/SzeqeI7ujqMn7zXcU9fi6zrRe+b1tN/BenZXetvm230L2DwAAUIdRAII3CkAAQvT9jrOiKx4fHW1ucJ0pIrR/4jfRVfXGRD1nbdbN6p4pjc33cyFWjdCZ1qv/tO1636Wz0tsw2fabib4/1tkAAABIgQIQvFEAAhCi77afdWGWz/YGV5siQpcn7o+uqTc26j5zk25Wt5w+HkUtrzDfT/TcZypO4qrOxKds22536Kz0Vg63/Wai9/d0NgAAAFKgAARvFIAAhOipESsuLAHb8/TlpojQ88mfXygOzd+8XzerW+Z3N9/NhZjXVWe6TW9p23b4rM5Kb0kf228men5TZwMAACAFCkDwRgEIQIje2Hc0uvaJsdHBBh8xRYQBT/04urvzbN2kbjl/Lora32i+m6jFZVF06pjOdpv7vG3f+lqdld7czrbfTHS/U2cDAAAgBQpA8EYBCECoJq3eHR1/2m5wPOGZH0d7Dp/U6XXL6lHme7kQk57WmfGW9LXtm35IZ6U3vYXtNxPPf0lnAwAAIAUKQPBGAQhA0Bq9xxQRzg/5nc6qe2QplS6uNH5fFB3epTPjyUbRuo+GFyXbP6gqE560/Wai4+d0NgAAAFKgAARvFIAABEsKEbqAIPHy/Tqzbtm+wH4nEsP/ojOrtnGK7UPixCGdmc6of9g+M/Hcp3U2AAAAUqAABG8UgAAES0650gUEif4/05l1y6Bf2e9EZu7sXqkzqxZXSDq0XWemM+S3ts9MtLlOZwMAACAFCkDwRgEIQLCOH7QFBImXvq8z644Db0RRo0vsd9Lnbp1ZvT2rbT8Se1bpzHSkQKf7zIQcWw8AAABvFIDgjQIQgGAd2W0LCBI9v6Uz646x/7Xfh8SGyTqzeod22H4kts3Xmen0+rbtMxPNPqKzAQAAkAIFIHijAAQgWAe32QKCRF09SlxmRDX9sP0+fE/Wkr1+dF8SPsWkXF1utX1mQjaqrk2njkXRjFZRNOxPUbSodxSdP6czAAAAgkYBCN4oAAEI1r4NtoCQT8Gj1M1qa78LiaX9dGYyssm27B2k+1s5XGemIxs96z4zIc87f163qBnyXD07aRz//w8AAJQWCkDwRgEIQLBkU2NdQJCoi0eJnz1VsYGy/i7afKzini/XjKIlfXRWOi2vtH3mxpmTukXNkL2N9FiafiiKzp3RmQAAAMGiAARvFIAABGvnEvvCLtHuep1Z/pb2t9+DxMxndWY6UkDSfc7trLPSkWVeus/cOHlYt6gZGybZsUgcfUtnAgAABIsCELxRAAIQrK1z7cu6ROtrdWb5k2Vv+nuQ2SuyL1A+ZDaV7nd6C52VnMzu0f3pOLpXt6oZa161Y5E4uFVnAgAABIsCELxRAAIQrM0z7Mu6RIvLdGZ52zjVfgcSYx7VmenJhtq63wlP6qzkpLij+9Px9k7dqmaseMWOReKttToTAAAgWBSA4I0CEIBgrZ9oX9YlnvmgzixvfX9kv4NGl0TR/s06M73e37N9j/qHzkpOxqT703HgDd2qZsQto9u1TGcCAAAEiwIQvFEAAhCsuCU7UvyoK2QjbNdJXYN+qTP9DLzP9v3K73RWcruW2/501NaMm4W97Fgkts7RmQAAAMGiAARvFIAABGvFUPuynomzp3V2eRr+V/vZJbbN15l+hv3Z9t3/ZzoruS2v2f50vLlCt6oZc5+3Y5GQJXYAAAAlggIQvFEAAhCsZQPsy3omTh3V2eXn8JtR1OT99rO/8L8609+YR2z/vb6ts5JbN872p2PHIt2qZrzWzo5FYu0YnQkAABAsCkDwRgEIQLAW9bYv65k4tl9nl5/JDe3nllg9Smf6cz2jy5d1VnKvD7b96dgyW7eqGXK6mR6LhGwODQAAUCIoAMEbBSAAwZrfzb6sZ+LwLp1dXk4di6IWl9vP3f6GKDp/Tmf7m/msfcZzn9FZycXts5Mbm6brVjXi3KSn7VgklvRVmQAAAOGiAARvFIAABGt2B/uynonaOkmqpsQVv+R6Ic3vbp/R8kqdldxrz9n+dKyfoFsV3dGTZ6IRLR6wY3knXunaMDp/XrcAAAAIEwUgeKMABCBYM9uYl/V3o7ZOkqoJ585WzPTRn1lmBMnMoEJaNtA+R/Yd8jWlie1Ph5zuVsMeHrw86vfkT+1Y3ommT/w1emnOFt0EAAAgSBSA4I0CEIBgTW1qXtbfjTdf19nlY/NM+3klJjfSmfmTYox+jsSZkzozmXGP2b50yOluNejQ8dPRVY+PiQY9+QM7lnfi2Sd+H93WgpPAAABAaaAABG8UgAAEa1ID87L+bmxfqLPLh2vmk8zKkVPBCm3zDPssiaN7dWYyIx60femQ091q0MItB6LLHxsdDX/yO3Ys70TnJ3554f7JMwXcWwkAAKBIKADBGwUgAMEa97h5WX833pils8vHy/fbz9vrOzqrMHYusc+S8N1jadAvbV86FvfWrYpq5c63LxR4xj71DTuWd6LnE/dEV9UbE509x0ZAAAAgfBSA4I0CEIBgjf63eVl/NzZO0dnlo+0n7ecdX09nFcbe9fZZEr5L7PrcbfvSIRtP1yAp7NzQaGI05ak77FjeiYFP3h3d232ebgYAABAkCkDwRgEIQLBG/M28rL8ba8fq7PIgS6/0Z5VYPkhnFoYsK9PPktgyW2cm0+Prti8dczrqVkU3aOG26LWnbrVjeSeGP3VXtGz7Qd0EAAAgSBSA4I0CEIBgDf2DeVl/N1aN0NnlYf1E+1klZKZOMcipYvpZEuvG68xkOt1s+9Ixq61uVSN2P3enHcs78dYLP9epAAAAwaIABG8UgAAEa9CvzMv6u7H8ZZ1dHma0sp+12Uej6HyRNig+fz6KGl1in/n6EJ2ZzLMft33pmNZct6oZ3d0FoKjfT3UmAABAsCgAwRsFIADBGnCPfVnPxOKXdHZ5GHiv/awvfldnFVbz/7HPXPSizkqm+aW2Lx2TG+pWNeP5L9mxSPS+S2cCAAAEiwIQvFEAAhCsqjYUXtBDZ5cH1wyaCU/orMJq+wn7zNntdVb1ZDZRw4ttXzqK/XnidPisHYuE7FsEAABQIigAwRsFIADBkpkv+mU9E3M66ezSd2S3/ZwSK17RmYXV+Yv2mVOb6qzqnTxi+3HFmEd1y5rhOl1NQmYGAQAAlAgKQPBGAQhAsKo6UWrmszq79MnGy/pzSuzbqDML64Vv2GeOe1xnVe/wLtuPK0Y9pFvWjFZX27FIdLhJZwIAAASLAhC8UQACEKyut9mX9UxMa6azS59sjqw/p+zPI0urism11G7E33RW9faus/24YvhfdMuaEbc/kSy7AwAAKBEUgOCNAhCAYFV1pPikp3V26XNtet37ezqr8FynrQ3+tc6q3o5Fth9XDPmtblkzmrzfjkWixeU6EwAAIFgUgOCNAhCAYLW/wb6sZ2J8PZ1d+tpcZz/nxAY6q/Bkto9+bt8f6azqbZpu+3HFy/frlsV3/lwUNbzIjkXimQ/qbAAAgGBRAII3CkAAguU6ESsTox/W2aUtbv+clcN0ZuGNe8w+V/YFSmv1KNuPK/r/TLcsvjMn7DgyIYWhYi+zAwAAKBAKQPBGAQhAsFpdZV/WM+GzR03I1o61n1Fi/2adWXhTn7HP7XyLzqre0v62H1e89APdsvhOHLLjyI3Tx3ULAACAIFEAgjcKQACC1eyj9kU9E0P/oLNLmxy7rj9jTe1NM7u9fbYcmZ7W/G62H1f0+o5uWXxHdttx5Max/boFAABAkCgAwRsFIADBitu0V0I2Li4nsixKf8aamimzsJd9tpw+ltbMNrYfV/T4mm5ZfAe32XHkxqEdugUAAECQKADBGwUgAEGSPVniNu2VkBOzyknra+xnnPS0ziqO14fYZze6RGdVb1ID248runxZtyy+vevtOHJj3wbdAgAAIEgUgOCNAhCAIJ05aV/Sc6PPD3WL0vX2Tvv5JFaN0JnFsW6cfbbEqWM6s2qyMbfuwxWdbtYti+/NFXYcuSH3AQAASgAFIHijAAQgSCcP25f03KiNfWSKZc2r9vNJHNyqM4tjy2v22RKH39SZVRv6R9uHK9rfoFsW345Fdhy5sW2+bgEAABAkCkDwRgEIQJCO7rUv6blRG/vIFMuUJvbztbxSZxXPm6/b50ukXRY14Be2D1c8+3HdsvjiilyZ2DxDtwAAAAgSBSB4owAEIEhxy6IyURv7yBRL3x/bz9f3RzqreOSoef18iZ1LdGbVXvyu7aPhxfZaq6t1y+LbOMWOIzfWjdctAAAAgkQBCN4oAAEIUlxRIhOdvqBblK5WV9nPN7mRziqeuNlWm2fqzKp1u932IUfZ62vNL9Uti2/tGDuO3Fg5XLcAAAAIEgUgeKMABCBIb62xL+m58dyndYv8yClRq0dF0aHt+k5xxR1PLmOpKXEbbq8ZrTOr1uEm20eHz9prTT6gWxafFHj0OHJj2QDdAgAAIEgUgOCNAhCAIO1abl/Sc6PNdbqFv9eeyy5VavL+mjt9S0ihR382iZouRDV+nx3DsoE6q2quo+x7ftNek++6psln0ePIjYW9dAsAAIAgUQCCNwpAAIK0fYF9Sc+NllfoFn6O7YuiRpdU7lv2qDl/XmcWx+SG9rPVxh45sum0HseCHjqras980PYx8F57TeLsad26uBb1tmPIjbmddQsAAIAgUQCCNwpAAIL0xiz7kp4bTT+sW/iJOx0q7RHovvrcbZ/d7yc6q/hkSZ0ex6y2OiveuTO2vcTIv9trEqeO6h6Ka343O4bcmNlGtwAAAAgSBSB4owAEIEjVndrU+L26hZ8Nk2zfEvs26szikJlM+tlTn9FZxdflVjsOmZ2U1PEDtr3EpAb2moTk16TZ7e0YcmNKE90CAAAgSBSA4I0CEIAgrR1rX9J1nDurW6W35lXbr8Sbr+vMwjuwxT5XIu3my4XQ69t2HGMe1VnxDm617SVmd7DXJGpqhlXGjFZ2DLkx4QndAgAAIEgUgOCNAhCAIMlGzPolXcfp47pVeitesf1KbJ2rMwsv7jO+vVNnFl+/n9pxDPuzzoq3e6VtL7G0v70mIQWjmiQzfPQYcmP0v3ULAACAIFEAgjcKQACCtHyQfUnXcfygbpXe0n62X4mNU3Vm4bmWR7W+VmfVjCG/tWN5+X6dFU8KZrq9xLrx9prEvg26h+Ka8KQdQ24M/6tuAQAAECQKQPBGAQhAkJb0sS/pOo7s1q3SW9jT9ishS8OK7aUf2Of2/5nOqhmj/mHH8tL3dVa8uL2Udiyy1yRkxlBNkuVsegy5MeQB3QIAACBIFIDgjQIQgCAteMG+pOsoxDKiOZ1svxIyA6mY5Jj5FpfZ505rpjNrhuyBo8fS/U6dFW/lMNu+4cVRtH+zvS6xc4nuobhGPWTHkBsD7tEtAAAAgkQBCN4oAAEI0tzO9iVdx971ulV6M5+1/UoselFnFlZcYUQ2v64N01vYsXT8vM6Kt7i3bd/sIxX7GenrEtvm6R6Ka9if7BhyQ2ZjAQAAlAAKQPBGAQhAkGa1sy/pOgqxjGhqU9uvhMwMKqYVQ+0zJWr6dKwMV8GtzXU6K96cjrb9sx+PomP77HWJzTN1D8U1+Nd2DLnR85u6BQAAQJAoAMEbBSAAQXLNSNGxY7Fuld5Ex0bMEnJseDFNfMo+M03BpdAWv2TH0/TDOivetOa2facvRNHJw/a6xIbJuofiGvALO4bc6HqbbgEAABAkCkDwRgEIQJAmN7Iv6Tq2zNat0hv7H9uvxKSndWZh9b7LPlOKFLVl5XA7noYXRdH5czrTbXx92777V6PozEl7XWLtGN1DcfW5244hN9IsdwMAAKhFFIDgjQIQgCC5NiXWsWmabpVe3ObAUhgqFtkAuvml9pky66m2yIwcPR6JE2/rTLeRju9R9tWRzyqFJH1PCk416cXv2jHkRttP6hYAAABBogAEbxSAAASpumO7JdaN163Si9sceOTfdWbh7NtgnyexfoLOrDmyKbMej8ShHTrTTY5R121fvr/iXuP32XvFPmVN6/E1O4bcaHWVbgEAABAkCkDwRgEIQJDiZubkxupRulV6cZsDD/mtziyc14fY50kc2aMza86eVXY8Em+t0Zlu/X5i2w7/a8U9OQ1M31vSp3L7YuvyZTuG3Eiz3xEAAEAtogAEbxSAAARp2J/tS7oOKaTka8A9tl8JuV4srv1y2n5CZ9Wsg9vsmCS2L9CZbnKKlm6bWUbX8kp7b8ELldsXm+zxo8eQG40u0S0AAACCRAEI3igAAQiSa0mRjiV9dav0ZJ8a3a9E7+/pzMJx7Ucz8D6dVbOOH7Rjktg4VWe6Pf8l23ZK44p7crqZvjf3+crti63dp+wYdMiG1QAAAIGjAARvFIAABEkKIvoFXcfCnrpVer2+bfuVkD1jikFO1Wr2Ufu8Yh87X51zZ9ybNa8aqTPdXAWW19pV3Hvu0/H3akqbj9kx6DhxSLcCAAAIDgUgeKMABCBIrj1ldBRiFkn3O22/Ep1v0ZmFsXedfZbEhkk6s+Y980E7rqSzrFpcbttmlnm5ll9Nb1mpedG1uMyOQcfhXboVAABAcCgAwRsFIABBkiVY+gVdRyFmkUihR/crIbNWikFOv9LPkji6V2fWvNbX2nHN66Kz3Bq/17bNnPTlXB7WpHL7YnMVt3Ts36xbAQAABIcCELxRAAIQJNemwjqmt9Ct0mt/o+1XovU1OrMwxj1un9Xuep1VOzrcZMeWZGna6eO2ncTasRX3XbOsJj5VuY9ia3ixHYMOOQkNAAAgcBSA4I0CEIAgdbvDvqDrmNxIt0rv2Y/bfiWKdSy4a8+hl+/XWbWj2+12bEkKNXJ8vW4n8casivs9v2Xvjf1v5T6K6ewp+3xX7FikWwIAAASHAhC8UQACECTXsiEdE57QrdJzHVEuITNGzp/X2fmRDaClsKSfNfNZnVk7et9lx/bqv3SWtW+jbSexa1nFfddyviT9FsrJw/b5rsgUrAAAAAJGAQjeKAABCFKHz9oXdB1jHtWt0nMVZDIhS5sK6a019hkSG6fozNox8F47tld+r7MsKfTodhL7N1Xcd23oPeLByn0Uk+yvpJ/vihA24gYAAKgGBSB4owAEIEiyL45+Qdcx8iHdKr1Gl9h+M1HojZmXDbDPkKPXj+3XmbVj6B/t+Pr/XGdZMnNGt5OQpWFi4H32XpLCUqEc2mGf74rVo3RLAACA4FAAgjcKQAGa07FiWUrzS6NofL2KZSNAXeM6kUrHsD/pVumcPW37zI2DW3WL/Mi+N/oZxTptzMfoh+34XvyuzrLWjrHtJDIzqAb/xt4b9KtKXRRV3BI1HZlTywAAAAJGAQjeKAAFRpYg6JeS+d10FlD+Wlxmfxd0SGEhHyeP2D5zY89q3SI/rpPNBv9aZ9WeSQ3s+LreprMs19H2cix8hhTq9P0B92TvF5uc7qWf74rFvXVLAACA4FAAgjcKQIEZ95h9Ken/M50FlL9nPmh/F3TInjX5qG5vmEKeCnXurPszzWqnM2vPzDZ2fO1v0FnWghdsuxaXZ+/LUj19v8/d2fvFtnOJfb4r5nXVLQEAAIJDAQjeKAAFZvhf7EvJC/+rs4DyV9XePJno+2PdKp1D222fuVHIU6F2r7T9S2yarjNrj8w21ONrdbXOsqSIpdu1+1T2vu/SskLZOsc+3xUhFeMAAABiUACCNwpAgRnygH0p6XKrzgLK27kz9vfAFfkWEfZtsH3mxrrxuoW/pf1s/7IB9PGDOrP2LO1vx9jkAzrLmtLYtnv+S9n7speZvv/CN7L3i23TNPt8V0xrplsCAAAEhwIQvFEACsyAX9iXkvY36iygvJ06Zn8PXJFvESFuVk4mVg7TLfyNecT2H9rvtpyCpccoIZtlV2Xsf2ybnt/K3p/0tL3f7fbs/WKTQp5+vismNtAtAQAAgkMBCN4oAAWmzw/tS0mb63QWUN6OH7C/B67o+hXdMh3Z40f3mRtL+uoW/np83fYvM/5CIsvR9Bglqjum3rV0td9PsvenNrX3O9+SvV9sq0ba57tizKO6JQAAQHAoAMEbBaDA9Pq2fSmR4+CBuuTwm/b3wBWdv6hbprPlNdtnbhTqBD5Z0ubaAPq153Rm7YoriB3YojMre/l+2ya3uOXaXLrDTdn7xeY6pcwVI/+uWwIAAASHAhC8UQAKTPc77UtJo/foLKC8Hdxqfw9cke8Sqg2TbZ+5UahNgd9cYfuW2DxTZ9auvevsGCVkqVxVXvqBbTPqoez92e3t/XbXZ+8X25I+9vmueOX3uiUAAEBwKADBGwWgwMiyCP1SInH2lM4Eytfe9fZ3wBXPfly3TGfNaNtnbkx9Rrfw4ypANLw4ik68rTNr19s77Tgl5BStqnT/qm0zvn72vhyvru+3vjZ7v9gW9LDPd8XA+3RLAACA4FAAgjcKQCnJX/LlZUdO7+n5zYq/mBeSzGjQLyUSIZ0UBBRbdZszZ6LVVbplOiuG2j5zI7eIkQ/ZW0b33eGzOqv2nTxixymxfoLOrKzj522bac2z9xe9aO+3uCx7v9jmdLTPd0XfH+mWAAAAwaEABG8UgFI4fy6Knvt05ReGQm9kKjMa9EuJhPxlHqgrdiy2vwOuaPZR3TId17HnufHqP3ULP4N+ZfuWfXNCc/58xcwkPVYplFXF9e/WnE7Z+67vuemHsveLbeaz9vmu6PUd3RIAACA4FIDgjQJQCm+ttS8MEoUszrS8wvYvsW+DzgTKlyw50r8Drmjyft0ynYW9bJ+5MexPuoWfvj+2fY94UGeFQYpqeqyLeuusypp9xLZZ/FL2/utD7P2a3NvMdQqZK7rdoVsCAAAEhwIQvFEASmHbPPvCILFnlc705zopSGLXcp0JlK+448h1yFJMmbXia25n22duFGqWjiwX1X2P/a/OCoNzNk9HnZUlMyPlv4Nus3JYNmf1KHtf4tzZbE4xTWxgn+2KfE+VAwAAqAEUgOCNAlAKm6bZFwaJnUt0pj/X8guJ6jZhBcqJ7Dmjfwfi4swJ3Tq5WW1tf7lRqD1hutxq+57cSGeFodPNdqzTmumsrJOHbb7EhknZnHXj7H2J08ezOcU07jH7bFfIEl8AAIDAUQCCNwpAKawdY18YJLbM1pl+zpy0fWdi4xSdDZSvuBkjrsjnJC0pbOj+cqPnt3QLP+1vsH3LvjQh6vE1O9bx9XRWVuzJYXOzORun2vsSJw5lc4pJ9nLSz3ZFTZ5MBgAA4IkCELxRAEphxSv2hUGiUMUZeZHVfWdCXoiBuiLud80VR9/SrZObVM3SoK636RZ+Wl1t+57fTWeFoc8P7VhHPqSzst5aY/Ml5CS3jC2v2fsSR/Zkc4pp+F/ss13R/FLdEgAAIDgUgOCNAlAKS/rYFwaJNaN1pp8ju23fmVj+ss4O376NFbMAamqZB8qH69SouDi0Q7dOTvbh0f3lRqGOanft7bW0n84Kw6Bf2rEO/o3Oytq+0OZLHNyWk7PA3pfI579dGkN+a5/tisbv1S0BAACCQwEI3igApSB/sdcvDBIyW6EQDmyxfWdi0Ys6O2yyZCQz9jbXFXajbJQ/OXVK/w7EhRQafY36h+0vN2RD5HzJRseuTZJXjdCZYRj+VztWOcUsTtzyruMHszmyib2+L7F/UzanmAbeZ5/d5AP2msS5M7o1AABAUCgAwRsFoBRea2dfFiQK9Zf8uGPmJeZ00tnhcs0I6HxLFJ09rTMBt3ld7c9QXORTXBz2Z9tfbrS4TLdIL25p54bJOjMMrllRcopZnFUjbb5EbiElbpnYntXZnGKSApZ+dpuP2WsSJ4/o1gAAAEGhAITEVq1aFU2bNu3duPfeeykAJRW3YeyCF3Smn13LbN+ZmNFKZ4drfnc7fonZ7XUm4CY/K/rnxzWLRmLnUt06OVnapPvLjcbv0y3SS7JJckimNLFjff5LOitLCuA6X5a85ZKZPjpHQmYG1YTed9lnu047k6ipfYkAAAA8UQBCYg8++GB0xRVXvBsXXXQRBaCkJj5lXxYk5nTUmX62zbN9Z2JyQ50drukt7Pglmn644mUYqM6M1o6fnw/ZaxLye+NrwC9sfzrynbm2d53tUyJ3k+SQuGY6tvuUzsqa18Xm69O0ZK8fnSMhewPVhBf+1z5bZjXpaxIHt+rWAAAAQaEABG8sAUthzCP2ZUFCXlYLYdN023cmZFlGqXAtIcnE4F/rbMCa2tT+7MQt2dk8Q7dOznXilY58jyrfucT2KXHgDZ0ZhoU97VhbXK6zsmR2os7vcFPlHJlVo3Mk3phVOa9Yun7FPrv/z+01CVmKCwAAEDAKQPBGASiFEQ/alwUJWTJRCOvG274zMfLvOjtcQ/9ox58bG6foFkBlruPZO37OXpNYP1G3Tq7Xd2x/OvKdtSZFDt2nRD7H1xfT8kF2rI3eo7OyJjr+W3W7vXKOFNF0joRsIF0TXMu9hv3JXpPIZ0khAABADaAABG8UgFIY8oB9WZCY8ITO9COnAum+M/HK73R2uPr9xI4/N2R2wJmTuhWQNe5x+3PT/U57TWLNq7p1ct2/avvTsW+DbpXO2rG2T4nTx3VmGNKO99V/2VzZcyeXtNU5EuvGVc4rlvY32GeP/Y+9JrF1jm4NAAAQFApA8EYBKIUB99iXBYnRD+tMP8tftn1nQvYqKRU9vmbHr2N6S90KyBr9b/szI0WFhhfb6yuG6tbJyebGuj8d+W5U/PoQ22ejS3RWOOJmLMVtjvzK722u/vfq3FmbI7F6VOW8Ynn24/bZcZv619SsJAAAAE8UgOCNAlAKL33fvixIyNKwQljU2/adCXl2qZAZPnr8OuSUoANbdEuggmu5pRzlLT83+vrS/rp1ckl+VvOdEeL6vW5+qc4KR9xphPs26swKrr10ZBmoJsvIdJ4Ux2pCyyvss+c+b69JrB2jWwMAAASFAhC8UQBK4YVv2JcFiUItz5rX1fadCXl2qZANY/X4XSEvjoDL0D/Yn5eB977zs3WZvb7oRd06ubafsP3pyHfPKjklUPcpM1JCFXtk+zKdWeHF79pc16xI1ylucoR8TZATCPWzl/StmImlr694RbcGAAAICgUgeKMAlEKXW+3LgsTA+3SmH9fxy5mQpSql4Pw59zKdhhfZaxJrRusegCga9Cv7szL4NxXHi+vrUjj11eoq25+OfJcpTW9h++z4eZ0VjrQndnW9zeZOelpnFb54l0bc7KO4whAAAEDAKADBGwWgFOKWi/T9kc70M6257TsTsolpKTi2345dwrVRrES7T8VvLou6y7Xflpza1O56e312e906uWYfsf3pkL258jHhSdunbGgdqrgNm+OWRrk2WJ7ZRmcVvniX1Lkz9rkSUthzFQAX9NA9AAAABIUCELxRAErBtZGohBwlXQiTnrZ9Z6LNx3R2mGSfED12CTlaOe50sMkNdS+o6/rcbX9ORj4URR0+a6/PaK1bJ+eaGaJjYS/dKh1X8VOfkhWaxu+1Y5bj4V1aXW1z53fTWYUv3iV16ph9rsT6CVHU9pP2ek2MCQAAIA8UgOCNAlAKriUMEnKUdCGMe8z2nYlmH9XZYdq+wI5d4uDWKNq/OYqafMDea/y+KNq7XveEusy1r8yYR9yndk1polsnEzczRIfs4ZMP2RBZ9ykznELm2sdrwQs6q4Lrd3rZAJ3lnkHpmilUaHGzEjfPqFiKp69zQiEAAAgcBSB4owCUQpP325cFiULtz/PqP23fmQj52Ohc8ld1PXaJk4cr7sctcyulU85QfD2+bn9GxtevWDqlr098SrdO5tRR25cr8i0IyObVus9CbRxfLLI0U49Z9ijTzp6yeRKufZM632LzpjbVWYX39k77XIlt89z7FzEjEQAABI4CELxRAEro3Fn7opCJ9jfqbD/D/mz7zo0zJ3WL8CwbaMcty0kyzpxw7xkiwek7yIh7Me/5LXt97H9162SO7bN9uWJSA90yHSlu6j5H/UNnhcU506qxzoqfXbNpus6Mom6327xJT+uswjvwhn2uhCxL7flNe11mYgIAAASMAhC8UQBK6OQR+6KQiUId6SynHOm+c+P4Ad0iPHOft+NufU3lnPUTbY5Em+sqvmeg083250Nmj7mKKTJzzkfczBAdYx7VLdPp8TXbp8xmCpmrMDL2Pzorig5ssXkSOxbrzCh64Rs2b3w9nVV4b62xz5XYs/qdn6cf2OuhF+cAAECdRwEI3igAJRR3NLJEyyt0th/XyUe5cWiHbhEeWdKhx93pCzoril6+3+ZJjHtcZ6Iucs0Sm9U2ivr91F4f/hfdOpm4Dct1jHhQt0zHWcxqprPC4tqwffhfdVYUvbnC5knsXacz3fs6jX5YZxXermX2uRKyJ5nr31w5bQ4AACBgFIDgjQJQQnF/6ZZ45oM620+fH9q+c6MUNkqWjXr1uGXZjibFrKYftrlyKtPulTobdY3rxL05ndyFwyG/1a2TkZ8z3ZcrhjygW6ZTiidNyWfWY5bvXtsy2+ZJHN6lM6Oo749s3si/66zCk71+9HMlZAaYa9bloF/qHgAAAIJCAQjeKAAlJMsF9ItCJhperLP99Pq27Ts35C/ZoZPNbfW4B/xCZ1WQTWV1roQsPzl/XmfD18apFXutLH6p4uSrUtDqKvtzsaCH++fLVZhIQpYp6b5c0f/numU6rhO1FvbUWWEZ+ZAdsyyX0uI2fZcNtrXamm2zeaZ9roTsASWzmvR1mWUGAAAQMApA8EYBKKHqXhZlc+N8dbvD9psb8tf20PW52447bgnN2dPu5TESS/rqbPiQWTO536ss7SmF4lqzj9qfCSlgFfKFPW72io7ed+mW6cgm6LrP5YN0VlhkjyI9ZtnLSJON23WeFMRdP2ODfmVzZQZOscXtOSZFqtH/ttdlqRoAAEDAKADBGwWghN6YZV8UcuPEId0iPdcxybmxYbJuEZ5ud9hxT3hCZ2XJ99rwItum1dVsCF0IsgG3/m53LddZ4Wnyfjvu5S9XbPisr/f+nm6dzMYpti9XdP+qbpmcnNyn+5NYM1pnhkU23NZjdu3ltehFm9f8Up1VYegfbO7Ae3VW4cmR9Pq5EjIbTv5t0tddhS4AAICAUACCNwpACcX9FTkTh9/ULdJzbXybG/IiE7rnPm3HPfNZnVWZ68VQYuozOhNpnDxsv9NS+DmS2SOuouDK4RVHdOvrrj2mklg7xvblis5f1C2Tiztq3nVMekjmdLRjdp12OLuDzWv7CZ1VQWYC6lyZkVZsrllKjS6puDelib33/JcqtwcAAAgMBSB4owCU0KqR9kUhNw68oVuk59r4NjeWDdQtwiN//dfjXthLZ1V2ZLe7nWwSLaevwU/cMecykyZkcbNmpGAzsYG93u0O3UMyK4fZvlzR7lO6ZXIHt9r+JHYs0plhWdzbjlmW5WnOU/9u1lkVXv2XzfWdvZXG0n72uU0/VHFvZht7r/2NldsDAAAEhgIQvFEASkiKL/pFITdkk+h8uTaLzY3qCim1TZZUuGZurBqhM61ZMRtCy6li8PPWGvt9SsiynZDFzVySJZAyK0xf952xsWyA7csVshzR155Vtj8J+W8TshVD7Zhde/uMe9zm9fh65ZyMQs7eSkM23NbPbXlFxb25ne0910wnAACAgFAAgjcKQAlJ8UW/KOTGziW6RXpynLzuNzdkWUbIjr5lxyyxeYbOtE4fd8+Aavy+wsyuqou2L7Dfp4S89Ibs6F47ZgnZL2pGa3u9w2d1D8m49q9xRWa2iI9t821/Eoe268ywxC151ftyyTHuOkc2gneZ+JTN7X6nziq8uc/b57a5ruKe6991KcQDAAAEjAIQvFEASkifpqRj6xzdIj3X7JncmN5StwjLW2vtmCXeXKEz3RY5lp1IyNHfSE9mzOjvUkKWvYQsbumaFFNmt7fX212ve0jGVRhwhfxe6pkvSW2cavuTOH5QZ4Zl61w7Zgn5b5Nr8K9tjpz25VJb++24Zhc+95mKe65ZYE0+ULk9AABAYCgAwRsFoIRcMw9yQ1708iHHyOs+dUx6WrcKS9xL46EdOtNNlpB1/JxtL0tPSuHkqtDIpsn6u5SY0lhnhmX/ZjtmiV3Lomh+N3tdTjrz4SoMxMWpY7p1MnEnUJ09rTPDsnulHbOEFHlz9f2RzZHNnl2kgK1zO35eZxWe80Sz/9unyPU7cqHgd65yHwAAAAGhAARvFIASmtzIvijkhmxQmw85Rl73qWPsf3SrsMSdqpTm5Tlus2150UQ6i1+y36PE+Po6MyxxexfJPluuWWLN/0f3kIyrMBAXsrzRR6nOMEm6efUL/2tzZK8fl9ccBTc5NbDYJje0z+16W8W9dePtPQlZkgoAABAoCkDwRgEoIddmp7khm6bmQ46R133qGPE33SosrtN20r7sylKb7l+1/UhsnqmzUZW4ZYtyGlPIZLaXHrPE/k3ugorsneVj0tO2r7hlmAe26NbJLOhh+2p5pc4Kz/EDdtwSm6ZVzut8i82RjbpdXEvuMnvxFNP4eva5L3yj4p7sT6bvSRzbV7kPAACAgFAAgjcKQAmN+od9SciNpf11i3TkBVP3qWPIb3WrsMgm1XrMPi94UujR/UhIYch3L5a6aFoz+x1KDPuzzgxL3ObVspQw7nQqH66irswm0tck5DQvH65ZL/kcK19TZImaHreELGnL1faTNue15yrnZCx4webWRDFs9L/tc1/8bsW92E26Ey5bBQAAqAUUgOCNAlBCQ/9oXxJyQ44azkfcspfcGHCPbhUW1zI5301eXXuLSMgSMSTjmvkgEbdJbyjktC89ZglZhrVmtL0ucfaU7qV6r/7T9tP+BntNYvtC3TqZ2tr4uBBcpxLqQrerYCYna7ks6WNzm31EZxWezJzUz+3744p7skG9viexb0PlPgAAAAJCAQjeKAAl9PL99iUhN2S5TT5kg1vdp47e39OtwiJLi/SYM39pT0uWAcnMDt2fbBItm0Wjeq4juiX6/VRnhmXjFDtmiRNvR9GGSfa6hD6ePInhf7H9FHr5oWuWUWb5UehaXW3HPq9r5ZxGl9ic14dUzslYPsjmNn6fziq8V35vnzvw3op7UujR9yTefL1yHwAAAAGhAARvFIASkr8Y65eE3Mj3aO24E7Ryo8fXdauwuI6ElsKZLzn+XfcnIRsBo3oy00d/dxK+RbmasnasHbOEnJQXtzzQZ8+WIQ/Yfvr9xF6TWDdOt07GVYTr80OdFab2N9qxy2mIGbK5u75f1XcVe+JWkZd1uor38t9eyFIvfU9CloYBAAAEigIQvFEASqjXd+xLQm7EbXya1Kbptk8doS8deen7dswjH9JZyclx4DJDQPf57Mc5pSeJPnfb706ix9d0ZlhWjbBjzhQKts2z9yTe3ql7qZ7MAtH9yGwR18wz303eXUWmfIqiNanrV+zYJzXI3o/buH7La9mcXHGnBJ45qTMLq//P7DNl9pc4tt/ek5DNoQEAAAJFAQjeKAAl1O0O+5KQGxOe1C3Skb+a6z51PPcZ3SosXb5sx5z7wuhjzCO2T4lZ7XQmNJkxpr83idALiVUtFYpbKnngjUpdJOIqkMmMnaYfttdl/xofruJD6JtwZ8hMMT122VA5I+3yqQ2Tba7EycM6s7BchWnZ1F9IIVnfk5Dj4QEAAAJFAQjeKAAl1Olm+5KQG1KoyIdr1oOO1tfqVmFxngiUZ6HmyB73C3mLy6Lo+EGdjVxxP7Oy0XHIqtoseM9qe09CNlFPy1XgkN/j1tfY63rvm6RcMwdHP6yzwiSbzuuxy2b4GTuX2PsSMnPPpZDL99Lo+S37zLH/rbgns8pkdpm+L8vVAAAAAkUBCN4oACUkRzfrl4TckJNm8rFsoO1TR02cmJOPph+yY178ks5KT5bX6X4lJuY5u6jcyVI5/Z1JtPmYzgxLVceF799k70nIpuFpyVI43c+EJypm2unrs9rq1slUt4wqZEP/YMc+4BfZ+7JMSt+XOLo3m5OrkMv30uh2h31m7r8drtPOlg3I3gcAAAgMBSB4owCUkOtEnNyQvUPysehF26cOOXEnVLKPhx6vxOpROjM9WSIiBQDdt7y4FfvlsZRJwVB/ZxLNL9WZYZnb2Y5ZilkibtPe7Qsq95FEl1ttP1MaVyyRM9eb6NbJdPis7WtGK50VpupO9Vsz2t6XiNvTZ+dSmyvhs3wvDdd/z9w921pcbu/HHWUPAAAQAApA8EYBKCHXMqTcyHdj13ldbJ+ukJOQQnR4lx2rxBuzdKYfV1FAIp9NpsvZ+XPupS0SNXH0dj5kfyc95sz+V0ffsvckfH7OnMWZ1u69k8bX062TkdlWuq+5z+usMMksGT32brdn77tmLVb1s7V7pc2X2LtOZxZWh5vsM3NPbXTNlJvTKXsfAAAgMBSA4I0CUEKuk4FyQ46Jz4frpdcVcmpNiPassmOVkOuFILMK2l1v+2/0nuK/QJaiE2/b7yo3zp3RLcIxvYUdb6cvVNyT2WD6noRsMJyWa8+q2R2q3jQ4LdcsrEIsi6wJUgzTY5diSsb87vZ+ZqmeS+ym0St0ZmG1/YR95pyO2fvVFYgAAAACQwEI3igAJSCzbvQLgo7cpRE+pjW3fbri0HbdMgxy9LMeq4TMDCoU2ZdD9y+R7+yrciQ/J/p7yo1in7yUj8mN7HjlhDkRt9RQjhhPy7WsU4oass+Nvp67+XFSFzYYdhSOfY+Ur2muWYmyQXaG7Iuk71d1UuHBrTZfYscinVlYcf+dM1xLxHyX/AEAANQACkDwRgEogeMH7AuCDtlQNh+yMazu0xWhznaRvX70WCXi9gPxIcuaXC9rstRp+0KdXbfFzcjKxJHdukU4ZCNmPd7M71chT21q9lHbj8zOeeV39rpPkfHUUduPxPoJOjNMS/vZscu+WxmTG9r7mUKdy+E3bb7E1jk6s7Di/jtnOJf81c/eBwAACAwFIHijAJSAbDSsXxB0SGEiH+Mes326QjZSDZG8UOmxyqlghbZunH2ORL4zsMpN3IlLmSj2xrv5GPOoHa8cp57R5P32/vKXs/eTavxeRz+Domjk3+31Pnfr1tWTIpvuR0Jmy5WCVSPt2CUyywfHPGLv9fp25T5yxRXSN03XmYUl+xLpZ8p/54zed9n7o/+dvQ8AABAYCkDwRgEogbi9K3Ijd28MH7LHiO7TFaG+PL7m2MNI9lgphp7fss+SkKIHKmyYZL+f3CjU3kzFMOohO94+P8zel1PM9P3FvbP3kzh31vYhITPZxv7XXu/5Td1D9WKPrF+mM8O0caodu4QUcsSwP9t7/X9WuY9csTOiJurMwpFZg/p5EqtGZHP6/dTeH/7X7H0AAIDAUACCNwpACbz5un1B0JE5ptqX62XKFfJiHyLXEraqloPkY+tc+yyJUjleuybIPjP6+8mNHYt1i3C4fhf6/zx7v7o9XZI4dcz2ISHLs9IubYqza7ntR2LfRp0ZJllWqccucXBbxf2B99l7snwuztnTNl9izas6s3BOH7fPk5CZhBmDfmnvD/5N9j4AAEBgKADBGwWgBKpbTiNR1ek3SQz+te3TFbIsI0RyHLseq5ymVCxdv2Kf53tUdzla1Nt+P7nhc2x6TRnygB2vvKRnVHeqUxJymp7uQ2LzjOpPv0pqy2zbj4TshVMK3lpjxy4hx7mL3t+z96o7La2mN8U+ftA+T2LTtGzOsD/Z+wPuyd4HAAAIDAUgeKMAlMCmafYFQUe++93IC4fu0xVyElaIZJNcPVYpahWL6+Xz1X/qrLpLjjPX309uFHPZTb6cM0t+n73f/kZ7f+az2ftJxO3rJcXeuZ3t9TbX6R6qJ7OJdD8SshSqFFT1HYlud9h7E57M7cFq8gHbZtlAnVU4cRtPS3Euw7X8tpjFawAAgDxRAII3CkAJyBHT+gVBh/xlOx8v/cD26YqFPXXLMMgmzHqsr/5LZxWOLAnSz5O/5KPC1Kb2+8mNUGeSiX4/seMd8WD2fudb7P1pzbL3k4jdn2e5e/ZU8//RPVRv5TDbj/w7ISeZlYKTh+34JTLLUDt+zt6b3rJyH1oh9m9KI/bo+ZwlkOMet/df+N/sfQAAgMBQAII3CkAJrHjFviC4Ip8jz+M2NtYhMztC5DqefXIjnVU4skeHfl7uMqFSsXlmFA28t6KgtWa0vuuvulPlijnrIl/O2V05xcRut9v7sgdVGrIJtu5D4q21UfT6YHtdTgxLa0kf20/TD+uscMkGyg0vsp9BCluizcfsPZk9VZVC7N+Uxt519nkSmWVswrXnU9fbsvcBAAACQwEI3igAJeB6kXPFiUO6ZXKul1pXTG+hW4ZBlsjosabdlyUNOaVHP09mjpSSnUujqNF7suOXl+2NU3SWH5kxo7+f3Fj0om4RDjlxS49XCloZMjvD3H88ez+JnUtsHxIHtlQU4vR1ibOndC9Vm/u87UOKJqWk2UfsZ1j8UsU9Wfaq78m/lVWRzfJ1mzmddFbhxG3gn7sRt8xa0vdldhMAAECgKADBGwWgBOZ3sy8IrjiyW7dMrvMXbX+uSDvToaa49vZY2k9nFc7oh+3zZBlaKRlf336GoX/QWX5cJxvlRnUzNWpTtzvseCfm/Nz3vsveH/3v7P0kts6xfUjInjGxx58f1L1UrVCbSdemuILNubPu2UG5x6u7tL/BtpnVVmcVTtxJZoe2Z3Nc+2W1/WT2PgAAQGAoAMEbBaAEXmtnXxBcIbMHfD33GdufK8Y8qlvWvrgjtWXvpGKRzWb187rfqbPCJkdm68/Q6zs6y091e0rNbKNbhMO1nHDqM9n7fX9s7+fuEZTEpmm2Dwkp8sSd+iebIqcx6WnbR6ktLer4efsZpjWvmO2or0tUN4Ot0822jfRXLHLanX6exNG3sjkLetj7ra7K3gcAAAgMBSB4owCUgGwwq18QXCHHJvtyLaFyRdoX3ZpwaIcdp8TWuTqzcFybHMssqlIie//ozyDFj0Lo/lXbd25MaaxbhKPDZ+14ZTZNhut7yz0lLIm1Y20fEmdORNGbK+x1ib3rdS9VG/OI7aNQBb6a4vo5mvBExQwafV1i23zdQ2VdvmzbFHOvsA2T7fMkZIPrjCV97f18T3UEAAAoIgpA8EYBKIGJT9kXBFfIni6+Wlxm+3PFkAd0y9oX98IsG+oWyyzHrKznPq2zwuaapdP2EzrLj2vmRm6Mr6dbhKPd9Xa8s9tn78vvgL6fdgPwlcNtH7KkSU7oij0hbJnupWrD/2L76PdTnRU2OQ5df4ZRD0XRntX2uoRcr0qPr9k2UlAqlrgTHHM37Hdt8p/vqY4AAABFRAEI3igAJeD6S74r8pnx8swHbX/yEqKvyWlRodk8w45TIneZRaHN62qf1/oanRW2F75hP0OhTomqbkbZq//ULcLR+lo7XvnvnTHsz/Z+2t8LOQVN9yH7WAnZB0jfk9gyu3If1Xn5ftuHnF5XSlyfYchvK2b66OsSMhuwKjIDSrcZ+x+dVThyYpl+nhT6ciUpEgEAAASEAhC8UQBKoLoTlTKxaZpumYzMOnBtqNryCntNNsANjWz8qscpn+fsaZ1ZOHISkX6mnFhUSrrcaj+DfG/nzujM9KSQpPvODSmihMo1Gy731DKZgaLv9/lh9n4Si3rbPpr/T8U9WR6k70nIcqI0+txt+xj5d50VtrhZTHFLq6o7CdE1623UP3RW4SwbYJ8nxfZchdr0GwAAoIZQAII3CkAJuJacuEL2FfEh+47oviRce6HIEorQLOxlx9n8Up1VWK8Psc+UI9VLSfsb7WeQOLpXZ6YTd0JTbgz6lW4VDtdsuKX9s/dlI3R9P+3eOvO62D5k5pGQ70/fk1g9qnIf1XEeV19i/9a6vuue34ov+sp3V5X+P7PtpMhULFUV+jJiT4TbVTkPAAAgEBSA4I0CUAID7rEvB66Q5QY+5C/Nui8J1xKhzrfo1rVv5rN2nMXej2fNaPtMibOndGa42nzMjl9i30admU7cz1NuhLwXTaNL7Hhln5YM5wlwX83eT8J1sl/uz6wsB9P3ZdlYGq7TzKY00Vlhkw2a9WeQmWtL+tjrSZYvxi0pKxbnUtH/K/RlyN5OOkdi/+bKeQAAAIGgAARvFIAScG2E6gpZbuAjbs8R2ddEXyt2YcWHbOKqx9ntDp1VWHHLNqpbghISmSWlxy+xY5HOTOfgNtunjhe/q1uFQZa/6bFK5M6+kRPM9H0pSqQxvYXto9MXsvdbXG7vL+yZvZ+E/K7qPmTz8lISt9n63M72uhQ0qyPFHt1OikLF8tpz9nntPlU5Rzar1zkSu1dWzgMAAAgEBSB4owCUgGsmjitkKZSPA2/YviRc+2+EuNGxa48k2f+kmGTDbf1MiVJatiFL1vT4JTZO0ZnpyIur7lNH2hkzNeXUMTtWifUTsjnTW9r7cupZGpMb2j663pa9L6ex6fuzO2TvJ9HqKtvH/O46K2wLetjPIHuTuQpoHT+nW1uuf9NkWVixzGhln6fHeXCrzZHItxALAABQJBSA4I0CUAKuzXpdIX8V9/HWGtuXxPj69lqSZRY1bcAv7DiLuaxD7FpunykhR3iXAjlhSI89E75LCTPi9jTJDVmeFKLjB+xYJTZNz+ZUt3wrifH1bB9S6M2QgpK+L0WPNJzLyDxnCdaW5S/bz9D4fTHL8O7UrS3Z8Fm3k42hiyXJbDE5rVDnSLwxq3IeAABAICgAwRsFoAQ63GRfDlwhe+H42LnU9pXpT1+To+Hl1LCQyKawepxjHtFZhbV3vX2mRKks26hqnx7fmWQZMltG96mj/Q26VRjilkNKUSvDtYFzkuVHuV79l+0j94S9brfb+xMbZO9XJ8lStlIQd0S6nCKnr/X+nm5tuTaVTruBdxqu5al6I/2TR2yOxIZJlfMAAAACQQEI3igAJfDsx+3LgSumNtUtk4mbsSFHX+trEqeP6x5qV6eb7Rh9v4ukDu2wz5TYvkBnhuntnXbsmch3nxjZMFn3qSNtwaSmxC7HWZzNcZ06J3v2pDH8r7aPfj/J3peihL6fpqgpe1Hp9hL5Lu+raZtn2s8g4doXbeB9urWVpCBTSEkKTuVSrAMAAHUGBSB4owCUQIvL7MuBKyY+pVsms2ma7Uti1Uh7TeLYPt1D7ZJ9ifQY5z6vswrr2H77TInNM3RmmOJmMElMSjHTxCWucJgbsgF1iOK+l9yZXUv72ftNP5S9n0R1mxFLMUjfl6JRUnEFym3zdWbY4mYnyj46+prMCqqO61Sx3L2XCm3kQ/Z5fX6osyqWtem85YN0VjryMysR2oxNAABQ8igAwRsFoASavN++HLhC/trsY+1Y25eE7EGhr0nIKU8hafxeO8a0R2anJbOg9DMl1o3TmWGK28NI4tV/6ux0XCcf6ZD/ZiGK28BaCkMZrw+x92VD7TRktoru45XfZe8P+pW9P/g32fvVKZeTpfZtsJ9BQvYi09eS/Ps3rbltJzMIi2XoH+3zBtyjs9wn8i3urbOSkX+b5JS9TD+yNO7MCZ0FAADgjQIQvFEAqsa5s/bFIC5G/l23TmblcNtXw4viX4bl5TIUJw/b8UnkntpUDPJXddkPST833w2Ua0rcsj+JNIUGlylNbJ+ukKUvoZGlXnqcErI0LEOW5uj7Fz7P2WxOdfr+2LYf8bfs/XxPq5ITpHR7iQNbdGbYjuy2nyEu5GS16sxqa9sVcz+qwb+2z5NrWutrbZ7sNeXDtUl52hPkAAAAqkABCN4oAFUjboNQ16ygV36vWycjJwPpvuQEoQNv2OsSO5foHmpP3J4tNbEXzzMftM+V5UGlYMNkO/ZM9LlbZ6cz9r+2T1dI8S40cYUx2Rw6I26TazlCPqncGRqZGP1w9v7of9v70iYpWYqo20uEtnyzOnEz7VwhxZ3qzOlo27X9hM4qHJnto58ns4K05z5j83z34pKlhLqvfIu6AAAAOSgAwRsFoGoc2WP/x7yEbKKrr+XuIZKGa88W2Xco7tkhHU8ct0fIvo06s/BaXmmfu6CHzgpT3CwWiSTHaVfFNXvFFTK7IzRy3Lsep4QcD58mpzo9vm7bj6+fve97zHlG3OlZpbgUSJbX6c/hiiS/e/O723atrtZZhSP7/ejnyb5AWucv2rxpzXRWMq7iYu4G4wAAAHmiAARvFICqIUs29P+Yl+h8i73m+z/yZcNk3Veb66Lo1FF7XWL9RN1D7dk41Y5PQjZpLra2n7TPnd1eZ4Vp+ct27JnocJPOTsc1A8EVMsMsNElm9ySZJVSdLl+27WWD4gx5+df30+xVIxsI6/ah7rtUnaSb4CfZ90v21dHtirkhufM0N8deRVLc03m+m/p3udX2pU8eAwAAyAMFIHijAFSNPavt/5iXcP2VN80SkVyy1ED3JUsSzp+r2AtI31s1QvdQe1xHjsvePDL2Yuv4+f+fvfNwl6q+1v/vP7i5aTeJSexpppvEdFJuYqrp9aZ303vsKAgooDQRDooBKQoiiPQuKFVBwQLSFEQRBEQQAQHnl/eM4+x51/ruNvVw3s/zrCd5Zr/fPd8zzGxnr1nrXfa577iCVa2JN8q8FKhsqgZvRLcXOx7klc0nVBkV9StK4xOUhDfFamHv8nHPSLvfGeXjSXj/vkikdETwd/Pf4sXaqbzS4rW7opWzXmDEPD8fRtEzaRNFafBer6EfY5UQQgghRG6UABK5UQIogdDNpldlgbaSPHjVBmhJAK7PzZjK9c0EbR+8vytOZFV9wE0VP3e1I9QbxZJr7N5LkXWiFeNVM3gBo+JWw0soXvbflZqQOfpTD1fq4vBu0qPVY977OktiDqa/vL6eXjf1xKt29GLzIl5puf9Wuw4J43rhVePM68aqQmHU16wuagqehZ4n2HMNfC+rhBBCCCFyowSQyI0SQAmERrHDR4Ifw81GHpC04HO1fbx4zPW5ub5yfTO540q7v2pbmNIy/Gz73NP/warWBNUmvPdowHw8L7jZ5PN50UpeUiWQ3OR9coVIaDT59vsrdXH0Oc2uX95WPp5mH3F4Sd0sLWStxPWfsX+LF2nM6ddOsesQR59nZW1IqvQqcdP3rW7Cz1iVDCbReVWbV72FlUIIIYQQuVECSORGCaAE4LfDX+YRXtIm76+83tQmJDdAUqVCs5lxnt0f2i4aAaZl8XNP/j2rWpM5Xe3eo7H3MV6RHm+ktRet5CVVImSIHuXprVaDyFLRBN8ZXg9/mhJos+TjuLFP29qINiNeP+yTrOoYjPq6/Vu8QGIuiTQeT7Wk39vtc6G9j8EER9YhKZQVeJ/xeRD19DkSQgghRKdDCSCRGyWAEnhwsv0y334T4fj25G3xuP2P9lwjzykeu+b99tiCXpXrm8nEX9v95TXDzkqtfrVvBl7SLxpoc8qL1zboBd7brcayoXafSGhFwfQy1iAeXVypi6P7q+x6GHOXCCV+YcyeBu8zPeJLrOoYjP+R/Vu8SDNVrhYT3LLgJUPxHmOQOGYdEsxZ2b3JngdRbVunEEIIIUQEJYBEbpQASgCTbfjLPG4ePY+Q3qfw6nRM/JU915hvF4+1dbHH8k6nqQdjvmX3d+svWVUf3F/tv8eq1sS74YxG3vYstNLwuUKRZmpTo0F1G++TzZcP7rUaBCbSpQFVPLwWEU2IhVo/9+8oa+LoyO9NJum9Woo0VTy1mOCWhV5vsM91T6TSqwRaR1l3w+dYlQza4Pg8pThykNVCCCGEELlQAkjkRgmgBELTfFaNso/3eC2vTof3CzseA+50mr9Vrm8m1/+v3R+qWxqB58N041dY1Zrc8lO792ikmajkEWpB8QLv7VZjYR+7T26tfP45q0E8PKNSFyK4fmZZE7qR3/NIWRPH2O/atbf+glUdA6/NkyNthQva9HgtAm199cCrhsMkMma209Lb1oVVySAJyecpxYFdrBZCCCGEyIUSQCI3SgAl4E1rgqFnmmlFaUG1D58LVUEA7VR8bNK5leubiWc43KhR7F4b1fDPsqo18RIE0cg76W3Po/ZcocB7u9WYf7nd57UfqtSkqeCJA+1GvBaB9qQSO9fZ44i0rXkjvmjXTvkTqzoG83vYv4WDfZpCwKib1yLS+AflwTNkfmAiq2pn2v3AJHueUtQrySWEEEKITocSQCI3SgAl4FYkvKdYocGPI44e5jMkM/LL9jzwEAHjfmiPjf9xxfKm4k0pi05TqidzutrnHvpRVrUm3r95NJYO5hXpCN1gY9Q2P7aoL69uPmkrMbq9wurWjGeVz74n7FrElqVlDUy4+TjisRVlTRzDPmHXzrqIVR0Db6Q9x9Vv41U+Tz1s1yLSJtaycOSQfR7Eumms9D3d+r+DVcl4Jual2PEQq4UQQgghcqEEkMiNEkAJzL3MfpHHuPcNc+3jiIPP8BmSQdUKn6fURjXpN/YYfHdagRdeKFY98f7W3MLK+uCNoMfY547AdZ+2e48GKhLyACNkPhcC/lT82LxuvLr5zPiX3adX1YV2S9ahLTMNuzfbtYjH7y1rQq100SqhOFrdvD0LcUmNUgz+IK/yQQsdr0VEX/tagWsxPw9i4zxWpjMfT8OdTiKpFFmm1AkhhBBCxKAEkMiNEkAJeP4X8L159C77OCKtSWyUto/b82DMPJj6F3vs31+oXN8snnva7g2B5Fgj8CoT8k5iazRoa+K9RyOvjxJ8cPhcCO/5Zp7Pq5vPlD/bfXrTs7zKsxXXs8oHlRi8FrFzbVkDw14+jlg3vayJA22ivBbv146I1+7Kcf1neJXPM4/btYity1hZPc/utM+D8AzWV46wup4nsCqZOV3teUqxeSGrhRBCCCFyoQSQyI0SQAl445zRvrNtpX0c8fQWPkMy8Jrg85SqBdA2wseGfbJyfbMIjTyGgW4jwA0/P/eVJ7GqNRnwLrv3aEz8Na9IB9qg+Fww6EUShR9vRU+a235r9wkfLMZLsKRtm0O1Ca9FsMGzV92GZEga3OlT/2ZVx2D9LPu3cIz6Oq/yefYpuxbhJWWqJdjGdzcrC4XV46wObYZZwWeKz1OKtMlDIYQQQogElAASuVECKAGMNOcv8mO/UyjseNA+joB5bFb6v9OeB60EwDNgHXxW5fpmEZrowzfS9QJGyfzcmPrTEej7Jrv3aOA9loe7h9tzXXFivNF4K+GOT/8+q+I/M0nA64fXIuANFKXn66xm5chKTQgk3XhtWo+iViPUVhiN0tTCJA7ts2sR9agahLE0Pw8CPlnMQ7dbHeLYEVbGM/7H9hylaFRrrBBCCCGOe5QAErlRAiiBm//PfpG/5Sfh6pcn7uMzJOMlA5YNKR7zzEn7vb1yfbNYP9vuDXFwLyvrgzdxB1N/4E3U6qC9hPcejRs+xyvSEXq/eDemMBhvNcb9wO4TnzfG89hJO30OPj68FoHpYFHgAcOa0ucyjtCY+Y5aARIyFo/G5N/zKp8sxszVAmNpfh4EjKiZDXOsDoGEVRZu/Ko9RynQZiaEEEIIUQOUABK5UQIoAbQ28Bd5tKnU0ssCI5T5PKV2keXD7LHep1Ysbxpe2wQqHxqVgHl4pn1+BG7AWx2vvSgaaU11Gc+0HP4/k861j4/+Jq9uPm6lktMOh2lvrJt7Kat8Qj5J/L7x2vQWXVWp8Qi1OW1exMqOwZ5H7d/CkdZPCtcGbzT7g7exsnqytOmiBY11iKyebt70txfjhSXXsFoIIYQQIhdKAIncKAGUwA2fN1/kC9P+VqwW4McRaacERen+anue+24qHsNkIz7W4zWV65uFNzkH06YaBW6o+fkRB3axsrUIGQxHAx43eZj2d3uu4WcXClP/ah9vFTPxKDd+xe7z9j+wyp+iNvMCVvkg2cBr2yvHjlXqPOPsNJPTQgkTJCQ6Ivg88d/CgVbVtHR7pV2PZHKtCbWu7X+SldmSRTHs6vE2e44XY86Qv7FcCCGEECIXSgCJ3CgBlEBbF/NFvjD74nCbB6oLshD6RRztTeCBifbYpS9rXJVNHBhVznsb9D5W1Q+YufLzI2D+2sqEkofRyJvkQ7UMn2vMtwqFWRfax1vFTDyKm3D9O6uKySujS3mDvfpmu7b7q1hVnPbHOkwFTCJL61FH4Ohh+7dwZJlw5nkrrbqRVdWzaYF9HgSmFzJBT7e1rAyycsuewu5Lwq2d1174g8K9W53nFkIIIYTIiBJAIjdKACXgTujqmZy4SUtSIqmV25ym/8PuK+046FrQUW+0926ze/bi6PO8MpmbvmfPM+FnhcL8y+3jedvM6sl1n7L7RPKK8bxWJjuVQh7eyO9er2dVoTDyHKvzqpEYtIHyOgTaRjsqSJDx3xONezL422BSH6+HeXmtSdvqB/Y8YnUITIxLSfepDxWOdg23do66+FuFntMe4mVCCCGEEJlRAkjkRgmgBGCgy1/mYbQL3NatsZXrkwhVg2xaUDwe8qaAz0iz8SY25Z1elYfdm+3zI/IYcTcSJKh4z148u5NXJjPii/Y8GE1959X2cUzSajWGfMTuE75GDN5nrMPEvjQsb7Nr+5zGKj+ZdusvWGXZOM+uQzTKHL0eoLWT/55o3D+BV4Tp+2a7fum1rKqetK1+YN92q0VsWcLKIP8cc5ddH4lbLj6n8Jdx6RNKQgghhBAhlAASuVECKAEYLvOXedxAgjjz5rRg9DSfA4FR1SA0aj2jN0Vd8AyyJ/2GVfWjBjdtTQEJKt6zFxhjnZW2j9vzoGUR06v4cUyfazXSTvfC2HHWpR1Ffld/u9abrOclOL2R9MyDk+06xLGjrOw4eIbY0Vg/i1eE6f8Ou76UVK8lnkk9/Ic8kJxjLWLjfFYGabt9oV0fiemXfLZw1ewWr04UQgghRIdACSCRGyWAEujxWvNF/iW/ilr8kh2qYim1Hux4yB5D4PFm4028SWvEWwsOPmOfH4EKjFYmZE7LAY+jrAx8jz3Pwj7p256aDaqSeJ93OskBVPuwbux3WeVzx5V2reddhZYy1sGkOol7x9h1l/8PqzoWXmVWNLIkXQedadcv7M2q6lk50j5PzxNYVSQ0nn7tVFYG2fLgcrs+Egsu/nhh4879vEwIIYQQIjNKAIncKAGUAAyX+ct8qd3BvVm9unJ9EqEET8l8tJUnCnlVAUg2NAp45PDzI9ZOYWVrsWGO3bMXG+byymTQysTnwbS2NePt491ewaubD6af8T6XDmZVoTD591Y36mus8kFLGa9FgoOZ8S+rS+Nx5bWYoZKwI+OZc0dj+/28Iow7Xa07q6pn+TD7PHH/Dpc5/j1ZWttC7bovxhP9PsErhBBCCCFyoQSQyI0SQDGExnWvm1Y8PvgsewwG0Vl4fJU9BwKJHwAfGD6GwM1Gs+n1Bruvepi5xnHZy+0ekOxoZR663e7Ziyw3nyU8XypUpISeM4/RdD258mS7xxXXs6q6sfaoUuO1GCvPuImiD7PK0lH8lrIw5tv2b4pG6XqVBq9ycPYlrKqeJYPs81z9VlaVcas9R7EqDBLPvD4aQz/GK4QQQgghcqEEkMiNEkAxJBk0t3Wxx7LeyKB1gs+BgL8NOHzAHkNk8dyoB/AzcaegTWRlfUFLB+8B7U6tzH032T17kTWZFhrXjeQPqon4cQTa6FqJtCPCZ55vdRjbnoapf7FrveTRor5WN+DdrLLM62bXoeqlI4NJcvw3RePAbl4RZvhn7XpUW9Ua798PLZIhPKNrVBGl5d7Rdn000PomhBBCCFEDlAASuVECKAaMbeYv8QiMeQY3fM4ew2j0LMBklM+BKE0MqtW4+VqDKWS8J8SmO1hZX/qcbvcAw+NWBokd3rMXi67ilfEc2GXPgdi8MOw7tP9JPktzgUkv7xFmvszcS61u6EdZ5XPbb+1aGJoz8PNiXRrj7On/tOuQ9OjIYJIc/03RyFJJNuJLdv2UP7OqeuZfbp8nLhHX7wyrXzyAVWGWXGPXRwPtjUIIIYQQNUAJIJEbJYBiwBQm/hKP2L6meByGsHwMxrFZWDfdngOB9rMSMJDl4/i1uZk8td7uCfHEalbWl1r4MDUarzXFi6zVZHsesedAoM0QpuL8OAJrWoVQshPjvJkFvazumg+wyserZvGme3nG2SET4Si3/c6uS+tP1Kpgkhz/TaVA22EWRn/DngOvWa3B54efp60Lq8rACJz13gS6EF7CKRpomRVCCCGEqAFKAIncKAEUAxI9/CUeURrPjalDfOzWX1SeIwm0TPE5cBMcxWtNWHFdpabRoAqK94R4eisr68vgD9o94EaslfGmUHlxe8ZkIpJvfA4E3q8719nHETse5LM0j6Dn1nRW+j47MCVPw83/Z9fe8lNWFQprbrE6eE4lMf7Hdt24H7CqYxH3no0zVva46Xv2HFmvm2lwK7HOZlUZVJCxfk5XVoVB9Sevj0aa944QQgghRAqUABK5UQIohlCSA61h4Jaf2GNZb/TuG2vPwSOj+73dau7qX6lpNA/PsHtCHH6WlfVl2CftHmZdyKrWYo5TmeDF+B/xynhCU4jQ5vX0Fvs4Yts9fJbmAT8i3h9i4zxW+u02aVts3AqU37KqaPbOOgRGhsfhnX/SuazqWHjtcKVIm3gr4SbIfsiq6rn9j/Z5Rn6ZVWWq9Sa69Zd2PUe0slMIIYQQIidKAIncKAEUw6YF9gs8AubQADd1fGz0N6NnSObuG+w5rjixUoPWFtZknTZWazBZivfU/VWsqj8w7+V9wOS3lUmqFCjFyHN4ZTyhdsLnn2vtaXIlsuwRk8FYhwliaUj7noGfFesQpc9/CM8bbNrfWdWxgBE3/02lSOu9VGLir+w5xn6HVdUz6Tf2ecZ8i1Vl8HljfZYqPJyb13NkMcsWQgghhAigBJDIjRJAMQQrAF78FRfGpXxsxBcrz5GE98t63zdXaryxybMuqtQ0Gq8CI41Bbq1Bwo33gRu/VsbziPGirQuvjGf1zfYc3V5RPIbKLD6GWD+78hzNZO82uz/E1uWs9BMSmCCWBkwL47WYKsbgeVmHwD7jqLaVqBWBDxP/TaXwJqjFMfn39hz18EjyKjTR/hcCSSjWo6onLV4FEUejW2SFEEIIcVyiBJDIjRJAMdw/wX6Bv+y/y8erGUVdIo2XiVux8NdKTaOZ193uafBZrKo/aB3hfWRtnWo03o2pF/w+SAK+UHyOK08qHnvhWMBgeXLlOZrJ7s12f4gn7mNlcTIY6zBBLA1eggZTxZgnH7A6xFMPs7ISjIrnNRhJ3pFBGx7/TaXIWr2DaxefI2sSKQ2e19CEn7OqjPe5zNLS61Vqcuxcy6uEEEIIITKjBJDIjRJAMXhVBj1eWz4+9zJ7fMhHysfTgFYuPgcnUlqxygUtM7ynGz7Pqvoz8dd2H3FtHq2AV2ngRSl5kxYvmdj/HeXjmNbEx++7qXy82eDmmPeH8G6avYoUJLiQ6Eoi7bSnUEIKE9Xi6HO6XbNsCKs6FqFqKERcUsXDTZx/hlXVM+rr9nnipo25Lb3fYFUYVEDyeo5W8twSQgghRIdFCSCRGyWAYljeZr/ARyfeLOxtjw86s3w8DWlGFaOihTXNrnLxfi33RmnXm1q04TWaEV+ye0b7Ej+GajOMRk8Lqlj4HNGE5BVvtMfhQdUqhKaYIRHDhEzI4XeURFpTdZhnsw7x6F2srKTHa+yaVaNY1bHY8ZD9m0qBz2AWPBP0to+zqnrcyknH66lEtZVJMO/n9RybF/EqIYQQQojMKAEkcqMEUAx39bNf4HHzWGLxAHv86reVj6fBMwTmUcXuL9MZzaZrjWeYCm+PRjPzAruP6z7Nqtbiuk/ZPXtVKYhD+3h1GO8GNlqVhSlZfBxeTq1CqMrE89zZON/qEAf3stLiVugMZdV/Xvv9VofYMIeVZUKtdg9MYmXHYu9j9m8qBZLYWZjfw55j8AdZVT1pvZ5KYHog6/FZTQN84XitFzBqF0IIIYSoEiWARG6UAIrBa8+Cz0OJ5cPs8d6nlI+nAVNm+Bw8/cm7sc/yy3Q9GPoxu6fZF7Oq/nheRNd+iFWtBfbHe/YSaogsprHeGOox3y4fH/gee3xhn/LxZhMaY4/pYAyqcFiH2L+DlZZeb7Dr7hnBqkLh2FE/mRPnmxRKGrWS2XYekFjjv6kUqITMAt5zfI6B72VV9aT1eipRzbVk33a71os1t/BKIYQQHRlUHj+95T//nXyGjwhRV5QAErlRAigGJDT4C3xbl/JxzyMo7SSiEt5NO5uqJu2jGfQ7w+7pzn6sqj+LrrL7gAlvK9P/nXbP3shqxPb7eXWYsd+166P+LEM+bI/P61Y+3mxCRsPel6rH7rY6BCpVksjiheS19dw3llVl9j1h9YgtS1jZsQglwxBZ/Y28yklcT2qNZ8q8oBerylRzLdm5zq71YqWTaBRCCNFxQWKfr/XRbgEh6oQSQCI3SgDFMO1v9qIebanxLvqXvbx8PA3uFKsfV2qSKpGagedZ41VR1Jul19p99H0zq1oLrwXJMxRHoComLUmeJ1lbYhoN2mN4fwi01zDb11gdYtdGVlYSatGCqbQHjLhZu+J6VpXZtcHqEdhvR8fzNkLcO5qV8aDdjs+Bz0St8RKtcUnqpYOtHm2Tadi6zK71As8hhBDi+AHfffla3+v1rBKi5igBJHKjBFAMt/3WXtQxWabE2in2OOLo82VNEphYxesx2SoKDGpZU49fzNNy9LDdDyKuNaZeuP/hfQOrWgsveeaNcEfgPZYWr+UFhrslRn7ZHp/yp/LxZhOc7OUYYWMUO2sRGN0eB0q1eQ0CptIe8PRiLSpYQmBkPesRuzexsuMRmnKV9XMP43E+xxUnsqp6kAjm50HCOIS7rzeyymf9LLvWi1ZquRRCCFE98FLka33aHw+EqAIlgERulACKwZt0dfP/lY/DDJaPI7IY96a5KfeSA1m9hmpJaDpSlmqVWrF6nN1Ht1eyqrXAdC/e8/0T/HajLNUVA95l1y/qWz4OPyA+PvFX5ePNJsu/5Z5HrRbx+CpWVvLc03YNYtMCVha55v1WG9dGFPIxSuNN1OpgwiH/XQgYcmcB72k+B6qLao1XvRU39Q6tfaxHu2AavPeuF3O68kohhBAdmTuutNf6rBOBhciBEkAiN0oAxQAvHr6ow7OnROhmzzOtDTH8s3b9DPr3uHeM1SBZ0Cx2rrX7QSRVX9SDh263+0AcO8LK1iBUgYL2J69iIcuULiQFeT2MykugtZCPj/tB+XizyeKpFfTaWcrKSkJmvSGPnrYuVhtndv7wTKtHHD7Ayo5HWxf7dyHgx5SFWrTOpsFrWYtLqAYr0I6x0rK8za71AlMfhRBCHD9gEiZf69s+ziohao4SQCI3SgDF4FXn3P7H8vFt99jjiCyTm7xpWnO6VmowQpo1aW9M6sGji+1+EM88zsr6s2Gu3QciSxVWIzmw2+4VsXmhb1qLkdlp6f4quz5qbjzpXHt89DfKx5sNvHV4f1eezKoica9jHFkrh1xfpb+yqgwquVh/6cv8NraOxogv2b8NAQPkLKBljM+BqPX1LFRpF6Ka5B0mofE6L9BWLIQQ4vihFSf1ik6BEkAiN0oAxeCZ5s44r3wcFS98HAF/krR4N/3cYhLyl0hzY1IP1k61e0GguqXRBMeBP8nK1gBTqniviMdW+NVgaSsGYJTMaxH4tyrR6l9Sspjw4r3PWgQ+K3GEqtd2PMTKIqO/abVIpIXAlCfW9zyBVR2Tm75v/zZE1sQv/Jb4HIhaXj/gw8bnR8R5am1eZPWIA7tYaZl5gV3nxfgf8UohhBAdGfh28rUe/p5C1BklgERulACKwRubjWlNJTBxiI8jnlhd1iTR/x12/V00qaYWrWa1xGvVaVZLGio3eC+IPY+wsjUIjYtGMtE1BE/p0YP3Aq9F4Ka2xKyL7PFhnywfbzaY0MT7wyQnD7T4sRaBlsA4gibNm1lZBDfsrI27ifeSWK0+lS4teC/y34bIWm0HzyA+B+LgXlbm5/Cz9vyI9bNZWQZJWNYj9m5jpcUbGOAFEopCCCGOH+ANytd6eIgKUWeUABK5UQIohoHvsRf16BQX/PLNxxFbl5c1SXiTdZYNqdRsW2k1CLSzNANMQeK9hCo16k2wouNBVrYGj99r99r+b/lI0V+KH4dxcxowZYrXIpDwKIF2Mj4++IPl483mjivs/mDCHCJriw8IjesOVbG4bXMxN/HHsxnktL/Zv629vS1j61YjEtqo2uHzI6IJUWb7/VaPeGo9Ky3eDYAXN3yeVwohhOjI3PhVe62f/HtWCVFzlAASuVECKAYkNfiiHjXlzetDEgUjy3k9RptHabUkx5yudi+olmoGT2+xe0HAn6kViWtZm/Z3+/jws/kMPsHKlsj48TuvtsdDFTbNANV1vL8hH2FVGXdq2hhWVYLPJq9B4LPskbVt7ng2g5x7qf3bQibdcVRTaZOWPMn5UEXn9jWstHheUV4cL+8FIYQQRa7/jL3W8zAXIeqAEkAiN0oAxXDFG+1FPTpGODTRCWaiaUky7gWtluSAETbvZcQXWdUYQq1PzRhJn4YNc+xeEYf2FwrzL7ePDz6Lz+AT8i+JVlWgsoyP9zm9fLzZzLrQ7u+6T7GqzBUnWn3cmG+Q1egXE79Y29aFVWWyJow6Eouusn9bnso/tMjyeRChNrw84Fx8fkS0Io7JkzQq4bULozqKHzteqsGEEEIUufZD9lo/rxurhKg5SgCJ3CgBFENScgatD5jGxRqME05D2vXPPmU1iLh2hnqC0eG8l3E/ZFVjCHp9JJgBNwtvAhLeA8eOFgpLBtljaf1jQsbcMIcu0eoGxV4FVFzLTJr2ScZ7/RGhNiYYsrM2ri3N88lJ28bX6qybbv82lL5nBYbbfB4EKh1rRZ7nqKais98Zdl2f0+xjeRJmQgghWhdUUvO1HhXXQtQZJYBEar71rW8V/t//+38VoQSQA27I+YKOwA1klKQkURzBCqIZKXUZKo1qCap9eC+oCmoGaZNorcJ9Y+1eu7+6eGzVKHssrbk23nO8Fu/NKGvGW023V1Rqmsntf7D7u/ErrCrT7+1Wf1d/VlWyepxd0+2VrCrj+V1d/TZWlfG8YG75Kas6JrgmRr0OkDzMU4UY9KvKYJ6fRJzXVojgdZauxx54LXgd2r34MbT8CiGEOH7ofaq91i9vY5UQNUcJIJEbVQAFQEsOX9ARPEUmjYdPiOf22LWITXdU6l54wW8neGBipa5ReOWu8AdpFkig8H6QaGlFVlxv93rlScVjmGDFxxBHDlWew2P5MLuu9ymVGozAZg0CI7NbAXeUakz1DNppWL+wN6sqWTnSromrgor79/IYeY7VT/4DqzouSLjiGohE2r7tfDQdex+zrxEC3kC1IqvZN2i/zjrJ5AcmsbISJMa8dTd9zz522ct5tRBCiI6M60c4mlVC1BwlgERulAAKsH+HvaAj2FsmTxtKiaDnxDJWFgo9XmN1qBhpBp45NiolmoXrBTOcVa3B4oF2r6WKktB0JLwXk1jU164b8K5KzcZ5VoM4+EylrllgbCrvDe2GIbxE5LzurKrETZSdyqoycRVbHtd92upnns+qzk3o2gqD9FqR1ey7hPtFPsFYPNQ65rU0ItIkdIUQQrQ+oR8AWrUKXRxXKAEkcqMEUACMWOcLOgIj2aO4vb/9KjUhshiVtlKJqXeT1KxkFPASUvDTaUW8UeeD3lc8hmlDfAzx1MOV5/CY40yfGvrRSs2ji60GkbeSo9bc9H27twk/Z1WZYZ+0+lkXsaoSr6UL/i0hPM+gkmeTx+APWj3MvUWZg3vta4TYOJ+V+YEHGJ8fETL7LpEnmRxqacN/B/gxRFISSgghRMfg0D57jUdsmMtKIWqOEkAiN0oABQiZiOLxKNd8wGoW9KzUhMAYd16L2LmOlQG/k5SJploS8smACXGzGPheu5+kVqBmETcmPDTtLU1rzNS/2HU8fSrki1LL6UvVMPobdm+3/ZZVZW74nNVP/werKsH7gtfETWaKm9rm0Sqf01YmdA2ppadZqJ3y2BFWVuImk69hVSWPr7JrEJ7fFAItcEIIITo++56w13jEliWsFKLmKAEkcqMEUABU+vAFHYHKoCie0SeqMdIQunHg5wAYB866+T1YVX9CbWuoLmkWQz5i99NMT6I4vLaQ0qQrtGLxMQSSEEmgUobXjf1upQaJRdYgkIhsBUZ8ye5typ9ZVcbz20kyI8doVl6DEd4h0JbEesT+J1lZBP5ArIWPkCgTMthH0qZWrLnFnj+N/87A99h1C/uwqhJULvEaRKilM24SmRBCiI7Drg32Go9ARbcQdUYJIJEbJYAChL68sx/L8LOtZvo/KzUhQi053s2l2+5yIavqz5MP2H0gmnlTc/1n7H5mtOh7GhUtvNdRXy8egwntZf9tj+NmNgmYJfO6W39ZqXl6q9Ug8kxyqgfDP2v3FvfvOOZbVj/pN6yqBJ8ZXnPdp1hVJmvVVDVTATsTSMbw65TmfZ4Wb6Jej9eyyuL6SnVjVSUwieY1aBMMtYa1yudNCCFEdQS/I2xipRA1RwkgkRslgAJg0g1f0BHc+uFWIaSc+hP65RgeGQzaeViHtp9GE0yMOUmrRlHNv0GjSTI69jxI0lSQoIqI1039a6Xm2Z1Wg2Bj82bR1sXuDS1zIdyR6z9hVSV4TXgNt8pFgf8S6xFIhDJHD1sdAtPXRCWej1iS2XIW4NvD54+b3lbCNfG+gFWV3PNvu6bX6//zeXvKPo7YvIjPIIQQoiPSit+JRadBCSCRGyWAAnjmrwg2fx37HavhyosQ66bZtQhvSoxX7YCx2Y3Ge13wazdufpsFWp14T7f+glWtgVepE/139EzFMeEriTRtcIeftRoEDHNbAa/6Is5A2Wt7g5F0HLf9zq4Z9TVWldm7zeoRW5ezslB4bo/VITYtYKW44o32dUIipVYsHWzPD3+fJEZ80a5LSrR7Zs8wFg95Ha2bzmcQQgjREQkOHHiWlULUHCWARG6UAAqAtg2+oKO9gxn/Y6sb90NW+Tww0a699GWsKlLN89SSe0bYffR8Hasayy0/tXtCdUgr4t1gRn1uPE+p2ReXj4fo/w677s6rKzUvHGvtcaWumXeM/4rXTgcj6TjcpNH3WFUmS1IH5r6sQ6Qx8e5s9Dndvk7LhrIqP3jv8/kHvItVltHftOuS2grndLVrkJAFXkvn/ROiq4UQQnRUQt/j0dIvRJ1RAkjkRgmgAHffYC/q+NWawc0B61Ctkwa0PPBatEZ4TDrXapNuduuBd2OFyUfNJGtVRzNJ8nLy2tkmp2hnc82Hr2NVodD91VbXKh41qJrgvWFsewgkzlgPI+k4sraNoRqP9QhU7zFpJweKQuHqt9nXafFAVuVnQS97fkxsTAJJdV6H5HscU/5k1yDRC3qeYI+tHFG5XgghRMdk1Y32Gp/Gb06IGqAEkMiNEkABMPqXL+peC4H75T/hJrSE51MBDxiPaX+z2tL0qEaCahTex9CPsaqxxE3WajUGf9DuNdrm5N2Apqn06vYKu271zazyPYaQ7GwFslaFwCCa9TCSjsOt8DiXVZWkNSx+7G6rQ8B8W1TiTdtK0+qYljld7fnTXKcm/squQ9tmHF51ZqkCse+b7LGl11YsF0II0UFZNsRe43HdF6IBKAEkcqMEUAC0nvBFHTctzIzzrA5TqdKQxacCZrisRbtQo/GqbVC10kzc16YLq1oDt1WrX/k4zKv5+Mgvl497ZPEawfuLdUh2tgJZfWHmeP/uCZ+JpBY8Dxj68hqvimPTHVaHOLCblcJLhC7oyar85L0uewn9pM/fjV+1a3CdBF6iK66tUQghRMcBP1zwNd67VxCiDigBJHKjBFCAuZfZi/qQD7OqaLTLuqEfZZXPoqvs2pBPhdvS8H5W1R+Y7PI+4lpoGoH72qRo92gGfU6ze13eVj7uVVglJTUwbYLXILzpXq18Q5p1MtT8HlaPxEIcSALwGiQL4khbxYFpX6xDNNMgvVVBNQ6/TnO6sio/MG7m85fasuLIkzga9gm7ptTWif8W8DE2ZxdCCNExmdPVXuPT3gMIUSVKAIncKAEUwL0R+F9WFQp3XGl1g97HKp8sN7DwQmEtfDQajTtuPGFKTr25q7/dU7N9iUKgN5z3umpU+biXFMRksDh2bbBrEE+sZmUxick6JDtbgayGuXl+ecuTeBjwbrvGa1dCyx3rur2SVQLgWsqv1czzWZUfzyB81NdZZfES+iVD5xDe+2Nh7+Kx4WfbY9P/UbleCCFEx8S1IPgcq4SoC0oAidwoARTg9j/ai7rXCuAlZmBmmwav2gO/JnusuN5qrzyZVfVn8Fl2H/O6s6qxLB9m99T7VFY1H0yFwHQI3uv9t5Y13r9zyBeqxOOr7BrEnkdY6d94J1XANIJjR+y+EA/dzsoyMA1mfVJSFJVhvAYVZHGkTZrl+bfrrPz7C/a1gs9ZrZjwM3t+VC8mgcQNrxt0JqsqwXWY1+CaBJB04mNITgkhhOj4eANa0vzYIEQNUAJI5EYJoAC3/tJe1Md+h1XF9h3WpU0+4JdgXhv65eC+sVYbmhhWT7x2mGZ7yKCChvfUilMYQl49D88oa1DxwsdRGRM3UnTzQrsGcWAXK4tJTNbB96TZHD5g94VYP4uVZbzPHlrs4vA8mO6KeDB5uG1jzjXTrURLmQzubHi+OWmm3aXFnfb2U1ZZ8iQVXZPw8cVj435gjyVNFRNCCNExyDu4Q4gaoASQyI0SQAHcGwjH62blSKvD6N804IaH1974FVYVefA2q730vwqFF46xsr6gpYX3geRUM0EFDe8JlTatBhIyvE/E5kVlzYY59jji4DNlDYMqGdYjPO8ZJDFZh8lHzea5PXZfCBgrh4ARM+th2ByHl8DEFI848JnkNV6ywm3pPItVAtT7fehOe/sNqywrrrPr4iotD+2zekQpcYnn5GPYmxBCiI6PV+WZNFlUiBqhBJDIjRJAAbyLule6j196WYeR3Glwq4y+y6oi62dbLeLQflbWj8PP2udHRCtYmgGmXfGeEEcOsrK5YBw47xGB8eElHlthjyOe3lLWMDBKZn33V7OqCJKYrEWVQrPZt93uC7FlCSvL3HeT1Yf+7hJZJ40Bz/h8ws9ZVfSwYd11n2aVAN6vpl6CPS8jvmTPn6bS7d7Rdl2P17CqzN7HrB6xdXnx+NS/2mNofxNCCNHxQdU+X+PhCyREA1ACSORGCaAAntmx51ERqr6Ap0kSWdoDMNGJtYj9O1hZP0IJjNLNTrMIjd9GVUkrsXOt3SNix4NlzVPr7XGEZ+hcYtlQqw+1Qnn96qO/warGgwQX7wuxbSUryzww0epRFReHN2ksqYLt1l/YNTd9j1WFwu1ORd/Ic1glABJo/Fql8ehJy/DP2vN7bXtM1mrC7fdbPWLnuuLx2ZfYY0lT/YQQQnQMNOlRNBElgERulAAK0NbFXtRh2sxUU5kz5lt2XahNIYvRb71AEoKfH4GkRTPZuszuCfHM46xsLmn+DZHQ4+OIaJsYgzHurA9Nw2rVioRQ4uvJB1hZZu1Uq0d4rW+g3YT7v6weiaQ40iZ28hoPd0a8KV21TES2dbHnRzImiXXT7DpEqJowmJh/sni8mimRQgghWht81+JrvDclVIg6oASQyI0SQAHcaUE9WRW+AXj2KVZasrQp4Bdl1iLibpBrzaYF9vkRntlwI9m+xu4JgfHorUTovRKt4kLygo8j4qZhedPkQlUGsy6y2mGfZFXjwfuY94WISy5umGv1CPiyeOAmnrUItBDGgSlpvAbT1Jgx37a6WvraHE9M+bN9rXA9rBWDP2jPD4+mJDYtsOsQzz3NyiJrp1gt4sih4vElg+yxq95SeQ4hhBAdkz6n22t8kq+gEDVCCSCRGyWAAvR7u72oe9OC4N/COgS8IZJwpwsFRnKH2q+i/jH1xm25eVmhcOwoKxsLEj28LwQSQ61EqFoM3kpRvDalVTdWaqIgacj6EV9kVRHXqPiDrGo8aPXifSHivI9CCbVQ8vXgXqtFbJzPykrmdbNrrv0Qq/zR5lP/wioBpv/TvlbDz2ZVfga8255/0VWssmxZatch9j3ByiLeBMLodEb4S/HxXm8oHxdCCNFxwcRZvsbHfV8TooYoASRyowRQAIxy54s6xk4zeSoXSni9w3O6sqpIcILUQlbWj7uH2+eHqW6zQasX7wuB1rBWIu0kN1QIsA6VBCGytB7d2c9q+7+TVY0HZs+8LwTMoUPAe4r1iFDrH9pyWIt4dDErK0HigNcMeBerAm1HTtuo8KvWhn2CVfm5+q32/EuuYZXlifvsOsTuTawsgnOytu+by8dXj7PH0w4JEEII0bq0t5W/zF7jk9rKhagRSgCJ3CgBFCBtVr+a6pNr3m/X3XEFq4o8/5zVIho5gcvzmvFuhBtNcIT4AlY2F29aV7RaoARGh7NuXndWlfG8pCb+mlVFUJrMWpQwN5s8Rt7Bm/XNrCySx2gapH3NBp1pdfCAERa8n/m1GvJhVuWn9yn2/BjxnsRTD9t1iFCr7fzLrRaf3xIhn6pSi5gQQoiOSWgy7vpZrBSiLigBJHKjBFCAy/7bXtTvn8CqQmHvNqtDpJmMlbbNrIT3SwOm1jSKmakqjoAAAIAASURBVBfY528F/5igt8s0VjYX3IDyHq88mVXFVhjWxY0VzaJfOcJqe57AqsaDL0y8L8ThA6wsE5yq9hAri4R8tKJT2DxWjrRrer6OVYHKrRRVJ52Repsj49+Hz+8l8JlQq+22e1hZBJ8z1mICWYk8iU0hhBCtT6iqGO3pQjQAJYBEbpQAcsiSUAi2ZsVMbSrhmscNZVWZtFVJ9QITyvj5R32dVc0hbcKumSweYPfY7wxW+WbCGEUeAn40rJ97GauKrBlvtZe9nFWNBybXvC/EsSOsLINKH9YjUBnkEZpiF2rvKYH3Ea/B+43p9Xqru2cEqwRAoptfq/7vYFV+0GbF58d7P4lnd9p1iNAX+lt/abX4/JZ4bIU9jkjjESeEEKJ1wXcHvrYjQt9BhKgxSgCJ3CgB5JClpQgVCqxDpCkB9W4YUaERos9pVh+XMKo1Y79jn3/Cz1nVHJqdHEvDgl52j2gDZDA5inVo8wqRpZIsNLXo6POsbCxpkyxRgt5Pgeq7rJ5BJTAljNcgeDR4R0hCtgpLB9vXqlbTseCpxedGPDiZlZZD++06BAzcPdz2y8jkt5BHHKrXhBBCdFw6ygRacdyiBJDIjRJADsEbS8dUGBOwWIdIc7PR/VV23eqbWVUGv5CzHqa+jcKbWjb9H6xqDmlNu5uJZ3zb1oVVxdeUdXjtQ1xxotXDsNtj4zyrRRx8hpWNJa0/UhRM++I1iFC1BqryWItAFV8cMFrnNe3rdpc1reDR1ZFYcb19rbx2yDwE/y1mstISup6jQs0D7V6sjV4T9zxqjyOSfKeEEEK0NsHhFYGpkULUGCWARG6UAHLIauzc7ZVWG5fIAfiVGhOgeF1c4gjjulkPE9JGAY8Ofv4FPVnVHLJUwTSLaX+ze8TocMYb1X7NB1hVBi1crA+1u2DiFWsRcdO2GoE3LjtpwlyoWmPDXFYWQRUHaxEwcowjTRvP/h32OCKUjOrsoDqPXyvPVykPwQrOO1jpk+V6js8la/H5LZE1SSmEEKJjsGGOvbYjDu1jpRB1QQkgkRslgByylnVmbeUCeX6lvu5TVg9j5kbhTdZpZAtaHN6NGFquWolJ59o9jv4Gq/z2mL5vYlWRUAtiqPLk8XutFhGanNUo8D7iPXmTtqIcPWzXIDB5ySPoM3SUlZUE23jWlTUhPyK83sKChAq/VqiIrAVIZvK5Efi1Ng3e9Tzk5YTPJWujxt/B63zg8ymEEKJj8OBt9tqOH3aTvlMIUSOUABK5UQLIAa1efFFHhLxCspo5A7SP8BoE2k1CjPiS1U/5M6vqwwsv+JUmq8exsjm0dbF7m30Jq5rL+B/bPY77IasKhXtHW12oHSp0s4tKH4/QJKzQmOtGkdYgm/Gq6B6YyKoingE2zIKT2POIXYd4fFVZs/1+exzx1PqyRpR5YJJ9rfBvietMtYTarqL/XnF4SZ1lQ1hVBJ9L1uLzG0XeUEIIcfyR5buaEHVACSCRGyWAHDYtsBd1RGh0r+fNk9R+lMVnqIQ3HSpqOFpPDu61z41ACazD2u37CkPu2FjoN2d9YdKqbYXnnq/zLyI3fN7uLTQKvVl4hrGYrMaggoV1CDYdBkgwsA6BhIRHaMz1Y3ezsrEs7GP3NPC9rLJ0f7Vdd99NrCqSt+0oTXuXvACygYmK/FohjhxiZXZCSc4dD7LSp/877do7r2ZVeFokV6B5I+lXjqzUCCGE6FjAZ5Kv7fCjFKJBKAEkcqMEkEPw5sS5AQeY5MTapPaj4PjI1awsc8tPrP7m/2NVfQhVQWy7p0J25OgLhfNvXVM48V9TC6deML1w+oXT2///e7vNKSzfHDHNrTUYR897u+13rGou8PvhPU79C6uKiQXWIfY/ycri6886BKogPFrVkwReVrwnjLdPwmvXCbVfrrjOatHWmAQ8gngdIjrpT14A2Qi+XvtZmZ1gC+9GVvoMPsuujfr6lAhV3/FnyasoWnptpUYIIUTHAj8M8LUdPyAI0SCUABK5UQLIIetI6qEfs/o5XVlVCX6N5jWIqK8Ic9tvrR6Jj0aAqTX83Ajyjrl0yoOFU86f1p70icbJ500rvOWiGYUtuw9U6GsGEmG8t1t+yqrmMuwTdo+zLmJVuJ3Ie29sWmB1iOiEqighz6BoMqMZoF2P99TWhVWWPqfZdaHpb4sHWu3Vb2OVJWjYfltZE/ICwFphyTuRLQ1B0+5trPTxPqeY4MeEKo24nXLge6xmUd9KjRBCiI7FvG722p7mhyshaoQSQCI3SgA5eK0iPV7LqjLeKOAZCa9pKKHy9BZWlkFLE+tv+Byr6gMmK/FzI557+iXJk88cLJxynk3+lOK0C6YX/jUhpsKpGm79pd3b2O+yqrmkrSzAdCnWIbYuZ2XY2Pjo86wskiaZ0QzweeE94XOVBBI4vA6JHo+8bWbA9XoZUz6+apQ93uM15eOikqw+a1kIVdCh+i0NadtJQ39DdDocGPIRq5l7aaVGCCFEx8L73nL9Z1glRN1QAkjkRgkgh6x9vSO/bPW3/5FVlTx6l12D8Np8SsxxqiRQfdQIPANdVEVFTFunrH68cNK/wgkgxEd6zY+ctIbg9eb9jTyHVc0l7ah6tA2xDoEx5kweE0LXN2csqxoLzMx5TzA9TyJLdcW87lab9tc6bwIeWspKuFPMTisfF5XAkJlfL0SodTELoWR12na8UV+za712UlTNsa79eaiNbfjZVjP9H5UaIYQQHYvJv7fX9hu/yioh6oYSQCI3SgA54KacL+q4eQ+Rx5x54zy7BnHwGVaWueMKqx/0PlbVBy8pduXJFZIJKx9rb/XipE80zuzum0ZXzYzz7P5a7ZcYJBF5j8uHsSo8cQ1JOAZeIqxLGp9+xYl2zd3DWdVYvPbG0d9glWXwB+06r6oKoN2OtcM+ySofTCTjtXf1Lx9H0omPD3hX+bioBG1S/HohnnqYldlZGzBRP3qYlT5eO+mEn7GqOAGRdfjcMmkTSkIIIToOzfTlFKKgBJCoAiWAHBb0tBf1az7AqjLjf2T1eCyO0E1K3BQc18PkrayqD17yidpn1j25zyR8ogFvoJ+PqNO0qbmX2f2h9aKVQEsQ75FHRpe48iSr9ZJFd1xpdUltTVe9xa5Zcg2rGsuEn9s93fR9Vlnauth18BPycFsoP88qH3z+eS2uEyXQ0sPHW+3910rs2mBfLwT75+Th/lvteS99GavCuO/F77EqVVK8nXE/sLrxP2aVEEKIjoQ32XXir1klRN1QAkjkRgkgBxh+8kW9rQuryuCCz3pUBcURuEl5Yu/BwuVTHyp8ceCdhbP7L2qfqLVhx4stBajS4DVIFDSC6f+0z339/7Kq8P3rlhVOvcCvAjrpvGmFZZtqYPLqUY2/SyNAVQ9uQnmPD0xkZZEB77Za/I2MW9XyCVZVgteF13jnbiTeTTJ+XUsii/9WNeXanjFw1MAbLT18HK0/wgdeZ/x6IeCNVi1oZ+TzJrVFRpn8B7vee58s7G11aElk3P8+fItVQgghOhLuZNe/skqIuqEEkMiNEkAO0/5mL+pxlQJT/mT18AWKw/FuOdb91YUzLplZOO384uh0xKnnT2tPqExb88R/bmxuMmva/VwagWey7NzEPLX/UOHTVy1sr/YpTQM77T/7R/Jn+J2VE8NqCipYeH+odGkVnn/O7g/x8ExWFmnrYrWzLmRVoXC7c7Oa9N5zTWkvY1VjcdsoU/ySBp8gXgc/IY9bf2G1aY3C3S96fykfn3SuPd6oCX0dkdAI9S1LWJmde/5tz3vFG1kVxkvmeWb7My+wOq+lEDcErMP7SQghRMel7eP22h6qQBaiDigBJHKjBJCD50cSdzOXZxKAU82z99ITCief51XOTC2cfuH0wu4Vt5g17XHsKJ+99sCPhZ83cIN++MixwsgljxZ+csOKwjeuXVI479Y1hfu37WVZbbn7Brs/eN20CphAxPtDYGKRx41fsVpUsDB5etBRucVr4KHUTLy/F8mtJLz3JT6/Hl6VUdpWnKRS73E/tMeT2kA7Mwd229cLsXkhK7OzbIg9b983sSoMvsDzenzRZ7z/TniVQu75urBKCCFER2LQmfbajrZ8IRqEEkAiN0oAOWS9qZ7T1eqTpnM5FSvbLznJJH9KgRHqt9z8b7OmPdJOt6mG6z5ln7fZSYMoXttHo6qj0hBsebmHlUU8XynvPeglQCb9hlWV5JlaV2/Sjt5m4BPE6+Dh4pGUxIkDiSJei6RPCSSI+XgoESUKhcPP2tcL4U26ywrMufm8cSb+zIJedr3nAeeZRXtti55/2qAGmfcLIYSoD63opyg6FUoAidwoAeQw9jv2oo4WqBDeF/xr3s+qShZdZdY8esmbTOKnFJiu1WvI9WZNe8SNjq8VridNb1Y1jwdvs/u79L8KhReOsbI57HjI7g+Bxz28sfbeWHTPAwd+TXF47++kqXX1xkswei1vzC0/teu8RBlw28X+xCofr9ojOqUsz79DZ+bo8/b1QqydwsrseMboWRIu3hTI/u9gld8W6LUfLhlkda3UniqEECI7vV5vr+33jGCVEHVDCSCRGyWAHLJWSOT5xXn+5WbNw13fbhI/L1UAnT+tcOXwm82a9thdR2+dEt7o8BXXsap5rJ9l94dApUErAHNb3htiz6OsLOK1jQz9KKv8MejzurOqEq/CDe1RzSSvLxGqnXid403VjpekCRlGM0m+YEM+bI+n2X9nJospehaqnQi4bKhd3+c0Vvn/5nO6sirQnprBk0gIIUTrcdnL7bV9zS2sEqJuKAEkcqMEkENWj5S0NwxRnEljqy95t0n8lCuAphamzV9o1rRHLUYnx4EqGu9mDZPMWgV46fD+EM/uZGVzyLq/O6+2Wq8K4eq3WR0SknEkVbM0A1TM8Z5QWZeEVyk18hxWFfEMG+ekNGz0EnJRX5gB77LHUeUnwqBFk18zGN1XCyrH+LyoMEvLypF2fc8TWFUo9DvD6lA9xKweZ3XdXsEqIYQQHYXQYI9101kpRN1QAkjkRgkgB++X3bhf81eOsHqUhsYBfxNas67nRwunRiaAvVT9c8H0wqf73lE4snurWdMej63gs9eWkGHrxvmsbB7w0uH9IeC90woEK5QOsLKIYxJe6PUGVhUfYx2mIMXRilOJ+r/T7ulO52aaSTuxCQw+y2oX9GSVj9fmOSjSVtT7VHt8eVv5uLB45fO4llaLV62V5f29Zrxd7yVskBRinVf+j7Y21iGOHmZlep7eWqxURWL+2g/9578Bd7NCCCFEvQgN9ti8iJVC1A0lgERulAByGPgee1Ff2IdVZdxfeF/Jqkom2/HdR0d8pfCLkXe3J32QCDr1gmIy6OvXLi48+czBcCJm0x189tqya6N9TsQT97Gyeex40O4PsXMtK5vDA5Ps3to9il5gZRFUVxn9yyo9jbD2sv+2uvsnlDUesy6ya4Z9glWNxTNTXDqYVRb3b3FGcYO8SSaweKBde/Vby8cv/x97/N7R5ePC0vsU+5rVoq0U0/L4vN50rhAP3W7XI+BbVAKTF/H5ZQ0+58ymBVaHeG4PK9Mz/OzKcyEBiV+khRBC1B+07/M1HYF2fyEahBJAIjdKADl4N6Nxzv6hG4a48ey3/sLqx363/dBDTzxTGLH4kcLwOzcXVjyyu7zmyEG7BrFuWllTD1BhxM+JqGF1zaEjxwrz1+0oTLjnscLMB7YXDhyOee089jxi94d4fBUrmwOSAbw3JA1CbJhr9Yjnni5rDu23xxGoNopjfg+7BtUxzeTKk+2eVlzPKgv8jngdKiI8+r7ZapdeyyofryILvlgglAyAMbkIk/U6mxYY9vN5X7y2piL02YtOWwwm4xeUNSW2Lrc6xN7HWJmOg8/477d6/3dACCFEEVgv8DUYsXMdK4WoG0oAidwoAeQAg06+qMPIM0SwvSfGgDjtCGEmT8VHtYT+vhqNn1+0fmfhfd3ntFc7nXLetPb/PaPrzMJt9z7O0jCYhMb7Qzx6FyubAyobeG+ogAgRammLmkY/87g9jtiypKzxQNULr0F1TDPp+Tq7p1U3ssqCSXS8btCZrCriGZnHfa6jwJuG13Z/VfEYbsj5GAKJBBHG802C91W1jPuhPe/4H7EqDK4ZvB6xf0dZs3uTPY7wEs61vlEIVWTOPJ+VQggh6kEwsb+NlULUDSWARG6UAHLAjR1f1OPMSdHzy3rEgV2sLDP6m1aPiUZJeDfKMC2tJ97Nr+eJkYP7tj5dOPWCaS8lfkpx0nnFmP1g/Ij7XfsPF549dKSYjOI9IjbM4SXNIeukuF0brB4RbbvDDSQfRySZgrum5aezqrGgZZL3hNbKJLK8rm6b1hhW+cRV+QUTcUv5LCJKXuPvJMZ825534q9YFSbNxL6QxpvIWOtWAfj98LkQWSadCSGEyA88MPkajIhWaQtRZ5QAErlRAojADR1f0BEPTmZlmVCLVNwvASO+aPVT/swqC27Ued2yIayqLWiT4edMmnKWkm8OXVI45fzK5E8p8PhHelmj6WMvvFC4btGmwvsuL1YNIb484A67RwRu3FsBmA3z3q75AKvKBA0GF5Y1oRtBGMTGkXbKUaOAl5HX0pKmhQrvfV7X902sKlLNJLu4tqCnHraPI5IScZ0dJCz4NYsz208LpsDxeW//A6vCpPETC37531PWlMCkP9YhMBkwD+tn23Mh8P72nl8IIURtCf0oFPWKE6LOKAEkcqMEEBH0VZnNyjLb77d6BKo4Qnij5tOU8LtGtlezqrbMv9w+Z1zyIiUHnz9aODmQ/InGI7sqW+n+dPOqwsnn/ecY4kXNSedNKzzf9eV2n6tvrljbNFyz4hjjZXyJYD0imtDaOM8eRyT9AuVNObrs5axqHEFvqxTjVO/5t12HFk7myCGra3+OlL4pjy62axH7thfbfvhxBHypRBiMZufXDJ+Tarnh8/a8mLqYlqCf2L1lzQMT7XEkMT3ft9C44IdnsDId3tCBUrRKwlsIIY5nvMr4Ulu4EA1CCSCRGyWACPg88EUdEfdrbahdB4mhEEM/avVzL2WVBQa3vA5GuPXEG6uMKTRVsvvZwybZ48UDjz/z0hq0hPHxUjzT9TV2n0gQtAJ5Rq/3eK1dE233Q4UMHw/dhEapx1jqagh56CDBlQRauHidZ65dzXMAtN7xWgS8YHBt4McRqPwQYW74nH3Npv+DVdnBFDg+b5bEEpJ6vB6BJGAJL/GIsfYe7RVuVVSfMV4LZylq8foJIYSIB0Mq+Pp75UmsEqKuKAEkcqMEEJHHrwHTXFiPQGtYiEHvs/o7rmSV5bpP23VpKoeq4Zaf2ue86Xusygzui97dbbZJ5EQD/kDPHj7y0prfjl7Z/hjrEE9ecqLdZ5pR4o0A/k68N/hAxeFNScI48hIwSebjSBolEaocOriXlY2hmhYZGKDzOhilM6HEblqT8KfW27UIJHlRqcSPIzSWOx63VeuPrMpOtUlyfA54PSKaLPSM1EPeU6CW3m0LetlzlSI0AU8IIUTtcP0Hz2CVEHVFCSCRGyWAiB0P2Ys6Ao+HCPm1xN3A4maB9fgPShIjv2zXTfkTq2rLjV+1z3nbb1mVi/5z1wfbwOAB9I9bVlfovzDgTqMrxSOXOP5Ii/pWrG8amELEe0uaTOTeyHYrH0dyi49j1HkSmBLG6xCofGgG8MrivSDiEqglQn34x8pJw3bgi8QaBKatpSFk9Lx1WaGw5hb7uJeEEpWM+ZZ93Sady6rsDHyvPe/CPqwKg0o4Xo9YO7WsmdPVHo8zYYYvFevzerehyofPVQpUAOK/R0IIIerH/B72+jv4LFYJUVeUABK5UQKICE13iU6AYTDunfWION8gmCizfnkbqyxjv2PX3fpLVtWWto/b58zSUhHDkaMvFH54/fL2iV8n/qucCILHzxcG3lmc8BXhFzfeEzSNXnvxGXafWX75ryfu1LeEm12vRQbteCW8SoBB7ysfDxFsZ3ImGDWC0EjtJyqTfy4hQ9zDByp11Ro1w1eJ1yJgBnzPCPt4qB1IlLn5/+zrNuFnrMoOfoXl8y4ewKp4kMDjcyDRVwJJdz4OY/8QA95t9XmT07f+wp4rGmnM04UQQuRn5gX22gtfOyEaiBJAIjdKABEhPw+0kIQITQ6LM+TEDSLrV45glcVrx8KNVD3p/w77nIuuYlVujh57oTB2+ZbC169dXPhAjzmFLw28szBs0abC4SPHWFqYtGpb4aRIoigaqy4+0+4T/5FuBeD3w3uDL1AcY79r10z4efm49wUE/idJ5B0fXy9CVXfRqUshMBWN1yEO7K7UbV9jNYhdGyt1IYJVIVMKhSWD7ONo3xPx1Otalje5HsXz30LLZYnxP7bH4/buTjxL4fnmMfob9lzRSLqupGX/k8U9Tv1LfDWrEEJ0NtCuzNdeVOgL0UCUABK5UQKICFUUYDpYHN1eYddgWkuIbq/Mpi9x2+/sulFfY1Vt8ZJVd9/AqoaAEfA/HL7MVAGhgmjxxU7L1JQ/8ymaQ1sXu7fZF7Oqkom/tmtw81di8h/s8Ru/Uj4eItQOhbHyzaCaiqQtS+06xL4nKnVoJ2MNAu1nafE+45iodscV9vE0lVidHc8Xa8y3WZUd73qVJrkepfep9hzLh5WPu22xvysfZ4Z/1uqn/5NV6fCmp0WjBhMaC4f2FQpXv618TrSWxf2gIYQQnQn8GMfX3hp4YwqRBSWARG6UACIenGwv6oikyUo9T7BrQiafLxyzWgSeOwnP/6EGE7mCwEsFX/75OZvYZoDKoB7THiq86cLpLyWA3t9jbmH7tefYfSKJ0grgpoz3tqAnqyqZ8S+75vr/LR/3fIXG/aB8PETIs2rzIlY2hq3L7V4Q8N1JIjiCnVo2Q5V9WfxSer3Brkf7F9oh+fG2LrxaMLfnTGAm0f3V9rwY2ZsFr40s6tE27BP2+KwLy8cZJOlZH5cwimPge+y5ooHrNap3qsGrakNLqhBCCL9CG+25QjQQJYBEbpQAInCjwBf17q9ilSVL2wH8SViLWD+LlZY5Xe06jJSvF6EJTWi9aTKHjhwrrN2+r/Dorhf9Xry2jHE/rFjTNJJuKD2QIOI10coS96YyhTl3Ne+/elBNcgZta7wOAc+fKBvmWA0iqbIvijeVDUbcqDLjx+P8YESRaX+3r9sNn2dVNtpHrjsJ6wcmsTIefM74HKj0KuF5+izsXT7OeH5Ht/yEVenAqGE+Fwem41WDN22yz+msEkKIzsmIL9lrZL0HsghBKAEkcqMEEIHWJr6oX/FGVlmyTPU6sMtqEWmSKrjJ4HWDzmRV7QiZ58JTpdWAqTLvM2nUeqPofYrd24rrWFXJ0mvtmuhNGKqB+DiqhpJABZp3k9ysqq4Nc+1eEGhDSQIePrwOwe/PtNPC4vAqLzBdCibs/DjM2kU8qJjh1w2Jh2o4ctCeE7FuOivjGfoxe445XcvHrzzZHo+2iDFeOyemoGUFn13PoJqjmhuRvY/51wc8L55fCCE6O/Bb5GtkXBWoEHVACSCRGyWAiCXX2It6GkPXpF+MowRHSi9npcUrzU+zv7yEPFayeKc0Cpif8j5hvtwKXP4/dm/3jmZVJfeOsWui1WiDz7LHMZo0DW6bzFhWNYZ10+xeEEcOsdKCm1Veh2A/I3dU+8srNUmEjHzR98+P12Ka1fEOXjt+3aqtZjz4jD0nYuM8VsbjefaUkquoMsJ7h4/DDypEra5Nz+2x5/Fi4Ht5ZXq8/waWAhWhQgjR2cnT1i9EjVECSORGCSACv+jzRR2//CeBGxdeF5ryEqpaSDP22q1QOpFVtQO/nPPzIXjMdivgebGkmYpVb0IVN0ltKaHEyPPPFY9f/VZ7bPHAynOEwHuG1949nFWNAa8D7wWvF260k8B0Pl6LePSuSt2qUVaDSU9Z8JICMPLF5A9+HBNCRDwLetnXrVoD47TvhyRGnmPPAc8igMo0PoaIa6GE4Tvr27qwKpndm+x5QpHGQ8vj+s/Yc5WiWZMChRCilYia5Jdi8QBWCVFXlAASuVECiJh7mb2oD/kwqyzel+YZ57GqSFrfEo/VN9t1aTyK8uJWobyaVa0Bql94r4M/yKrGk9dzBzetvAZRmnDlGY/DlDgNnp8NqsuaQTXv6YN77VrExvmVuhXXWw3aeLLgTX6a/Ht/KtPMC3i1YBZdZV83eOtUQ2jC3bZ7WBmPa/D5y+KxUNVZXAVnrSbF4e/g84QizVRJBkkjL1ldik0LeIUQQnQ+WulHNNFpUQJI5EYJIAJJG76oRycvhchiCBf6Ev/0FlZaauFlkgWv5azvm1nVGtx5td1r/3eyqvGEjLRhfhxHKFG4c+2LVUUvs8fuv5XP4oMWEV4bZ2JbTzAtj/eC5FYa0nq+eO/jrK2TrpHvT1UKnhfv3wRVbdWwa4M9J2L7/ayMBwbNfA78+wOci48hdq6rPEcUVOaxPs/fGjIzh08dPzb5xYqlLHi+Y9HIk1QSQojjjW6vdK6PN7NKiLqiBJDIjRJABFo3+KKOFo8kYOjJ60IjyEOVHWhfSCJkmAvvi3owr5t9rlaoqvFYNsTutRUm12AkOe8LsW0lKyuBzxKvQcCXKdSGghvENLh+NpexqjHADJv3AtPsNITa69jQelFfq0nT2hnFNXv+rkrB8wLTZH7dep/KqmyEkqZPrWdlPJimx+cY/Y3isdDUurjR627rborhAgx8hvg88CPC+GF+fMC7eHUyw8+254lGs6oEhRCiVTh62F4bEWunsFKIuqIEkMiNEkCEe5OXYqIPxo3zuvE/YlWRUBInzdSjRxfbdYh921lZG7wR13nMSxvByhF2r2krSerJjgftvhCo5IkDI8p5DeLhmeHk0NZlfBafLC2L9cYznc1SneP+EkeVCvMvt5prP1SpSSKUHFYpeD7QrsivW683sCobwerKrayMJ860GV/y+RgizrTca3PE+zYry9vsedDKuOpG+zgC7WppQWupV1UYjdmX8CohhOhchMz4N93BSiHqihJAIjdKABFum8dPWGWZ+Cu7LpQ4WjvVahH4VSGJJ+6z6xAwB60H439sn6vUCtFqhH4dbzbBm9IULX/dXmHXIbmx4yH7OALJpjS0knGx17qXpXqh5+vsetwQR/FMeId9olKTxMzz7Tkwtjz0byTiwdQ5ft0wLa8aQgnyuOocD29EfclQ3jMUT9p3KGmU5pofxTPOHnRmuMowy2S/ZUPteo5Jv+FVQgjRuQj5wD22gpVC1BUlgERulAAiRn3dXtTRDpCEWx1wDquK3D/Bai/7b1b5oJWB1yKyelykxUsU5PGWaAS1usmqNZsX2T0hnn2KlRa0QvE6VAHAcJYfR6T9xR/JSV5bMrltNN5NbZZpUN5rhLayKNP/YTU3fK5Sk8S87vYcaCPjxxBI8op44FfFrxsqUKoB5t98TgTMwrMQVzHmVawl+aJtWmDXIPBLchYwdY7PUfKo63eGPTbp3Mr1cdzwebueA/99FEKIzgyqt/naiEj7A5wQNUIJIJEbJYAI70vwtL9VSHY/e7iwdvu+wtMHni8/6H0xx9hoj3tHW22P17DKB1NaeC0ibgJNNXjj7Vu1DWDjPLtXRNabv1qDli3eE6I0zj0OL8EAs+ZQG2FaL6g4k9tGM/dSuxe879LiTjS7plKDpCVrbvxKpSYJr1LJm8SGUCl4MvUwtIf5N58PAbPwLMRNKPOSQ4PPqlzPBBO221gZj9eiDP85gGQPH+v39sr1IdBCnNT+hcjyuRRCiOORx+6210ZEmqpuIWqIEkAiN0oAEW1d7EUd7SP/YcOO/YXvtC0tnPivqe1x0nlTCz+4flnh0V0HCoU5l9h1bR+vOPVLVDOSOth7vICVtcH7VfnOfqxqDbYssXtFlMamN4sHJto94WbrhRdYaUHbCa/FiHH3nP9VNEVOQ5zJbaPB38N7QWtVWtAuxuuRrIni3TiHWjRDpGmRKUXWseOdkfWz7OuGOHyAlemB+Tefr/1zkeKzFmXpYHueUpXPtL/bY6Fkf4mQOXXc5DCP0d+050D7Mbh3jD2GQHtYEp4htxdJlU5CCHG8s3mhvTYiDuxipRB1RQkgkRslgIjASOeNO/cX3nbJzMKpF0x/KQGEOOX8aYV3XDqr8Mx0Z1pWqI3FayFIa3oLo1Fei6hXy0mP19rngtlyK9Jof6S0eJ4haSu+bvyqXXvb7wKG16/j1WFQ1cbrm2XuXe1e3M9sr0pNFpP2ECGjXS+SDL5FsUqKXzdE1raoKJ7ZcvdXsSqZe/5tz1Oa2uUlE8d8u2K5Yc8jdg3i8VWsjAeJUT7HjBf/+x3ypcD1Jwl83nidF/BUS5tkFkKI45F10+y1EZG10lSIKlECSORGCSACJfN8Ub+rX3vlz6nnT6tI/pTitAumFyYMcG5i+7+Dz16k2pHU+BLO69fcwqrqCY26ROtGK/LUw3avCPz63ky8X9fTjrsOtWphHDM/njaJCGphilwr3Pasr7IqjNemiLayKLhBZ02pciItnmdNKNJ6MXVmamXYHMVLjPZ6PauSue8me57ury4eQ8sVH0t6Lz27065BYKR8Fga+157jjivKx71quKS97d9R9KDjdd7nCpHGu0wIIY5XWnXgiOh0KAEkcqMEEIEbc7qwH7jz2sJJ5/nJn1J0u8i5ie1zOp+9iOchkWUktec7Uo+qHPhC8PMgst60NIrQL+DNnsxwVz+7p7TeHFP+ZNeO+GJ7VZp5PFRx5jG/h12f5GNSL7JM0POACS6vx8SuKDBkZ03WqWcPz7DnCMVzT/NqwQSn42Uc2R6lmmRrlGAr2bH/vN8+Y4/BZDwOtLXxGgT8wbKAVmE+B/7mEpN/b48nJYa9lmTEypH2MYSMToUQnRmvQrTXG1glRN1RAkjkRgkgwml5evKO60zCh+O8C5wKoNB/EGZdZLWlEcNp6Psmu37ptayqntCo8WZX1IRA/zXvFYEpXM2kmmTLnK527ZCPFAozzrOPZ/HNgY8Trw9VrNWb8T+2e0HLVlq89pWpf63UDD/bamDcnoXQNDcvjkYM4oUPJhfy64bYtZGV6Vk80J7v6rexKpk4fyKv5RCf8TjgQeSZLKOqLC04h1epE63+XD3OHkfEtcGO+JLV41qASix+HCGDcyFEZ8arwL76rawSou4oASRyowQQ4XzBfm7luMLJCRVAf7vofLMu6D3heZ5g+lhaMI2G12NqTa0JtWhgElkrgqlavFdE1l/Za82sC+2e0ib8vEQNqofgA8SPZ2mb8gyN+5zGqsZw0/fsXm79BavCjPqaXY9KiChtXawm6zS70OQPjlKrkIgHBsj82iGqqTBZ2MeeD21TWQkl+5Bk9hLwPHXOAx5dvA6+UmlBVRmvR2AiYInQlMh7AhWiaE1z/pvX3iJ67Kh/DO0PQgjRWUHbLV8Xr3k/q4SoO0oAidwoARQBBm58UUesm1b42YgVhdMu8JNA8AYaPqy/XYfwDDO9Mv0sN+9oF+P187qxqnrWTrHPg2hVo7v2X9n/y+73gUmsbCxT/2L3lNbk2C01fr1vapylasZr70BrYTMY9XW7F0wpS8vY79r1MOqNMviDVpNUtcEgMcHn8CLtRL/OTtAY+V5Wpqfa9toSaBvl8yDQZooEHz9+72g+gwUtwbxu2RBWhdm92a5HbFtZqfN8gib8vFJT4u4brLb9nC9OsUNSmI+lSXYJIcTxSit5KIpOjRJAIjdKAEWIGbG+bc9zhfd0m104hZJAMID+QM+5hb2rp9p1CG+kMb6Msw5VEGnxPE/QElRrvKlHl/8Pq1oL7I/3jPHIzWTir+2eYCSbBnfc+8v8tg2ueokDbSO8vlkmhvA04r1M+TOrwmCaF6/nZJhnjpu1ag7jtPkcXqT1d+rshKpVti5nZXpq9cU81J4WenxtiimMbuVmX1aFQaKH1yOQGIoCbyvWhMa3e95Y/c4oJtOB92PDnIyVc0IIcTyB7yd8XUz7o54QNUQJIJEbJYAiBG9IlrUffmLvc4VzR698qRLoTRdOL/zl5vsKO/cdKhQ2L7TrEGgZYDDFiXW3/JRVYbwv7VkNbdOweIB9niRD0WbjmaTC5LSZeNU68L1Jw8b5di0CU+P4MTY+jgM3rLwegclvjWb4Z+0+siQ005hI433LmqWDKzVJhCY5ceSpOOmMYJoUv3aIakzmYcbM57vhc6xKBj5EfB7E+tn2sbR7HvJhu27uZawKg1YvXo9gw/H7J1gNAlMSo+C/Td5ESbSslrjxK/b4pHPLx4UQorOBCmO+LmLSqBANRgkgkRslgCLs2mAv6ojtaypkR46+UHhsz3OFo8de/JUU4FdrXofw/HJGf8PqsnypdlteMnimpGVOV/s8uIlpZWD4ynuGMWwzqebfO/Srv9eGgslgadk4z65HHNzLyvrT9nG7jyxVBmnGyF95ktXcPbxSk0RokhMHKvREMof22dcOEfW0yYpX/YKEeVZCPwZ4rZOINMb4XqIzixG5U7V37NKXFS6ZtKawdFPkhwaYN3utsPx+hy8QaxDRqYnejQ6uZ0II0Vm56fv2upjlR1whaoQSQCI3SgBFQKKHL+oIJIaSCK51Jtp4LS/wiUnLhJ/Z9fgPUq3xbqaw91Zm0Pvsnu+4klWNBQbfvCcYgachVIngRRZvji1L7HrEvidYWX+q9efxTNW5HLvHa6wmjW9LlJDHFAeqJkQyQc+16axMTzXtllEO7LbnQeBawo8h4A2UBJKSvC5L2+byNrN+zyUnFN50wfT2itQ/3XRv+UcJGJLyc3HVobcfTLIptX8Bz8B+6MfKx4UQorPhVeHjhyghGowSQCI3SgBFQKsXX9QRXhUP89R6uw7h/TLsefhkad+p1kQ6LeN+YJ+HvVVaDdyc8J7ndGVVY2nrYveUdgJVaLS9F6hOSMsT99n1CPYTaQReOxumOaVl5gV2/XWfrtR404zQKpMVL5HEgRZPkUwoofbgbaxMD5IcfD5cx7ISmijoeT8gDu3nM1jc1t+fsCqMM3lm8yVvfsmP7uTzphaumv1im9fUvxptu6FzKbmDBFe3V1gN/3foLme4Qau3AQshRD3xvsNnaVsXokYoASRyowRQhE0L7EUdAXPoJJ7eatchMDqaGfIRq8viBYG2AV6P9oJa41Uq1cNrqJYMP9vuOUubRT3wfo1f0ItVPseO+DfJXmSZdgY/EF6P8BKW9Qams7wP+E+lBZ8dXo/PWAn4GvFxRBrjXqb3qfY8HKhCEeno9kr7+q0ex6r01Ko9NpSc8s6PREoaqq1OmvEvs37VxWdWDCV480XTCwefP1q8FvBzIXY8VDxXqJXtRb+7l7hvrNXg741WCQkhRGfCM8fHBEohGowSQCI3SgBFWDfNXtQRacaehwxiPXPQatuU5l5q10dveGuFZ1o6pyurWguvraHZpbmuL1GGBEfP19n1XmTxTkHLCq9HeAnLeuOOxx7KqjBOZUR70q1ELb1mMOGLz8OB6guRjh6vta/fqlGsSs+or9nz3fY7VqXDmyjY1sU+BuP5NKDNl9dyq2IMRx0/nvkXf7wiAYS477GniwbbXgJr+bDiyUZ93R5DZQ8ndkLG06ggEkKIzkj/d9hr4l39WCVE3VECSORGCaAI3vQUtI6kAS0AvBaxYQ4rq694QHsMrx/4XlZVjzc5Kcs+m4Fnzjfh56xqLNVOJoMvB6/3ImremkRoAtPmRaysP1e80e7jnn+zKsyd/ez6/u8sH8+SnE1i8Fn2PBxZDKw7O7Uw546ChAqfL29CztsbxqnzY2hhTIM3or6tC6uCHBv9TbN+4kVfMAmg1Y+9aOTueWuhHQ4VrV77FyqMmJC33c61rBRCiM5B71PsNXHFdawSou4oASRyowRQhFU32os6fqFOA1p1eC3iodtZ6beRwOAzLTD75fX18GXwfgHHa9TKINnDe66HQXYWvNfx3jGsCuOVG3uR5aYsNNHq4ZmsrD/Vvj4Y587ro5+HWlY7DfukPQ/Hwt68SoTwEipLr2VVeuD9xOeDR1QevAS45yWF90Qa0PbJa6OVakk4vhM3XPjtiuTPWy6aUTh85FhRP/0fRt+ejA61f8EYntm33eoQzUgUCyFEK+BNYUW7rBANRgkgkRslgCI4U1bakzVpuezldv2a8awqFHqeYHVZDHxRHcHre72BVdURMkFdO4WVrUWakeCN5IVjfitGFqNbb4qYF2nMykuE9pXFR6hWeDfVWQyaUU3F66NtOSGD9u33lzVp8XyxOKpJYHQ2vJY6GA/npVp/tSieObkXaa8viwfatajuSwuqPGl9vwt/GjGBnla4Zn5kYiV+fODnQwx4l30MiThcE5h2D7KXWX2Wz6cQQhwvZPmxV4g6owSQyI0SQBHQw8sXddygpMXzavEqZrzy+yzGp9Dyepip1hIkE/g5EI8uZmVr4Rpkn82qxnH4WbsfxPrZrAxz0/fsei/gdZMFr/Km0b9i1eLLFDxjeH20cg+JHj6O2BW5WU7LmG/b83BkSeZ2dgadaV+/aiqoPMN1eETlwfNA8yLtJK+7b7BrrziRVWGcVtJLL/pT4fQLprUngC667f7CsaiHD1q9vOSNF6gWCuG1OyjJKYTojBzca6+HiI3zWClE3VECSORGCaAIC3rai/o1H2BVGLe160XTzRLHjloNIssNb+iX3aPPszI/mAbF50eUpsi0KnO62j1jNHyz2L/D7geRxX9m0rl2PQdu9NjANQnP46Qa/5U8hFrR1s9iZRhU2fH66GQmtHrxcQRaw7KCm30+D8f9t/IqEcJrb6xmmkotzTm9djIvMBo+DatvtmvTJu7x2XYqTEdf17dwxYy1Zd8fxquI8uLRu3hlGc9LCIMIhBCisxH6cXTLUlYKUXeUABK5UQIoQpUmnanMnYMVIRluePFLA69H4JeJWoEEBZ8fsf9JVrYW3kQoTF1rFnsesftBPL6KlWFmnGfXc/R6Pa9KxjOXXjKIVfUFVQq8B8SmO1gZ5sHJdj2i1NISei/DHDormCjF5+HI8lnu7LR1sa/f7CpMtPu+yZ5v2RBWpSNNux9iTlde6YP2WV6LSJO4D/3q7A0ZiJLm2oHXzGv/KjHyy3bNbb9llRBCHP889bC9HiLytJQLUSVKAIncKAEUYdrf7EUd/itp8doZeLz7gV1Wg8hiqolfGng9Yt8TrMxPsMroMCtbCyTceM8Yw94sdjxo94PYuY6VYbykFkcWL5ESjqdIVe03eQiZzHqGtCEenmHXI+BjBUKjrLO2zIFpf7fn4YirphCVDP+sff28aVRpQUsVnw+tV3kY8y17Li/SVhhtnG/XIp57mpWWUCJ52z2srGTdNLuGA//di8Mz1sdEMiGE6Gzgxzu+HiJwjRaiwSgBJHKjBFAE/KrJF/VRX2dVGK/cng1I926zGkSWEd5PrLbrEbs2sjI/K0fY86ediNZMMIqT9x01BG40ofajp7eyMgwqGHg9x+CzeFUy7vu1wa0dT2+xe0BsW8nKMJsW2PWI0o11NZUXDEa883k4nriPV4kQXpXN1L+wKj2er1WWiXJRxv3QnsuLe0bwSp+ty+1aBP6bkETopmP3JlZWgsohz2Q9GkntqJiixmvaPs6q/OAakCYJJoQQzaaWFcVCVIkSQCI3SgBF8Pw9bv4/VoVxxvQWZp5fqUGShjWI7WsqdXHAvJbXZz1HEnd6hthnsKr1uHe03TduCpvF5oV2PwhUgqXlvpvseo7rP8OrksEaPg9aRhpJaEIXPKjSAmNyXo8otStiYhEfw01xHlDRx+fiqGUi9ngHCXZ+/dBmlxfP9DivJ9PEX9tzeZF2cl7IVw0tBUmE2n7RQpkEkjW8rhR9Tiv60sXhDUe46i2syg68NEpG2/DsmteNFUII0VokVRwL0UCUABK5UQIowtjv2Iv6rb9kVZgRX7Lr2SA0eBOwvlIXR8iEbusyVuYHPhx8/qEfZVXr8cBEu2+MO89qkFwravFlYd10u54jS6VaiZHn2PPc/kdW1ZdafB7QBsPrEaUqKy8p2OM1ledICzyS+FwcaGsT6fAm3N36C1alAxVdfC4EKsDyMOVP9lxebFrAK31CbVxp/MDW3GLXIYkZ591TYtZFdm0p0lRboYKK18G8utprqveDC6qNhBCiVQn9oFTt9VCIHCgBJHKjBFAEz+wyyw0xfBF4/aTfVGqSblbTgHJ5Xo+Ax0StmPx7e368Pq1OLRIutQTVB7yXrBO7QhUu0Rj/Y16VzNjv2vNkSXjWArR68R4QaAtJS9KYd0w242OYgJYHb5Q3B4zeRTrwvuXXb/yPWJWOQ/vtuRBJRskh0hgoI9IkcEA1EwExTZLXpX0PPzzTri0FKhSTwOvH6xBpqo/i6HO6PSei0W2oQgiRFs8eoecJrBKiISgBJHKjBFAEr4UrS0vMuB/Y9XxjXov+YRgx83pE3l+6PdD6xufnv6UVqUXLVS1ZdaPdS1YvpZCRdDQm/4FXJeP9Ap+l5bEWwOyZ94DIUkWT1Ea2dLA9lreFxRvlHY1mVpt1RJBw5NcQick8PPuUPRciTYLFA/5tfC4vdm/mlT6HD9i1CCRokvBaDwe+h1U+MDt3RsgXep+a3P4FQp5zWYzsGSTk8Vnhc5ZiQU9eIYQQzcf7PtH3zawSoiEoASRyowRQhJIfQTTYxDmONDcztZpIBM8EPsea8azKz7+/YM/P7WytCMy0ed+IvY+xsjEsb7N7ge9GFkItf9GYdSGvSqZa0/NagHHvvAdEluqCJCPpRVfZYwPeXXmOtISm45Uia3Kvs+NVGo76GqvSEfqcwHw5D5iIx+fyIu17FYlBz6MIbatJeNVI132KVWGg5fVocUsDpkvyWkTexBoIJW2jgc+tEEK0Et5/FzBRVYgmoASQyI0SQBHwiypf2Bf2YVWY2/9g19/4lUpNrSYS9Xq9PUfaaTRpGPxBe/6OYNIZ9JRJYbRaDzwz7f7vYFU8ocqBaGBUfFYw/pnPg8RfI1k/y+4Bgb85LUmj5Of3sMfw/s5DyIy3FH3fxCtEHFP/al9DTAbLAyZi8bkQqGDJw+KB9lwcqGJJU0VTAglCPgeqBJPwDKlHf4NVYVaOrFyLiiC0TqYB/23yEld5zbX/w9H1gR9COPBvIIQQrYI3CXTox1glRENQAkjkRgmgCGgL4Qv7kmtYFWb6P+z64WdXakJmnllBySmfB6WptcI7PwxwW53gTWCTRnPPv9zuJU/ywav4ikaef/vZF9vzDPsEq+pLqKLm2BFWhkEFBq9HoLoIeIbmbV2iZ0hPqGWtFGnbckQRr7Ilz0Q7EGqVzNuqtOJ6ey4OJOKz4PneLBvCKsuYb9t1Wc2y8Tww8keSF5WoWbjyZPv8afbtcPTYC4Xr+3e15wsFqiiFEKIV8H44u+HzrBKiISgBJHKjBFCEK95oL+wwfU1LmhvNVaOsJk/biFettKgvq/LT/dX2/JgG0+qE2hVK1SCNBlNteC9ZWjdKwK+DzxMNvK+yAp8NPs/gs1hVX0ITNbIQqpBCdRGY/k97jBOzaQn5oZSiI0zKayW8X1MxtjwPj99rz4XA9K08eNPjOPq9nVfFM+Bd9hxpWp2QFON1eF83ClwX+PmztEdHuGnF1sKgi35kzxcKVFll+e+wEELUCwx24WsUBsAI0QSUABK5UQIoQvdX2Qv7fTexKkyaG+oV11kNfl3NSrV+RXGEbqgxjrzVObjX7htRywlpWYBvEu8lT4sLesz5PNF4cDKvSKYW7WnV4o2Yvvx/WBUPWnD4HAhUFwGvNXPkOZXnSAsmi/G5oqFfArPhtedd+yFWpWPLUnsuBJLCefAm+HEM+QiviifvdXvQmXbdgl6sqh8jvmSfH/5NOfh225LCbRd/3pxv/SVvKzzV9Q3m8fZAC1qeJLcQQtSSNMNehGgQSgCJ3CgB9CKhm8gsN9buDfU7KzVoo2LN1W+t1KTB+0V4Ro3+Hfdus+dG4Aar1QlOSJvKysYw8Vd2L2jnyIpn4hqNPAmuZUPtebIaVFfLPf+2e0AlXla8KUdotwS1+jcAIaPhUuiXwGzAY41fw7yGmrUwFI+ChDefiyNrMnf4Z+050ly3e59i1+Hz2ygm/Mw+f87P0Id6zS2suPj95nw3XfTVwmfPG1LY0/UEc6w9UBm4+ubCo7sOFDbu3F84clTT9oQQDQZDCvjadNvvWCVEQ1ACSORGCaAXObTfXtQR62ezMszSa+16NoV1b3hy+IbAXJrPk2cUuMf2NfbciGYZKWclLhnQaLxfizB+PSvel45oPHY3r0iGjWERPV/HqvriJqFOZ1UyPV5jz4MWHjDeaTcZ9//ZO++wqcpr7Z/z5/nrpH/pscWYGE+SY4lJTEzPyYkx/UQTk5ieaEwxJrEXkKIiiICIgIIUpYP0+krvSJWOdKQjHQH3x/0O23fetdae2fvZZfbM3L/rWhdcM+t59jMz7+zZez1r3etnzceHJSjDzDfuBEZjZkf9Hna4WHqFIwlB8WLWN+i5pD3/UzmqNM9+V89RLpMG3cOsc9qSAdIzPSytJke9sB90neltv+8cNd8jd/3G+9C/RnnfvKOL93orOxPo9P1v8W6+8+5Gv4/dO857bNKaRk0hQgjJBCuIn2U5LiFFMABEnGEA6CyHduqTOixKq1srm6HNB5r7TG6pfVxKHp67Xs8z+NfSy40NU/XcsMO7pGc+aW3sICPYUQnQVl2uBe3XozLol3qeYnMJzpmC5G+TXumSVACg7Yf0PL5uSP8f6+eG/LbZ8NCgI5Kcq9jK3cyT5kBIWL6HMmgelkBB8QhduooJKikrtqg7vwgYyTnw3S7Fsdf0GFiUzYm4TG+vj9/+Y9IrFH1mrPNO3ae7iv31ztu9c24f5V183zjv6IZ5dqfLM3byvrd6v73z/sYg0Dm3j/Zu6b9IHoIQQtLBtYyXkBRgAIg4wwDQWfZt1Cd12NaF0jMY6AXJ8RBTLmb8XdrHRRQYwR45D4JCSbBiuJ67sd1xhM5MlcTstJNhuUQxT/+PXsvo26RXeSwtoWJz0TlBWZycB4YyuqwwM+IcSoCsrnXIyANWthx0gVxp8Q49n29hynlIEwjSyfcQwTwXlg7Uc6F7nivoHCjnk4bzeRRcyhGDfptcsv5csZoXQDPPgVO7N+i5ztiP73y0MaAzYvG2guPmuYWMRMP39fve5v3yjpaNQSDYi6urZHOCEFLduAr5E5ICDAARZxgAOsvOl/VJHYbHwxIUOHnjdJOP1UISbXmjYgnb4kY3CaybsqjtjisJdJfk+qHPVAnQ0UiuBZ2PojLpfj1PsZ04LEeUB7pBch4YypyyYsqD+vguGXEQr5bzzDj7mVtBuDH/aD4+Cla3QN+Q4UfCY3XaQjmfC1aQwqXDog+y6uR80qY+LEeVZtTf9Bzlzv9B3c32rJOe6RFUXudyrkBWrZznjP3fw4O8Kat2NvfdONM72cLoSHnGjt/3jsZysQvuHOPdNmhJ83GEEJIG0EmU56NKbTCSuocBIOIMA0BnQaaPPKnDsPsaltXj9HjY60ebfFAyIJ+HvktUkGkg54EwdBJgN0POnXV3qDh0uVKvH92GKkGny/RaXmwrvcqDYIacxzeIo0InJCqbZum5YC7ZRK5MuFcfv9vV0qs85vv8UOE5aJXI5ybc03x8FB69SM/nW6UCjdVKklk783rouVw6LPrs36znkzb3KTmqNOPv1nOU09IJCtS6ilu7EBSE2r1GepbHCvrhMw8o1Xu237PesfvsrLvp93zWO+dfo7wbesyRwwghJHksvUF2KCQVggEg4gwDQGcJ2JVs1AYKS1AXmiN7m3zM0q2fND0fFtQcy3lQm5wEVplat6ulV3556kt6/bjxqgTo8CbXMvNx6VWeBb30PL65dM0CQSUue9dLz/SwApkQWYyKVZc/uUXhOWQUyeeQeeQKStTkfL5FDQjUO+iyKN9DWHHWZFhmddbzIFjnCjTP5HzSEMCKAlq3yzk6Xy69mrNssB6Dtugu75ErQd3vomjk+VjvQYePS6836T5tvXfjnW0aM37kuDfu+0/vmruf9O4YslQOI4SQZME5F1n98vy1fJj0JCQTGAAizjAAdBYIasqTOgzdwcKyeY4eD8PFs4+LCKjFtHZ6HpduYhYQKZZzo3tNtYCSCrn+UbdKr2x4SHe78eb3lF7lwQWGnMc3F9FkEFTi8upy6ZkelrZRr2ukV3mgoyXn8fVZOn5SP4fvjytPXqXn821xf+lNSrF6rH4PYcVZk2GxhIqh1+AKyirlfNJQGhUFS/S8nJjyvO56jKtOkisQPzdvfIZKz/JYvy8lyuC27T/qnX/n6EbhZzXujA26+9venPV75DBCCEmWJLoFE5IgDAARZxgAOkvQTnRAWrrJ9iV6PKw4o6LvD/TzLl2hZnfR80AINwmsDmMuQapKYb3Hw/4ovbIBIuByLS5BgvUNeh7fXDRzwIEtei5YluKy1s0gPr+oPP1NPY8vtm2VbCFbxJWe39Dz+YZOVCQ86ybr9xCGzldRaWit5+nyaekVHpz75XzSIFQcBQR/5RzlgjnQGZJjENTMGiuY7aJ9gQCvnGfYH6RXM3rNfKVR7HnBvZersScfeIfnHdwhhxBCSLLgPCPPXbCNM6UnIZnAABBxhgGgs5gdvCJ2OQmTUWFmp/yt6fmwWCVBSQk1Wze4EK+uFgbcoNc/8BfSK32CbiARbIzKtkV6Ht9cSqbAkT16LtiGadIzPZIqiSzV6Qs6MPI56MW4As0uOZ9vCGiQ8ASV3qL8KioQV5fzQIQ9DqU6vsF2rZIjSrPkeT0HjlGKcXfoMShzzZrOV+h1+GWWUbBE+kNotI1bvsO7r41RPua6DkIIiQKE9+W5B4bNX0IqAANAxBkGgM5idb6Kqq2yf5OeA7Z1QZNP96/o58fd2fR8WJIUT5VYF/pxNFOyxqXVchoEpQuvnSg9y7PXbp3caC4ZMwBlNnIuGMTMs8IK1g26UXqVB5+vnGfo7wvPoROUfC6OaKNVxulb1IyQegfvl3wPYQe2Ss/yjL1dzxNXGL/NB/ScxXboVTmiNMgQk3PAUGIVBLJjpH+f70uv9On1Lb2OEWeDrGGBhoYVVFv0rPS0OTP+tBVAQnaSS9kgIYSEJSjLP8uOjIQUwQAQcYYBoLMkISAKwWg5B2zjjCYfS6wWgs5RWTlSzwM7dUJ6Rsdqczn7CemVX0b+Ra/fRVcmLrg5lOuAFf89hAVC4nIe31zL89A5zNT1yFDQsFTgJgqlAkkPvE0/t3RQ8/FRsAKMvmWpn1QLBAqRb5Ce5TH1pL4lvaLR7kI9Z7GdPC5HlCawo9d+6dlE/x9r/yG/kV7pg/OMXAfWFoUgMekNU6VnMCg7k+NhIqvvxMnT3tMzXvF+0n2O9/mHpni/fXaBN2FFxIAdIYT4oNRLnndgLEElFYIBIBKam266yTvnnHPetP/8z/9kAAhMfUSf1KOKKh8/qOeArZ3U5NPpUv08NB6i4nIjERZrhxYlctWCVTKBzKusCcraQUvlqKCczArWwF74s/QOz4P/T8/3Uj/plR6lSreiYJaSXV/IrJCPwxBAdcUKNPi2b6P0JqXY+bJ+D2G7VkrP8kDnS87jmh3nY2Wb+IbvTlTCNAqQIItJ+o/5h/RKH6tjX9RStE2z9RywKJ0HIc6N7Fw5B7rzIah9hteOvu79b8dp3rl3jPbO+dfoRv2g8+4o/PuPQSzXIIQ4kESzGEIShAEgEpoVK1Z4DQ0Nb9r111/PABBIoq16mJtNdHyRz6MzTFRcbiTCEFS2lGVZUFygByHX7yqUHAdkg8h1wKAV5ULr9+m5YHFa3FvCri5dylwpJd4cheE363lQJhP09+xShueDkk05n2/QVSLhwY2/fA9hOxzaelsZKijXi0OXK/WcvrmI7rucEzpdpv0heJ010x7V64jagdAqXUZL+6iZq5beE2zV6Man/9R/4ZsBH2kICPWfu0lMSKJy6PhJb8u+o96RExEaZRBSzVjdWLExh9JWQioAA0DEGZaAncXUj/iq9CpPuXKTh8/Xz899qun5sOAGSc4D27NWekYjSMdoyzzpmV/Q4luuvxJdc/CeyXXA0H3LBdxsyblgLhlkPu0/queb1Ul6pUep9u1RgJC6nAflP4d368dhEB92BXpYcj7fTh6T3qQUSXais7SZBv9KekXjqS/qOX1z6TDmkhVo/WbM6Sq90gc6PXId6HIYBSuIFLXUGmCjA5p3cq5n/tfbc+iEd87tdvCnMQB05rkvt3tRzvgmuw4e92av3+Ot3F6+Ex1a1Lca/bL3w66zGu3hcasax5diw+7DXo/pG7wOE9d4o5du946frK6bx817j3i/embemwG28+8c7d3Ub6G3s8zrJqTqgXagPOe0erf0IiQzGAAizjAAdBaU0cgTe+9vS6/ylBOcbf1e4/mQApjFpNWNIEiTI25gKUtmd9Hrd9mtj8v6F/U6YNDzccHSj4LFuRlMqiTRla6f08d30cQyA7hfK4gJy8dhcQKa0zvo+WBJibDXE2F008KCci85D8rC4mB1bfTNpfte0OstFZC0Ah3oJpY1yAKV64AdKx8oeRPrd9ZVqHvIb/VcZ2zJvKkq6CMNQaCTpwvlYj6vvnbMu/GZuc38PtNmktewyu5IN23Nbu+iu8d6F9w55k3/C+4Y7V187zhvwcZ90t07deZ4941Y3njs8+8Y8+a4y1pOMv3zyCt7DnuX3D++2WuGnXfm9VzeahKDQKS2sfTHoJlJSIVgAIg4wwDQWayLyagCl+Dh8/Q887o3PW9dzCMtPioHt+t5YJtmSc9orG/Qc8KqqbRlwTN6/ejmkzWrxuh1wFyzRIJuRl/qKz3DYwZg7pde6dH5cn38F9tKr/JYJSFoAR4UKHUpMfKZ203PB4vaNZAUNMvk+whb3yA9y2N1qYJeUxxQRijn9M2ls+CJI3oe2Jrx0rNAkK5ckH+abFuk1wGLsjnQ53t6vGuWVsBmxb4+P1cBH2kfvmtMs6n2HTnhfbrVJBXYQLAGNvHl5uLRyDL66D1jvXONTCM89skHJjSWSBXTesxK7zzL/47RjXMhsybvQFA7qLTugjvGeH99vkQmGyHVjpXB2PET0ouQzGAAiDjDANBZrPIBl3bUpsbP44XnTp/Uz8HQGjgqxw7oeWDrJkvPaCwboueERgNEiKsF7I7L1wBh66xZNliv44G3Sq/wPPcTPR/M5e/HxxKYhdhrVlgiu8iwiQo0UeQ8KNEJ1FxZI2cIj5UGDkM5HYkGWnfL9xHmojlm/i3fLr2iYf0u+IZucFFp7Lz3Fj3X8qHSs0CeSnKDsunQGScsnQw9ozgBZyso3uLt3lfve84793YdpIAhgHHj083fvwdGrvDODwhsnHdmnssenNgsY+iJhnWNAQ/pW3yMPrObBOF3HzoeGDiBXXDnaO/2ITGC0hmw93Dp0joYAmuvn0qmpA1C3tPX7vZeXL2rMeBGSMVJQiuUkARhAIg4wwDQWayd3uE3Sa/yoBOJnMcvqUH3EvkcDJ0FohIkOB0nGADQSlfOWW2ZDXgP5GuAIQCXJQt76zWgBNAV/D3K+WAoNXOl97V6PpcuXK5A/0MeHyV8UTF35j7peVsX6Mdh+zfLGcKDm3U5H6zzFdKTlAOBZfk+wlzOY8j4kvMgMywOaLcu5/TNtROXWSYcUAYMbSDpC0NmW9ZAqNnqRLhiuPQMxuo6OP9p6RWegCzLFb3/+mb3r2JDtg2CLS8LfZ8rWk9SvtKKy7Ru7reoZEDnw2eOcUdRQAdaPx8KCEj59tk2MTdvUgbvmVyzZXHLwBBoa4NsqaIAG7Kq0L3t6OtVtBFFao8x/1TnGqdSYEISggEg4gwDQGcxuxH9XXqVx9Jp8TVNkhaktdq1LxkgvaKBYJWcsxICynFAhyf5GmBZt+o068U/LL3CY7W3h21dKD3D0/86PR/KIbPioXP18RGEjAqEq+U8yMiBlox8HAYtFleCtFCitsQmBZAVJ99LZM9FBRlfcp643bJG3KLn9G1KK+kdDmhGyLlwrrBYN0X7wlx1xOJitV8P28QgSP8oTkc+ZFRZOmZtPuA907C8MdiDQBAyUxBI+O8WExqzSiTwk4EMaeOX73jT/9aBi1W5WLFdeOZ497+w/E3/oYu2eueUCQD9d4sY70MGFDKA9LqLDe9j3AygWwcuMUvlEHC7ocecxo+ckIpgdhv9nvQiJDMYACLOMAB0lm5X6xP7hHukV3m6f0XPg7bRICiF3jWd37oYh/5NHKwgQ7Xd2KZx0+/C9PZ6DSh5cuXFh/R8sDjlTGm0zo5CUqLouAmV86B7Ekoi5eOwKMK1EgRs5XywXtdITxIGKyvkpX7SqzzQYpDz4DsYB2T5yDl9c8lUA9Y6kcFmkbeS3E5GCRe64oUhKBtv1yrpGY35PfWcsDldG0uvhi3a6nWZstabsOJV71hABskXH2lQAQdpxV3BBi/c0phNJH18Q6AEx/NZ9epB5VNsmOsXPee+6Z9XftxtdmCwDAGam/vF2Iw4w+It+9W8xYZgXnEgziKttvQoQ3ts0prG8sHf9J7vdZu63jt4LOOsYlJZBv5Cn2cG3CC9CMkMBoCIMwwAnQXlG/LE7rJ7bAmRokU1gFimfA62Y1nzOcJilc/M6iy9ojHsD3pOlMdVE0FipfuaNBkyYXJLvYYnPiO9wmNlFMEOlr4gLom5o5Xh551UFptZbvc+z1s5Sj8OOxmjTCHoRva566UnCUNSgew0zoeWuLhvruLrOAfIuSa3kF4F8laSa2nuoLNXGJYP02NRUgYdqDhgvJVJiGB7yEDZEy+uCwzoILDx9fbNy2xPnnrD+2r7qaZuENqiX9t5hndapKr8pDuCJ3bWEAJGVmZS3li361BjlzNZ/obX9d8tJ3rbDzg2ODhLu/GrAt8j/zi3DdKdTjfuOeL9vs+CNzO9PvHABK/t2JWBAb+ozN2wt/F147PF3wleP+zSFhO9lTsOSveaA3pMW/YdTS24VjX0/aE+z+CamZAKwQAQcYYBoLN0+Lg+sc9wEKMt1Yo4aUFaU2/oEekVDXS2kXNCB6Oa2LVSvwbYzpelZ7og80uuARlirlji1rA4N1Aoc5TzoRwyCxoFcWNqivhY703LdwZnUMQBf0dyTli1fU/yglUShU5rUbGCAC7lhMU0tNFz+rZylPQOhylWHfAbjPO59K1k1xlrBzxs4HNmRz0WXTOTwAq2w1aMkJ4mKFv64ZOzlHA0Ag4fO3PjX5z947PjtWPeNZ2mv+nnBy5+3G1WY7mUZNfB496XHmloLG/yg00IKCD4gwBUtbB+12Hv+u5z3iwHw+v5de/53vYD9u8QAmE9pm/wPtt28tn3arT3y2fmeWt26pLsu4cv8z5cIgB07hn7da/5zcYguwrBGRk4QoAGgbjjJ+OVpOGzvPi+cWbHNxzjM20mBx4DWWB3Dl3m/X3gYq/T5LXeq6/FC5BlzYbdh72f9Zjb7O/1T/0XNv4t1yVJSUUQkhAMABFnGAA6C8pF5Ind5SbE6hrjdxPbMl8/BzuwpfkcYUmjhbd1c+IqdlopgjrnxNHKcWHkX/Qa4pQJbZqt58PfbRxQ5ijn7Ha19EqHk8f0sWEQdo1KUHYBsjTk4yg5ikPQ3xc+bxKdUp0To2CKK/eRXtHAJoCc0zdX7bZnv6vnGvEn6VXACiI/9UXplR1WSVzYoPbo2/TYpF7LoVcLAV85fwSB1hNnbuI7TFzd2PELN7vQ8flj3wWN2SWlmLluj/f4mZv7zlPWNmaKlAIZKT2nb2i8qf7eE7MaAwOLNu2XblXBgbNZIaXKoBD8+d2zC1RgDQLPeH/nFwlrA7w3Mruo2C44M6bV6OYbOf/bcXrgGDzeYaLjBttZUD54fomObwgMDVm4tdkYvCcIBPr6U1gHgid4zWOWxcjYzZC1OwvZXjKwhqy3T7eaVJ+d2Z78vD7HxG00QEgMGAAizjAAdBbz5sFBi8TqGuPvkAZphxze1XyOsODiVs6FLgVxsAQ1sQteTeD9lK8B5nrD5grElOUa+v9YeoUHXcxww1Q834ttpVc0gtqnZwF0eOSxYdDticqq0Xoe2Jyu+rG2H5KjoxEk5j7+bulJwvD4p/R7Oa2d9CpPi7freZYOlF7RwCaAnNM3ZHS6YG4S/FJ6FUD2qPStpOiolZGE7Nkw4Nwnxw74mfRyx3qvYNh4iQiFhpNh0IItZjc2P5CA7BmU0/kgs+Qjd48JFJtGsGX1q00lVwhSSB9pyDyKAwJYVqmfbwjwFAt+g98HjMF7gUCQlVGWFchoGrtsR6M2FjJ8gvjBE7OadWIrNryG2wbqUryax8y6P9vll5AKwAAQcYYBoLMk1YnG6hqDHV+QdHeqKDvJYUFKvpwzqENNXjlxWL8G2JoJ0jNdotzoheX4wcIFB7R74t7cAivD4bFLpFc6JBmoWztJzwNDgEw+1u4jcnQ0UHIn54RVW6A0LyTRvSvJdvLFWNpSvrlmbg79nZ4LpbcWVtBk8K+lV3ZY70fYjDpL+2j8XdLLHQTkrJJSlK2RivCjxrI6HQgpthlC++iFxdsay8qKO4EhgwZBIWQIFTNl1U41nzSUL8UJ6N3cb1HJDKAL7xzjPTiqKSsJJXLSp9hQAvfX518qOkI2nDr9RqMuksyWQjaaLFncefB4YBDOt4vuHts4Z12Bawd5fnFtBkBIAjAARJxhAMgrUYoyWnqWx0pzf/p/Cs/hZkQ+Bzv1evM5wvLcT/Rcg38lvcKDq6QH3qbndBHlrSS4GbRuBELqQSQGdurlGhC4yRNWhgM0WbIgya54Qdl1Vle7uBoqjdpFb9HzupQtkYC0+vukV2lOHNFzwNaMl57RQJBVzumba+B+5F/1XGgeYGFleeI3plKsHqvX0/hehBDChSi7HJf05sKz39HHwG8ayjZJ5vjldEGGIE//ufqzQVncz5+e6110z9jGsqkfdp3lTVujM6WXbj2g5pQGceo4PDtro5nN45vs+DZ4wZayQa/PtomXleTCPcOXq+APDNk8X2s/tbEE0qdcNzbf9h2pszIw6xy2sJf0IiQzGAAizjAAdIaj+/RJHba+QXqWx9JU8XUOlg7Sz+Hi1BWr3Kz/ddIrPMcO6PlgyFyqNlq+S7+Oxc9Jr3Tp+Q29hrzpKVk7+mjNngV71+tjw7Y7pJYjaCTngVldzpIocbPa1y/ghaATPb6q30to30Qh8BzevHtTZFaO1HPCUG7mCkoF5XxBWjidL9e+U1pJr+yAjppcD2xPGRHjo/v1GJjLJkspgrJsEQgmmfPNx6Z55xiBg2IrDp5EBRpDKCMLCtAg4HHPCMdSzbMcff1UY8DGOsYFd4xp1CAq7viGAFC57JmsA0DISjqnRFAKGk29Z2180x9i1eVew0V31VkGUOMGaUKVAoQkBANAxBkGgM7w2jZ9UodtniM9y4OLczlPlysLz0FTSD4X52Yb7XflfL2vlV7h2feKng+GttfVBnRe5OuY/7T0SpckMhvSxgxKvlV6pUNQNy10cYsKgkZyHtiAG/Rj3b4gR0fHCu5V4/ckD1itxaN2Vjm4Xc8Bg3B6HIJKC9FxzBWrs1jnK6RXAatD2uwnpFd2oOxNrge2aZb0bM6OpXoMbMcy6RkP3KRZJYXYuYfmGMkUdL4qVT710XvHeYeOB4tIhwGZQcgkkgELiBdf0WqSKm9yAVo5Vz/c0DgvMpJg+P+1naarjljwlWspNgSSbh2wuNmYtCknro0yuV/0bJ55+/0nZjaWq0lf/zX8LePXUHGCSr+RFUlIhWAAiDjDANAZ9qzVJ/XGi9Ol0rM809vrefySk3nd9XNx2uCOvV3Ph910V7Yt0vPBkKlRbTx6kX4dszpLr3SxBLVffEh6VZaVo/QaYSczaPO6fbE+Lmxvc52HUCBoJOeBISAqH4vQGSgQCMsWBxlR1kPcMLXMbpFepQkKXm+LqbWxcYaeEwbhalesdujohGZhCVtnnclYDMqlXcprg84zaQRlrKxGGEs0M+fwiZPel9u9qLJn/GyUAfM3yyFOoBObH6DxDa3mdyTYdh1i1aOXbvfajlnpPTxuVaP+UJC20E19FzWWVsnACQJDCKqgdX2WoLvdhXeNVesptms7z2g2BmLbH71nrPrszr9zjHd5q0kq8FXzJKlZSEhCMABEnGEAyAvenURgKCrYnZXz+KKzuACVzwVd+Idhcgs9H4Q2XQna7Ub6frVhdmt4RHqlS/uP6jXM6iS9Ksu6KXqNMJQDps3mufq4MGTkRSUoANDtav1Y72+LwY4c2Vu4sU06i6HegACy/IyG/l56lWbXKj0HbOcK6RmNoJKnp74kPcMzv6eeD8FECTSGpB9s9TjpmS1tPqDXhM2NUljd+DBPGiBIZWVOdbi40EmRZAoycP7Yd0GzrJhPtZjgjVjscJ4vA7JvZq/fE0qbBi3sO05a4/194GLvgRdWePNe2StdnDl8/KR3/VOzG7t+IVsIQRQYhJPHL8++DTyEtYO6scGQLfWPQbr0Gl3WrntqzpufHbKI/thnYWOJWN0RdI2BjVNCKgQDQMQZBoC8QqmXPKnDXG5EUWYk52n7wcJzVgtdBCpcmfaoni+OwG1QOdAbTeKAVUPXz+nXMukB6ZUueShDKwdKZOQaYSipSZsg4Wa0WY9KUBlnx0/qx/r9SI4mlcQq0xt0o/QqTVAJYNzsxaAyRb+zowvI4JHztXyn9CoIF0s/mItIepJYmY3ldIksMfaun5VeyWF1/4MteV56kozYfeh4Y3AGAsPFmjmV4Pl5mxtL05Clg8AMWrkjwHHLc4uataWPy6SXd3p3D1/WGGR6omFd43tQCaBjdGnLiYFlYAjwQHg7iP1HXm8MmCGwVbegy6A8n8B2r5aehGQGA0DEGQaAvILYszypwyAsGpXF/fU8fptcK2MnzkWwmW10ofQKj9URKo7WRSXp8TX9WlAylyW4qZNrqGT5hkVgGVbMG+cwBGWchekoJDmyR88DQ4mlfAwBB5If0NZcfkbocBiFJLPJigna9Y0aoCombDfIoO+mS2Zqkjz9Tb2mkX+RXs15/qd6TJyGBeVAEBm/u/KYaLqARg3Q8yB1yax1ewIFkREgaTW6qaV7LTF3w17vI3c3L+nyA0JPvFhGxJ0Eb5bF/Y0hJAYMABFnGADyCp1I5EkdhlTyqCwfpueBZgJ2vMbfpZ/r/mU5Q3jQflLOB7FLV6xd0zgZSpUEZT7ytUA0OytQaiCPD8PNX57A7pVcIwy7XWkT+L1z2CUNKpdp8Q79GLrnkfww/Cb9GfX9ofQqTZLZZMUc3KHnhMXRfFo3Wc8Hk2WX6xu0DwzBzkoy8Od6TeUCdhBel2PS7oj4wi36mL499l+F8ldSd/y422zvvFIizXeO9l47KoKxNQJK5JCNdGXrSd6nHpjg/aT7nEYR7YqDQDsytLFJunuNfDYfhD1vE5IhDAARZxgA8gptHOVJ3bUTEjoCyLlg2HEcdat+HB1wXDFLtmK0lR/7Lz1f969Ir+qg/4/1axnyW+mVHshikceHIeslTwR19cmizKRUsDQqyJ6QcwXZiD/J0aSSIHtEfkZRdZqC2n8jMBgHiBTLOWET75Oe4Qlbcrx8qPbB9+P0qeZ+WTP6Nr2ucs0HkEkqx6Sth4bgttW2udiG/q6g5eUKgtUQwMZvO34/qQeSe/xyr1I2Y23MwDEJz66V3huQSfC/k63ek80GVFSCMjepK0YqCANAxBkGgDy7PTt+hFxY36DngqGczNrp7vN9OUN4ksygAAiQyLmqVS8FJRrytaAMISuCMgc2zpSelSWodGrDNOmZPNDjkMe1tFDCcv9b9HyW4QaW5Icx/9SfUc9vSK/SrByp54DJsqqonDqh54TN6CA9wwPRcDkfTO58W2LRaQknR2Hqw3pdyKgJ4sRh7Q8r1zksCfA5WV3Lig3BqajaQGh7j8Bl8Y0rDMcafnP8zDOSGkGtzYttOgNAmXDqxDFv98O6YcdLXX7unTztsBGUJpa8Q8t3SS9CMoUBIOIMA0CerX3z8PnSKxxBdcIQ1R38K/14udT5Uqxv0PPBXLSLAMou5FzYIa1Gkg62RQUaOvL4MOh65Alkpsk1wrLoNGS1a45Twmhpflg2/m45klQSaLLIzyhql61lQ/QcCAgmAbIq5dwLekmv8OzdoOeDyZb109ppn1KBlqzAa5fravVu6dVEkJB2VtkyCNZ0ukwfXxqEvfdtlKObwDm9ofWZz+ASPVYaAkNzn6p8tlZYEPBHNnKXKwsBvhoua/lh11neeXcEZwFBF+dAjZaA5Y3pnQz9tzM2/54rvJv6LpLulQWdDuVaq1Ujk9QMDAARZxgA8gq7hPLE3uHj0iscQcKduOhHsEc+jqCQK0kLn6LcS86VtXByUoz+u34tEC/NisCOETmrb0e5lbVDjvKstLEuqCDa7IrVntqyyS3lSFJJkhDHf6mfnsMX34+L1UkuTobcoZ16Phh0jIqxNOO6Xd3cpxIEZZ4i08dizXjtC8sySwaZXOhUZmmCFRsCWTMfbwrcoDxsXo9CiZv0DWPoRolNoTyDZhKyVA7nUmgCogSyxpi2ZnezlvTNgj+3j/buf2GFHEJSYP2s4d4b9xnXHmds273n5i8TK8n7BEISggEg4gwDQF5hV0+e2DtfIb3CsWuVngu2c0UhA0U+jkwVV8KWEoTl8U/puV58SHpVB1ZWQberpVd6BAXnDmyVnpXHypzBDXXazOqsj/voRdIrPI98WM9n2dRH5EhSSXCOkZ8RMjaiMP9pPUfbD0kvNxY803xeBMrj6D4ElUQhUFLMsD9qnz7fa+5TCbbM1+uCYZPDAgEU6VsqYyhNdq20O0RKe/LzhQ2bcgGjMIYA+7A/FAJ/eQJ/wxAzl+stNmQyISPIpTNjjuk9a2NjsOeCO8d4596ONvBjGwMOf+iz0Hv91Gnp3pwdSwt/R8QE2VP95m7y7hux3Ht88lrvpc37pYvnHd7lHX7Q0AU7ayfve6t30V2jvLuHL5MjK8eUB9U6vSc+I70IyRQGgIgzDAB5yQYLkEIu54JtXVhIsZaPQzzSlaTLjB46R8+FNPZqJMmgngvrG/TxYa7leWlife64aUub6e31cTt+QnqFp8PFej7L0hafJdGYbuysRi11mtNVz9HuQunlzvqGQjYkjhO3hXhg1t3Q5n5oky594mSMJsX+TXpdMIhbW0y8V/tmeS6W4P3H+a3N+/W6XE1m0FiG4yHbJk7wMCmQ2dP7Wr3GIEMwFSWJcUXVcwQ6Yj0yflVjV6x7hi8rn22yYWrhht9/T9BoIu65oBIg8w6fZUMbz1s5yvNOHJEezkxdvcu7+N5xjWV0F941pjHAhsDan/ov9E6cLAqsWXIDwj57R2/vpr4Lm8ZUmnF3qDWWFb8nJGUYACLOMADkJVsudOhVPRds44xCy3f5ONL8XUlSaPiN0/ZFLDqkVSOVTtcNKpNwFehOk/Yf1etEGUTa4AJUHjfOjeHjWkzSNJSekfwwu4v+jKJmglnfd2i15BVkwMj1LurT3AdC2NIHv1WVJkg3DF1yLAb9Uvv2/YH0yh6USltl2WEN2lB4HUsHFm6ioY1kBdOlIYjg8hudFMjU6ny5XlcYg+YJAvdB5X61CDbanrtevxewAT9z61pZKY7uL1wHFb8GNF549juF4HZQFl8I1u481Nhh7VyjvA4BobuGnc3mmfOkfh8Nu+6uR722Y3KUaTXiFrXGxiAqIRWEASDiDANAXrKCwUFtg9dNLuhayMehf+FK0LFcWo0jM0XO46+7GklS2NuFpYP08RFgyyOdLtVrRdp/2ky6Xx/3yaukV3iKd2dLGbr+kfxglQhFFdeEXomcAze5eeWRC/R6cWNUDIKh0gdlCHkAYu1ybehaZmFpy6H0KC8gcNXuI3qNQYbyMAQtrZIu/I6iO1iYjoTouolSWxjeOwTEi23U3wplgMWGbDk0lHAFgSd8t+Raohq02hB0rcYMmLDg+goNA8qVASLDrVqwyq6lYSMFG5PIeIrQRfGvA17yzi8hro1Su93rFxU6Z8ljGvaXu+70Vr+ao9JDK5Adp4kLIQnAABBxhgEgL9mW4UFtg5Fqa2UoxNEjQSq5nA8WtBNbiqBysqw6tSQNbvLla2n1HumVHguNTjlxOlylCYIucq0IzqTNuDv1cXGz6Eq3q/V8lmHHnuSHJLrBTXpAzwEB3ryCEje5XmRWFGNpWiHwkAes3zKU3VqgFE/6ytdaaXCzj6CUVZoHQ0YabvTR0SwM6OhmZfwmYS3e7nkDf17IKo4CAk2lghn4vkA/EJ9N2CARNlWg4YWmB7UCBMCh+4Ugl3y9QYbf+2ogKJMpyFq/t5DlhOxEZLeX4NOtJqmgT7F95F/DvIOPhujGd9bmPHu3PERl6fd/ao2NQVxCKggDQMQZBoC8Qi13kif2oFKq9h/Tj8cttUH6rpxzyfPSqzxBwp6l2uLmGbzf8rVkmYGTtiZJkvT8ul7r2AzOCVbpJXSyXLFKZixzCZCS9MD5Sn5GOK9FIelgYtpY2WoyG9S6WV/cv7lPpXj6f/TarKwelLxa2TDIkMwjaBnvB26wYYCsG2RCuJT5YAw2IsIGU1wMf0cIVpTKxME6rGzLYkNgoFgLBiVe0IkJU9LmG4JkKJPB+bVaS8Skzk9YQ1BufYOcLX8gYCfXHsV6f7sQ3DS4tMVEFfQptl53/0jPd8ZOtL3A29rC0O9DBlyesDQ8rXMeIRnCABBxhgEgr/CjJk/sL/xZeoXH0nd4qa+9oxRXjwTijHJOdMSJypoJeh5YtbaBrbQGz7RH9bHjCByniSUG+sIt0it5rJr6Z78rvcJjfY8tw986yQ/Lh+nPCJkYUYCYvpwjTjAxbaxOVMVB16BOYavHNflUEmQFyLVZWbN71mk/WJBgdF5IsusVdFfw92ltDCVl6NaFIKjUcEFgCJ+L9C82NMGABqAFRJ9RDmxdZ5QyBC97XeN5Mx4rdEbNO6V0fqRZXTNhEPkOmyFWCfC3IdfsYvg7HvMP9R35Te8F3vl3jFaBH9gv72hpt3xHcHjdFM8b+Av9XL8fNZu/4jz1Rb1GlAgSUkEYACLOMADkFZT85YkdHV9csXb8oHOBdFr5eFw9Euy6yTlduhxZu/AQuXTZ+cwD6xv064HhYjwLsJsvj53XlqFWt6Ehv5FeyTP0d/q4yMZzJURnkUbbME2OJJVk5Sj9GcFQThuW4Tfr8XlomR4ERFflehEQ9dm/WT8P2zy3yaeSWNl7CGpJ1jdoP1gcHZtqZfsSO/CXpOGGGjfOCHJD5LrbF7SPb8haCXv9gY0g6Gwh0CTnCWMQHka2xOqxhXXlhQNbw+n8wB7/VGFjCYEU6xrPf52WNlQesK7xYAjmWHpj5Qy6WcuGvDn9/I37GnV+ZPDn0n/18/bc+wE9HoagJcBnIJ/L2/WSJZwOrS5CKggDQMQZBoA8W5wZmhKuWF2VEJRBQEU+HjcV3hLwRU1+VKySpSxFk5MGO8zy9cCyuvisppahlrihtZufNNauHzILXCm30+1bXm6iSYG1E/VnBIvSchoBSzkeO/p5xfpbxffQB8EC+TwMGi15AL8xcm1WhqOl74TyvqCMk3oAWjzFN9wQBEfgwDcEGpC9Vmw4L1q6S6XMut7wDRk9r0yXKyvPsQMFrac2ATf0UQ0bWHjN3a4uvE7orKDsDsFQXwwbf0N4zxC4x5r3byoEbsKADZ/tiz1vxQjPm9mxkImFjQLczIcUI27M7EGpfrEg8qbZweOf+lLpkrxKYWVJdri46Xm8r9ioRAOUoCwny5C1iwyqM/Sbu8k77/bR3ofPtn+/4M5R3ov3fF6PgUF70A/yW53B8L7niaDrekIqCANAxBkGgLzCBZc8sccRZ7Yu1KyW17C4eiSWgO/E+6RXeXBRJ+fpdJn0qh52LNWvB4aShCxACaE8NkqU8oiZPfF96ZU8Vsp9nMwjK5BlGW6uSX7AjZ38jGBH9kjPYAbcoMcjwJhXoDEn11uc/bb+Rf087PDuJp9KsuAZvTZLZH9yS+3X8ZPSi4QFwVL8nVi6SmENm0ZxfwcRWEGZM4Idcv4sDVlMCCDhNSGAhOAOgqu4LoobpEKpE37Hg85D0BkMEg3H+ShvQU7rWrE46FwMAlhrxhc62lnaldIQDEOG2KkT3rpdh7zWo1/2ftp9rjf0CUObDYYA0+7VTccLygLNkwSBlf2G8yAhFYQBIOIMA0BeQBlVZ+kVHktEcMw/9WMwXNDFwRK+RUpvVEbfpueBOHC1smetfj2wHcukZzpYGQkotcoj1mf/9DelV/IgyCSPi2CUK9g5lvNZVnzhSSoPdtPlZwSLUiaEshc5fujvpVd+QDmMXG+vbzU9H6SLhM6PeSDohq1YSBhYZZ55DYRXE2jOgFbdyOSR728pgy5P0mXQh3cVxMkH/8q+Sa5Gw/sUprMZ9JHkWN+grZQX8L20MsKQ+R0GZF5Z17XSsPkJIW2A9y8oS0rqVAZlPIb5DLLCev/YUZRUGAaAiDMMAHn2RYv8gYqC1f7VuhCGuaRhFwOdCzmny0304F/reeLosVQalHrJ1wPLqvzHKvHABXIemXCvXmu3q6VX8uCGVx43TucP7FbK+SxDqjvJD9sW6c8IFqUDoSlk/mfplR9w8y7Xi2wKH/z+yOfzVBKxZZ5eH2zfK839EEiWPi6/T8QGmRpoQY4W7vJ9loayqrQDiGihjk5q0MCzMk7ybshOQ3AzCsP+oOfxbUFO2sPjOlOuDbZ1ofQMBn87EPW2mpxIwwZYkK7Qcz+RM3vekb3aD5YX0fuTx/TaYNCEIqSCMABEnGEAyLNbqS9+TnqFx2oXidp2+RgM7dfjYAUagtJ6S2EFkpBRUa0c3adfDwylFVmAunh57BF/kl75wCr/w8Vb2liCqHHE14Oy7KQdelWOJJUEu7zyM4JF0bux2pK7ZEJmRbnvnNVF8LFLmp6vNAjOyfXBZIAdGiPSx0WjjpQHgReUPaIsqvj9RikTNGwqwcEdnreoz5l1/dzzWr9P/y3kxdpdWNAIiiI874Mx1mYGDFkj6HJVaazzCcqwinWNwnJgi12+HcYgHI1gjwVKSKU/NInyAMoA5dpgfrYTIRWCASDiTN0HgLBjJU/qMIgGumKVtlg3u7C4JUnltCTCYrW49Ds0VCOBOzZjpGc6oHxOHhsBijwyo4NeK3QV0sbqUDPxXukVHqTcy/ksg5ApyQ8I9MjPCBYl/d86f+WpBEOCm0253mJBVqsrTrerm56vNMg8keuDrRzZ5IOMAatsAuVCJD0QdIHmIJpbYDNqfYP0qAz4e4A2H7JR8HcCYef5Pc+KPbcubDjBsBmFdWP9+B0K6rgV1TAPzhMIkuF3BsdeO6lQLh632ynK6qCZKI8Ja2wPv0KOyBZcE8p1QT4gDsh+sQK8QQbdqlIbcFaXrYn3Sa/KgKxhuTZY3A1cQmLCABBxpu4DQOg0I0/qMLRRdcXKyrF+3GC4+IiDVfbiorGADi5ynjhC2HnAEsosaluaKlb6+6T7pVc+mNtNrxWdadKmy5X6uFNaSa/wTHlQz2cZgoMkPwRdXEcpT7D0KfD3kFewsy3X+9A5Tc8Pv0k/j6zCPNH6vXqNxaXTQZ9r3LJnUp9AEBh/U9CLwd8QNukQREJZEoJIuBZqDCL9wfPGnrmmnd2lUM6FQHKUjoKuoPzx4fP03zsMgZJKZp5a60oiQA5tIZSQy6wzy8odz8pChzRBHkAAT64NtvNl6UlIpjAARJyp+wDQoZ36pA6Lc5Fq6enghlo+BkM6bRysduPdvyK9ymN1zMAOWTVj1aojHT0LrE5wEIzMI4ue1WvFzV3aWN33prWTXuFBwFLOJw1CuiRfQOxZfk4wiEOHxfy+5TiAjRJjuV6UIvtYJRYupb1pAr0UuUZ0AvIJ0h2hBhepVTbPCRY+RvZRJdrDo+ObXAssbgfaYhAgsRqS+IZs33LldS/cosfFzVJKiiDNs7jX74TEhAEg4kzdB4CCtAyi7D5LoPUi57N0hmBx2/pabXaxGx4FlMFZ7UyXD5We1YW16zX3KemVDkl3lksTtLOVa4VuRNpY7WXjaFVYZTXSoHtA8kWQAGgUfYWk/5bSBjdfcr0wX6TX0jQadWvzOSqNVeZavEaUesnnURKWthAxIZUEWcbW9RQsjsadK9b3EJZGRhI2k5DJWHwcbCaF0XOzOqrhvJ4HULom1waD1iQhFYQBIOJM3QeAkMIpT+qwOKmdo/+u5wuyE4fl6GhMb6/nfOy/pFdpEISSc8DWN0jP6sKqT0e6eBZYneUWPCO98kFQS+eTx6VnslhZcShHc2XOk3o+afhcSL7AOVB+TrAoZbgPn6/HZxXsdWHdZL1emK9P1eXT+jkE+/OEVeo84Iam5yH2LJ8v1jkipFZBJqv824dhUyqu3lBURv5VryNNQXkE9FGChwxBaDmF3Uy1siLzEjAOukYql9VESMowAEScqfsAEH6c5EkdFqUFscQS8AyyuD9uc7rqOR/5sPQqTZAIK2rtqxlLdwlaAVnQ4h362Euel175AF1K5FphELZME6vsME7bXATY5HzS0O2F5AtcRMvPCRalHTOEVuV4tMfOKyhvk+uFvbat8Dz+TuVzecsgHPU3vcbikg0rExZt4QmpB6BHJP/+YbtXS8906fo5vYa8aOsUE1gyull6Zg+u3eS6cI1HSIVhAIg4U/cBoKAfHWgDuRJWjBbCeXFZ2FvPG1W/Ba175RywPPzwxsHqMgXBwrRBa1V5XFiSNfdJUu5mNC1QjiWPGadDUFCqe7GlufNJ3LFKJqKUoFoltnkNuAJ0f5TrhfmlEtbrifPdSAME0+Uaoevlg2YE8vmhv2t6npBa5vAu+7yGa7asQHYlyrnlGpAtmzeC5Bg2zpSe2QM9TLmuth+SXoRkDgNAxJm6DwChzECe2GFxukZMe1TPZ1nUQI1FEvotq8fqOWBxy9MqjaWjMfo26ZU86FYijwtD2UceQaaXXCts73rpmSxJd2nDWDmftM5XyFEkD1jCqSgJCANKKqwbrRXDpWd+2LtBrxe27aXgkjicp/OEdVPU+n1Nz1si0XkrYyMkTSxxemQGZQV01OTxYdsWSc/Kg40z65pgyQDpmT2WvmBe9IlIXcMAEHGm7gNAaCUqT+wwCCO7gvajcj7LoFsRl1Vj9Lww1GGHxcqcqIX0Vqut6PCbpVfyBHY1miU980FQCSDa56ZFUJbUypHSMzwYK+eT9uTn5SiSBxA4kJ9V2J3yk8f0WBjOjXkFAqxyvbCNMwqdZeTjMHQYyhNBQtbodPTGaTuLKc9leYQkzfCb9HegOEsubazOmMi8xe9vHrGaZ2BDtdI0tNbr4mYSyQEMABFn6j4AZAnPFbfjdcHaGbUsiR2EIBHrKB10rIBVVB2hPGKJlGbRSjmo7WpeNZWCbjjR+jQtgrIcogj/SoKy+Yqtx9fkKJIHrI5987pLLxsIJ8uxMGhb5ZXAv//xnrdjqX4clrV2SDkQkJJrhKHNe1AQfH2DnIWQ2gVdseR3ANmKcSQGotDvR/r4edbh6vFVvV6IWFea8XfpdT31JelFSOYwAEScqfsA0Pyn9Yk9bqegl/rpOS3rdKkcGR1kKllaKlFaIFut5NGFptoZ8hv9uvpfJ72SJ0jfY89a6ZkPjuzRa4VFCSJGJYnW35IN0/R80npdI0eRPGDt/IYVPQ7MpsmBdkQQyJCxytaWDwsu24CmSJ7Y94peIwyB4yBdOQTHCakXgrJrs9ADRGmsbMkOm5iBDqIrg27U6+37Q+mVPSP/otfFawmSAxgAIs7UfQAINxnyxI6bkThAvFTOaVnXz8qRbmAnQs495LfSK5hRt+rx0M+pdl64Rb+u3tdKr+QJ2hlPW1TZFZRsyLXC0tQcCcoQgCC1K0Hve7Hl4WKSaB77L/1ZTe8gvWwgVi/HwrYukJ75otW79ZoX9SloF8nHESyK2zEyaU4c0euEoXubpU2H13DyuJyFkNrGym4cd4f0Sh5sOMnj+t/PvDLhHr3eLldKr+yp1GYiIWVgAIg4U/cBIKtGOm6NdpAuj7TuX5Ej3bB2J6Jk8Fi7Ls/9RHpVH2P/pV9Xz69Lr+RZ36CPC0u7rborQSK6yEZIi6COH3HEKSGgK+eThrJAkj86X64/qxfbSi+boF32NDWskgAacHLNc7t53oJn9OPF4sp5otV79Fqx/unt9eNobU9IvYFrKfldyKJ8KCgTPavyMxdw/pPrzcO577nr9boG/1p6EZI5DAARZ+o+ADTpAX1ij5uZA+0JOadlz/yvHOmGVcb2wNsKmR1hePY7enwWYslpM+l+/bqevEp6JQ922ORxYadOSM/8YJUR4gIyLaBnIo8Hi3PTvnOFnk8aL9rySdfP6c9qcgvpZVNtJZc+ZtZTe7uL5GOXyNH5oOMn9FpffKig2yEfT2rDg5BqAuX48rvQ4u3hr89csTYGcc7JM6tG6zXDoPNWSXp/W6/phT9LL0IyhwEg4kzdB4DG3q5P7BCiiwO6Pck5Lev7AznSDZQ6yLlhW+ZLT5tuX9Bjx98tvaqPqQ/r15WE7lI5lg7Ux0VALs88dK5e87we0is50rhpR9t6OZ+0Wghs1iJWGWvYc1DQ+Q+lYXnmic/oNUOPDa9bPo5zdB6BqLpc6+i/F37b5OPINCWk3oAmlvwuwKBZlybW+QWlTHkmSAA/zsZQEnT/sl7TuDulFyGZwwAQcabuA0CI4ssTO6L9cQhTigJLqhwFO0kIMMj50Y0sDB0+rsdiJ7ramdVJv672H5VeybOglz5um/dLr3yB90WuOYqQeFTSuGk/sFXPJw03pyR/QHNMflZj/iG9bNA6XY6F5bnUAVgdb7AhgSClfBxZmnnE6rQ44GeFFsny8TyLzxKSFmi5bmXYIlMuLY4fPHNN+FZ9zLlPSc98cXSfXjMsTT3CMEBSQa5pSivpRUjmMABEnKn7ABDEkuWJvf+PpVc0dq3Uc1qWZDmK9QOFFOAwoMZajoWOQ7WDAJh8XeiKkTazn9DHbfcR6ZUvkBkl15zmBSo6NMnjwdDRyRV0SZLzSUM7V5I/rBT7sOevdZP1WNix16RnvrBKb0fcYmuG5DV7xir1QjDPErhOM6OQkDyDcn/5fejzPemVHOsb9PFg2xdLz/xh6YrN6y69sqXDxXpNMx6TXoRkDgNAxJm6DwBZO5hxL7aDBG6lJVmOYgWywggNYnfKEgBGJ5pqZ3F//bqwE5c209rp43b8pPTKF9BGkmuGhlJarG/Qx4PFEcrGDb+cT1pYXRmSLejOJj+rYX+UXjZBovsnj0nPfGEFegb/yvOe/qZ+fNTf5Oh80NBar7Xth/RjsDXj5WhC6gP87sjvAzbeTp+SnsmAzRt5PARl89ZJ0CKP2YPYOJRrYkCb5AAGgIgzdR8A6vN9fWIffpP0isbBHXpOy5IsR7HKnRDsKPeDjzIJOQ6Wdn16FgS1U37jtPRMljSExdMG3dHkmtFFLS1Wj9PHg8URxsQNv5xPGnShSP6wAvEIhoQB3erk2Mbv+RvSM19YQXtkn6LtsXw8r4FL3ATJtQbZzpflaELqgzUT9PcBBs2bNLAC6kk1HUkb65o87G9BWrR8p17T4uekFyGZwwAQcabuA0DWbmvcwAw6Fsg5LUuyHAUBGzk/DJ2RSrFrlR4Dg0hvtYMdZ/m6YCeOSM9kMYXFvya98oVVjvLCLdIrOV5+QR8PFmdHNKidfbGlqWtE3EHWpfysBtwgvWxwIS7HtnyX9MofVpeeXtcUykXl47M6y9H5IOh7bNmJw3I0IfUBslPvf4v+TqDtedLgd9DKwkszozdJLF1ObFBVCmTJy/XAcO4jpMIwAEScqfsAULer9Yl9wj3SKxonj+s5LUPHl6RA6Yx181tulyKoYxkEdaudV6br1wU7vFt6JgsCJ/KYva+VXvmi/3V6zWl2DFk6SB8viU5p1k5dseVdBLNeGfp7/Vn1+z/pZbOwCkXXATYA5LpRtmv9Db/UT47OB5tm67ValoX2GiF5xurKNeiX0is+u1fr48DQYr0amPqIXnsWzTuCwLW1XA9s3RTpSUjmMABEnKn7AJBVbwxdg7hYuz3S8EOXJFY3r3KtKnFRIMfA4pTi5IU0Ok2FAYETecznrpde+QIXonLNSXWps3iprz4eNAriYgmaF9vC3nIEyQNW0DRs5yvsosuxj1wgvfKHpZ9jncNh0DnKI3vX67Valtc29oRkxahb9ffi0YukV3wW9dHHweZg2htfSWFldKKjWTk5g7QI6i66ea70JCRzGAAiztR9AMi64J7RQXpFx2r7KQ26PUli6Wj0+pb0ao51I14N5RNhQPmbfG0wlL2liSnummDHtzSwWk+n2aVk/tP6eEhbj8vD5+l5i23JADmC5IHRt+nPKqxmxcyOeiy6tuQddJGR627xdv0YDJk2eeT4Ib1Wy9IMJhNSDSwdqL8XsKQ3pKxget6bUBQTlLmd9PsUliCZhFeXS09CMocBIOJM3QeAHj5fn9iTqMu2ugZIS7q1pdX5oe0HpVdzoIkix6SxK1UJ9r2iXxts20vSM1ksPR20d84z1g049LHSYk5Xfbx2F0qv6CBVXM5bbCtGyBEkDyBTUX5W3b8ivWwg7C3HPv7f0it/RBFQTjtoHYcwmx3j7pCjCKkvDmzR3wtY0psSloj80N9Jr/wS1EV340zpmQ1bF+q1wLBOQioMA0DEmboPALV6jz6xL3pWekUHQRQ5rzSk6ibJ6rH6GLBSP1RWxyrUqtcCh17Vrw2W9oUEBJ/lMdPsqJUEE+7Va+52tfRKDiv7Adl4ccFOp5y32NiKOp9AoFR+Vk9eJb1soKUmx1bDOWxxf73uIEO3xrzy2CV6vdJmPyFHEVJ/WBsUo/4mvdwJEpuuppblEF1GyZd8DUkHysIS1GClWkrqSE3DABBxpu4DQNYPzbLB0is6j39KzysNQrhJ8to2fQxYqW4FVieasKUXeef4Qf3aYGsnSc9k6fo5fcy8d+BoaKPXDH2stEgra6PLp/W8xbZhqhxB8oD194fPMgzj79ZjIaacd8J20IJ+B26K8kqPr+o1S1s5So4ipP5AO3P53UgyWA1hYjk/LK1282lhbaBOe1R6ZQP01+RaYLWgk0mqHgaAiDN1HQA6eUyf1GFJdEuwOj5IWzlSjoqPpYEy5UHp1cTAn2v/WtFrgGigfG2wUgGxJLCCf0kLficNdK/kmpPIyAkCf5PyeElcCD/5eT1vsW2eI0eQPICLe/lZhdWtyLp8MSnWTdbrtgzC5nkGAvdyzdK2L5GjCKk/0IVSfjeQsXPsgPR048W2en5kuZ8+JT3zjRVUHvlX6ZUNZsfSt0ovQioCA0DEmboOAB3dp0/ssPUN0jM62IGW80pLIxPl2e/q45Rqp9z729o/73o1UbBEVdNOJbZ2r2Z3kV75wuqkBH2stLBKzp76ovSKjlV+V2zbF8sRJA9AEF9+VmFb/1qip2E7iFWSsC3U0wzEJsELf9ZrloZWyoTUO8jEkd8N2JoJ0tONPt/Xc5drBJJHBt2oX0ffH0qvbFjQS6+lzfulFyEVgQEg4kxdB4CCSqaSyBJAGZWcVxq6HSTNROPGupSos1WuhDlqBfxQy9eHH/Q0afOB7I8ZF+heyTVj5zAtxvxTH6/nN6RXdMp973atlCNIHrACkGFbuUPgVI4tFfTOCzuW6XVbhqy2PDOllV5zseU9g4mQrHjjtH1NAi3GuLzxRqHpRxpzZ82Ee/TrgLh1JZjVWa+l1DU1IRnCABBxpq4DQHvW6hM7LIl6abTQ3j4I2wAAQGRJREFUlvNK27pAjooP9IvkcWCHd0nPAu0/pn1RDlQroLOUfH1pC5JWIusoLtbfTZppzpb2VK9rpFd0rB3QYisliE4qh7nL+gHpZWOVsQ74mfTKH3vX63Vb1vtaOTJfoJulXHOxJVHaSUitYF0bJqG7iM0NOS8MzUGqDWtDoFKBZKu7bqdLpRchFYEBIOJMXQeAgtJxERiKy3M/0fNKe3W5HBWf3Wv0cWDQm7Bo9W7tu7C39KpeOn5Cv740xQRPndDHg6Wh95Qk0L2Sa4adPC49k2HYH/Wx+v5AekWnnB7JwR1yBMkDVkcstBcPQ//r9Nghv5Ve+SOoS6G0gb+QI/PFihF6zcVWDdlYhGSF1QAB5zpcO8QB121yXgjIH9kjPfNPkPByUlpJUbDK1bt9QXoRUhEYACLO1HUACKVe8sQOQ2lYXKxuD9L2rJOj4oMUY6u1/XQjqwc399IPlrZIcpZYYtxoG50WuECRx4OhO0eeWd+g1wxLS7tj8K/1sRA0jQtuluW8WbweEo84GWiW7tmIP0mv/HH8kF63ZZUSPw3Lpll6zcUGkW5CSAGU/svvCGzzXOkZDZzz5JxJdNasBEHlsWlsmpZj1K16HUlkbBGSAAwAEWfqOgC0vkGf2GEQh47L8Jv1vNIObJWjkqHn1/WxIKonQTaE9IOloU1UKbp/Wb++cXdKr+QI0pWC4GueCRKkTSIYajHgBn0s6280KpYeTLGxdWs+CWqJjk5+5bB0n0b/XXrlDwTrsUMv1y5tcgs5Ml9gI0OuudhmdpQjCKlf8BtklYnH/Z50+bSec9gfpFd1gI0a+VpglShnG/p7vY5+P5JehFQEBoCIM3UdAAosezkmPaODGxA5r7S0UnOttsjWTtDOFdoPhsdrBXTAkK8vzR31NHWl0gRtmuWaYWlkqQGUhchj4UIrLlZHKN9wsw2hTJI/1ozXnxfsxBHpqbGCvOPvkl75BKUfcu3S0CEtzxw/qNdcbMuHyRGE1DfWOQvly64g8xjt5OWc83tKz+qh9Xv165n7lPRKn+d/qteRxGYVIQnAABBxpq4DQHHKDsqBGxA5t7QTh+WoZLA6OuHiQB5v4wztBzu4vblfNYOdGvn6kgg0BJGmrlSaBGlHpZVyjTbd8lgI3sTFCn761vJd0pvkhfUN+vOChSnZszoZVkvnm4fP12uX9lJfOSp/lApkpdHsgJBqBlnI8nvy8HnSKzxrJ+n5YCilqlasjCbo8WRNtZYYk7qAASDiTF0HgKxASVKtr6EzI+eWdvqUHJUM2xfrY8FkGRKEiaUPLIkMqLyQdYegrEupkgLliHLNsC3zpGcyPP1NfawktEJKBV7DdpUi2bNxpv68YBBKLkeny/Q4dG6pBh77L712achUzTsdPq7X7duhndKbkPomqOR192rpGY6G1nouZNCkdY2ZBWgKIV/ToF9Kr/Tp8TW9jrF1es9EcgcDQMSZug4AWa0msSObBNPa6bmLDTXgaYFuEi3eoY+J11uM1TUCXcFqCdTAy9fY94fSKzkg9iyPB6tE94ooHNmr1wzbMFV6JoOVAp9E2Q4yP+S8vj3yYelN8sKW+frzgu3fLD01VvBhxmPSK59YIvXSILKcd6zvMwyZQSy7JKQ5CIpa+l+uHVitLJXe35Ze1cXIv+jXhGBM1ljn6LzrspG6gQEg4kxdB4DQGUue2HEzkQSzOuu5i631++SIZLHKIiBMXQxukqRP+48296l2Rv1Nv8Y0OzgEZVWdel165gsIU8o1w9ISXbT+PpMo20Hmh5zXt6S+2yR5AksnQ2hQtbtQj5vTVXrlkx5f1WuXtmulHJU/+l+n1w1DdhYhRPP4p/T3ZfhN0qs8EJNv8349V5rdTrPA2kR99CLplT5Wlub09tKLkIrAABBxpq4DQJa425NXSS835vXQcxdbUplGQeBCQh5TvraJ92of3JjXElZJEHar02LJAH28NLO9kgK79NaO5PKh0jMZOl+uj/ViW+kVnRlGUNc3HJPkk12r9OcFCyNI3/aDetyCZ6RXPul9rV67tDBlcJUmSHy9z/ekJyEEWNdoCApFJaiZB4T1q5klz+vXBI3OMJ0hk8TSaZPZ9IRUCAaAiDN1GwBCmZTVZWDUrdLTDQh3yrmLrcPFckSyYAdcHhNlYXjdPtZFe69rmp6vBaY8qF8jUnrTAjee8njVoj1jCbm+1E96JYO5q9ZBekVn9hN6Xt9kAJTkh70b9OcFg55ZOay/28X9pVc+ee4neu3Sis/ZeSVI8+6FP0tPQgiwSvCxCRNVM2thL3ueo/ukZ3UR1KRk/ybpmS7W70s1CPOTuoABIOJM3QaAgrRa1kyQnm4sG6LnLrZOl8oRyRIkqlrcjnzADfr5NAWSKwFSdeVr7PgJ6ZUcs7vo41UibdmFh87Va0cmWxrgPZHHwnsXF7S9lfP6hnIbkk8gki4/L9jmudJTY7U/xvm3GhjyW732YsMmRTVg6enBUMZBCNEEdd6EQHQUUNov50j7+jILEOiRrwuGwFBWQETbyoxeMVx6ElIRGAAiztRtAGjMP/VJHQLISXXAQucWOX+xpV1qdfygfWO0qE+TD7Rw5PMQ3qslrEwoaIakxdRH9PFc0rorQfuP6bXPfFx6JUNawaZSmXe9viW9SV44vFt/XrBXpkvP5iA7Ro6BrRwlPfOJJXRabGlniibF8mF67bClA6UnIcQHrd/ldwYt4qNglVMP+6P0qj6gm4iSL/naUBqWFbiOlseHrZ0oPQmpCAwAEWfqNgBklaBAyDIp1k3W8xdbFtkIlsjgmH80PW91N5h0f9PztYCVHg3BxLTA+yePl3awLymwayjXnlY7bav8ctGz0is6SwfpeX1DW1mST469pj8vGM6jpQi8QJ8kPfOJpVFWbNVSthhUrlENHcwIqRRWCehTX5JewRzdb2/0VYsGWjmsTOEsswoPbtfHh/G8RnICA0DEmboMAAUJjib5oxlUguVbFtkIA3+hj9vzG03PWz+uaWV8VArsQMvXmKYo89h/6eP1/Lr0yie42ZRrn3if9EoG6FHJY0FAOy5In5fz+gbRd5JPkHkpPy/YqjHSszmumUN5YUorvfZiq5ZWzrhRkqUSuDE9skd6EkJ8ZnbU33lcn6ArZxggWSDHw15dLj2rE7R9l68tyyz1PWv18WHFUgqEVBAGgIgzdRkAstqf4+IVOhRJsW2RPkaxZZGNMO1RfVxkXqDjE7DE7YpLxGqBrNuyjzCEtZ/9jvTKJwhUybWjVDJp0LZWHgeWRF396nF6Xt8G/0p6k7yAc5L8vML8TRzYqsfAtsyTnvnE+i0qtoE/lyPyi+yqOeQ30oMQUgzOU/I7D9swTXraTHpAj239vsJvbC0w6Jf69WVx7eyDJgTy+LC966UnIRWBASDiTF0GgCztmyc/L73isfNlfYxiyyIbAXXK8riwPesKO0zycVi1aGeEJagUDyUnaTD41/pYSPOuBhCokmtHp7ikcc32CMP6Bj2vb2i7S/ILdr7lZ1ZOQwbnMjkGVi07tPO667UX28i/yhH55eTxQkbD0N953qzO1dG9jJBKgu+ItRE39WHpqVk22M6krZYNpzBMuFe/vi6fll7pEVTaeuhV6UlIRWAAiDhTdwEg1Ew/8DZ9Qke78CTZ94o+RrEhUJA2aCcqjwtbPjS4606t1TYHleId3CE9k+G56/WxqmUnPKu1u+q9hAF/v3Je30bdKr1Jnmj1Hv2ZlctI3LlCj4GhzLcaQLt6ufZiww4/IaR2sTYk+3xPejUHXfcs7R8YykprhblP6deXZWfENeP18WEnDktPQioCA0DEmboLAAWJxG6ZLz3jESQe59uIP8kR6dDuI/rYE+8r1IjLx2G7VsoZqpttL+nXCNu7QXomQ+9r9bHSyKJJA5RIybWnkal2eJc+DiwJ3ZatC/W8vkXtrkKy5aFz9Gc2v6f0ak5Qqe2+jdIzn5TSrILVmiYbIaQ5Ucu4sFkp/X1r+U7P271ajqhekBUsXyMMG7lZgM1SeWwE3nwZBUIqDANAxJm6CwAho0Ge0B+5IPjH1hX8QMnjFNvov8sR6dD3h/rY2F3CzbZ8HFZrqa1Bgt9piSSiu5s81tjbpVc+GX6zXnu5nUgX0tRtCQpswphNkW/aXag/szldpVdzgjK+0srwSxp0K5NrL7ZyGVCEkOomSMhZlrHiGhUlodLPNwR/EFCuJXYs06+z8b1ZJj3TAZ1J5bGRqUpITmAAiDhTVwGg06fsXeY0tEGCdE58G3+3HJEOk1voYyPgtWKEfhxC2LWm27B/s36dsKQzvny6flYfq1oCD6Nv02t/+n+kV3wgoCiPA9u+RHpGZ/caPa9vabW0J8nQ4eP6M4NIcinWv6jHwI7uk575ZNNsvfZiqzVNNkJIc44dsMu5UP7kA32tAT/TPr6hLGrD1Cb/WiFoIzUJvcAwYANCHvuRD0svQioGA0DEmboKAAXpwaSxa4IUUdkWt9gmt5Qj0sEK9MAaWuvHsqytzoqgNtFhu2xEpeMn9bGmtZNe+cQSXOz2BekVnyCB9CTKD4MCfrBywQRSWTpdqj+zcmKoQV3fwrZRrjTY5ZdrLzb8ZhFCapsnPqO/++iABY4f8rxe1+jnfXv4/EK3qloF16XyNRcHx8KCTVlkDkUpH8O1mzw2rvEIyQkMABFn6ioANNG4wUUXBfzApoHV3cG3rIICQWLUPb+hH8MOfK1x4oh+nTDcOKaBpbk0+wnplU8a2ui1d75CesUnsLVqArpMKGGU8/oG4UySX6yboHLi/EEB7qRLetMiKBvONwRLCSG1zai/6e9++48W9PKwCSOf8+2xSwqdEGsZdP2SrxubVVFAxjcydzC25bs8b0Ev6WEz6X597Cevkl6EVAwGgIgzdRUA6nKlPplDtDct2n5IH8+3WZ2kdzogE6nNB/TxrZbLT35ejq5+gjKxlg+TnsnQ5v36WAtDXmxUGmTIyLWnERTcPFcfB4bOdHEJShmvps+hXul2tf7Myl3oo028HINzW7UArSK5/mKrNU02QojGOo/B2n9MP+YbAubVonUWh74/0K/dz44KS+fLm4/HbwQatZRjzD/0sdMoiyfEEQaAiDN1EwDav0mfyGFpZmc8epE+nm/zekjv9LDajFqWZjCskliZWC/1k17J8MDb9LFwcVcNWC1XkV6eNEEC5CjXiwtKf+S8vi15XnqTPNHz6/ozKyegbol0VlMpK7JP5fqLrdY02QghmlKly5YhgxvaQfXAyL/o19/ja9IrGGT/yPGw+U9LTw30QeW4Pt+XXoRUDAaAiDN1EwBC+Yc8kcOSKDsJwtKD8e2lvtI7PXATJY9v2aAb5cjawBL+TiMAh5s1eRxYtQi5WjfTaXS8COp8dPyg9IwOSn/kvL6tGC69SZ7o9S39maE0ohTzuusxD58nvfIL/l6tDEVYGt89Qkg+QcmXPAdY1v/H1aNxlgSWDg82V8My7g49HjbgBumpsYS38RghOYEBIOJM3QSAELWXJ/JOl0mvZLFKznxbNlh6p8fi/vr4lpW72apWrAurmY9Lr/gElR+tb5Ce+QR/k3LtD7xVesVn1Wh9HBg6nSSBVd4IS0v3iSSDdY4efrP0ag5KaeUYfN+rCStDsfF1fEx6EkJqFZQ1yXOAtGF/8LzTJ+XI2gaZu/J9wHXJqdelpwYSAEGZ+G0/WOgMXArrN2nYH6UXIRWDASDiTF0EgCAEDOE3eSJPuxX7U1/Ux/Qty6yQV5fr41uWVWeyrLG6C6XREhwaNvI4sM1zpGc+STsw4wP9JXkMZEHgYi0JkDkh54ehZTjJL/2v05/ZkN9Kr+ZMe1SPqbYuLSizlK8B1vVz0pMQUqtYJdjFNuEeOaI+2DhDvxcwyDqUI6jzr29b5skRzYHejxwz+jbpRUjFYACIOFMXASAEW+RJHAYtkjR5+pv6mL6hDCYrsGNkBcCkzeosR9YG6NogX+vE+6RXfHav0ceBofVoNbC+Qa8dFqZtKjp7LR0UrozL2tFr+U7p5Y5V8gfbNFt6kjwx8Of6M8NjpZjSSo9B5mU1gU4+8jXA0PqZEFIf7FiqzwEwbI7M7Ci964cgfaQw1++j/67HFVu5jcCsrh0JcYQBIOJMXQSARtyiT+KN6Z8pp9L2+Z4+rm/Y1ciSblfrNUhLSxi50ljismP+Kb3is32JPg6sWtq0IkAi1w4r1Z3rxOGCJoHvi45zyDgrxcLe+hit3ye93Gn3ET0/bNtL0pPkCWT7yM8MWUGlQJcwOabb1dIr36Cbj3wNsHLBL0JI7QA9MBkMRlOJWr0uCwuu01HyJc+Pi5+Tns1BedcjF+hxxVauo9fjn9Jjpj4ivQipGAwAEWdqPgCEspJ2F+qTeNQ2ki48d70+rm9bF0jvdHnBCIJJWz1WjqoNnv2Ofq0ICibNpln6OLAw7UbzQNQAFrp2WWWOXT9bupwrbeHex/5Lzw/b+bL0JHkCej/yMyvXcaXbF/QYdD2sJrp/Rb8GGLrfEELqB1wXdvh44fuP69Y1E6RHfWLpOJYLxKDkW46RBr3AUlnL1r3DnK7Si5CKwQAQcabmA0DY9ZcncFgWLaFLifqVy5JIGnS9kmuQVi1aNVGxAnFDfiO94rNusj4O7Nhr0jOfRClhQ/394/+tfX2DnlAQKDWU/lG6epSj8+V6fti+V6QnyRMQoZefGTqDBYHzlfSHVZtWRu9r9WuATbpfehJC6oVSmyj1hpXF/cKfpVdzwmx6wkpdq7R+r/ZHt1RCcgIDQMSZmg8ANbTRJ3Ckkx7ZKz2TZ/hN+ti+BWVVpAXE7uQapO1eLUfVBoN/pV/r8z+VXvF5+QV9HFjapYZJcWCrXjts89zmfgheBpVZ+fbUl5qPKWZ6e+3f8RPSyx2I58r5YdWSiVWvjL1df2Y9via9mrC+1/e/5cy5da30zDdWgBpWz7ofhBDiY53rS2WHokNYkBagNOgEWSAAh98T6b98qPQkpGIwAEScqfkAkFWi0vMb0isdRt2qj+1bKV2VNHj9qF1HXWwo6alFRvxJv1boMyWNJW7c4h3SK78gKCrXD9swtckHXTWg8yN9LFs3pWlcMVZQtvMV0sud7l/W88OO7pOeJE9MjKDnc3BHIX1f+pe6KcgryEaUrwPGnWZCCLF/G0pdM6B0TvrDoP0pH0MmswX0DaUvbM146UlIxWAAiDhT0wGgQ68WOijIEzgyELJg3J362L4d2SO90yeoNAaG96laMlWiMuYf+vWWE/9zYf7T+ji44KgWECSU64f52lArR3reg/9PPx9k6IJngdIW6YtuG0kBDRg5Pwyvj+SXKQ/qzwwCyRZW9y9YNV6cQ+tHvg4Yvm+EEFLvWLqBrd4jvZoY9gftj2uXWZ304zB0GpPg/kH6wcJ0HyMkIxgAIs7UdAAIO6jy5A3LSn9ncgt9bN9OHJHe6TP413odviGro1axdo8gHps0aWvbpE2plOeFvUpnkFliiTBkDEmswCiEcJPi2e/q+RHgRJcVkl8g6ik/N2t39tQJz3vkw9q34yerUzfD+j7Asu4USQgheQSbUPL8CLOyek8eP3M9+37tO/AXnrdvo34ctqCXnMXz9q7XfjB2EyU5ggEg4kxNB4Cg8yJP3h0ull7pYd3Q+IYWlVkDTQm5Dt/QOalWebGtfr3IhkqaqQ/r41g3sHnGyvDp8VX9mG8IrMx8vHBRZGXbIRgjQc299Euyc1NxW3rfWr5TepG8MeMx/bmhI45kyQDtB5vdRXpWB0HZTOxaRwghhU1beX6E7VgqPT1v5SjtB4NGI8BGgXxu4M+bzwEwt/SDoVkGITmBASDiTM0GgLALgBRRefIOEnxLg6B000rpwpRqi9ntauldO1iBrzQCgRPv08dJsrQpCx46V7+GIHvgbZ63+LmmsdBfkT6wrQubfMAIozuHFShyZcDP9PzYEST5Bu115eeGzDKJ1TYd5/pq6bYnmdFBvx4YdI4IIaTeOXZAnx9hVgcvq/suunmdPFZ43uo22fZDOkN40yztB8tav5OQEjAARJyp2QBQUEvutROlZ3pYdcuwSt2MQuTXytKApSGKnBesz+Hh86RXfMb8Ux8H7UurifYf06/Bslbv1norm2ZrPxi6HBUz9HfaB1k7SWGJ6j5ygfQiecPU0PpQcx8EE6UPDBf11Yp1foJhE4MQQojntX6fPkfO7dbcBzp/1sbvkN82+UBbTT4P27qgyQesnaR9YMcPNvcjpIIwAEScqdkAkCX8i5tWfxcgCxb10WuAVfJmNOgGH202a5WX+urXi7+FpLG6jSWZ2ZIFnS7Tr0Ea2qtumSdHFrAEmBF0LNbdQi2+9EHWTlIMv1nPn0bGF0kW63wphT6t4CH+vnatbO5XTSwbrF9TLWuyEUJIVLpcqc+TE+5p7gO9QukD8xtZAGSKIntZ+kCyoZgVI7RPY7OUCsg3EBIAA0DEmZoNAEHTRp68+18nvdLFurCHWboWWYFsDLke2OjbpGftYF0UQOw4acFYBNHkcaBDVU08+Xn9Goqt/UfP3GyvkqOaCCozHHRjk4/1N4isnaQYdaueH4Etkm+WDtSfG1q9+xzeVdBykj69r23yqUZQUiC1t1DGQAghpEDfH+pzf/F1BbB0P9GJFY0DikFmtvSTXUutjUOcpwnJEQwAEWdqMgCE3WB54oZZSv9pEiRGV8mb0YY2ej0wCJHWKkEdJJJuC44AozxGcepxNWBdGPnW+Ypw9e+WRgs6iPniiZZWELJ2kmLcHXr+rp+TXiRvWDuuMF+bwRJZh+E8W+2sGlPIUsPONMohj+yRHoQQUr+M/Ks+96NBhc/xQzqQDrOuLazrYGhznjjc5IPyMunz8PlNzxOSAxgAIs7UZADIEtVE6ubB7dIzXYJ0iCopDAzRPLke2OwnpGftsGGqfr0waCIlSe9v62O88GfplW/6/kC/BliPr9ktVy2CAm7D/lB4vte39HNJarhY338EnUi+QRBEfm4wlO2ePul5j16kn3vsEi3eSQghpLaY9qg+/+M3wWfJ8/p5GK7DJZvnaD9YcanY9Pb6+VrulkuqEgaAiDM1GQBCKqc8caO0JWs2ztDrgBXvWmTNgS16PTD8eNYqm+fq1ws7sFV6xsPKfEE2SjVhXWT1+1G0bCmU1iHjRs6Dcp79mwrBJPnc2NvlLO7se0ULQS4bIr1I3ggKmEOzwSrjhKHDHyGEkNpmyQB9/kcp/6nXC8/3+z/9PJp9YPNAAh0f6KxJf2iH+kxuoZ9/4jNNzxOSAxgAIs7UXADo6H5b4K0SJU5BHWuQAVFJLCHobYukV+2wY5l+vTC/JCkpcHEgj4GLiGoCnYdQtoaMOaREo7OZdQFVjhXD9XsBQxp3ty/oxyfeK2eIx46lBU0mlOUheEDyzyvT9d8FDNo/Pb+hH0e6f9isNEIIIdXLxpn6NwC2b2Phuh/XK/I5XG8EYekFFcszjP2Xfh6bV4TkCAaAiDM1FwBaOkiftGGyxWMW7Fyh1wGDmF0lWfxc83bw1SZUHJU96/RnANu+RHq6gRKV2V3s+nNk1FQjxw4UaupdQVlO58v1+wERX3TBk49XIkBL8kVQpl5QadgLt8gZCCGE1CL7N+vfABg2DhY9qx/3nwtifk/tD0OWPDC7un6n+RyEVBgGgEhounTp4t14441v2iWXXFJbAaDBv9Yn7Uc+nHzHpzDs3aDXAstDwGX74kKNMzI1al1DA8LF8jOAbZotPaOBbJk5T3peuwv13L7N6SpH1Q9BNfmWTWsnR5N6A+ck+XcBe+Z/9WOwV5fLGQghhNQiyERGMwn5O4ANzWe/qx9v95HS17ZB1+cLexeeR4cx+Vwert0JKYIBIBKagQMHevfff/+bdtVVV9VOAAh1vW0/pE/aw2+SntkQFHhIsuU1KQ/Sg+VnAFs3RXqGAy1F53W3RWmlrRwpR9cPuGDr+An9nlg283E5mtQbQRmTliEoRAghpH5o/1H9W4BSLUv2AeXr5YCosxznt5aH9qF8bujvm48npMIwAEScqakSsKAa4ZdfkJ7ZAH0KuRYYUktJdiBTR34GsKjtoxH4mf+0fRFiGbq9YUw9s7CXfl8sQ8tVUt8ElWpahpbxhBBC6oeeX9e/Ba3fpx+DodNXOazW8g+dW8gcsjJPR90qZyCkojAARJypmQAQbrStiD00R+JomcQBnZPkemCjb5OeJG2s1GHoRYUBXSYW9PK8DhfrOSzDBcnklp534oicqf7A9zJMwAzvL6lvgjoUSsPfk4swOSGEkOoFjR3k74FluFYLI/uAzWE5FoamKFazigkJN6sgJCYMABFnaiIAhECLVQMMq6RoG36AisWW3/wRuUd6krRp/V79Ofi13kFgF2hRH8977BI91jIcY9ID7EwkgU6SfK+kLe4vR5F649Cr+u/CsmoVVieEEOIOuoXK3wPLxt8tR9qg2YVVPobfmE6X6sdffEjOQEhFYQCIOFP1AaBjr9lpob7N6yFHZEvLd+k1TXlQepG0sTpPITARBFqLWq2nLWv17sKFyZE9chYCEKCFELt834pt2RA5itQbQVpdxYbzKb9nhBBSf0B7Uf4mWLbtJTkymB5f1eNR/mVpPM7qLEcTUlEYACLOVHUA6PBuz3vy8/ok7Vu3qws3n5Wk7Qf1uriDnT1WFs/0DtKrAMqRrIwhaWj7jp0m/B2S0sx4TL9/xVbPYtmkQFDJbLEN+6McRQghpB5YPVb/Jkjr+Ek5qjRTWuk5WryjcH0nH2epOskZDAARZ6o2AIQOW50v1ydo35AVhOygSmPtItRza/BK0eXT+nNoaN3cByUolo6UNGQhjLvD8w7vaj6eBHPisOc9dI5+L31bM0GOIPUGdH3k34U0tIonhBBSf7y6XP8mSJvcQo4qzabZeo4gC6sbSUhGMABEnKnKANDeDXZGh2/QA6p05o/P8z/V69s8V3qRtHnqi/pzKNZiQlehUgEKGAI/aC2KQBGJzott9Xvq24ap0pvUI5ZYu289via9CSGE1AvY1JW/C9IQJIoCNh6COolJWzVGjiakojAARJypugDQzpc9r92F+sTsGwIueWq9DS2Zxz9VWBsEodlFoDJYLT1H/70gAjjkN/o5aUN+63kHt8tZSRTwXgddaGEXjhAr7d63ZYOlNyGEkHqizfv1b4Nvna+Q3uF47no9l2UbpsmRhFQUBoCIM1UVANq6sHSWxtDfe97pU3JU5Tl5vFC6gLI1Uhn6/kD/vXS7unyL8ofOLbQKJckw6X79HsOiiDaS2qXNB/TfBqzdRzzv1OvSmxBCSD3xxGf074NvyDJ2Iay4NO5BCMkRDAARZ6omAPTK9NLCvKNvK7RdJ8RiwA36b6ac9fs/lnslDQSz0TWt+H1u+U7PO35QepJ6xOrWB3O9sCeEEFI7lNJp3L1Geodjzzo9l2W7VsmRhFQUBoCIM1URAFozvnRpQFTRN1J/DP2d/rsJMgQaF7LbQ2q81M/zWry98F6jLHLOk9KD1CvtP6a/j+jIcmin9CSEEFJvjPqb/o2Adf2c9IxGh4/rOaUd2CpHEVJRGAAizuQ+ALR8aNPNomVoL01IOUb+Rf/tWPb0/xR0m0i67N/keUsHnnmvX5HPkHqmy5X6Own9LUIIIWR6e/0bAcPjcXjhz3pOaUf3y1GEVBQGgIgzuQ4AIQsjqCvM/W/xvPlPyxGE2KBtu/wbKjaUIc3s6HlvnJYjCSFZMe7O5t9LnP93LJVehBBC6hG0YpfXb8gkjruZtGK4nlcadehIzmAAiDiT2wDQrM6Fk7o8AcMeeFshe4CQsExuqf+OfEPq8M4VcgQhJGtOHPG8YX8sBGQfvcjzljwvPQghhNQraKaC34fia7he10iv6CC7J2jDGYZjEpIzGAAizuQyAPT6Uc/r8ml9Am48Cb/L81aNkSMIKQ06ecm/JfzYoysVd3UIIYQQQvIPsoDafrBwHffk55Mr2+/+ZX2d6Bs6EBOSMxgAIs7kMgAEDu7wvI6faH4CbvUez9swTXoSUh6Udg37Q9PfUqdLPW/LPOlFCCGEEELyzOmTZ+4TtstH41EqU7zDxdKbkIrDABBxJrcBIICoPsoAcPJFtH/LfOlBSDT2rPW8bYvOXDycks8QQgghhJB6ZONMHfjxDVUJhOQMBoCIM7kOAIFdqwqdYV5dLp8hhBBCCCGEkHhADqD1e3XwB4byMEJyBgNAxJncB4DAG2/IRwghhBBCCCEkGfr/WAd/YL2/LT0JqTgMABFnqiIARAghhBBCCCFpMbebDv7AnrteehJScRgAIs4wAEQIIYQQQgipa3av0cEf2JDfSE9CKg4DQMQZBoAIIYQQQgghdQ86fskA0Mi/Si9CKg4DQMQZBoAIIYQQQgghdc/Yf+kA0IJe0ouQisMAEHGGASBCCCGEEEJI3XN4l+c98Zmm4E+f7xU6hBGSMxgAIs4wAEQIIYQQQgghZzh9yvM2z/G87UvkM4TkBgaAiDMMABFCCCGEEEIIIdUBA0DEGQaACCGEEEIIIYSQ6oABIOIMA0CEEEIIIYQQQkh1wAAQcYYBIEIIIYQQQgghpDpgAIg4wwAQIYQQQgghhBBSHTAARJxhAIgQQgghhBBCCKkOGAAizjAARAghhBBCCCGEVAcMABFnGAAihBBCCCGEEEKqAwaAiDMMABFCCCGEEEIIIdUBA0DEGQaACCGEEEIIIYSQ6oABIOIMA0CEEEIIIYQQQkh1wAAQcYYBIEIIIYQQQgghpDpgAIg4wwAQIYQQQgghhBBSHTAARJxhAIgQQgghhBBCCKkOGAAizjAARAghhBBCCCGEVAcMABFnGAAihBBCCCGEEEKqAwaAiDMMABFCCCGEEEIIIdUBA0DEGQaACCGEEEIIIYSQ6oABIOIMA0CEEEIIIYQQQkh1wAAQcYYBIEIIIYQQQgghpDpgAIg4wwAQIYQQQgghhBBSHTAARJxhAIgQQgghhBBCCKkOGAAizjAARAghhBBCCCGEVAcMABFnrrzySu/f/u3faDQajUaj0Wg0Go1WozZo0CB5K0iqFAaASM3RtWtX77rrrpMPkwCWL1/uvfe975UP1zUjR470rrrqKvkwCeC1115rvDg4deqUfIoUMXHiRO+yyy6TD5MAjh8/3vh3deTIEfkUKWLq1KneJZdcIh8mJfj3f/93b+/evfJhEsAXv/hFb9iwYfJhIviP//gPb9u2bfJhEsA3vvEN7/nnn5cPE8Fb3vIWb8OGDfJhQpxhAIjUHAwARYMBIA0DQNFgACgcDABFgwGgcDAAFB0GgKLBAFA4GACKBgNA4WAAiCQNA0Ck5mAAKBoMAGkYAIoGA0DhYAAoGgwAhYMBoOgwABQNBoDCwQBQNBgACgcDQCRpGAAiNQcDQNFgAEjDAFA0GAAKBwNA0WAAKBwMAEWHAaBoMAAUDgaAosEAUDgYACJJwwAQqTkOHjzo7dq1Sz5MAnj99de9LVu2yIfrmqP/v727gJGl2NswnuBBg7u7BA0eIGhwd3d3d3f34O4OwYMFdw3uEiRogFxCCPTNU+S/1BQ9s3v4vgs9zfNLJufs7uzsdm1PddVb0v/5T/XZZ5+Vn1YXv/32W/X++++Xn1bhp59+qj799NPy0+oiziv+VXcEZXY6hw3n1a+//lp+Wl1wPTSIHdwHH3zgQMgw+Pzzz6sff/yx/LQKH374YfXLL7+Un5b+MgMgSZIkSZKkljMAkiRJkiRJajkDIEmSJEmSpJYzAJIkSZIkSWo5AyA1ChsS77///tUMM8yQHgcddFDHhnps7nzaaadVG2+8cborxYMPPvjHN/fA9/E9U001VTXnnHNWl112WcfXuRPWscceW62++urpdftpE2mOZY455kjHxjHmv/urr75abbnlltWss86avr7EEktU9913X/bd9Shzyj7+DvxN+NuEr776qjr99NOrTTfdNJUXdzdqkhNOOKGaeeaZq2mnnbbaZZddOjavfPnll6vVVlutmm666VKZLLbYYtUtt9ySfXe9H374odpxxx2raaaZppplllmqU045pePrbCp60kknVeuss04qE86pfsFdz+aff/5UHquuumrXDZ3ZbJavr7jiiuWXalFGlBVlRtlRhoG/CXfs23rrrVN5XXXVVdl3NtOpp546cDw77LBDx/G8/fbb6Tjyx1JLLZV9dz3KYdddd03nKufs8ccf37Hp8UcffVSdfPLJ1XrrrZde84UXXsi+u9nuvvvuaoEFFkjn1UorrVS988475VPSubfoooum53Anq4suuqh8yp+ceeaZqU6beuqpq2233TbdhS6wgfu5556bPk95XXLJJdl3NtPZZ589cDzbbLNNx/FcfPHFfzqveOy+++7ZK/wZG47vscceqZ6baaaZqqOOOqrjvPrkk0/S+3ODDTZIr/fUU09l391s999/f7XQQgulc2b55Zev3njjjY6vc92jjufr008/fapjuGYN5rzzzqtmm2229H1bbbVV9e233w58jbrv/PPPr7bffvtUXjy3X1Cfr7LKKum4qOfvuOOOjq9/99136bzjXOF6v99++1U///xzx3PqPPTQQ+lumbzusssum8o9x3ubc5A7PVFfNhmb81O/b7jhhunv+/jjj5dPSXXLbrvtNlBX02Ycygb11Gmzzz57KqfNNtus41ykXXXhhRem6yM/l7qtH3B+XHDBBenvyu/Ntbz07LPPVocffng693hO3obs5bHHHhu4Jiy99NLVSy+91PH1O++8s9pzzz3TOcf7tMm++OKLjj4L75ncl19+md5v88wzTzpe7hJ6zjnndDynm8svvzz1Z/i+jTbaKP2sQBuea8dOO+1ULb744qkNIeUMgNQoVOpcXLkAPPLII6lBTPgQCC9o+NGpH3HEEavrrrsu++7uaKRwIaFTfu2116Zbdd52220DX6fTxcWESprbDtPp6gccA8fCMXFsyyyzTMfty0888cTUsKMhRlhGp2iEEUaonn766exV/owy56LC34C/BQ1D/jaBixgdu5133rkaZZRRqiuuuCL77n8Wjbjxxx+/uvfee1MDZK655koXx/Dkk0+m51AePPbaa690S2BupdzLuuuumy7Ozz33XHXXXXdV4447buq4BS7GXGgpY84hyq0fcC6MNNJI6VjoSK2//vqp01TXAdh3332rySefPN2SdDC8HmVEWVFmlB1lGN56663U6Nluu+2qCSaYIDWmm4xG2TjjjJManxzPvPPOW6299toDXyeY4e9OY57QgUcZNNfZZJNNUoD7zDPPpCCVssjDReo4Qkoa2rz+UEPvf9qLL75YjTzyyKnx++abb6awmPqcTlQg9Bt99NHT8XJct95666B1CZ0pzj/qNMp8wQUXTKFk4C48c889d6r3JplkkurQQw/Nvrt5OE/GGmusVJdzPFzfVl555YGv87k4n3hw/NT5RxxxRPYqf8bxE1YS7DzwwAOpLI455piBrxN6L7LIIqkO57zifdoPXnvttXTNIeSnDiHcmWyyyQbCWM6viSaaKAVAnIMPP/xwChaXW2654pU6XXnlldUYY4yRyoUOJx3Q/Hu4CxbXEjqc1IHUhf2A4IrrN0Ef70PqZd6XXBsDA0PUxVyzuA4SRlIv90LZjzrqqNXRRx+dwm+CsYknnrgjvCT4oY7kPOO8bjLqE9pOtC15P/BxafPNN0/nEtdM2qKcZ7Sxernxxhur0UYbrbrhhhuqV155JZU17YTwzTffpE78FltskepHAqZ+QNjA780A45RTTpnaUaV99tknBf+cA5Qp5+JgCCu5JlBvc14xOEJ77uuvvx54Dq+55pprpkCFur7JaIdGn4W2N+dBjrY09f3VV1+droFcC+nbDBYE3n777akevOaaa1LwynuNnxOBJHdWo13BOUt7brD3s/59DIDUGFRYNGy5YAYqNy4GjGaWeO5QAiAaNcMNN1wa8QxUxnlQEqIT1y8BEMdAAz5wK2COtVf4MOOMM/ZsvFLWlDkXpHDTTTel8q67XSedl8E6bX8XLn50Bgh4wqOPPprKpNdtkhnNO+SQQ8pPD6BTSUiUj5LT8KPBVmJEp58CIGaWMPMtMCNlzDHHTO+9HB0GZr7QMBlKAETZ0EkLNJopQ8qyRIej6QEQx37ccccNfEx5cDzvvfde+jjqjqGOcoJOJecmndRwxhlnpM56ObJMB7efAiACH2ZnBBr/BIKXXnrpwMc07JmtMyyov/Lwgxl9lAsd0hKd2qYHQNQ9hx122MDHBPkcTzmrJRASDj/88D2vUcwwoLNB5yMwe4XyLm9Rza2F+ykAImBfcsklBz7m/UZHPM6jeB/SeQwEsYQVvdBZOvDAAwc+JizhdTi/SnS0el1Dm4SQlfo8nwVLOEbQD84zjvOJJ54Y+DrnDecP17JumFlAsBM4r7j2Un+VmOHQ9AAoUO/WBUDcrpz3XV7/EqZx7v36669/PLEw33zzdQyeRVuibhCOcKhfAqAcYWldABQ4n4YaAPE6lFmgbLn21gVt1JtND4ByBK9lAFSHWWL5e6sOZc6sscAMNs5PBm1LXIcNgFQyAFJj0AniIpEn/Ywy8DlmbZSGGgDRaaPTkGOUj1kPNH5z/RQA8btzDIQzOab75x3VEqOBLAfohrKmDOicBkap+FzeUQ1NCoDojPN75lOGaUBwrlx//fXZM//w8ccfp2Ng9kE3jA4TiuWdcgIAflYeLKLfAqApppgiLefLsXSJBn6gk8UUdpYO0IEfLACiTCgDZrUEyo4R9rqlXk0PgGhccTx5AMjx0LGKcz/qDs4VZgHVNcRKhN00CvN6KAKAd999N3tm/wVAjDrmASBYOhhT9gky6GTSsWIGIzNbuoUeId5bZdkSLNUtHWt6AMS1juMpZx8S1LC8og6z6Jit2gvvUzoDeYeLQISfVS7T6bcAiBkY5ewnZgMwexfMQKGeyQeS6IAzU6yb77//PnXKy+XRk046ae3Sln4KgJg5yOznHPU9M3zBDAT+/rwPQ5wr+SzpEh1vlonnGEzIZ3mGNgRAtBmZmZEH/MxG47l14TN4//E+ZLZGjkCjXEIOA6Df31t77713x+cIRAgtS20NgKjL8sGTEmErr5XXcWDGZz7LMxgAqY4BkBqDGQdUaiUuoGXIgaEGQEwhZapojo4cF6Q85EA/BUD87vyuZTjG9GKOuQ77FtA4JvTohrJmVkIpppuWmhQAMduHMin3cGKKchlyMGWWTgGd+PJrJUafWJqYY0YRP6scyeu3AKhuWjINkDXWWGPgYzrRNO4xlACIMqEMynCMUKBuJK/pAVCEfWW9QLDM8lFQd7AEgs45SzGpy2h41S2lC4yWM2qei1CgDDn6LQAiMC3rBcKf2D+KjvXYY4+dAmuW2vB5zsWzzjqr43tyMdunDMfYt6Uu1G56ABRhXz5bBYStZcgBzg3q4W5hdmC2z3jjjdfxOWaA8LPKkKPfAiDCvjIcI6zO99si1OC84n3IbAJG01la0k3M9inDMZatliEH+ikAouMc4Vjg/GHwCB9++GEKv/KQgtm/lEdd+BWo68qvsy8Vy1VLbQiAmO3DMefYI4rnlvu6BMqWr7NkOMfM7brAxACoSsFkGY6xJQF7V5XaGAA9//zz6b1Z7tOVI6ylPMt9qpgZma8ICAZAqmMApMZg5LxumjaVYV2Dty4Aev3111MHiUdMaaZxyIU11232Rj8FQDHLogwgytkbgRF3yjcP0wiRorx4cIGmrOmIlVjHzt+o1KQAKGaRlRt+1o24sWcPe2owYsk07mj8M4soyiMadsyoYnPMXFyEywCunwIgGruEfWXAyvKd2FeFTjcN39hgsAyAmB2Wn0OMwPPeowzKgJXApG52WtMDoAiMy2WELN+JETeCnnwpAKPDhK2xJIKp/3k5UfYsVSSczLEha12not8CIIKKcrYXy3diXxX2BuJ42EMkUB7U65QBj7y86GxF/Vx25lm+ky+jCk0PgJipyPGUgRZ7zdT93pxLBDt5qMi1Ki8nRofZr2rCCSfMvvP3pb38LDbmzvVbAETdw+amOZZ0x74qvAcJqzknCPY5vwhZI3hmtk9eXoRqMZOjnIFGeJTvQRj6KQBiA17q8xz1PQNrgYCIOp5rJLP2qJO43sced8xQi/KKc5W9ysrlm4QAdUvr2xAA1YX1nEs8l03JqZ/z84p2QMxIZi+qHIEJm2OX/m0BEIMcUV4RgrO/Vjkgx9JMwthS2wIg2ggcP3snBYL7/LyiHRYzksu2J4F33WbrBkCqYwCkxqBhykhUvklodHrYxLJUFwAxAsUIAo+FF144fY6GNJvV5bgg0fHN18WjnwIgfneOoWzQc0EsOw9cOBiRLzelZelFlBcPQiXKmjLIN3Ok88DfpvxZaFIARIjD715OyabTUB57jtlA3P0DNICjPGLWDyPO5Yh6dBrK0ft+CoDAcZUj6mxKyKaUYMNFRpFjE1o2fSRI5P80WOgc5OcQ4SrlTxmUI+rdlrY0PQDi7lUcD5t45uhk97obEEtTuCscCDzycqKjTghJSJSLTkP5s/otAKKzVG5kyWag8T4jTC473dS7fI6ZfDRu8/Li/RRfL0fUaTSXPwtND4DqlkqibsYiCIbK2Z2EPXk5cV0gxKezkQeSMWOx/Fn9FgBRJ3O3xRyb/PNeAx13lurkgwBctxjUoPPENT4vL653sdS8HFFnxmL5s9BPARDLZ/JNxUEdTIATIjQkCKKjSB3O+RPLohn8iPKKejoPvwPXDAKnUhsCIMJsQrEc1z+eS8DDtS4/rzjnaEPx9bL92m3G4r8tAGI5Z5RXBPi01cs6mw3GaaOV2hQAcW1joJJjzdH2yM8r3pO0x2n7c0OKHCHZwQcf3PE5GACpjgGQGoMZFVRq+dIHOjuMVJUzOlAXANVh7Taj0fkGxowK0oAp9VMABI4hb0jQ+OdY89uaMyuGTmZdx7sOZU2ZM6oVYiPlfJ+A0KQAiJFxjjXfwDr2Myg71DnuJFPXwAh0OHmNfOYBgRLBUrmpar8FQOwPwcyMEBtpR4eaKcX57adZWkFniv+Xe5cEyoSyiQ1/EY3lsvOOpgdAHA/LlfKZBxFGlB3qHCNy5eh7rm7DX+o0wtqysdxvARDBIZ3PHA3c6FDH5rNMeQ/xubpzBJybhIh56MYsM8LpsvOOpgdAHA8hYn7bX8IIjoc6Nxd1UK96LERgmc88oOPAtaEc9Oi3AGittdYaWI4a8usg9RZ368vFEq/8XCtR5+WhGzODuA6WnXf0UwAUM1fy/euo73td7zgXOFfy/RhLbCIdoVtg1lXd+60NARCzy/l8PqhBZ55QqO4mJYHAMpYJg1lDzGovO+/4twVAdbhmxDLhwPKvuvdbWwIgBgLYm5PBtfLmD93QZsqXCTNwTp/o5ptvzp71OwMg1TEAUqNQ8dMw4UJBhcaa1nzzNzpidMJ50EChscf/WS7QDRdnGkBxAaGy5eP8okyjmNfhosyFis4EH/e6sDcBx8CxxFI2Glp8HL83o+h0JplSGuXGo9fdPUCZ0xjhb8Dfgr9JflHO/w4ELkwd5/8s0/in0bhlpJxzgs4Nt7/llt2BpXB0kMI999yTwoq6kd7ARZmRKW7ZzbFznOzTka+3ppwoAzoZnENs0MfHcXvipoq7xDCjCezBwjlT7qMUyiVg3VA2lBFlRZkRhFCGeQOHUIgyYoQ5ztG6sLcJmHnByC1L3jgeGqp0eOJ4OK/oJIDzjuURhKa9NhcHjVuWIfI9jBgTWhBIBkJNyiVmtxFu8jEdiSZjmQmdo9iQnY2xmTmWL6NjbxY6kWysyvEzk4O7x5Wb8+foaNDh5zxhhgtlxeaX+WwX9t6gjBhh5u/G/wer8/4pnPeEqvx+HAP1F8dX3lmIqf353XEGQ6eMu/tRttRB7HdG/RX4POUSYREz+vg4n/nZRFyjufbHbcwZfKBjFXcXjOXd7IMEjpNzhAA3n11cYq8fOmEEcLynWUbNx/m5SOhLGfEepUPF/7vVk03BoA31eSznoh7hmp3v50e4GANkhIaEFvkylDrUdwQZsQyF4JqZV/m1lbKhjJjVQJnx/6YOrsX7gQfnDwNm5fuB9xCzGDknqH95P9Jp7+XII49MM/pYtgOWfvFxvoyTPRn5WYRkzKLi/7Hkusni/UA58B4rf2/KiM8xWEaZEsTyca87ZTIAzHkUNxzh+smAU7RPQF3J6xCWcU3m/9T5TcS5wu/Hg/cL70P+H30Wyov2D4NFLK+M55bbU5RY0som9bGf5wEHHJDuHprXcbwGr8XyWGbe8v+6QVz9OxkAqVG4SNIhooPJgwtifkGJUffywUW2F/Yk4W5HjLbSCYmOfKDxUr4mj3wWTBNxDBwLx8Q+NhxjfjtXOkvlMfHoNSsBlDllH38H/ibRgEHsf1M+6qaf/t1odLARL41cNgylgZAv0zrkkEPSSAmju/zOdFK560Q5k6fE7AQ6ZiyZokFNIJbPKiM0LMuDBx2rpuMuOZQJDQqOr9cGhEMNgCibFVZYIZUVr0nZlXts0NAry2vzzTfveE5TEBLzN4/jodMegQ8YjeR44ryiw1nuO1WHDhNBBecq5yxha97piJkf5aPcf6OJaJRSNxFKMyujHJ2k0U44y3uQY2fJDbMwe6GBS0DN9zAbiMYzM6lyvFZZXnHb66YhrCeoieOhDMpZPjyH8ymfKTQYAhGCcMqdgJdAn/AyRKBYPliq2HSHH354Oq9Y+kddVM4E5n0X9T/lyvnHLIReCPBZrsnrsjyKEKTcu4X3fVle/O2ajtkslAX1O8dX3mWJjjTHQmBNuEZIMdj1EMyk5rpBu4OZwOUegdxIoCyvcil1U8Tsw/Jx8sknDzyHDjqDGlFXM3u21+AjCDvofFNOtD9ZxlPOGuX8LH8u186mo81Z/t75EkAGaMuv82BfwV4YjOM8JSijnMs2FIN65WtyXW6imPlcPmLvO66J5dd4cB3oJQahou1PXVjOgiXALl+XQXUJBkBqJJLrwRLwYRWzVpo6Evx/ESMiQ2m0DYv/xd/h78LSkG6jQjGrgkev2QZ1uKC3cRSFmTqUR6+7Vv0VlFWMzrdBr+OJmYQ8yhkcg+FcLTfNbgM6SJRHr+n/1DHDOjOAkJrXbYv/1fFQrnl43xaEpJRXt1m6MaOj2zWgm5i1MtSlGP0irnndZulGGyIf1BiKmOXRa3ZV2/yVujrKd1ivC/9WzFqkvMolq+rETFjK6f+77a/2MwCSJEmSJElqOQMgSZIkSZKkljMAkiRJkiRJajkDIEmSJEmSpJYzAJIkSZIkSWo5AyBJkiRJkqSWMwCSJEmSJElqOQMgSZIkSZKkljMAkiRJkiRJajkDIEmSJEmSpJYzAJIkSZIkSWo5AyBJkiRJkqSWMwCSJEmSJElqOQMgSZIkSZKkljMAkiRJkiRJajkDIEmSJEmSpJYzAJIkSZIkSWo5AyBJkiRJkqSWMwCSJEmSJElqOQMgSZIkSZKkljMAkiRJkiRJajkDIEmSJEmSpJYzAJIkSZIkSWo5AyBJkiRJkqSWMwCSJEmSJElqOQMgSZIkSZKkljMAkiRJkiRJajkDIEmSJEmSpJYzAJIkSZIkSWo5AyBJkiRJkqSWMwCSJEmSJElqOQMgSZIkSZKkljMAkiRJkiRJajkDIEmSJEmSpJYzAJIkSZIkSWo5AyBJkiRJkqSWMwCSJEmSJElqOQMgSZIkSZKkljMAkiRJkiRJajkDIEmSJEmSpJYzAJIkSZIkSWo5AyBJkiRJkqSWMwCSJEmSJElqOQMgSZIkSZKkljMAkiRJkiRJajkDIEmSJEmSpJYzAJIkSZIkSWo5AyBJkiRJkqSWMwCSJEmSJElqOQMgSZIkSZKkljMAkiRJkiRJajkDIEmSJEmSpJYzAJIkSZIkSWo5AyBJkiRJkqSWMwCSJEmSJElqOQMgSZIkSZKkljMAkiRJkiRJajkDIEmSJEmSpJYzAJIkSZIkSWo5AyBJkiRJkqSWMwCSJEmSJElqOQMgSZIkSZKkljMAkiRJkiRJajkDIEmSJEmSpJb7L+6skYij46x4AAAAAElFTkSuQmCC;" vertex="1" parent="1">
          <mxGeometry x="20" y="140" width="272" height="181.33" as="geometry" />
        </mxCell>
        <mxCell id="fV4lutbLEvw6odGB0vFc-9" value="" style="shape=image;verticalLabelPosition=bottom;labelBackgroundColor=default;verticalAlign=top;aspect=fixed;imageAspect=0;image=data:image/png,iVBORw0KGgoAAAANSUhEUgAABIAAAAMACAYAAABcvxwMAABt6klEQVR4XuzdibfV1X03/v4FPxyixkwSp5g09klMbJNmntrEPEmattZq0tSkrTUmNk3aVEAlF5BBQXCeoogaHFBRkUFxQMUZRAWcFRxAnEAEQYbL3T8394nVvS967773nHvO97xea33Ws5bP+yDe89036/Pu+X7PnwQAAAAAKu1P0n8AAAAAQLUogAAAAAAqTgEEAAAAUHEKIAAAAICKUwABAAAAVJwCCAAAAKDiFEAAAAAAFacAAgAAAKg4BRAAAABAxSmAAAAAACpOAQQAAABQcQogAAAAgIpTAAEAAABUnAIIAAAAoOIUQAAAAAAVpwACAAAAqDgFEAAAAEDFKYAAAAAAKk4BBAAAAFBxCiAAAACAilMAAQAAAFScAggAAACg4hRAAAAAABWnAAIAAACoOAUQAAAAQMUpgAAAAAAqTgEEAAAAUHEKIAAAAICKUwABAAAAVJwCCAAAAKDiFEAAAAAAFacAAgAAAKg4BRAAAABAxSmAAAAAACpOAQQAAABQcQogAAAAgIpTAAEAAABUnAIIAAAAoOIUQAAAAAAVpwACAAAAqDgFEAAAAEDFKYAAAAAAKk4BBAAAAFBxCiAAAACAilMAAQAAAFScAggAAACg4hRAAAAAABWnAAIAAACoOAUQAAAAQMUpgAAAAAAqTgEEAAAAUHEKIAAAAICKUwABAAAAVJwCCAAAAKDiFEAAAAAAFacAAgAAAKg4BRAAAABAxSmAAAAAACpOAQQAAABQcQogAAAAgIpTAAEAAABUnAIIAAAAoOIUQAAAAAAVpwACAAAAqDgFEAAAAEDFKYAAAAAAKk4BBAAAAFBxCiAAAACAilMAAQAAAFScAggAAACg4hRAAAAAABWnAAIAAACoOAUQAAAAQMUpgAAAAAAqTgEEAAAAUHEKIAAAAICKUwABAAAAVJwCCAAAAKDiFEAAAAAAFacAAgAAAKg4BRAAAABAxSmAAAAAACpOAQQAAABQcQogAAAAgIpTAAEAAABUnAIIAAAAoOIUQAAAAAAVpwACAAAAqDgFEAAAAEDFKYAAAAAAKk4BRLH58+dvHQAAAKCxKYAodtRRR20dAAAAoLEpgCimAAIAAIDmoACimAIIAAAAmoMCiGIKIAAAAGgOCiCKKYAAAACgOSiAKKYAAgAAgOagAKKYAggAAACagwKIYgogAAAAaA4KIIopgAAAAKA5KIAopgACAACA5qAAopgCCAAAAJqDAohiCiAAAABoDgogiimAAAAAoDkogCimAAIAAIDmoACimAIIAAAAmoMCiGIKIAAAAGgOCiCKKYAAAACgOSiAKKYAAgAAgOagAKKYAggAAACagwKIYgogAAAAaA4KIIopgAAAAKA5KIAopgACAACA5qAAopgCCKC6NrVvCVfetywcc/WiMPSaxeHaB5eHzVs60hgAAE1CAUQxBRBANT350trwxTE3h48OmhH2Onrm1vnooOnh62PnhOdWrU/jAAA0AQUQxRRAANWzflN7+Nyom8Ieg2eG3Y6a/o7ZY/CM8I1xt4TN7T4JBADQbBRAFFMAAVTPH+5+Ouw+eEZW/vxxBg6aHqY9sDx9GQAADU4BRDEFEED1/OrS+8OeQ7ZdAMXbwY69elH6MgAAGpwCiG576KGHwpw5c96agw8+WAEEUDFHXrwg7N7F7V9/nD2PnhmOvkoBBADQbBRAdNsRRxwRBg4c+NYMGDBAAQRQMefNXfKOW8C+MejscMjg48NvhvxP+K8hvw0/G3JcmHanAggAoNkogCjmFjCA6ln70jPhd8MGh6uP/U54+XcfDuF3/1/XM/4TIVz6oxDmjg/hiRtCWL8q/aMAAGggCiCKKYAAKmDD2hAenRHCjP8O4dTP5kVPT+akfUO47Mch3H5SCKuWpv8mAAD6kQKIYgoggCbUvimEp+8IYc6oEM77qxCG7ZAXOX0x8c+d/usQXn85/RsAANAPFEAUUwABNLgtm0N4+fEQHr8+hFvGhHDRD0MYuWte1tRyRn8ohPnnp38zAADqTAFEMQUQQAPY+HoIKxaF8PC0zluvrv1VCBd8P4QJn8zLmN5M24AQRn0w/+fdnfi8oDdWp397AADqRAFEMQUQQI10dITw6jMhLLsvhMdnh3D/5M5P8Mz8bQhX/CyE8w8I4eRPhTD6XR7S3NuJBdI1R4aw6MoQ1qz437/bS4+GsHBKCLMGhTDx2z37RFF8RlD87wIAoO4UQBRTAAH0Qix5Xn4shEeu7fwmrct/GsKZXwjh+I/mxUk9Jt6qFR/gPO+8EFY+lf5t392LD4XwwCUhzHrzfxNO2S//s98+Z30phM1vpH8CAAA1pgCimAIIoIfWvRLCPeeEcPFBIYz6QF6O1HNG7NT5SaJbx4bw3LwQOrakf9syW9o7n/nzbkXWtP9IXwUAQI0pgCimAALogfjJmv4sfeKtWpO+G8JNw0N44sYQNq1P/4Z9a+0LIVz4g/zv8ceJnxgCAKBuFEAUUwABraB9S0c4b+6S8I0Tbwm7HTU9fGr47DB46sLwwmvdvI3p1Wc7H8qcFiC1mOMHhnDO1zqfE3TTiM6S5dm7Q1j7Yvq3qo94m1v8tE/694wz8v0hvPhw+goAAGpEAUQxBRBQdbH8+cl594SBg6ZvLX/+OHsMnrG1CFry8uvpS95p3sS++dTP8B07H8p87rdCuPgfQ7j6FyHMGR3CveeG8NDVITz/QAhvvJb+298h/l3HzHok/OsF88KgKxeGGQuf39rP1Fz7xhDO+Wr+3xTn1M+GsGFt+goAAGpAAUQxBRBQdfGTP2n581YJNGRm+MFpt6cv6bT6uXe//SmZV4d+INx77P7homP+NrQd/cvwyyFHh4MGjw1fH3J+aJtyV/qn99jF9zwTdh80I+z55t/5o1v/3xlb/7sOPOvO8PqGzWm878VPQY3ZLfvv3jqXH5qmAQCoAQUQxRRAQNV9fVznbV/vNk+8mHyCJT4AedQH86Lj7RMfkHzd4HD91ReG/Qdfkv2Zb59vjb/lnX9+D927dGUYOGhG9ufGiZ9k+o9L709fUhuPXRdC23b5zyLOPWenaQAA+pgCiGIKIKDq9hjSdXHy9pn90Aud4dXLQrjwb/JyI53L/imE11/e+pIL7nw67D743f8dB5w8921/o5776fn3vOu/I34SaNmqGj8Q+o9ubMt/HnHiN5Itm5+mAQDoQwogiimAgKrbb8QNWWGSzrynV4Vw36Tufepn8dR3/PmPPP9a9ue9ffYYPDOMmN67ByX/2bDrsz/37TPwqBlbnwdUF/Er4uNXz6c/mzgT/jSE9avSVwAA0EcUQBRTAAFVN3jqoq3PzUlLk60zaHr4dtsloePCH+ZlRjqX/TiE119K//itDr/ovi4/aRSf2fOJodeF51d389vGtuHTw2dnf3b633Hd4hXpy2onfj38uL3zn1GcP/x95zeHAQDQ5xRAFFMAAVX34poNWwuU+Kyct5cm8UHKBw8+IWw+7r0+9TMwhEVXpn/sO7y+cXP4p3Pv2frn7jVkRtj76Flb//z93vz3zo+fLuqln28tmLZRYh3VWTTF/866Wjo3hGE75D+vOLeNS9MAAPQBBRDFFEBAK1j6yutbv+3r7aXJ3wyb9N7lz6U/CmHti+kft013P/VKOHH2Y2HYtQ+FKfOeDes2tqeRIouXv7bNZwDFf37MVYvSl9TH3An5zyzOsO1DWHJbmgYAoJcUQBRTAAGt5KmXXg83P/piePCJZ0PHqZ/Ni4s/ztZP/VyRvrxfxVu8PnbMrK2Fz15DZoa9ju78RNAvJi8IGzdvSeP1EW/1uvig/OcXZ+yeIayp421pAAAtQAFEMQUQ0HLerbSIc8khPfrUTz2tfH1jOP+OpeGoKx4Mx1/3aJ/cXtZr618N4aR9859jnInfCWHL5vQVAAAUUgBRTAEEtJy7z8yLijhtA0KYPylN0x3L7+/8Gvj0Zxpn9tA0DQBAIQUQxRRAQEtZ+VQII9+flxRxbmxL0/TEvPPyn+kfi7VHZ6ZpAAAKKIAopgACWkbHlhAmfjsvKOL84e86///pnSv+Jf/ZxjlxnxA2v5GmAQDoIQUQxRRAQMu464y8mIgzdq8Q1q9K05TYuC6E0/48/xnHiT9/AAB6RQFEMQUQ0BI2vh7CmN3yUiLOozPSNL3x0qNd32YXi7ZN69M0AAA9oACimAIIaAl3npoXEnGmHpYm6Qs3/C7/Wce545Q0CQBADyiAKKYAAiqvfWPnM2jSMiJ+Iih+hTl9b93KEEZ9MP+Zn7BH521iAAAUUQBRTAEEVN59F+RFRJybR6ZJ+tJNI/KfeZx7z02TAAB0kwKIYgogoNLiN3udsl9eQsRn1MRPqVA78dNVoz+U/+zP/WaaBACgmxRAFFMAAZW2+Kq8gIgza1CapBZmD81/9m0DQlj5VJoEAKAbFEAUUwABlXb2l/MCYvj7Qli9LE1SCy8+nP/848wZlSYBAOgGBRDFFEBAZT15U148xLn6iDRJLZ31xfw9OPlTaQoAgG5QAFFMAQRU1qTv5sVD23YhvPxYmqSW7jw1fx/iPHtPmgQA4D0ogCimAAIq6bl5eeEQ59IfpUlqbc2KEIZtn78X03+TJgEAeA8KIIopgIBKuuSQvHCIs+y+NEk9XPTD/L04fmAI7RvTJAAA70IBRDEFEFA5Lz3SeatXWjhc8L00Sb08eGn+fsR5ZHqaBADgXSiAKKYAAirnqsPzoiHOU3PSJPWycV0II3fN35PL/ilNAgDwLhRAFFMAAZWy+rkQhu+YFw3nfDVNUm9TD8vflxE7h/DG6jQJAMA2KIAopgACKmXmb/OSIc7D09Ik9fbkTfn7Eue+SWkSAIBtUABRTAEEVMa6V0I4bpe8YDj1MyF0bEnT1NuW9hDG7Z2/PxO/kyYBANgGBRDFFEBAZdw0Ii8X4iy4KE3SX64bkr8/bQNCePXZNAkAQBcUQBRTAAGVsGFtCGM+kpcLJ+4TQvumNE1/ef7B/D2Kc9u4NAkAQBcUQBRTAAGVcMfJeakQ567T0yT97fTP5e/TafunKQAAuqAAopgCCGh6mzeEMO5jealw/MDOrx+nscydkL9XcZYvSJMAACQUQBRTAAFNb/6kvEyIM2d0mqQRrF4WQtt2+fs1y/8WAQC8FwUQxRRAQNM78y/zMmHkriGsX5UmaRSTvpu/Z2P3DGHL5jQJAMDbKIAopgACmtq2Hip83eA0SSOJ38yWvmdxHp+dJgEAeBsFEMUUQEBTm/nbvESIXyu+ammapJFsWBPCcbvk790V/5ImAQB4GwUQxRRAQNNq3xjC8R/NS4TzD0iTNKLLD83fu1gKbVibJgEA+H8UQBRTAAFN66Fr8gIhzv2T0ySN6LFZ+Xvn/QMAeFcKIIopgICmNfnAvDwY9QFf/d4s4gOfT9g9fw8v+H6aBADg/1EAUUwBBDSltS+EMGyHvDy4+hdpkkbW1TOchm0fwmvL0yQAAEEBRC8ogICmdO/v8+IgztN3pEka2bL5+XsY5/aT0iQAAEEBRC8ogICmNOm7eWlw0p+F0NGRJml0p+yXv5dnfD5NAQAQFED0ggIIaDqvv9x5m1BaGsw+Nk3SDG45Pn8v47ywOE0CALQ8BRDFFEBA05l/fl4WxIm3E9F8Vj0dQtuA/P1U6AEAZBRAFFMAAU3nwh/kZcGEP3X7VzM776/z9/TEfd58T7ekSQCAlqYAopgCCGgq61aGMHzHvCy4bnCapJnMm5i/p3GempMmAQBamgKIYgogoKksuDAvCeI8e3eapJmsfzWEETvl7+tVh6dJAICWpgCimAIIaCp/+Lu8JNh6q5Dbv5repT/K39tRHwhh0/o0CQDQshRAFFMAAU3jjdUhDH9fXhLM/G2apBk9PC1/b+MsnJImAQBalgKIYgogoGk8cHFeDsR5+vY0STPavCGEMbvl7+8lB6dJAICWpQCimAIIaBoXH5SXA2P38k1RVXLtr/L3ON4G1r4pTQIAtCQFEMUUQEBT2LAmhBE75+XA9F+nSZrZEzfk73GcpXPTJABAS1IAUUwBBDSF+ByYtBSIs+TWNEkziw987qrou3FYmgQAaEkKIIopgICm0NU3RJ2wewhb2tMkze6C7+fv9dlfSVMAAC1JAUQxBRDQ8DauC+G4XfJSYNqRaZIquP2k/L1u2y6Eda+kSQCAlqMAopgCCGh4i6fmhUCcJ29Kk1TBikX5ex1n0RVpEgCg5SiAKKYAAhrelJ/kZUD8uvAtm9MkVdDR0fntbul7fvURaRIAoOUogCimAAIaWnwo8Mj3KwNazdTD8vf8xH3SFABAy1EA0W0HHnhg+JM/+ZN3jAIIaFgPT8uLgDiPX58mqZIHL83f8zgvPZomAQBaigKIYj4BBDS0K36WlwCjPxxC+8Y0SZWsfTGEtgH5e7/gojQJANBSFEAUUwABDWvzhhBGfSAvAeLtQVTfyZ/K3/trf5WmAABaigKIYgogoGE9OiMvAOLEf071Xfmv+Xt/5hfSFABAS1EAUUwBBDSsrh4EHD8RFD8ZRPXdfVb+/g/bofPB4AAALUoBRDEFENCQ4jN+4rN+0gIgPhOI1rBsfv7+x3n69jQJANAyFEAUUwABDSl+y1e6+MeJ3wpGa4gl4Iid8mvg9pPSJABAy1AAUUwBBDSkq4/IF/+R73f7T6v5/Tfy6+Cyf0pTAAAtQwFEMQUQ0HC2bA5hzG754j/lJ2mSqpt1VH4djP94mgIAaBkKIIopgICG8+RN+dIfZ/HUNEnVLbw8vw7irHk+TQIAtAQFEMUUQEDDmXZkvvAft0sIG9elSapu1dL8WojjWVAAQItSAFFMAQQ0lC3tIZywe77wX/qjNEmr6Op6uGFomgIAaAkKIIopgICGsuTWfNmPs3BKmqRVTD4wvx7OPyBNAQC0BAUQxRRAQEOZ/ut82R+xcwgb1qRJWsUtx+fXxMhdOz8tBgDQYhRAFFMAAQ2jY0sIY/fKl/2LD0qTtJJtPRT8hcVpEgCg8hRAFFMAAQ3j6dvzJT/OAxenSVrJG6tDaNsuvy7mT0qTAACVpwCimAIIaBgzf5sv+cPf11kA0NpO/Wx+bVzzyzQFAFB5CiCKKYCAhtDREcKJ++RL/h/+Lk3Siq46PL82Tv9cmgIAqDwFEMUUQEBDePbufMGPs+DCNEkruvfc/NoYtn0IG9amSQCASlMAUUwBBDSE2UPzBX/4jiGsW5kmaUXPP5BfH3GW3JYmAQAqTQFEMQUQ0N/WvLE5PHfcn2XL/T3DvhQWL38tjdOK2jeFcNwu2TUS5o5PkwAAlaYAopgCCOhv/3XOtHyxf3OGHX1k+NSw2WHl6xvTl9CKzvvr7BoJlxySpgAAKk0BRDEFENCf7n/21XDskP/IF/s358uDzgt7DJkRxs9+LH0Zrei6Idk1EsbtnaYAACpNAUQxBRDQn8669alwy9AvZ4v9k0P3CbsdNT0MHDQ9HHjWnenLaEWLp2bXydZZ/VyaBACoLAUQxRRAQH8668ZFYcPv3pct9eccc/BbBdDfnHZ7+jJa0avPZtfJ1ll8VZoEAKgsBRDFFEBAf1p80yX5Qv/m/OPgE7YWQHsOmRnapi1OX0arGrtXdq2E649OUwAAlaUAopgCCOhPHdf+Klvo1/zu/WGPo67eWgDtdfTMsPSV19OX0aouOTi7XrY+HBoAoEUogCimAAL61fiPZwv9jGO/tfWTP3sfPTNcv3hF+gpa2W0nZtfL1q+H37I5TQIAVJICiGIKIKDfrFiUL/NvzpknDQ/HX/doWLZqffoKWt2SW7PrZes8/0CaBACoJAUQxRRAQL/p6tMcbduF8PpLaRI6bVgbwrDt8+vm3nPTJABAJSmAKKYAAvrNeX+VL/LnfC1NwTud/rn8urnq8DQFAFBJCiCKKYCAfrFuZdef5LhlTJqEd7rml/l1c9r+aQoAoJIUQBRTAAH94sHL8iU+zvL70yS80/xJ+XUTbx18Y3WaBACoHAUQxRRAQL+44mf5Ej9u7xA6OtIkvNMLi/NrJ86TN6dJAIDKUQBRTAEE1N2W9hDG7JYv8PHWHngv8foZuWt+/dx6QpoEAKgcBRDFFEBA3T19R768x3l4WpqErp1/QH79TP6HNAUAUDkKIIopgIC6u2FovryP2KnzK76hO2Z3cQ2dsHuaAgCoHAUQxRRAQN119TXeF/4gTcG2xU+LpddQnFVL0yQAQKUogCimAALq6tVn86U9zl1npEnYtteW59dQnIWXp0kAgEpRAFFMAQTU1b3n5kt7nJVPpUl4dyfuk19Hs/zvGQBQbQogiimAgLqafGC+tJ+yX5qC93bZj/Nr6fffSFMAAJWiAKKYAgiom03rQzhul3xpv25wmoT3dvtJ+bU0YucQ2jemSQCAylAAUUwBBNTNY9flC3ucp25Jk/Denr49v5biLJufJgEAKkMBRDEFEFA303+dL+ujPugTG5TZuC6EYTvk19Q9Z6dJAIDKUABRTAEE1M2EP82X9fgcFyh15hfya+rKf0tTAACVoQCimAIIqIsXFueLepwFF6VJ6L5rf5VfU6d8Ok0BAFSGAohiCiCgLuaOzxf1tu1CWPtCmoTuiwVidl0NCGHdyjQJAFAJCiCKKYCAupj47XxRP+eraQp65sWH8+sqzuOz0yQAQCUogCimAAJqbv2qrh/WO2d0moSe6dgSwugPdXFtjUqTAACVoACimAIIqLmFl+cLepxl96VJ6LkLvpdfWxf9bZoCAKgEBRDFFEBAzV35r/mCPnavEDo60iT03I3Dsutr08gPh6OvXBj+a8oDYcINj4dlq9anrwIAaEoKIIopgICa2tIewvEDswU9XH1EmoQyj87Ir68351vHnBd2Hzwj7DFkRtjzzblqwbL0lQAATUcBRDEFEFBTz9yVLeZb56Fr0iSUWftifn29Ob8eclTY7ajpb83ug2aEB59bnb4aAKCpKIAopgACaurGtmwxD8PfF8KGNWkSyk34ZHadXXDM37+jAIqfBDr8Is+dAgCamwKIYgogoKbO+Hy2mG99aC/0pcsPza6zB4Z+6h0FUJzPjrgxfSUAQFNRAFFMAQTUzOplIbQNyBbzcOdpaRJ6J15TyXW26Xc7hL2PmvqOAmj/4xRAAEBzUwBRTAEE1My8idlSvnVeeSJNQu88e3d+nb05Pxw04X+fATRkRvjF5AXpKwEAmooCiGIKIKBmLj4oW8jDyZ9KU9B7m98IYfiO2fU2bMgvt5Y/AwfN2PqNYA8tfy19JQBAU1EAUUwBBNREXMiP2yVbyMMsv2+okbO+lF1vU479Qdhj8IywzzGzwsxFK9JXAAA0HQUQxRRAQE08PjtbxrfOkzenSegbV/08u96eGfMX4cxbngwvr92QpgEAmpICiGIKIKAmZvxXtoyHUR8IoX1jmoS+cccp+TU38v0hdGxJkwAATUsBRDEFEFATEz6ZL+OX/ihNQd958qb8mouzckmaBABoWgogiimAgD734sP5Eh7nvgvSJPSdNSvyay7OI9emSQCApqUAopgCCOhzt0/Il/C2AZ0LOtTS8QPza+/WE9IUAEDTUgBRTAEE9LmJ38mX8LO/nKag751/QH7tTfnnNAUA0LQUQBRTAAF9av2rIQzbIV/Cbx6ZJqHvzfjv/No77c/TFABA01IAUUwBBPSpRVfkC3icZfPTJPS9+efn114sJDf7GngAoBoUQBRTAAF9auph+QJ+wh6+ipv6ePbu/PqLs2JRmgQAaEoKIIopgIA+E0ue4z+aL99XHZ4moTY2rOl84Hh6DT54aZoEAGhKCiCKKYCAPvPcvfniHWfxVWkSamfCn+bX4A1D0xQAQFNSAFFMAQT0mTmj8sV7+I4hvPFamoTamfwP+XX4h79PUwAATUkBRLcdccQRYeDAgW/NgAEDFEBA3/j9N/LFO34tN9TTDb/Lr8Pxn0hTAABNSQFEtz300ENhzpw5b83BBx+sAAJ6b93KEIZtny/et52YJqG2Hrwsvw7jc4E2rU+TAABNRwFEMbeAAX1iW1///vyDaRJqa/mC/DqM45vAAIAKUABRTAEE9In4TV/pwj12rxA6OtIk1Fb8JrD0WoyzeGqaBABoOgogiimAgF6LJc+4vfOFe+q/p0moj1g+ptfjrSekKQCApqMAopgCCOi1FQvzZTvOwsvTJNTHxO/k1+PUw9IUAEDTUQBRTAEE9Nrc8fmyHR8Ive6VNAn1Me3I/Jr8/dfTFABA01EAUUwBBPRa/Kp3yzaN5I6T82ty9IfTFABA01EAUUwBBPTKhrUhDN8xX7ZvHpkmoX4enZFfk3FefylNAgA0FQUQxRRAQK88cm2+ZMd59p40CfXz8mP5NRnnmTvTJABAU1EAUUwBBPTKtb/Kl+wxu4WwpT1NQv20bwph2A75tbngwjQJANBUFEAUUwABvTLhk/mSPeWf0xTU3ymfzq/N2UPTFABAU1EAUUwBBBTb1m02Cy5Kk1B/kw/Mr81LDklTAABNRQFEMQUQUOyu0/MFu21ACGueT5NQf9cNzq/P0/48TQEANBUFEMUUQECxi36YL9hn/mWagv4xb2J+fY7YyfOpAICmpgCimAIIKLJpfQjH7ZIv2J6xQqNYclt+fcZZuSRNAgA0DQUQxRRAQJEnbsgX6zhx6YZG8Nry/PqM8/jsNAkA0DQUQBRTAAFFZh2VL9ajPhBC+8Y0Cf1n5K75dXrXGWkKAKBpKIAopgACipz62Xyxvvgf0xT0r7O+lF+n03+dpgAAmoYCiGIKIKDHXn0mX6rj3HtumoT+dflP8+v0gu+lKQCApqEAopgCCOixeeflS3WcVU+nSehfN4/Mr9PxH09TAABNQwFEMQUQ0GOXHJwv1ad+Jk1B/1s4Jb9W2wZ0fosdAEATUgBRTAEE9Ej7ps6HPadL9cz/SZPQ/5YvyK/VOCsWpkkAgKagAKKYAgjokaVz82U6jq/WphFtWNP5iZ/0el08NU0CADQFBRDFFEBAj9wwNF+mR+zslhoa19i98mv21hPSFABAU1AAUUwBBPTImV/Il+kL/yZNQeM4/4D8mp16WJoCAGgKCiCKKYCAbluzouvbae48LU1C45h2ZH7NnvO1NAUA0BQUQBRTAAHddv8f8kU6zkuPpkloHHecnF+zoz+cpgAAmoICiGIKIKDbLj80X6THfyJNQWN5dEZ+3cZ5/aU0CQDQ8BRAFFMAAd2ypT2E4wfmS3S8vQYa2cuP59dtnGfuTJMAAA1PAUQxBRDQLc/dmy/QcR6eliahsbRvCmHYDvm1u+DCNAkA0PAUQBRTAAHdMmdUvkAP3zGEN15Lk9B4Tvl0fv3OHpqmAAAangKIYgogoFt+/418gZ74nTQFjWnygfn1e8khaQoAoOEpgCimAALe07qVIQzbPl+gbxuXJqExXTckv35P+/M0BQDQ8BRAFFMAAe9p0RX58hzn+QfSJDSmeRPz63fETp0PNwcAaCIKIIopgID3dNXh+fI8ds8QOjrSJDSmJbfl13CclUvSJABAQ1MAUUwBBLyrWPKM2ztfnKceliahcb22PL+G4zw+O00CADQ0BRDFFEDAu1qxMF+a4yyckiahsY3cNb+O7zojTQEANDQFEMUUQMC7mjs+X5rbtgth3StpEhrbWV/Kr+Xpv05TAAANTQFEMQUQ8K7OPyBfms/5WpqCxnf5T/Nr+YLvpSkAgIamAKKYAgjYpg1rQxi+Y74033xcmoTGd/PI/Foe//E0BQDQ0BRAFFMAAdv0yLX5whzn2bvTJDS++Nyq9FpuGxDCxnVpEgCgYSmAKKYAArbp2l/lC/OYj4SwpT1NQuNbviC/nuPEB50DADQJBRDFFEDANk34ZL4sT/lJmoLmsGFN5yd+0mt68dQ0CQDQsBRAFFMAAV16+bF8UY6z4MI0Cc1j3N75NX3rCWkKAKBhKYAopgACunTX6fmiHD898dryNAnNo6tvtZt6WJoCAGhYCiCKKYCALl30w3xRPuPzaQqay7Qj8+v6nK+lKQCAhqUAopgCCMhsWh/Ccbvki/LsY9MkNJc7Ts6v69EfTlMAAA1LAUQxBRCQeeKGfEmOs+TWNAnN5dGZ+XUd5/WX0iQAQENSAFFMAQRkZh2VL8gjdw2hfWOahOby8uP5tR3n6TvSJABAQ1IAUUwBBGRO/Wy+IF98UJqC5tO+KYRhO+TX930XpEkAgIakAKKYAgh4h1efyZfjOPf+Pk1Cczrl0/n1PXtomgIAaEgKIIopgIB3mHdevhzHWbU0TUJzmvwP+fV9ySFpCgCgISmAKKYAAt7hkoPz5fiU/dIUNK/rhuTX+Gn7pykAgIakAKKYAgh4S3w+yqgP5MvxzN+mSWhe8ybm1/iInULY0p4mAQAajgKIYgog4C1L5+aLcZzHr0+T0LyW3JZf43FWLkmTAAANRwFEMQUQ8JYbhuZL8YidQ9i0Pk1C83pteX6dby06Z6dJAICGowCimAIIeMuZX8iX4gt/kKag+Y3cNb/W7zojTQEANBwFEMUUQMBWa1aE0DYgX4rvPDVNQvM760v5tT7912kKAKDhKIAopgACtrr/D/lCHOelR9IkNL/Lf5pf6xd8L00BADQcBRDFFEDAVpcfmi/E4z+RpqAa5ozq4nr/eJoCAGg4CiCKKYCA0LElhOMH5gvxtCPTJFTDwin59R5vgdy4Lk0CADQUBRDFFEBAeG5evgzHeXhamoRqWL4gv97jrFiYJgEAGooCiGIKICDMGZ0vwsN3DOGN19IkVMOGNV0/9Hzx1DQJANBQFEAUUwAB4dxv5ovwxO+kKaiWcXvn1/2tJ6QpAICGogCimAIIWtz6VSEM2z5fhG8blyahWs4/IL/ur/y3NAUA0FAUQBRTAEGLW3RlvgTHef6BNAnVEh9ynl7353wtTQEANBQFEMUUQNDirvp5vgSP3TOEjo40CdVyxyn5tT/6w2kKAKChKIAopgCCFhZLnnEfy5fgqYelSaieR2fm136ctS+mSQCAhqEAopgCCFrYikX58htn4ZQ0CdXz8uP5tR/n6TvSJABAw1AAUUwBBC1s7oR8+W3bLoR1r6RJqJ72TSEM2yE/A/ddkCYBABqGAohuO/3008Ohhx761uy7774KIGhVXX0Lkofg0kpO+XR+BmYPTVMAAA1DAUS3TZkyJbS1tb01X/ziFxVA0Io2rA1h+Pvy5ffm49IkVNfkf8jPwCWHpCkAgIahAKKYW8CgRT0yPV984zx7d5qE6rpuSH4GTts/TQEANAwFEMUUQNCirv3PfPEd85EQtrSnSaiueRPzcxA/GeccAAANSgFEMQUQtKiT9s0X3yk/SVNQbUvn5ucgzsolaRIAoCEogCimAIIWtK2vv15wYZqEalvzfH4O4jw+O00CADQEBRDFFEDQgu46I1942waE8NryNAnVN+oD+Xm46/Q0BQDQEBRAFFMAQQu66G/zhfeMz6cpaA1nfSk/D9N/naYAABqCAohiCiBoMZvfCOG4XfKFd/axaRJawxU/y8/DBd9LUwAADUEBRDEFELSYJ27Ml904S25Nk9Aa5ozKz8P4j6cpAICGoACimAIIWsysQfmyO3LXENo3pkloDQun5GciPhNr47o0CQDQ7xRAFFMAQYs5bf982b34oDQFrWP5gvxMxFmxKE0CAPQ7BRDFFEDQQl59Nl9y49z7+zQJreON1/IzEeeha9IkAEC/UwBRTAEELWTexHzJjbNqaZqE1nLC7vm5mDshTQEA9DsFEMUUQNBCLjkkX3JP2S9NQes595v52Zh2ZJoCAOh3CiCKKYCgRbRvCmHUB/Mld+Zv0yS0niv/LT8bk76bpgAA+p0CiGIKIGgRS+fmC26cx69Pk9B65ozOz8b4T6QpAIB+pwCimAIIWsQNv8sX3BE7h7BpfZqE1vPgZfn5aNsuhM1vpEkAgH6lAKKYAghaxFlfzBfcC3+QpqA1PXdvfj7ivPRImgQA6FcKIIopgKAFrH0hhLYB+XJ756lpElrTulfy8xHn0ZlpEgCgXymAKKYAghZw/+R8sfXpBnin0R/Kz8idp6UpAIB+pQCimAIIWsDlP80XWw+4hXc6+8v5OZn+mzQFANCvFEAUUwBBxXVsCeH4gfliO+3INAmtbco/5+fkoh+mKQCAfqUAopgCCCruuXn5Uhvn4WlpElrbjcPyc3Ly/0lTAAD9SgFEMQUQVNyc0flSO3zHEN54LU1Ca1twUX5Whu0QwpbNaRIAoN8ogCimAIKKO/eb+VI78TtpCnj69vysxFn5VJoEAOg3CiCKKYCgwtavCmHY9vlCe9u4NAmseT4/K3GeuDFNAgD0GwUQxRRAUGGLrsyX2TjPP5AmgY6OEI7bJT8v95yTJgEA+o0CiGIKIKiwq36eL7Nj9+xcdIHcGZ/Pz8ysQWkKAKDfKIAopgCCioolz7iP5cvs1MPSJPBHlxySn5mLD0pTAAD9RgFEMQUQVNSKRfkiG2fhlDQJ/NH1x+Rn5rT90xQAQL9RAFFMAQQVNXdCvsi2bRfCulfSJPBH8ybm52bEziF0bEmTAAD9QgFEMQUQVFT8qvd0kT3na2kKeLun5uTnJs7q59IkAEC/UABRTAEEFbT+1RCG7ZAvsTePTJPA2736TH5u4iy5LU0CAPQLBRDFFEBQQQsvzxfYOMvmp0ng7ba0hzD8ffnZmT8pTQIA9AsFEMUUQFBBV/xLvsCO3cvXv0N3nPqZ/PzMHpqmAAD6hQKIYgogqJj4CYYxu+UL7NW/SJNAV/7w9/n5uezHaQoAoF8ogCimAIKKefqOfHmN8/C0NAl0Zeb/5OfnzL9MUwAA/UIBRDEFEFRMvFUlXV5H7BTChrVpEujK3WflZ2jkrmkKAKBfKIAopgCCijn9L/Ll9cIfpClgWx6/Pj9Dcda+kCYBAOpOAUQxBRBUyKqn86U1zt1npklgW155Ij9DcZ65M00CANSdAohiCiCokK5uXYmzammaBLalfVMIw7bPz9H9k9MkAEDdKYAopgCCCrnoh/nSetr+aQp4Lyftm5+lm0akKQCAulMAUUwBBBWx8fXOhz2nS+vsY9Mk8F7ic7PSs3TFz9IUAEDdKYAopgCCinjk2nxhjbN0bpoE3su1/5mfpXO+mqYAAOpOAUQxBRBUxDW/zBfWMR8JYcvmNAm8lztO6fo8AQD0MwUQxRRAUAEdHSGM2ztfWC//aZoEuuOR6fl5irN+VZoEAKgrBRDFFEBQAcsX5ItqnAcvS5NAd7z4UH6e4iybnyYBAOpKAUQxBRBUwJxR+aIav8bapxWgzKb1IbQNyM/VwsvTJABAXSmAKKYAggo4+yv5ojrx22kK6IkT98nP1S3HpykAgLpSAFFMAQRNbs2Krj+pMHdCmgR64vwD8nM19d/TFABAXSmAKKYAgiZ33wX5khonPsMEKHf1L/Jzdd5fpSkAgLpSAFFMAQRN7pJD8iV1wifTFNBTt52Yn62xe6YpAIC6UgBRTAEETWzzhhBG7povqTP+O00CPbX4qvxsxdstN6xNkwAAdaMAopgCCJrYEzfmC2qcJ25Ik0BPPf9AfrbirFiYJgEA6kYBRDEFEDSx+EmfdDkd+f7OTwYBvbNhTX6+4jx0TZoEAKgbBRDFFEDQxE7aN19OLzk4TQGlTtg9P2O+YQ8A6EcKIIopgKBJvfhwvpjGuW9SmgRKnfvN/Ixdc2SaAgCoGwUQxRRA0KTipxDSxTQ+oHbNijQJlLry3/JzNum7aQoAoG4UQBRTAEGTmvjtfDE9+8tpCuiNOaPzczb+42kKAKBuFEAUUwBBE1q/KoRhO+SL6ZxRaRLojQcvy89Z23YhbH4jTQIA1IUCiGIKIGhCC6fkS2mcZfelSaA3nrs3P2dxXnokTQIA1IUCiGIKIGhCV/wsX0jH7R1CR0eaBHpj3Sv5WYvz6Mw0CQBQFwogiimAoMls2RzCmI/kC+k1v0yTQF8Y/aH8vN15WpoCAKgLBRDFFEDQZJ6+PV9G4zw8LU0CfSE+XD09b9N/k6YAAOpCAUQxBRA0mdnH5svoiJ1C2Ph6mgT6wuWH5mfuoh+mKQCAulAAUUwBBE3mtD/Pl9EL/yZNAX3lxmH5mTv5/6QpAIC6UABRTAEETWTV0nwRjXP3WWkS6CsLLsrP3LAdOp/HBQBQZwogiimAoInEoiddROPEYgiojW09d2vlU2kSAKDmFEAUUwBBE4m3eqVLaLwlDKidNc/n5y7OEzekSQCAmlMAUUwBBE0iPuQ5Puw5XUJnD02TQF/q6Ahh5Pvzs3fPOWkSAKDmFEB025w5c8KkSZPemu9+97sKIGgG8Wve0wU0Trw9BaitMz6fn71Zg9IUAEDNKYDottNPPz0ceuihb82+++6rAIJmcPUv8gV0zG4hbGlPk0Bfu/RH+fm7+KA0BQBQcwogirkFDJpAvAVl7F75AnrFz9IkUAvXH5Ofv9P2T1MAADWnAKKYAgiawLL78uUzzsIpaRKohXkT8/M3YucQOrakSQCAmlIAUUwBBE3g5pH58jlshxDWr0qTQC08dUt+BuOsfi5NAgDUlAKIYgogaAJnfzlfPCd+O00BtfLqM/kZjLPk1jQJAFBTCiCKKYCgwa15PoS2AfniefuENAnUSnzY+oid8nM4f1KaBACoKQUQxRRA0ODum5QvnXFefDhNArV06mfyczh7aJoCAKgpBRDFFEDQ4C45OF86T9o3TQG1NvnA/CzGr4cHAKgjBRDFFEDQwDa/EcLI9+dL58zfpkmg1mb+T34Wz/zLNAUAUFMKIIopgKCBPT47XzjjPHFjmgRq7e6z8rM4ctc0BQBQUwogiimAoIFd+6uuF87NG9IkUGvbKmTXvpAmAQBqRgFEMQUQNKiOjhDG7Z0vm5f9OE0C9fDKE/l5jPPMnWkSAKBmFEAUUwBBg3r2nnzRjPPgpWkSqIf2TSEM2z4/k/dPTpMAADWjAKKYAgga1A1D80Vz+I4hrH81TQL1Er+BLz2XN41IUwAANaMAopgCCBrUqZ/JF80LvpemgHq68Af5ubz8p2kKAKBmFEAUUwBBA3rp0XzJjHPP2WkSqKdr/zM/l+d8NU0BANSMAohiCiBoQHPH50tm24AQVi9Lk0A93XFKfjbHfCRNAQDUjAKIYgogaEDxEwXpknn2l9MUUG+PTM/PZpz1q9IkAEBNKIAopgCCBrPq6c5P+6QL5q0npEmg3l58KD+bcZbNT5MAADWhAKKYAggazO0n5ctlnPhcIKB/bVrfdUG78PI0CQBQEwogiimAoMF0dfvX6Z9LU0B/OXGf/IzecnyaAgCoCQUQxRRA0EC2dfvXLWPSJNBfzj8gP6NT/z1NAQDUhAKIYgogaCBu/4LGd/Uv8jN63l+lKQCAmlAAUUwBBA3k7K/ki6Xbv6Cx3HZifk7H7pmmAABqQgFEMQUQNAi3f0FzWHxVfk7j2d2wNk0CAPQ5BRDFFEDQIG6fkC+Vcdz+BY3l+QfycxpnxcI0CQDQ5xRAFFMAQYM4+yv5QnnG59MU0N82rMnPapyHrk6TAAB9TgFEMQUQNIBt3v7lq6WhIZ2wR35e545PUwAAfU4BRDEFEDSAbd3+9fJjaRJoBOd+Kz+vVx+RpgAA+pwCiGIKIGgAZ38lXybd/gWN66qf52fWV8EDAHWgAKKYAgj62aqlbv+CJrPx5rH5mT1h9zQGANDnFEAUUwBBP5vr9i9oJnc99Ur4ze+G52f2zVm/+pU0DgDQpxRAFFMAQT87+8vZEun2L2hMz61aH/Y5Zlb4zpAz83P75ow9d3L6EgCAPqUAopgCCPqR27+gqRx79aKwx5CZ4WNHTQ1bfpef3f88elB44sW16csAAPqMAohiCiDoR9u8/evxNAk0gG+OvzXsdtT0rbNs6O7Z2T3lmH8Ok+95Jn0ZAECfUQBRTAEE/cjtX9BUvjp2zlsF0G3HfiE7v9OP/etw0V1Ppy8DAOgzCiCKKYCgn6xc0vXtX7eekCaBBvFfUx4Iew6eubUAuuCYv8/O7+KhfxYefG51+jIAgD6jAKKYAgj6idu/oOk8smJN2H3wjK0FUNvRv8zO7xttO4fQ0ZG+DACgzyiAKKYAgn7i9i9oStc+uDzsOWRG+Nkxo/MzHOe15elLAAD6jAKIYgog6Afx9q90aYzj9i9oCvHr4M+55qb8DMdZclsaBwDoMwogiimAoB/MHZ8vjXHc/gXNY0t7CCN2ys/xvIlpEgCgzyiAKKYAgn5w1pfypfHMv0xTQKM7bf/8LF83JE0BAPQZBRDFFEBQZ9u8/WtsmgQa3SUH52d58j+kKQCAPqMAopgCCOpsW7d/vfJEmgQa3exj87N8yn5pCgCgzyiAKKYAgjpz+xdUx32T8vM8fMcQtmxOkwAAfUIBRDEFENSR27+gWp6+PT/PcXyiDwCoEQUQxRRAUEe3nZgvipZFaF5rX8jPc5zHrkuTAAB9QgFEMQUQ1NFZX8wXRbd/QXMb9cH8XN95apoCAOgTCiCKKYCgTlY+lS+Jcdz+Bc3t7K/k5/ra/0xTAAB9QgFEMQUQ1Mk2b/96Mk0CzeSKf8nP9aT/m6YAAPqEAohiCiCoky5v//pCmgKazZzR+dk+cZ80BQDQJxRAFFMAQR1s6/av28alSaDZLLw8P9ttA0LYuC5NAgD0mgKIYgogqAO3f0F1Lb8/P9txVixMkwAAvaYAopgCCOrA7V9QXRvWdH7iJz3ji6emSQCAXlMAUUwBBDX20qP5YhjH7V9QHeP2zs/4rSekKQCAXlMAUUwBBDV2Y1u+GMZPC8TnAgHVcP4B+TmfeliaAgDoNQUQxRRAUEMdHSGM/0S+GP7+62kSaGbXHOmcAwB1oQCimAIIamjp3HwpjHPP2WkSaGa3n5Sf8zEfSVMAAL2mAKKYAghq6Jpf5kvh8B1DWPdKmgSa2SPT87Me5/WX0yQAQK8ogCimAIIa2fxGCKM/lC+EFx+UJoFmt62HvT9zV5oEAOgVBRDFFEBQI4uuzJfBOIuvSpNAs2vfGMKwHfLzft8FaRIAoFcUQBRTAEGNTPq/+TIYPxEUPxkEVM8p++VnftagNAUA0CsKIIopgKAGXnmy86ve02Vw2pFpEqiKS3+Un/kLvp+mAAB6RQFEMQUQ1MD1R+eLYJzlC9IkUBVzRuVnfuxeaQoAoFcUQBRTAEEfi7d4Hf/RfBE8+ytpEqiSh67Oz30c3wQGAPQhBRDFFEDQxx68LF8A48yflCaBKnn5sfzcx1lyW5oEACimAKKYAgj62MRv5wvgqA+GsHFdmgSqZEt7CCN2zs//3WelSQCAYgogiimAoA+9+HC+/MWZ/ps0CVTRmV/Iz/+0/0hTAADFFEAUUwBBH5r523z5i/PC4jQJVNGV/5af/3O/laYAAIopgCimAII+sml9CKM/bPmDVnb7hPx3QLwFFACgjyiA6LaXXnopLF269K05/PDDFUDQFxZclC9+ce6fnCaBqnr8+vx3QJxXn02TAABFFEB02xFHHBEGDhz41gwYMEABBH3h91/Pl74xu3V+MghoDaufy38PxHnsujQJAFBEAUQxt4BBH3j+wXzhizNrUJoEqm70h/LfBXMnpCkAgCIKIIopgKAPXPurfOFrGxDCS4+mSaDq4nO/0t8H8eHQAAB9QAFEMQUQ9NKGtSGM+kC+8J1/QJoEWkH82vf090H8engAgD6gAKKYAgh6ad7EfNmLs+iKNAm0gnvOzn8fjNg5hC2b0yQAQI8pgCimAIJeOuuL+bJ3wu4htG9Mk0ArWDo3/50Qxy2hAEAfUABRTAEEvfDcvHzJizN7aJoEWsW6V/LfCXEWX5UmAQB6TAFEMQUQ9MLVR+RLXtt2IaxckiaBVjJ2r/x3w80j0xQAQI8pgCimAIJCb6wO4bhd8iXvwh+kSaDVXPD9/HfDpT9KUwAAPaYAopgCCArdfVa+4MV5eFqaBFrNrEH574ZT9ktTAAA9pgCimAIICp3+F/mCN25v3/QDhLDgwvz3w7DtQ9i0Pk0CAPSIAohiCiAo8PQd+XIX56YRaRJoRcvm578f4iy/P00CAPSIAohiCiAocOW/5otd/L/ur34uTQKtaOPrnQ+ET39P3D85TQIA9IgCiGIKIOih+BXPI3bOF7vJB6ZJoJWd9Gf574nrj0lTAAA9ogCimAIIeuiOk/OlLs5js9Ik0Mou/sf898RFf5umAAB6RAFEMQUQ9EBHR+c3+aRL3fhPhLClPU0Dreym4fnvihP3SVMAAD2iAKKYAgh64Klb8oUuzi3Hp0mg1S26Iv9d0TYghPWvpkkAgG5TAFFMAQQ9MOUn+UI3bIcQ1jyfJoFW9+JD+e+LOPFbBAEACimAKKYAgm5a+2IIw3fMl7lLf5QmAUJo3/Tm74z35b8z7j03TQIAdJsCiGIKIOim28bli1ycJ29KkwCdTv9c/jtj+m/SFABAtymAKKYAgm7YvCGEcR/LF7n4Nc/xwdAAXbn8p/nvjYnfSVMAAN2mAKKYAgi64b5J+RIXZ+6ENAnwv7r65OCY3dIUAEC3KYAopgCC99CxJYRTP5MvcSN3DWH9qjQN8L8enZH/7ojz2vI0CQDQLQogiimA4D08PC1f3uJcNzhNArzTqqX57444T9yYJgEAukUBRDEFELyHc76WL2/x28BWL0uTAO8UnxEWPy2Y/g6545Q0CQDQLQogiimA4F08cm2+uMW56vA0CdC1rkrkq36epgAAukUBRDEFEGxD+6YQTtkvX9zaBoTw4sNpGqBrV/8i/z1y9lfSFABAtyiAKKYAgm2464x8aYtz2Y/TJMC23XV6/nvkuF06HzAPANBDCiCKKYCgC/HbveJXNadL2/D3hbDyqTQNsG1Pzcl/l8R55ck0CQDwnhRAFFMAQRdmDcqXtTjXDUmTAP9/e/fhX2dZ/3/c/4DhABGlE4vfgnyVveSniAiCqDgQAVmCfEVkaLOa0V06aUsHdNNCd+lIujd0792me6UjXWmSZr9/uc4xaXJd56TJndFz7vN6Ph6fR/Xkus5qucc716jZhePuscSU2WEQAACgjgiA4BkBEGAxv5U3I33sm7XuzaT8s3ZrALi87s3dY8ri7nYrAACAyyIAgmcEQIDl8z+7N2qmVg62WwJA7Yx43D2mTHjRbgUAAHBZBEDwjAAIqGL/MvcmzVT/Hwd3BQMAL9Lfd48rA+6yWwEAAFwWARA8IwAC/svsyDP4QfcmzdTOdLs1ANTe2hHucSXtWqm4wG4JAABQIwIgeEYABPzXhrHuDZqpkU/YLQGgbg6tdI8tprK22C0BAABqRAAEzwiAgHJF+VKvNu7NWerV0rFNdmsAqJuL58uPJ1e5x5hN4+2WAAAANSIAgmcEQEC5xd3cGzNTX7xptwQAb3r/wD3GzEuxWwEAANSIAAieEQAh5uUckzpf796YmcfMzwCgIYx5xj3OjP2D3QoAAKBGBEDwjAAIMc+M8rFvykyZUUEA0FDmJbvHmT5t7VYAAAA1IgCCZwRAiGlmfR+zzo99U2bWAzLrAgFAQ9k0zj3WmHWBCi7YLQEAAMIiAIJnBECIaWaHL/uGzNTGz+yWAFA/WZvdY42pQ6vslgAAAGERAMEzAiDUR2FxqcavOaR/T9yk98vrs1UHdbGoxG4WmXamuzdipgY/KJWV2q0BoH6KL0pp17rHnLUj7ZYAAABhEQDBMwIgeLXvVK4e6LZQLeLT1SohI1At4tJ1V+f52nk8x24eWUqKpH4/cm/ETO1fZrcGgIbR/w73mJPxH7sVAABAWARA8IwAyGdKi6WzB6XszGCQYVfmPGnDWLe2fSGdOWA/W1hm5I8Jf1rGp+umdjOrlQmETAiUVxjBI4FWDnZvwkx9/me7JQA0nPHPu8edkb+yWwEAAIRFAATPCIB8wCwgunZEMLzocoN7c1GX+qCFNPGlYCiUe9J+pUqT1h1W8xDhT0WZYOjTFbUPlJpU/lmpezP3s3f4hpS9x24NAA1nUVf32PNBS7sVAABAWARA8IwAKIqZaUyrPwmGNvYNRUOUWatiwovS0Q32Kyt+yma1Ssxwgp/KACghXe+Md/tFhNkJ7mc1NSvObgkADWv7dPfYY+rCCbslAABASARA8IwAKEqZm4hwa9g0RpkpCrvnVr68CYBaJ0RhAHRyR3Ckj/35ut0k5Z+xWwNAwzLTc+3jj6m9i+2WAAAAIREAwTMCoChzaKU09OfuzUNT1cB7A1ukT1m9v8YpYGYdoNHLI2wKmNmBx7x/+zOZWjHQbg0ADa+0ROp0HccgAADgGQEQPCMAihJmbZrxf3FvGupbHb8VXH/CfvwyVdarjQZ0flu3xU8OGf7c2SkCF4FOf9/5HIEyI6nMdDoAaAqDH3SPQ9PeslsBAACERAAEzwiArqxz+UX6ak+2VuzN1oWCYvvHUu4paea7UoevuzcMdnW9Ucr4t7R7TnAnsKqVc8x+5urOHw3uBDa9/Cak9y3uc4epC6nXa3DSc/pRwiS1SkgPLP4ckdvAb54gpV7lvP/AY5nz7dYA0HimvO4eiz75md0KAAAgJAIgeEYAdGWYbdRTp28NjJapOnKmc/p2FZeWSUX50pIPpC7fcW8U7DJr2swq/zvMO22/jHcmRBrxuPtaYSqnY3ON+aSnxq46qPyiCBv5s2aYlHaN854DxcLPAJraVx+6xyKzg2NZmd0SAADAQQAEzwiAroxXR62pFv5UhkBx6fp0SHepVxv3BiFUTfyrdHqf/fQN5+h6acIL4QMUu0Y/LZ07bD/LlbOkh/seK8pMwygusHsAQOPKnOcej0ydibB10wAAQEQiAIJnBEBNb+nuk07wY6plu2kanfg796YgVA3/pXR4jf3UjefM/uAaOqEWL7XLjFpaM9x+hqZlfpNuRkXZ762iOn87uBsPADQ1M+XWPiaZ2plhtwQAAHAQAMEzAqCml/TFFrVOrL6Fett2E7S0/f3uDYFd/e8ov0lIt5+y6eRlS4u6Sh+0cN+bXaOeks4esp+h8ZUWS5Nfc99PRZnwZ98SuxcANJ1u33OPTUt72a0AAAAcBEDwjACo6f3f2PWBqV4V4c+P243Vjvb/494MVK0eraW1I4LhRiQwW6qbdSzMuhX2e61a5udmDZ6mYtZOGvsH931UVPfm0pF1di8AaFrDfuEenya9YrcCAABwEADBMwKgptdjzk61TgiOALo3bpT2JX/fvRGoKDNaZVEXqTDXfprIYKYyjHvOfd92jfxVcDeyxnTxXOibqooyu5ud2mX3AoCmN+Nf7jFq4L12KwAAAAcBEDwjAGp6+07lBkYA3dNutI4k1zCVatB9kbWgck22TgmOrrE/Q9UyYdbqTxpnp5sLx4Pfl/2aFWWmzp07YvcCgCvDHAvt45TZ0TFSRnkCAICIRQAEzwiArozPlm7X9uS27g1ARX3+rFSYZ3eLbLknpfHPu5/FrpFPNOxuN2aB6g9/6L5ORX38cHDtIgCIFAe+dI9Vpk5st1sCAABUQwAEzwiAroDSEmnMM+6Ff0VNe0sqK7V7RY+tUy+/SLQZDbTq4/qPBjq+Vep5s/v8FTXqycidPgcgduWfcY9XprZMtlsCAABUQwAEzwiArgCznbp90V9Rs+Pt1tEp95Q04QX389k1/DFp31K7d+0cXCF1/a77nBU1/i9ScYHdCwAiQ88Q678t6Gi3AgAAqIYACJ4RADWxlYPcC/6KSn/Pbh39tn0hfdDS/ax2mcVPp/1D+rKPtH16cGSP2WksFLPej1kYu9N17vNU1PS3giOtACBSjX7aPXaZ0aEAAAA1IACCZwRATWjXbCntGveCP3DR/zv/BhZm/Z0JL7qfuTZldu4yN0kz35XmpwXXDzILpdrtqta8FOsNAEAEmp/qHr/MYvoAAAA1IACCZwRATSRri9TlBvdi35QZ/VJwwe7hOyVbvtCFTs3cz99QlXqVtLy//bIAEJl2zHCPY6bMwvYAAABhEADBMwKgJpBzLDiSxb7IN2UWMI6Wrd7rKXXGNv0ofrymJ/3C/R7qW2nXShvG2i8JAJHr/FH3WGZqyyS7JQAAQCUCIHhGANTIivKlwQ+6F/imzBo2R9fbPXzpZE6BmsfP1E3tgvV0fB/Na/+w+514qe7NgtPrACDa9GrjHtNmJ9itAAAAKhEAwTMCoEZktnL//Fn34t5U6tXBxY5jxKwtWbop7lIAVFE/jxusromva1LSr7Q59Y7g+hf2dxWu+t4mrfhIKsixXw4AosO459xj27Bf2K0AAAAqEQDBMwKgRmR+i2tf2FfUl33t1r42feNRNQsRAFWt29PmBhvnn5WOrNWqaYPVP/FFzWj/qLa0v02Hk1tqdfs71Tfxr/pjQg8NWZxZ/UUAINos6+2eH8zo0NJiuyUAAEAAARA8IwBqJGuGuxf1FWW2KI8x+07lOoFP1Woen66/Dl9Vrc/9XReqWVy609aUCZNuTZmj4tKyan0AIKrsW+KeI0xlbbZbAgAABBAAwTMCoEZwaFVwUWL7gt7UqKdi9je7r45aq1bxGU6YEwx00rV8T3Zl2zN5hU6bUJV5wv+7pwHwsYvng1OC7XPF2hF2SwAAgAACIHhGANTAzMV8n7buxbypAXeV//yc3SNmnM0r0uP9lgVG77SMD47saZWQruZx6Rr+5X6nrR32hKq9J3Or9QOAqDPgTvd8Me0fdisAAIAAAiB4RgDUwCa86F7Im/qgpXTmgN065hSXlGni2sP62+i1embQcqVM26odx87bzQIe6r4oEA7ZoU9F3ZY2RyVMAQMQ7aa+4Z4zBt5rtwIAAAggAEKt/f73v9fXvva1akUA1EDWjXIv4k11+Lp0cIXdGpfxxYajTuhTUWYU0bAv99ldACD6rP7EPW+kXSMVMMUVAAC4CIBQaydPntT+/fsr64033iAAagindkmdr3cv4k0t7WW3Ri0NWJgZGAXUKiFDLRPS1TohOCKo48ztdlMAiE5H17vnDVOZ8+2WAAAABEDwjilgDaC4QBp0v3vxbmrkr6SyUrsH6sAs9Nxr7i69N2GjumXs0NajoaeMAUBUMhsDdLnBPX/MT7NbAgAAEADBOwKgBjCrnXvhbqp7cynnmN0aAIDqPv2New4Z9gu7FQAAAAEQvCMAqqdds6XUq9wLd/PYrll2awAAXEt7uueRjt+UivLtlgAAIMYRAMEzAqB6yMmSPmjhXrSbyviP3RoAgNAOLnfPI6b2L7NbAgCAGEcABM8IgDwy6/qMetK9WDc16L7gukAAANSGOWd0us49nyzuZrcEAAAxjgAInhEAebSst3uhbsrsBGZ2BAMAoC5GPO6eU8wvGgAAAKogAIJnBEAeHF4jdfi6e6Fuat1IuzUAAJe3sLN7TjGjgkqK7JYAACCGEQDBMwKgOirIkfre5l6km5rwgt0aAIDa2bvYPa+YOrTKbgkAAGIYARA8IwCqo0kvuxfnpvq0lS6es1sDAFA7ZsevUKNLl/WxWwIAgBhGAATPCIDqYMMY98LcVNq10qGVdmsAAOpm6CPuOWbMM3YrAAAQwwiA4BkBUC1lZ0qdv+1emJta8oHdGgCAupuX7J5jut4olZbYLQEAQIwiAIJnBEC1UFIoDX7QvSg3ZXZtMVvCAwBQX7vnuOcZU8c22i0BAECMIgCCZwRAtTA73r0YN9W9mXT+qN0aAABvLp6X0q5xzzcrPrJbAgCAGEUABM8IgC5j91wp9Sr3YtzUjpl2awAA6ifUiNNxz9mtAABAjCIAgmcEQDW4cFz6oKV7IW4q/T27NQAA9Tcrzj3ndG8ulZXZLQEAQAwiAIJnBEBhmHV9Rj3lXoSbGnivVHzR7gEAQP1tn+6ed0yd2G63BAAAMYgACJ4RAIVWOi/Vvfg21ek66eQOuzkAAA0jLzv01OPVQ+2WAAAgBhEAwTMCIFfR1ukqC3XxXV6f9k9RSSnD8AEAjeiju53zjya+ZLcCAAAxiAAInhEAWbIzVdDhBvfCu7zSkx5R87h09V+QafcCAKDhzHzHOQepR+vg9GQAABDTCIDgGQFQFYV5Khtwl3vRXV57k9vof9pN1E3tZur2DnNZixMA0Hi2THLOQ4E68JXdEgAAxBgCIHhGAFTFxL+6F9vllZvyLT0SNzgQ/lTUqQsFdm8AABpG/lmpw9ed85Ey/m23BAAAMYYACJ4RAP3X8gHuhXZ5laVcpTfj21cLf5rFzVRuQbH9DAAANJwxv3POSerVhmlgAADEOAIgeEYAVO7Al1Late6FdnkNSfxztfDHrAH0q37L7GcAAKBhrR/tnJMCdXC53RIAAMQQAiB4FvMBUM4xqUcr9wK7vFa0v1st2k2vNvLHBEAr9mbbzwIAQMPKPxNmGth/7JYAACCGEADBs5gOgEoKpaGPuBfX5ZXXtbXuSxoXCH5aJ2QE/mybMlsZW7LsZwEAoHF8+lvn/BScBsZOBAAAxCoCIHgW0wFQ+nvuhbWpjt+UDq/W2bwizdh0LLDte/rmY6z7AwBoWkwDAwAAFgIgeBazAdDGz90L6opaPdRuDQBA0ws3DWxWDJ63AQBAAAEQPIvJAChri9TpOveC2tTUN+zWAABcOZ/+xj1XMQ0MAICYRQAEz2IuAMo/K/W9zb2YNjX4Aan4ot0DAIAmdSKnQIlTt+iuzvMVl/S+e74ydXCF3Q0AAMQAAiB4FlMBUFmpNOYZ9yLaVLebpDMH7B4AADSpfadydXuHuWoVH9yA4PZ241Sccq173mIaGAAAMYkACJ7FVAC0qIt7AW0q9Wopc57dGgCAJvdEv2VqEZ8eCH8qakn7B9xzF9PAAACISQRA8CxmAqBds4NBj30BbWpxd7s1AABNbkdWTrXgp6L+kxBm18pDK+2nAAAAPkcABM9iIgA6vU/q9j33wtnUZ3/kN6gAgIiQsSVLN8W5AVD4aWBx9lMAAACfIwCCZ74PgIrypUH3uRfNpj68Xbp4zu4BAMAVsXxPthP+VNTS9ve75zGmgQEAEHMIgOCZrwMgs+jzhBfcC2ZTZhv441vtHgAAXDEFxaW6NWWOmrWrvgaQqXYJ77rnMlNMAwMAIKYQAMEzXwdAc5LcC+WK2jzBbg0AwBU3ae1hNQsxDeyOhPEqSbnGPZ8xDQwAgJhCAATPfBsArfrYvUiuqIz/2K0BAIgYJgS6NXVOtQDoqf5fKn/Yk+45rfctTAMDACCGEADBM18GQDszpLQQvyU1NeJxqaTI7gEAQEQx08FW7z+tmZuPafeJC8EH1410z2umDq2q3hkAAPgWARA8810AdHS91Pl69+LYVP87pPyzdg8AAKJDXraUFmI3sNnxdksAAOBTBEDwzFcB0NmDUo/W7oWxqR6tpDMH7B4AAESX0b92z3FMAwMAIGYQAMEz3wRAZmTPgDvdi2JTZsevI+vsHgAARJ+1YaaB7V9mtwQAAD5EAATPfBEAlRQG1/axL4ZNmbWAdqbbPQAAiE7hpoGN/YPdEgAA+BABEDyL+gDIDHmf/Kp7IVxRq4bYPQAAiG6f/ck936VeLZ3aZbcEAAA+QwAEz6I+AFrQwb0IrqjZCXZrAACin5nuZZ/zTE1/y24JAAB8hgAInkV1ALRulHvxW1Hj/yKVldo9AADwhyE/cc99Hb8lXThhtwQAAD5CAATPojYAypwfeg0EU0MfkYov2j0AAPCPLZPd85+pGW/bLQEAgI8QAMGzqAyAsrZIXW5wL3pNfXh7cIFMAAD8rLRY6tPWPQ+a2jDWbg0AaAxH1gZnHnz4w+Ax2fwiGmhkBEDwLOoCoPNHpV5t3ItdU92bS9l77B4AAPjTioHuudBUp+ukYxvt1gCAhnRyp9T529WPv71vsVsBDY4ACJ5FVQBUkCMNvNe90DVl1j04tNLuAQCAf5UUSoMfcM+JpsxvovNO2z0AAA2hKF/66B732EsAhCZAAATPoiYAMkPdR//aPciaMlvfbp1q9wAAwP/OHpS6N3PPjabMebO0xO7R5M7mFdkPAUB0m/aWe8wlAEITIQCCZ1ETAH3xpnuAraivPrRbAwAQO/YskNKucc+PpuYl262bxP7sXL02eo1aJaTrpnYzdVvqHHXN2KH8oisfSAFAvWye4B5rK4oACE2AAAieRUUAtKCje3CtqPT37NYAAMSepb3cc6Sp1KukbdPs1o1qR1aOfpA8Wy3/G/5UVPP4dD3Rb5kuEgIBiFbZmeE3oxn3nLR8gN0DaHAEQPAs4gOgVUPcg2tFffbHiBjaDgDAFVdWFrz5sM+VpszNilmstIn8su9StYivHv5UVIu4dPWZt8vuAgCRr7hAGnS/e4w19clPpRKmu6JpEADBs4gOgLZMDq7vYx9gTQ35iVSYZ/cAACB2FVyQBtzpnjNN9f9xcDOFRpZ54oIT+th1b5cFdjcAiHwz33GPraa6fS+4HhvQRAiA4FnEBkB7F0kdv+keYE31vVW6cNzuAQAATu2SunzHPXea+vzPwZFCjWjRzpNO4GOXmQrWyG8DABrWti/cY2pFbZ9utwYaFQEQPIvIAKj4otTzZvfgauqDltLpvXYPAABQwdyMmLV/7HOoqSU97NYNasuRc07gY9f/dphrdwOAyHVmv9T1Rvd4airj33ZroNERAMGziAyAjCPrpA9aVD/AmjUMjm6wWwIAANv8NPdGxZSZWp05z27dYErLynRftwXh1wAqf7z9tK12t0C/sSsP6tf9v9SdnebpZz0Xq/fcXbpQUGw3BYCmU1Ioffyweyw1NeSh4LpAQBMjAIJnERsAGWaV/T5tgwdYMx1s72K7BQAACKWsVPr0N+4Ni6luNwV/o91Ivsw8FVjsuVlc9RDIbAl/d+f5Op1bWK19SWmZXhqxurx9eTtTVcKiB7svVPaF6u0BoMnMauceQ02Zqban99mtgSZBAATPIjoAMnKOSYPuk7ZOsX8CAABqkn8muG6efeNiypxbi/LtHg1mxd5s/b8eiyrDHBPuvDxytY6fv2g31eAle4PhT4gRQy3jM/TqqDV2FwBofDtmhp9OazarAa4QAiB4FvEBkFHK8G8AADzJ2ix1us69eTE1+VW7dcMqyFHWjuXasTxDF3YukvYvC5YZfWR2LPsvM2XMDn6qlgmHTuYwzQJAEzp3OLi7l33cNDXjbbs10KQIgOBZVARAAADAu03j3BuYihrzO+nQqvKbnSN2r9o7f1TKnC+tHCylvyeNeir8Zg5V66O7VZr+vv6WkKq27SY4wU/VMiOKAKBJmF8+D33EPWaZGnhvcMMa4AoiAIJnBEAAAMQAs1ONfSMTqjpfH1x/b/CD0ojHpUkvS1P/Li3qKi3rLW0YKy3vL015Pdim87fd5/BQZSlXaVP72zUo8Tk9H99FbdpNqRYAbTt63v5EANA45rZ3jlGBMse7U7vt1kCTIwCCZwRAAADEgJIiafhj7g1NhFZuyjc1LOkPeiB+hO7oOC+wSxgANLrdc8Kv+2NGUwIRgAAInhEAAQAQIy4cl3q1cW9qIrhKUq7R0U/+JB3baH8aAGhYZjpr9+bOcShQX7xptwauGAIgeEYABABADDFr/Yx8wr25iYYa+Stp91z7EwFA/ZWWhB8lOeCuRt01EagrAiB4RgAEAEAM2rek/Gbnl+6NTn3K7DY26H5pwovSoi7S1inBXcgqbpzMNK6zB6XDa6TVn0jj/xJ+l52ayizCunli+fOVVvtIAODZgg7uscaUOa6d2G63Bq4oAiB4RgAEAEAMyz8jHd8a3J7dBDZmkefF3YM3Q2bx5/HPBxeD/uie4OLQHb4eXCj644el6f+UVnwUHJVjgh2vzPSur/pJY56p26LSH91d/p6nBoMlAPBq7yIp9Wr3GGNq/Wi7NXDFEQDBMwIgAAAQMUoKy2+4Pg1OubBvxMKVGRG0Y6b9TABweecOSx+0cI8rpia/arcGIgIBEDwjAAIAABFp16zg6CP7pixcmSBow5hgiAQAl1N8URrykHssMdX/x1Jhrt0DiAgEQKi11NRUPfzww5X1ve99jwAIAABErqPrpQkvSGnXuDdpoarnzdKyPlL+WfuZAOCSKa+7xw9THb8lZW2xWwMRgwAItbZt2zYtWrSosp599lkCIAAAEPnO7Je++D8p7Vr3hi1UmfWEZrWr3/pEAPxpaU/3mFFR60barYGIQgAEz5gCBgAAosmmTes1OekJlaSEWbTVLhMYff5scJFrM+UDQGzb+JmUepV7rDA14227NRBxCIDgGQEQAACIJu9N2KhWCen6adzHmtb+sdoHQaa63CBNfUPas/DS9vSXcfz8Ra09cEZn84rsH/nSsXMX1X9BZuB7Tp62VV9mnrKbANFrz4Lgbob2scHU0J+zhhiiAgEQPCMAAgAA0eTpj77STe1mVtYDcSM0PPEPykv5pntDV0OVpV6rskEPSDP+FZzyYdb8KCutfJ0Nh87qsb5LK1+nWdxM/XX46kBAEs7cbcf16qg1uq/rfP1u0FcavGSv8otK7GYRa+r6I2qdmKGW8abSdXPirMBnf3nkGhUUX/pugKh0bFMwBA5xPFDvH0g5WXYPICIRAMEzAiAAABBNXh29Vi3i06uFQKZ+GDdO3RP/ppPJ33Nv7mpbna6Thj2qExPe0b+SkvRowidq025K5WuY172j03ydzCmw35baTd4caNM8LvjeTGBk2v+s52Kdzo38UQUm8GpR/t7N+7a/W/M54qdstrsA0cOsBWYWiLf/mzfVrfyYcXKH3QOIWARA8IwACAAARJOJaw+reYiQoqK+HzdN2UuHSR/d7d7oeayzyTfocHLLQO1JuUV7PngouEW9qfHPa//QFzQx6clA9Ul8qbI6Jfxd/0lqp0kfvi8t6hq+5iRKU/8evia/dun1QtVnf3L7zE+VvuwrbRgr7V0kHdsYvAkuK7O/0oCXR64OGaxVlAm2QgVfQMTLOy31v8P57zpQZsevA1/aPYCIRgAEzwiAAABANCkuLdNvPvoqME3JDSlmqvvsnZca71uq7DGvKSflevfGL5ar63elvrcGw6Nxz0nT/qG+qX/XawmpgbWV7O81UOXfrZniBkQVs9bXsEfd/wZMpV4tbZ1q9wAiHgEQPCMAAgAA0Sa3oFjvjN+oZv+dbmXq+0mzNGjxHrupBpY/9oOEaXo9IUXpSY+oIOUb7o0gVa0KU76u7cltNSnpCSUm/EuPxQ0s/65naM7W+q+RYqbDdc3YoUd6LdZdnefpb6PXahkLTaMxmDW9TMAZ4t94oFYMtHsAUYEACJ4RAAEAgGiVfaFQK/Zma/X+07oYZrHlD+fvDixsXBEU3dxuin4d11epif/Q1KRfak9yG/fGkHLqQsp1Khz+pLSws5Q5TyrIsb/qy9pz8oJ+1HGeWiZcCu7MukPmzz7zdtvNgfpJf8/5d1xZZtolEKUIgOAZARAAAPCz+dtPhFzYuKJaJWSo29RVwXVylvUJjBjITmvh3jBSbg28V5r+T2nDGOlUzQFOaVmZftprSY3rDLHlPBrMst7uv9eKmvhS2LWwgGhAAATPCIAAAICflZSWBXbiapngrhkUDIDStT87t1ofM1LlwZSJ+m1CP70Rn6x3E/6jbol/04dJL2tUlzdUODe12oLLuSN/r1XJ92hF+7sDdSC5deWi0aYudGsj9WlbvT683V3M2a7Jr7qLO9dUE1641HfQfcGtre2b38asbjdJn/5GmpssbZsmnd5X+Z2u3JvtfPdVy4wKem302kt/CU3IjB77bNVBvT9xU6DM/w43ogxRYNM4KfUq99+nqZFPSMUsZo7oRgAEzwiAAACA3+07lau7O5upRxmV27S3SswITA3L2BJ6XZuDp/P0t9FrAgGRaX9L+1lKmbZVFwqK7aYBZhranZ3mV4ZKFX8OXrLXbtr0zC5Ip8vfx/5lwUVv1wwP7j42421pwovS0J8Hwxv7Zrkhyiw4PepJbRvxlt5KbB9+kenyur/bAvudBwK8yeuO6KWRq/Xz3ov1ysg1mrHpaIMN4Nh94oLu6TI/MDLJjAYzZaal3dNlgTLLf4Yos3eR1CHMOl9mxNrF83YPIOoQAMEzAiAAABALzMLRQ5bs1V+GrtIzg5arc/r2QMhTG8fPX7QfCqmwuFQLd57Q0GX7NH3j0cAaRVEl95S0b4m0crA0/S3po3vcm+gGKLOe0Kr2d2to0p/0dkK8Ho0bFAiAftl3abW3U1RSqr8MWxkI7SqmjgX+jJsZCIJMOFQfZpSPCXpCTUszj93bdcFlRwKZf1fRykyPTJy6Re9N2Kjec3fpUC3/e4hYWZulLt9x/r0Fqvct0vmjdg8gKhEAwTMCIAAAAIRlRkzsnist7CSNeqr8BvsG9+a6AcqEQvv6/EJa0iM4UqkoX90ydlQuEm1X8/j0wALf9WGmeoUKf6qGQJ+vPmR3045j5/X80FWVfe/oNE/9F2SquJ6BVFPJLyrR88NWBtbGMqPgzHccGPlU/nkmrj1sN48OZw5IPb/v/LsKlBmFdmKb3QOIWgRA8IwACAAAALVmttbO2qzilR9rToendDCltXvD3RDV4Rtan3ynBiU+p1fiO+jWuAlOQHNb2pzA4tJemfV+qu4QZ1frhAz9u7xNVav2ndbNiWaqWLp+FDdW98eN0B/je+hPCT3VbeAQla4fI20YK60dGZxmZ2peirte06x2wZ991S/Y3kzNM8HX4dXS2YONOlrlvQmbqu3EVrXMaKu1B87YXSKbmd5oRvjY/4ZMdfxm8HsFfIQACJ4RAAEAAKCuqo6eMUHIawmp6pf4oua1f1jZyd91b8QboHYkt9WnSb/VPxPidW/cqMBrZ9Vyel4oJgAyI1/sEMTUD+PG6VeJgzR8+ODgmkkLOqpsyhtal3avDia3VlHKtc77a5RKu0b68IfS6Kelme9Ia0dIWVuCQZzFTInbdTwnMELJTJ8LxXxfzcKMqjLVsvzv9KURq+1ukevkTqnnze73Zir1amnLZLsHEPUIgOAZARAAAADq6u1xG8KOIjF1X+JnGvfpEGlxN+nzZ6Vebdwb9HrW0eTmKhz3krS0l7R5YnD0zIUT9lsNLfek5s6ZqX8mJgV2eBub9LSWtr9fe5PbKC/lm85rRVx1vl4a/pg0OyGw49r4uV/pttQ5ld+/WbTcTJGz10mavTUrsIaS/fdVtW4tf56osGOG1PVG97upqOX97R6ALxAAwTMCIAAAANTVG2PWBUaL2OFBRZld1pK+2FK9U162tGu2tLSnNO45qc//uDftDVGdrpMG3CWN/b00/i/SiMcvlRlNY35u9/FBmZFXc9v/VB8kvqbH4wYERvq8M35jtb+CObUIgMzUuohWWiLNSw6/1bup+al2L8A3CIDgGQEQAAAA6uqjhZlhp0+ZMos0j1/jLqDsyD8j7Z4TvGE3I1o6fsu9mac81ZHkFhqe+Adt/So9GJqUO5FTEFjnx/77qigzre+VUWusv6QIYkZ4jXzC+azVamFnuxfgKwRA8IwACAAAAHV1OrdQP0ieHXI9GRMw3NFxnvIKa95CPaTiAungCmlZH2nsH1TUqXF2HWvUMiNT+rQN1oe3Xxp9ZNbxmfrGpf/f97Zgmw5fd5+joat7M2lWnHRqtxKmbAm7+5nZEWzjobP230pkOLTy8lMJzXRAwOcIgOAZARAAAAC8WL4nO7DWjBkJZLYUN8GPWRfo9rS52nzknN3cs/MHNmjj5B7aOeAZ5XdrpF3HaiozZaz/j6VRT+rgsBfVN+kltUt4X8/Hd9EjcYMDO4H9JHGkHum52FvoVSEnK7gD2JG1wZ2rtk2T1o+WFnSQJr4kDbjTfW8eqnTkkxo4sI9atpsW2NGsZYKp9MD/nrax8XYfq5eVg2oOyrrcIG2dYvcCfIkACJ4RAAEAAMArM6Wox5yd+uOQ5XrukxXqtyBTZ/IK7WYNy4Qkm8ZJM/4lDXtU6vl9NxCoS5ldpIY+Ik16JRi2mF2/zFpFZrctM0XNYhZSvrvz/Gojnt76bL3O5hXZTRvexfPSnoXBdZQ+f1Z5nZu7n6eWVdj9Zi0a8q7Sxi7QwEV7dLweO6o1msLcYPgV4v1XllnvyewGBsQIAiB4RgAEAACAqGemjp3aJWXOk1YPlea2V8nkN6Spf79Ui7qUV9fyn38i7Z4bDA2KvYceZsv11ftPK+disf2jJnMgO08PJIzW6wkp+jjpWa1tf4fKUmpYHDlUmZE1k14Ofn+RxLwfE+7Y77dqTfxrMCQCYggBEDwjAAIAAIBfFJeWacDCTN3RKThCp2V8hl4cvko7snLspr4xdNm+wGc10/DMnz9uN1btEt7TwvYPqTitDlvap10jTXldOr3Pfommt+2L4LQu+z1WlAmtVgy0ewExgQAInhEAAQAAwA9KSsv0wrBVzi5XZsFjs76NGa3jV7O2ZOmRXksqP/OD3Rdq0trDUmGetP5TachP3BAlXJlwZdpb0rnD9ss0vtJiaXaC+56qlpnyZxYKB2IUARA8IwACAACAH4xZeaByFIxdLePTdX+3BYERQn6WW1Acfkra0fXSF28GF7W2Q5VQ1eEb0sx3pZxj9jM1DrPw9eAH3fdRtczuaWYreCCGEQDBMwIgAAAA+MGvB3wZclv6qrVib7bdLfaYha2X9w9uUW8HLKGq47eCI4JObLOfqf7MezEjlEY96b5u1Uq9SpqbLJXWY5c1wCcIgOAZARAAAAD84Pa0OU7gU7XM1LCJZloULtkxUxp4rxu4hKtRT0m7Zkll9RhJlZctrRsljf51zVu7V1SX70jbp9vPAsQsAiB4RgAEAAAAP3i0z6U1cMLVop0n7W4wYc7WqZffcatqmXV4xj0nLesd3JbebE9vMVPRxq48qPjJm9Vzypfald4/GCClXes+X7gy4VR2pv3UQEwjAIJnBEAAAADwgw/n7w7s+mWHPqaalVfblDnKL2IKUVhlpdKmcVK//3WDmNpUvx8Ft5Nf1FVHpiRrYMqrGpf0tJYn36uSlKvd9jVVann76W8FF7EGUA0BEDwjAAIAAIAf5BYW66c9FwcWfLanfpnFob/YcNTuglDMTlzrR0t92rrBTFOUGSWUtdl+VwD+iwAInhEAAQAAwC/O5BXqzbHrqi0GfXeX+Zq9NctuissxQZCZGjb0ETekaejq1UbK+Ld0aJX9LgBYCIDgGQEQAAAA/OZ8fpFW7TutHVk59o/gxZF1weldtVm0ubbV+xZpVpx0cLn9agBqQAAEzwiAAAAAANQkr7BEPebs1KMdJ+kfCYkanfpnHezxoMo6X+8GOzXU0eTmGpb0rGbMnGq/BIBaIgCCZwRAAAAAAMIxays91neps8B2i/h03ddlvk7vXR9cM2jmu9InP9OZzjfrSHJLHUhurRXt79aMpEfVP/EFPR3fp7Lv2gNn7JcBUEsEQPCMAAgAAABAOB1mbAuEPfbOaqZaJmTotdFrqrXfdypXrRMzAgtvu+3T9dtBTPkC6oMACJ4RAAEAAAAIpbSsTG1TZjtBTtUyu6ydzSuq1m/utuO6OTEjsCObCY9aJaQH2v2izxKdulBQrS2AuiEAgmcEQAAAAABCOZ1b6AQ+oWrzkXN2Vx0/f1F95+/WG5+u1fsTN2nyuiMqLimzmwGoIwIgeEYABAAAACCUopJSZ+2fUHXkTL7dFUAjIQCCZwRAAAAAAMJ5acRqtUoIHQI1j0/XI70X210ANCICIHhGAAQAAAAgHLOo8y3tZwXCnqrhj1nbx9Tq/aftLgAaEQEQPCMAAgAAAFCTHcfOB7aCrxoAPdB9oVbszbabAmhkBEDwjAAIAAAAQG1knrgQCH22Hj1v/whAEyEAgmcEQAAAAAAARAcCIHhGAAQAAAAAQHQgAIJnBEAAAAAAAEQHAiB4RgAEAAAAAEB0IACCZwRAAAAAAABEBwIgeEYABAAAAABAdCAAgmcEQAAAAAAARAcCIHhGAAQAAAAAQHQgAIJnBEAAAAAAAEQHAiB4RgAEAAAAAEB0IACCZwRAAAAAAABEBwIgeEYABAAAAABAdCAAgmcEQAAAAAAARAcCIHhGAAQAAAAAQHQgAIJnBEAAAAAAAEQHAiB4RgAEAAAAAEB0IACCZwRAAAAAAABEBwIgeEYABAAAAABAdCAAgmcEQAAAAAAARAcCIHhGAAQAAAAAQHQgAIJnBEAAAAAAAEQHAiB4ds899+hrX/saRVEURVEURVEU5dOaOHGifSuIKEUAhKg2bdo0PfTQQ/bDCCM9PV333Xef/XBMe/7559WvXz/7YYTx0ksvqXfv3vbDqOLcuXOBi6XS0lL7RwghNzc38H0VFhbaP0IVnTp10ptvvmk/jDC6deum119/3X4YYfTs2VOvvPKK/TAsN954ozZv3mw/jDBuuukmbdiwwX4YVUydOlUPP/yw/TDQaAiAENUIgOqGAMhFAFQ3BECXRwBUNwRAtUMAVDcEQHVDAFQ7BEB1QwB0eQRAaGoEQIhqBEB1QwDkIgCqGwKgyyMAqhsCoNohAKobAqC6IQCqHQKguiEAujwCIDQ1AiBENQKguiEAchEA1Q0B0OURANUNAVDtEADVDQFQ3RAA1Q4BUN0QAF0eARCaGgEQolpeXp6ysrLshxFGfn4+35fl1KlTysnJsR9GGOb7On/+vP0wqjDBz/79++2HEUZZWRnfVy2YYPH06dP2wwjDfF/Z2dn2wwjDHNf5vi7v8OHDKioqsh9GGOb7ItyvGfcyaGoEQAAAAAAAAD5HAAQAAAAAAOBzBEAAAAAAAAA+RwAEAAAAAADgcwRAAAAAAAAAPkcABAAAAAAA4HMEQAAAAAAAAD5HAAQAAAAAAOBzBEAAAAAAAAA+RwAEAAAAAADgcwRAAAAAAAAAPkcABAAAAAAA4HMEQAAAAAAAAD5HAAQAAAAAAOBzBEAAAAAAAAA+RwAEAAAAAADgcwRAAAAAAAAAPkcABAAAAAAA4HMEQAAAAAAAAD5HAAQAAAAAAOBzBEAAAAAAAAA+RwAEAAAAAADgcwRAAAAAAAAAPkcABAAAAAAA4HMEQAAAAAAAAD5HAAQAAAAAAOBzBEAAAAAAAAA+RwAEAAAAAADgcwRAAAAAAAAAPkcABAAAAAAA4HMEQAAAAAAAAD5HAAQAAAAAAOBzBEAAAAAAAAA+RwAEAAAAAADgcwRAAAAAAAAAPkcABAAAAAAA4HMEQAAAAAAAAD5HAAQAAAAAAOBzBEAAAAAAAAA+RwAEAAAAAADgcwRAAAAAAAAAPkcABAAAAAAA4HMEQAAAAAAAAD5HAAQAAAAAAOBzBEAAAAAAAAA+RwAEAAAAAADgcwRAAAAAAAAAPkcABAAAAAAA4HMEQAAAAAAAAD5HAAQAAAAAAOBzBEAAAAAAAAA+RwAEAAAAAADgcwRAAAAAAAAAPkcABAAAAAAA4HMEQAAAAAAAAD5HAAQAAAAAAOBzBEAAAAAAAAA+RwAEAAAAAADgcwRAAAAAAAAAPkcABAAAAAAA4HMEQAAAAAAAAD5HAAQAAAAAAOBzBEAAAAAAAAA+RwAEAAAAAADgcwRAAAAAAAAAPkcABAAAAAAA4HMEQAAAAAAAAD5HAAQAAAAAAOBzBEAAAAAAAAA+RwAEAAAAAADgcwRAAAAAAAAAPkcABAAAAAAA4HMEQAAAAAAAAD5HAAQAAAAAAOBzBEAAAAAAAAA+RwAEAAAAAADgcwRAAAAAAAAAPkcABAAAAAAA4HMEQAAAAAAAAD73/wFuBNvbmZxdZwAAAABJRU5ErkJggg==;" vertex="1" parent="1">
          <mxGeometry x="27.5" y="570" width="255" height="170" as="geometry" />
        </mxCell>
        <mxCell id="fV4lutbLEvw6odGB0vFc-8" value="" style="shape=image;verticalLabelPosition=bottom;labelBackgroundColor=default;verticalAlign=top;aspect=fixed;imageAspect=0;image=data:image/png,iVBORw0KGgoAAAANSUhEUgAABIAAAAMACAYAAABcvxwMAACAAElEQVR4Xuzdh5tdV30v/PwFuJLc++Z9c22LajDgQMAJkDgkNw4Q4BKuISYkIUASAoQEkmA1q7sb25IL7pZtXOReNOrNKpbVe+9dVq8jTV2v1gyypbVGsmZryjlnPp/n+T0u893H+MzZJ1lf7732bwUAAAAAKtpvpX8DAAAAgMqiAAIAAACocAogAAAAgAqnAAIAAACocAogAAAAgAqnAAIAAACocAogAAAAgAqnAAIAAACocAogAAAAgAqnAAIAAACocAogAAAAgAqnAAIAAACocAogAAAAgAqnAAIAAACocAogAAAAgAqnAAIAAACocAogAAAAgAqnAAIAAACocAogAAAAgAqnAAIAAACocAogAAAAgAqnAAIAAACocAogAAAAgAqnAAIAAACocAogAAAAgAqnAAIAAACocAogAAAAgAqnAAIAAACocAogAAAAgAqnAAIAAACocAogAAAAgAqnAAIAAACocAogAAAAgAqnAAIAAACocAogAAAAgAqnAAIAAACocAogAAAAgAqnAAIAAACocAogAAAAgAqnAAIAAACocAogAAAAgAqnAAIAAACocAogAAAAgAqnAAIAAACocAogAAAAgAqnAAIAAACocAogAAAAgAqnAAIAAACocAogAAAAgAqnAAIAAACocAogAAAAgAqnAAIAAACocAogAAAAgAqnAAIAAACocAogAAAAgAqnAAIAAACocAogAAAAgAqnAAIAAACocAogAAAAgAqnAAIAAACocAogAAAAgAqnAAIAAACocAogAAAAgAqnAAIAAACocAogAAAAgAqnAAIAAACocAogAAAAgAqnAAIAAACocAogAAAAgAqnAAIAAACocAogAAAAgAqnAAIAAACocAogAAAAgAqnAAIAAACocAogAAAAgAqnAAIAAACocAogAAAAgAqnAAIAAACocAogAAAAgAqnAAIAAACocAogAAAAgAqnAAIAAACocAogAAAAgAqnAAIAAACocAogAAAAgAqnAAIAAACocAogAAAAgAqnAAIAAACocAogAAAAgAqnAAIAAACocAogCps9e3bTAAAAAKVNAURh1157bdMAAAAApU0BRGEKIAAAACgPCiAKUwABAABAeVAAUZgCCAAAAMqDAojCFEAAAABQHhRAFKYAAgAAgPKgAKIwBRAAAACUBwUQhSmAAAAAoDwogChMAQQAAADlQQFEYQogAAAAKA8KIApTAAEAAEB5UABRmAIIAAAAyoMCiMIUQAAAAFAeFEAUpgACAACA8qAAojAFEAAAAJQHBRCFKYAAAACgPCiAKEwBBAAAAOVBAURhCiAAAAAoDwogClMAAQAAQHlQAFGYAggAAADKgwKIwhRAAAAAUB4UQBSmAAIAAIDyoACiMAUQAAAAlAcFEIUpgAAAAKA8KIAoTAEE0DWt2H4g3Dxqebhj7Mqwdd+R9McAAJQgBRCFKYAAup6xS7eHD/QaEf7XtcOb5jPXjwtb9lanMQAASowCiMIUQABdy6z1e8IHe498u/w5Pt8bOjONAgBQYhRAFKYAAug64m1fH+s3Oit/js+YJdvTQwAAKCEKIApTAAF0DfEWrytuGJeVPifO526eEI7U1qeHAgBQIhRAFKYAAqh8ew7XhC/cNikrfFqa20YvTw8HAKBEKIAoTAEEUNmqa+vD1+6emhU9p5r39xoR1u48lL4MAAAlQAFEYQoggMpV19AY/uGRGVnJc3z+asiU7O/F+buHZ6QvBQBACVAAUZgCCKAyNTaG8PNh87Ny5/j0f21J034/cd+f9GdxRizalr4kAACdTAFEYQoggMp0fdXSrNQ5Pj99em5TQRSNW/pW9vM4V9wwPhyusSE0AEApUQBRmAIIoPI8MHlNVugcn+88NCPU1f+m/fmNHzw2K8vFuWnEspNyAAB0LgUQhSmAACrLC3M2h4u652VOnK/eNTUcqqlLDwmb9lSHD/YemeXf13NEWPXWwTQOAEAnUQBRmAIIoNm2/UeaipDjM33Nrmxemb8lPD9700nz4OQ14Y6xK0+aePvVfz47/6T592fmNe3JE//89jErwp3jVjYd//K8LU2vPW/j3qZ/7u5DNen/tDM2cfmO0K1nVVbkxLny1omnfe0h41dlx8S55oHpaRQAgE6iAKIwBRDQ1U1ZtTN85vpxWfHR2XNZv9HhszeNb3pS17funx5+/OScpvLollHLm0qmYbM2NhVIsTyauW5307/Hh6/Lr+KJ8+lj/36xXDqdmrqGppIoPTbOq/O3pHEAADqBAojCFEBAV3bwaF34eP/RWeFRSROLpGVb96f/6i16fcWO7Pg4sUA6dDS/dQwAgI6lAKIwBRDQlT355oas7Kik+UCvEWHG2t3pv/Zp/fCJ2dnrxBnw2pI0CgBAB1MAUZgCCOjKvnb31KzoqJS5pEdVGLV4W/qv/K627qtu8Vaybsdeb9m2A2kcAIAOpACiMAUQ0FWtfOtgVnK0ZuLVNXGPnhPnczdPaNqvJ52fPj23af+ef/31nKa//uLgyU35S/uMyl63reapGRvSf+Uzdu+k1dnrxbn6vjdC48lPkAcAoAMpgChMAQR0VYOGL80KjjhxU+UTnwYWZ191bXp4m9p1sKbpnzN7/Z6mf358lPtzszc1bfZ82+jlTeXRT56a21QexUe5x/LoVHsXvb/XiPDYG+vTf0Sr1NU3hj/75aTstePE/20AAHQOBRCFKYCArqiuoTF8cuDYrNz4+j3T0mjJ23u4tqk8mr9pb9PTwE73qPfWmLZ6V/b+xInv24EjNoQGAOgMCiAKUwABXdGYJduzYiPO2dw2VYniVUfpexSnzyuL0ygAAB1AAURhCiCgK/rBY7OyUuNDvUc2PRaed2zff6TFfYriBtOLt5zZo+UBAGg7CiAKUwABXc3Og0dDt55VWanx82Hz0yjHPDh5TfZexYm3y9kQGgCgYymAKEwBBHQ197/ecqERN18mF/dLuuqO17P3K84zMzemcQAA2pECiMIUQEBX8+ctPN3q8zdPcDXLacxYuztc1D0vgC4fMKZpE2oAADqGAojCFEBAVzJv496sxIgzeNzKNEoi3iKXvm9xery4MI0CANBOFEAUpgACupIeLyzMCoyLu1eFLXur0yiJuHfSZf1Gt/j+xUfQAwDQ/hRAFKYAArqK6tr68NG++ROtvvPQjDTKKQydti57/+J85a4pocE9dAAA7U4BRGEKIKCreHHu5qy4iPPq/C1plFOob2gMXxo8OXsP4/z6zfVpHACANqYAojAFENBV/M0D07PS4mP9RoejdQ1plNOYs2FP021f6Xv58f6jw+5DNWkcAIA2pACiMAUQ0BVs3H24xdLiupcXpVHOwC+eX5C9l3H++7kFaRQAgDakAKIwBRDQFdw+ZkVWVsRZuHlfGuUMxCt94hU/6fsZS7bZ6/ekcQAA2ogCiMIUQECli5sT/9FN47Oy4qo7J6dRWuHJNzdk72mcLw6e3LRXEAAAbU8BRGEKIKDSTV65Mysp4jw8ZW0apRVisfbVu6Zm72ucR6etS+MAALQBBRCFKYCASvdvT83NCor39Rxhw+I2sGDTvhb3Vvpo31Fh58GjaRwAgLOkAKIwBRBQyfZX14YP9BqRFRQ/fGJ2GqWgni8uyt7fOD8bNi+NAgBwlhRAFKYAAirZE9PXZ8VEnPHL3kqjFLT3cG24fMCY7D2+qPvwMGPt7jQOAMBZUABRmAIIqGRfuWtKVkx8+vpxNiluY8Nmbcze5zh/cfvroc57DQDQZhRAFKYAAirVsm0HskIizk0jl6VRzlJjYwh/fe+07L2O88DkNWkcAICCFEAUpgACKtWA15ZkZUS8LWntzkNplDawZMv+cEmPfEPoS/uMCtv2H0njAAAUoACiMAUQUInq6htb3JfmG/dOS6O0ob6vLM7e8zg/fnJuGgUAoAAFEIUpgIBKNHLRtqyEiBP3qqH9HDhSFz41aGz2vseZumpnGgcAoJUUQBSmAAIq0feGzswKiEuvGxUOHa1Lo7SxF+Zszt77OF+4bVKorW9I4wAAtIICiMIUQECleevA0dCthb1o/vPZ+WmUdnL1fW9k73+ceyeuTqMAALSCAojCFEBApfnVpNVZ8RBnxtrdaZR2snz7gdCtZ17Cffi6kWHL3uo0DgDAGVIAUZgCCKg08VajtHj4k1smNj2qnI4zcPjS7PcQ51+emJ1GAQA4QwogClMAAZVk9vo9WeEQ5+4Jq9Io7Szut/SZ68dlv4s4k1bsSOMAAJwBBRCFKYCASnLt8wuysuGSHlVh674jaZQO8NqCLdnvI068IqumzobQAACtpQCiMAUQUCkO19SHj/QZlZUNf//wjDRKB/r2g29mv5M4g8etTKMAALwLBRCFKYCASvH87E1ZyRBn+MKtaZQOtHrHwfC+niOy38sHe48MG3cfTuMAAJyGAojCFEBApfjm/dOzkuET/ce41agE3DRyWfa7ifP9obPSKAAAp6EAojAFEFAJ1u86HC7qnhcMfV9ZnEbpBPH2vD+8cXz2+4kzdun2NA4AwCkogChMAQRUgltHL8+KhThLtuxPo3SSkYu2Zb+fOJ+7eUI4UlufxgEAaIECiMIUQEC5a2hsDFfckF9d8qXBk9Mox22ZG8Lz3w/h9ktDGHJ5CMN/FsKe9WmqzcUNudPfU5zbRi9PowAAtEABRGEKIKDcvb5iR1YoxHl02ro0SjTv1yH0Oy+EAeeH0Pc9zdP/2J8P+h8hrJ+apoupOxrC1DtCuOeKEG655NgfPxPClDvC+rd2hff3yjeEjn9v7c5D6asAAJBQAFGYAggodz9+cm6LhcKewzVplJ0rQ+h/3jvFz4kTS6GbLw6h5iyLmJrDIdz/J82vd+Lrx3/ufZ8PQ0bOz35fcf7u4RnpKwEAkFAAUZgCCChnew/Xhg+0cEXJj349J40SjeoZwoAL8vLn7RLo3OYrhM7GiF+cumTqf36of/U/mvb9SX9nceI+QQAAnJoCiMIUQEA5GzptXVYixJm0YkcaJXr8ayH0OycvZo7PwAtDGN07PerM1deEMOh38tc9cQa9N4xftDH7ncWJTwqLTwwDAKBlCiAKUwAB5ezLQ6ZkJcIVN4wL9Q2NaZRo2N+dvPdPOgMuDGHijelRZy5uJJ2+Zkuza3X4/tBZ2e8uzk0jlqWvCgDAbyiAKEwBBJSrpVv3Z+VBnFtGeaLUKc0emu/Nk86mmelRZ656z+mvMDo+h3aGjbsPhw/2Hpn9/t7Xc0RYveNg+soAAAQFEK0wceLEMHTo0Lfny1/+sgIIKEv9Xl2clQcXdR8e1u06y02MK1m8RSs+maulq4Dik8CGfSc9ovUeuPLYa51in6H+54Zw32ffjg4etzL7Hca55oHpJ7wgAADHKYA4Y/fcc0/47ne/+/ZcdtllCiCg7NTWN4TLB4zJioOr73sjjZI6+FYIj37pnUImbvwcr9p5+UfH3tjqNN16G99sLpPi655Y/sS/jptDr5/2drSmriFceevE7PcY59X5W054UQAAIgUQhbkFDChHVQu3ZoVBnOdmb0qjnMrW+SHMfSKE+U+FsHtt+tOzs3pCCLe+/+QC6LZjf71qbJoMr6/Ykf0e43z6+nHh0NG6NA4A0KUpgChMAQSUo+8+MjMrDC7tM8oTpEpJfW0I66aEMO/JENZObr797BR++MTs7PcZZ+DwpWkUAKBLUwBRmAIIKDfb9h8Jl/SoysqC/35uQRqlTGzdVx0+fF2+IXS3nlVh+fYDaRwAoMtSAFGYAggoN/dMWJUVBXFmrd+TRikj905anf1O48R9nRob0zQAQNekAKIwBRBQblraNPhPb5uYxigzcWPvP/vlpOx3G+eFOZvTOABAl6QAojAFEFBOZq7bnZUDce6duDqNUoamrd6V/W7jfHLg2HDgiA2hAQAUQBSmAALKyX89tyArB7r1qArb9x9Jo5Spnzw1N/sdx+n7yuI0CgDQ5SiAKEwBBJSLQzV14dLrRmXFwD8+OjONUsZimRef6Jb+nuPG30u27E/jAABdigKIwhRAQLl4dtbGrBSIM2LRtjRKmXtw8prs9xzn6/dMsyE0ANClKYAoTAEElIv4NKi0ELh8wJimzYOpLHUNjeGqO17Pft9xhs3amMYBALoMBRCFKYCAcrB256FwUfe8DOj/2pI02jUtey2Ep78dwuCPhfD410KYcX8I9TVpqqzMWLu7xd95LP32Hq5N4wAAXYICiMIUQEA5uHnU8qwIiLNsaxffEybeD/XSv4bQ9z0h9D+v+Y/9zjk254Zw3+dDOFLe78/Phs3Lfudxery4MI0CAHQJCiAKUwABJa3mUGiY81h4dsDfhHt7/234do+b3y4B/mrIlDTd9cx6JIS+5zQXP+n0vyCEF/8pPaKs7Dx4NFzWb3RWAF3cvSrM37Q3jQMAVDwFEIUpgICStXFGCLd0C439zg1H+14Qavqe31RsvHHdFeGj1z4bHn9jfXpE1zPk8uYrftLy5/jEK4EO70qPKiuPTluXFUBxvnrX1NBgR2gAoItRAFGYAggoSQe2hnDD775zW9MJU9f3/DChz5VhX3UX3wemvvb05c/xWVfeV0rVNzSGLw2enBVAcX79phIQAOhaFEAUpgACStKY60IYcEFeZpw4W+alR3Ut8eqXARfm70s6W+amR5adORv2NN32lRZAH+8/Ouw+VN6bXQMAtIYCiMIUQEBJeuBPwyn3tjk2jfHKoOn3pEd1PY9/vXmvnxbeo6a56fearxSqAP/93IKsAIoT/z4AQFehAKIwBRBQku77XF5mnDjx6qBpQ9Kjup6t85uvAmrxVrBjf2/20PSIshWv9IlX/KQFULwyKF4hBADQFSiAKEwBBJSk4T8PDae7siXO+qnpUV3T6vEh3HzRb4qx9zYXP7EUeuOuNFn24p4/aQEU54uDJzftFQQAUOkUQBSmAAJK0q5VobbfBaGxpdvA+p/ffIuYJ0C9o7Y6hKWvhjD5thAWDAvh4FtpoiLEp37Fp3+lBVCc+LQwAIBKpwCiMAUQUIqmr9kV/qlnv6ZHv9cem4a+54S6vuc1PRI+3PUHIezfkh5CFzF/094WN4T+aN9RYefBo2kcAKCiKIAoTAEElKJ/eGRG06L+imsfD4N7/UMYe92V4dXeV4Xtkx4Iod5Tn7q6Hi8uzAqgOD8b1sWfDAcAVDwFEIUpgIBSs3Tr/nBR93xx//2hs9IoXdTew7Xh8gFjss9I/NzMWLs7jQMAVAwFEIUpgIBS8+/PzMsW9nFmrrOw5x3DZm3MPiNx/uL210OdDaEBgAqlAKIwBRBQSjbtqQ7deuT7u3zj3mlplC4u7gH+9XumZZ+VOA9OXpPGAQAqggKIwhRAQCnp88ribDEfZ8yS7WkUwpIt+8MlLRSGl/YZFbbvP5LGQ1gzKYSq/wzh+e+FMOa6ELYvThMAACVNAURhCiCgVOw+VBM+1Htktpj/819O8sR3TqnvKUrDnzw1951QQ10Iz/3jsfB7Qhh4YQjxaXJNfzwnhMm3vZMDAChxCiAKUwABpeL2MSuyRXyc52ZvSqPwtgNH6sInB47NPjdxpq7a2Rwa1y+E/uc1F0AtzZJXTn5RAIASpQCiMAUQUAoO19SHT/TPn+p0xQ3jQl29y384vRfmbM4+O3G+cNukUHvkUPPVPmnpc3zi1UD3/mH6kgAAJUkBRGEKIKAUPDx1bbZ4j2MzX85EvEXw6vveyD4/cV545aW89Ekn3gpWX5O+LABAyVEAUZgCCOhs8QqfP7ppfLZw/1i/0eFQTV0ahxYt334gdOuZbwj9zT535YVPOk0FUG36kgAAJUcBRGEKIKCzner2ndtGL0+jcFoDhy/NPkcfuPbFUNP/vXnpc3z6nxvC/X+SvhQAQElSAFGYAgjoTPHWnavueD1btH+w98iw66BbcmidQ0frwqevH5d9nm7r9f3QGPf6Scuf41f/rBydvhQAQElSAFGYAgjoTOOXvZUt1uP0fnlRGoUz8ur8Ldnn6eJrXwuvDPpmc+Ez4MLm6X/BsTk/hJkPpi8BAFCyFEAUpgACOlNLG/d261EVNuw+nEbhjF3zwPTscxXn6ZdfaX4k/Ev/GsLkX4awZ316KABASVMAUZgCCOgsczbsyRbocX7y1Nw0Cq2yesfB8L6eI7LPVry1cKNyEQAoYwogClMAAZ3lB4/NyhboF3UfHhZv2Z9GodVuGrEs+3zF+f7QWWkUAKBsKIAoTAEEdIZVbx0MF3fPH9n9nYdmpNGuaefKEKYNDmHijSHMfyqEowfSBO/icE19+MMbx2efsThjl25P4wAAZUEBRGEKIKAz/NdzC7JFeZxpq3el0a6lsSGEkd2bn0wVNygeGB9ffuzPb/z/Qlg9Pk3zLkYu2pZ9xuJ87uYJ4UhtfRoHACh5CiAKUwABHW3b/iMt7s/ylbumpNGuZ8L1IfQ/r+VHlccy6K0l6RG8i79/eEb2WYvzyzEr0igAQMlTAFGYAgjoaIOGL80W43GqFm5No13LkX3NjydPy5/jE68IGvZ36VG8i3W7DoX398oLx/j34s8AAMqJAojCFEBAR9pfXRsu7TMqW4xfeevE0NDYmMa7llVj89InnZt+Lz2KMxCv9kk/c3H++fHZaRQAoKQpgChMAQR0pLsnrMoW4XGenLEhjXY9y4bnhU86g/5HehRnIO73E/f9ST933XpUhUM1dWkcAKBkKYAoTAEEdJSjdQ3hkwPHZovwTw0a2/SzLm/vxua9ftLS5/j0PzeEh69Kj+IMjVrc8obQ8zftTaMAACVLAURhCiCgo/z6zfXZ4jvOvRNXp9GuK+7xM+CCvPw5PstHpEdwhqpr68PF3auyz98LczanUQCAkqUAojAFENAR6hsawx/fkt+C85E+o8KBI27BeVv13hDu+3wI/c5t3vQ5lj4DfvPHSTenaVrpszeNzz6Dt4xansYAAEqWAojCFEBAR3htwdZs4R3nhqqlaZT62hDmDA3hyatDeOh/h/Dyj0LYOCNNUUBLj4S3ETQAUE4UQBSmAAI6wpeHTMkW3vEx3Nv3H0mj0G76v7Yk+xz+2S8npTEAgJKlAKIwBRDQ3qas2pktuuP84vkFaRTaVXzaXPo57NazKtQ1NKZRAICSpACiMAUQ0N7+9sE3s0V33Ix3zY5DaRTa1Yy1u7PPYhyfRQCgXCiAKEwBBLSnhZv3ZYvtOPZdoTPsOliTfRbjjF68LY0CAJQkBRCFKYCA9vTjJ+dki+048zbuTaPQIT7Rf0z2ebx34uo0BgBQkhRAFKYAAtrL+l2HwyU9qrLF9jfvn55GocN8495p2Wfy58PmpzEAgJKkAKIwBRDQXnq+uChbaMeZuHxHGoUOEzcfTz+TX7t7ahoDAChJCiAKUwAB7WHnwaPhA71GZAvtq+6cHBo9cIlO9MDkNdnn8iN9RqUxAICSpACiMAUQ0B5uGbU8W2THeWnu5jQKHWr8sreyz2Wc7fuPpFEAgJKjAKIwBRDQ1g4drQuX9RudLbA/e9P4UNfg8h86V9ybKv1sxpm6amcaBQAoOQogClMAAW2tpVts4jw6bV0ahQ7X0NjY4u2Jj72xPo0CAJQcBRCFKYCAtlRb3xA+c/24bHF9+YAxobq2Po1Dp4h7UaWf0T6vLE5jAAAlRwFEYQogoC09O2tjtrCOc8fYlWkUOs2Pn5yTfUa//eCbaQwAoOQogChMAQS0lfh0rz/75aRsYf3h60aGPYdr0jh0mtvHrMg+p/HKNQCAUqcAojAFENBWRi/eli2q4/R71a01lJZX52/JPqcXdR8eDh6tS6MAACVFAURhCiCgrXz9nmnZorpbz6qweU91GoVOtWTL/uyzGmf+pr1pFACgpCiAKEwBBLSFGWt3Z4vpOP/xzLw0Wnrqa0JYPy2EeU+GsGVu871sVLQjtfXh4u5V2ef1+Tmb0igAQElRAFGYAghoC//46MxsMR1vqVm27UAaLS3LhodwS7cQ+r7nnbnz4yFsmpUmqTCfu3lC9pm9edTyNAYAUFIUQBSmAALOVix5YtmTLqZjKVTSVo0Nod+5zXNiART/euBvh/DW0vQIKsg/PDIj+8z+0+Oz0xgAQElRAFGYAgg4Wz8bNi9bSMeJt4WVtDsuy8uf4zPgghCe+EZ6BBVkwGtLss9sfIodAEApUwBRmAIIOBtxg+e40XO6kI4bQpe0Xavz0ied/heEUF+bHkmFeGrGhuxzGz/LdfX2gAIASpcCiMIUQMDZiI94TxfRceIj4Uva5tl54dPSHNmXHkmFONXG5at3HEyjAAAlQwFEYQogoKg9h2vCh68bmS2gv3DbpNJ/kFb1nhD6n+L2r+Nz88XpUVSQ3Ydqss9unFGlXl4CAF2aAojCFEBAUXeMXZktnuMMm7UxjZamYX/ffJtXWvzE6X9eCBMGpUdQYS4fMCb7/N4zYVUaAwAoGQogClMAAUVU19a3uHj+zPXjQm19QxovTYd3NT/yPZY9J5Y/cWPoR64Koe5oegQV5v/+6o3sM/zzYfPTGABAyVAAUZgCCCji0WnrsoVznPtfX5NGS9vRAyGMHxDCkN8PYdD/COGeK0KYNsTmz13Etc8vyD7DX717ahoDACgZCiAKUwABrVXX0Bg+e9P4bOF8Wb/R4dDRujQOJeuByWuyz/FH+oxKYwAAJUMBRGEKIKC1Xpq7OVs0x7ll1PI0CiVtwvK3ss9xnG37j6RRAICSoACiMAUQ0Brx6V5X3Tk5WzB/oNeIsPOgPXMoLxt2H84+y3GmrtqZRgEASoICiMIUQEBrTFy+I1ssx+n54qI0CiWvobExfLD3yOzzPHTaujQKAFASFEAUpgACWuNb90/PFsuX9KgK63YdSqNQFv6yhSvarntZoQkAlCYFEIUpgIAzNW/j3myhHOfHT85Jo1A2fvzk3Owzfc0D09MYAEBJUABRmAIIOFP//PjsbKEcZ+HmfWkUysYdY1dkn+nPXD8ujQEAlAQFEIUpgIAzsWbHoXBx96psofy3D76ZRqGsvLZgS/a5vqj78HDgSF0aBQDodAogClMAAWfiF88vyBbJcaZ4WhJlbunW/dnnOs78jXvTKABAp1MAUZgCCHg32/cfCe/vNSJbIH95yJQ0CmXnSG19i1e3PT97UxoFAOh0CiAKUwAB7+aGqqXZ4jjOawu2plEoS5+/eUL2+b5p5LI0BgDQ6RRAFKYAAk4n7oPykT6jssXxH98yIdQ3NKZxKEvffWRm9hn/p8dnpzEAgE6nAKIwBRBwOvdOXJ0tjOP8+s31aRTK1sDh+VVuX7htUhoDAOh0CiAKUwABp3K0riF8atDYbGH8yYFjm34GleKpGRuyz3m3nlWhrt5VbgBAaVEAUZgCCDiVJ1tYFMe5e8KqNAplbea63dnnPM6qtw6mUQCATqUAojAFENCShsbGcOWtE7MF8aV9RoX91bVpHMra7kM12Wc9zqjF29IoAECnUgBRmAIIaEnVwq3ZYjjOoOFL0yhUhMsHjMk+7652AwBKjQKIwhRAJWbDGyE8+uUQ+p8fQr9zQnjgyhCWvZamoN195a4p2WL4fT1HhG37j6RRqAhX3/dG9pn/2bB5aQwAoFMpgChMAVRCFj4bQr/zQhhwfgh939M8/c5t/uPk29I0tJtpq3dlC+E4//XcgjQKFaP7Cwuzz/xX75qaxgAAOpUCiMIUQCXi4PYQBr73neInnXg10Nb56VHQLr7z0IxsIXxx9yob4lLRHpy8Jvvcxz2vAABKiQKIwhRAJeLNX4XQ/7y8+Dk+Ay8MYcQv0qOgzS3esj9c1D2/+ucHj81Ko1BRJi7fkX3u42zd57ZHAKB0KIAoTAFUImK5M+DCvPg58QqgJ/46PQra3E+empstgOPM2bAnjUJF2bj7cPa5jzNl1c40CgDQaRRAFKYAKhGTbj59ARR/9tIP06OgTW04tgDu1qMqWwDHzXGh0jU0NoYP9h6Zff4fnbYujQIAdBoFEIUpgErEtkXNV/mkxc/bc+xnS19Nj4I21fvlRdniN874ZW+lUahIXxw8Ofv8x/MCAKBUKIAoTAFUQqr+852nfp109c/5ITz+f0JobEyPgDaz62BNi1c/XHXH6z56dBkt3QJ5zQPT0xgAQKdRAFGYAqiENDaEMOmmk58GFh8LP/xnIdRWp2loU7eNXp4tfOO8MGdzGqW1GupCWPJyCKN6hDCyewiLng+hvjZNUQLuGLsyOwc+ff24NAYA0GkUQBSmACpBNYdDWD8thHVTQqjem/4U2tyhmrrwsX6js4XvH944PtTVu/znrOzdEMLdn26+jTOWu3Hi7Z6DPxHC7jVpmk722oIt2XkQn4p34EhdGgUA6BQKIApTALVCLGNG/FcIN/2v5qtzbrkkhNG9Qzh6IE1CWXloytps0Rvn4alr0yitEa/yGfLJEPpf0PKtnXd+LIQ6jxgvJcu27s/OgzjzNirjAYDSoACiMAXQGTq089hi7bJjC7nzT17E9T8vhLs+FcKRfekRUBbiFT5X3DAuW/B+ov+YcLimPo3TGgufbXlfr7e/P459n8wZmh5FJzpa1xAu7p4/Ce/52ZvSKABAp1AAUZgC6Aw99495+XPif8l/7afpEVAW4sI2XezGuX3MijRKa8X9uwZcmH9nvP3dcexnL/0wPYpO9vmbJ2Tnw00jlqUxAIBOoQCiMAXQGag5dOry5/gM/G2bulJ24tO9/vyXk7LF7od6jwy7D9WkcVrr1Z+evgCK3ysv/CA9ik723UdmZufEDx6blcYAADqFAojCFEBnYMeyfOHW0uzztCTKy5gl27OFbpw+ryxOoxQRb++Kt4mm3xVvF0DHfvbmr9Kj6GSDhi/Nzok/vW1iGgMA6BQKIApTAJ2BQzuan9qTLt5OWsid23ylEJSRb9w7LVvodutRFTbtqU6jFFF77H287YMtX0EY9wa6+WKbyJegp2dubPG8qK1vSKMAAB1OAURhCqAz9MCftvwkn+P/Ff+xr6RHQEmbuW53tsiN89On56ZRzsb2xSHc2q35eyIWQccnlj+b56RpSsCpzo2Vbx1MowAAHU4BRGEKoDO0ZW7zXh7pE30GXNC8/89bS9MjuraG+mOL29khrJsSwv4t6U8pAd8fOitb4F7UfXhYunV/GuVsxat8pt8TwrN/H8Kwvwth2mBPDixhew7XZOdGnJGLtqVRAIAOpwCiMAVQK2ycEcKQy08ugO75TAhbF6TJrm3hcyHcfNHJ79OT3wrh4Ftpkk6yYvuBprInXeD+/cMz0ih0SZcPGJOdH3eNX5XGAAA6nAKIwhRABcRbOuKVLXFzaE4294l39jc56Ta580MY/An7nZSInz87P1vcxpm+ZlcahS7p6vveyM6P/3hmXhoDAOhwCiAKUwDRZuIm2Df8PycXP2kJNPGG9Cg62NZ91aFbz6pscfu1u6emUeiyerywMDtHvnLXlDQGANDhFEAUpgCizawYmZc+6dzz6fQoOlj/15ZkC9s49jeBdzw0ZW12jlzaZ1RobEyTAAAdSwHEGVuyZEmYOHHi23PNNdcogGgb8fav/smtX+ncfEl6FB1o7+HacOl1o7KF7Z/eNjE0WNnC2yYu35GdJ3HiFXQAAJ1JAcQZ+9GPfhQuuuiit+ecc85RANE21k/NC58Tp985ITz8F+lRdKDB41ZmC9o4T8/cmEahS9u0pzo7T+JMXrkzjQIAdCgFEIW5BYw201AXwp0fC2HA+Xn50zTnhDD38fQoOsiR2voWn2z06evHhZq6hjQOXVq8Iu5DvUdm58uj09alUQCADqUAojAFEG1q8+wQBv1O84bPJ139c24IT18TQqOiobM89sb6bDEb51eTVqdR4JgvDp6cnS+9XlqUxgAAOpQCiMIUQLS5XatCePrbIQx8b3P5c+dlIUy/R/nTieoaGsPnbp6QLWY/2ndUOHi0Lo0Dx/zkqbnZOfM3D0xPYwAAHUoBRGEKIKh8r8zfki1k49w0clkaBX7jzhb2zPqDQWPTGABAh1IAUZgCCCpfS7eyfKDXiLDjwNE0CvzGawu2ZudNnP3VtWkUAKDDKIAoTAEEle31FS0/zrrHCwvTKHCCZVv3Z+dNnLkb9qZRAIAOowCiMAUQVLa4Z0m6gL2kR1VYu/NQGgVOcLSuoelcSc+f52ZvSqMAAB1GAURhCiCoXPM37c0Wr3H+9ddz0ijQgj++Jd88/cYR9s4CADqPAojCFEBQuX74xOxs8RonFkPAu/vHR2dm588PHpuVxgAAOowCiMIUQFCZ4i1eF3fPb1+5xmOs4YxdX7U0O4euvHViGgMA6DAKIApTAEFl6v7CwmzhGiduCg2cmWdmbszOoW49qkJtfUMaBQDoEAogClMAQeV568DRpse8pwvXLw2enEaB05i1fk92HsVZsf1AGgUA6BAKIApTAEHluWnEsmzBGufV+VvSKHAaew/XZudRnBGLtqVRAIAOoQCiMAUQVJaDR+vCR/uOalqk/n73J0PvXv8eHur9N+G+QT8JDVsXpXHgXfz+wDFZAXTX+FVpDACgQyiAKEwBRKerORzC2L4h3Pq+EPq+J4Qbfy+Eqp+HcHh3muQM/GrS6qYF6o979A5H+l4Y6vueG2r6XhAa+p8fQr9zQhjx3yE02r8EztTV972RFUD//sy8NAYA0CEUQBSmAKJTHT0Ywr1XhND/vOby5/jEsuL2D4VwwG0WrVFT1xA+ff248Nc9bg8Nfc8NjSe+p8en37H3etLN6aHAKfRoYUP1vxoyJY0BAHQIBRCFKYDoVCOvzcuf4zPgghCeviY9gtN4+jdPLJp63R81XfmTvafHZ9B7m6+8At7Vw1PWZgXQpdeNCo2NaRIAoP0pgChMAUSnibch3fC7eTlx4vQ/N4TqPemRtKDh2Gr0ylsnNi1O4y1f2XuZzjpXMMCZmLRiR1YAxdm6rzqNAgC0OwUQhSmA6DSHdualREuzdX56JC0YuWhb06L0omtfC/V9T3FV1YmzZlL6EkALNu2pzsqfOJNX7kijAADtTgFEYQogOk19TfNeP2kxkc6+TemRtOCrd099e2G64LpPNO0BlL2XxyfuA2STbTgj8VavD/UemRVAj0xdl0YBANqdAojCFEB0qie/2bzXT1pQNJUU54ZwzxXpEbRg+ppdJy1M/7lH3/z9PD5xz6VX/y19CeA0vjR4clYA9XxxURoDAGh3CiAKUwDRqXatCuH6/5lvBD3g/Oargza+mR5BC/7+4RnZ4vS23t9vfuz7wAt/857Gou3YXz/2lRBq7V0CrfFvT83NzrFv3T89jQEAtDsFEIUpgOh02xeH8KvPnlwADf54COunpklasHTr/nBR95MXpnG+P3RWCFvmhTDiv0N49IshvPBPISx+qfl+FqBV7hy3MjvHPjVobBoDAGh3CiAKUwBRMnauaH4y1baF6U84jZ8+nV+ZEGfW+j1pFCho+MKt2TkWZ391bRoFAGhXCiAKUwBB+YpPJ+rWoypblH7j3mlpFDgLy7YdyM6zOHM2KFoBgI6lAKIwBRCUrz6vLM4WpHHGLt2eRoGzUFPXEC5poWx9dtbGNAoA0K4UQBSmAILytPtQTYuPpv7ft79umx9oB39yy8TsfLtxxLI0BgDQrhRAFKYAgvJ0+5gV2WI0zvOzN6VRoA18b+jM7Hxr2mwdAKADKYAoTAEE5edwTX34eP/R2WL0ihvGh7p6l/9Ae7i+aml2zl1568Q0BgDQrhRAFKYAgvLz8NS12UI0zkNT1qZRoI0Mm7UxO+fiJuxxfyAAgI6iAKIwBRCUl3iFzx/eOD5biMYrgg7V1KVxoI3MXr8nO+/irNh+II0CALQbBRCFKYCgvDw/Z1O2AI1z2+jlaRRoQ3sP12bnXZyqhVvTKABAu1EAUZgCCMpHfLrXX9z+erYAjU8D23WwJo0DbeyTA8dm59+Q8avSGABAu1EAUZgCCMrHuKVvZYvPOL1fXpRGgXbwzfunZ+ffT5+em8YAANqNAojCFEBQPq6+741s8Rk3od2w+3AaBdpBjxcXZufgXw2ZksYAANqNAojCFEBQHk61Ae1PnnL1AXSUlp7A9+HrRjbdngkA0BEUQBSmAILy8IPHZmULz4u6Dw+Lt+xPo0A7eX3Fjuw8jLNlb3UaBQBoFwogClMAUZbmPh7CXZ8Moe97Quh/fghDvxLCpllpqmKseutguLh7Vbbo/M5DM9Io0I4276nOzsM4sRgCAOgICiAKUwBRdob/PIR+7zk25zYXQE0l0HnNs7wqTVeE/3puQbbgjDNt9a40CrSjeKtXvOUrPRfjrWEAAB1BAURhCiDKyqpx75Q+6cRC6Ib/N4QjlXVL1NZ9R8L7eo7IFpxfvWtqGgU6wJeHTMnOx54vehIfANAxFEAUpgCirDz/vRAGXJCXP2+XQOeEsOCZ9KiyNnD40myxGadq4dY0CnSA+Nj39Hz81v3T0xgAQLtQAFGYAoiyct/n89LnxBn43hAm3ZQeVbb2VdeGS/uMyhabV946MTR47BB0isHjVmbn5CcHjk1jAADtQgFEYQogysqvr27e6yctft6+AujYz2Y9nB5Vtu4avypbaMZ5csaGNAp0kHj1XXpOxomFLQBAe1MAUZgCiLISn/514ubP6cQngu3bnB5Vmg7tDGHCoBAe/VIID18Vwpg+J/1vP1Jb33RVQbrI/INBY0NNXcMJLwR0pOXbD2TnZZw5G/akUQCANqcAojAFEGWloS6Eh/6ihauAzmme129JjyhNm2eHcOPv/WY/o/i//T3Nfz7od0JYPaEp8sT09dkCM869E1cnLwZ0pFjAdutRlZ2bw2ZtTKMAAG1OAURhCiDKTs2hEF7+UfPtXscLoBt+N4QZD6TJ0lRzOIRbuoXQv4UrmeIm1jf8z1C/f3v441smZAvMj/QZFQ4cqUtfEehgcR+u9Py8oWppGgMAaHMKIApTAFG2qveGsG5KCJtmhlBfk/60dM0ZenJ5lc6AC8LyYX2yxWWcG0csS18N6ATfHzorOz+/N3RmGgMAaHMKIApTAEEHG/7zEAZcmBc/x6f/eWHq9V/MFpfv7zUibN9/JH01oBPEq33SczReFQQA0N4UQBSmAIIONqpn8+Pq0+LnN9PY//zwUu+8ALr2+QXpKwGd5NlZG7Nz9JIeVTZoBwDanQKIwhRA0MFWjAxvb/zcwjT0PTf8oud/nrSwvLh7VViz41D6SkAniU/8SgugOPEJYQAA7UkBRGEKIOhgjY0hPPTnzY+sb+Hqn7V9Phjed+3LJy0q/+WJ2emrAJ1oX3VtVv7EGb5waxoFAGhTCiAKUwBBJzi8K4RH/rK5+ImPf296HPx7wsYbPhn+sPtj2aJy3sa96SsAnexTg8Zm5+rgcSvTGABAm1IAUZgCCDpRfIrZ67eEMPHGsH1uVejWI7+i4Fv3T0+PAkpAPDfT8/WnT89NYwAAbUoBRGEKICgNPV5cmC0m40xcviONAiWg54uLsvP1y0OmpDEAgDalAKIwBRB0vp0Hj4YP9BqRLSb/8s7JaRQoEQ9PXZudsx++bmTTNl8AAO1FAURhCiDofDePWp4tJOO8PG9LGgVKxOSVO7JzNs7mPdVpFACgzSiAKEwBBJ3r0NG6cFm/0dki8rM3jQ91DS4lgFK1ZW91dt7GeX2F2zYBgPajAKIwBRB0rvtfX5MtIOMMnbYujQIlJN7qdel1o7Jz9+Epa9MoAECbUQBRmAIIOk9tfUP4zPXjsgXk5QPGhOra+jQOlJi/GjIlO3/7PD8rhA3Tm6fW7WAAQNtSAFGYAgg6z7BZG7PFY5w7x61Mo0AJ+vdn5r193l5y7athSK9/CHX9Lgih73uaZ+CFIUy4PoQGhS4A0DYUQBSmAILOEW8f+cJtk7LyJz5FaO/h2jQOlKAh41e9fe6+2PtLoaHvue+UP8en/7G/9/K/pocCABSiAKIwBRB0jtGLt2XlT5z+ry5Jo0CJqlq4tem8vbrHbXnxk068JQwA4CwpgChMAQSd4//cMzUrf7r1rGp6shBQHlZsP9B07j7U+29CTd8Tbv1KZ+B7QxjdKz0cAKDVFEAUpgCCjjdj7e6s/Inzs2Hz0ihQwmrqGkK3HlXhpd5fDPUt3f51fAacH8KL/5weDgDQagogClMAQcf77iMzs/Lnou7Dw/LtB9IoUOKuvHVi0+bPtX3Pz4uftwugC0OYeEN6KABAqymAKEwBBB1r2bYDTWVPWgD946Mz0yhQBn7w2Kzwhe4PtLwB9PHpd14Iu1anhwIAtJoCiMIUQNCx/uOEx0afOPG2MKD83DhiWdM5PKDnj5rKnpOKoP7nNf9x+r3pYQAAhSiAKEwBBB1n857qpo2e0/Ln6/dMS6NAmXh21sa3z+Xv9xgQFvX5+DsF0P1/EsKKkekhAACFKYAoTAEEHaffq4uz8ifOmCXb0yhQJuZu2Jud03Hi7Z4AAG1NAURhCiDoGHsO14QPXzcyWyT+2S8nhcbGNA2Ui/3Vtdl5HWf4wq1pFADgrCmAKEwBBB3jjrErswVinHj7CFDePjVobHZu3zluZRoDADhrCiAKUwBB+6uurQ+XDxiTLRCvuGFcqK1vSONAmfnW/dOz8/vfnpqbxgAAzpoCiMIUQND+Hp22Llscxnlg8po0CpShXi8tys7vLw2enMYAAM6aAojCFEDQvuoaGsMf3TQ+Wxx+rN/ocOhoXRoHytAjU/OS90O9R9rfCwBocwogClMAQft6ce7mbGEY55ZRy9MoUKYmr9yRneNxNu2pTqMAAGdFAURhCiBoP/G//l915+RsUfjB3iPDzoNH0zhQprbuq87O8ziTVuxIowAAZ0UBRGEKIGg/E5a/lS0I4/R8cVEaBcpYLHsvvW5Udq4/NGVtGgUAOCsKIApTAEH7+WYLTwa6pEdVWL/rcBoFytxX7pqSne89XliYxgAAzooCiMIUQNA+5m7Ymy0G4/z4yTlpFKgA//HMvOx8v/q+N9IYAMBZUQBRmAII2sc/Pz47WwzGWbR5XxoFKsBd41dl5/vvDxyTxgAAzooCiMIUQND2Vu84GC7uXpUtBv/2wTfTKFAhRizalp3zcfYcrkmjAACFKYAoTAEEbe8Xzy/IFoFxpqzamUaBCrHyrYPZOR9n1vo9aRQAoDAFEIUpgKBtbd9/JLy/14hsEfhXQ6akUaCC1NY3hG498iv/npm5MY0CABSmAKIwBRC0reurlmYLwDivLdiaRoEKc+WtE7Nzf9DwpWkMAKAwBRCFKYCg7eyvrg0f6TMqWwD+yS0TQ31DYxoHKswPHpuVnf/XPDA9jQEAFKYAojAFELSdeybkTwGK8+s316dRoALdMXZFdv7HUrihUQEMALQNBRCFKYCgbRytawifGjQ2W/x9cuDYpp8BlW/Sih3Zd0Cc5dsPpFEAgEIUQBSmAIK28eSbG7JFX5y7J6xKo0CF2nu4NlzUPf8esBE0ANBWFEAUpgCCsxdv74j7/KSLvkv7jGraFwjoOlraCLr7CwvTGABAIQogClMAwdkbvnBrtuCLE58IBnQtPxs2L/suuOrOyWkMAKAQBRCFKYDg7H3lrinZgu99PUeEbfuPpFGgwj3+xvrs++CSHlXhUE1dGgUAaDUFEIUpgODsTF21M1vsxfnv5xakUaALWLh5X/Z9EOeN1bvSKABAqymAKEwBBGfnOw+9mS30Lu5eFVbvOJhGgS6grr4xfLD3yOx74d6Jq9MoAECrKYAoTAEExS3esr/FJ/780+Oz0yjQhfzfX72RfS/84LFZaQwAoNUUQBSmAILifvzk3GyRF2fOhj1pFOhCBg1fmn0vfGrQ2DQGANBqCiAKUwBBMRt2H27a2DVd5F193xtpFOhiTvVkwM17qtMoAECrKIAoTAEExfR6aVG2uIszftlbaRToYrbsrc6+G+K8tmBrGgUAaBUFEIUpgKD1dh2saXGT16vueD00NqZpoCv69PXjsu+IAa8tSWMAAK2iAKIwBRC03q2jl2cLuzgvzt2cRoEuKm4Gn35HfOPeaWkMAKBVFEAUpgCC1jlUUxc+1m90trD7o5vGh7oGl/8Aze6dtDr7nvhArxFNj4kHoALsXBHCM98OYdBvh9D3PSHc/QchzB6apqDNKYAoTAEErfPg5DXZoi7OI1PXpVGgC5u+Zlf2PRFnwaZ9aRSAcrNheggDfzuEARc0lz9x+p1z7I/H5sV/SdPQphRAFKYAgjMX/8v9FTfk+3p8ov+YcLimPo0DXVi8WrClJwU+9sb6NApAOamvCeG2D4bQ79x3yp8TJxZBi19Mj4I2owCiMAUQnLnnZm/KFnNx7hi7Io0ChL+8c3L2ffEfz8xLYwCUk1Vj89LnxOl/bgiPfz09CtqMAojCFEBwZuLTvf78l5OyxdyHeo8Muw/VpHGA0OOFhdl3xpW3TkxjAJSTGQ+E0P/8vPg5cW6/ND0K2owCiMIUQHBmxizZni3k4vR9ZXEaBWgybNbG7Dvjou7Dw57DSmOAsrXohRD6tVD6HJ94C9j9V6ZHQZtRAFGYAgjOzF/fOy1byHXrURU27alOowBNVmw/kH1vxJm4fEcaBaBcHN4dwqD3nroE6n9eCFNuT4+CNqMAojAFELy7met2Zwu4OP9uLw/gNBoaG8NH+47KvjtuH2PfMICyNv3e0PTEr7T8GXB+CEM+GULN4fQIaDMKIApTAMG7+97QmdkCLt7GsWzr/jQKlenQzhBG9w7hrj9ofvLJ098OYc2kNEULvv3gm9n3x989PCONAVBuZg8N4YbfPbkAevqa5v+bCe1IAURhCiA4veXbDzSVPekC7h8esYCji9ixLIRbLglhwAUn7G/wm0ffTrwpTZO4dfTy7PvjY/1GN20sD0CZi4+E33js/ydcNyWE/VvSn0K7UABRmAIITu/nw+Zni7c4b67ZlUah8jQ2NF/KHvczSC9zPz5rX0+P4gRjl7a8gfyaHYfSKADAu1IAUZgCCE5t677q0K1nVbZw+9rdU9MoVKa1k/PC58SJj8Ed9rfpUZxg18Ga7DskzvOzN6VRAIB3pQCiMAUQnFr/15Zki7Y4oxZvS6NQmWbc31zypMXPiXPnx9OjSHz+5gnZ90ivlxalMQCAd6UAojAFELRs7+Ha8OHrRmaLtj+9bWLTk32gS5j35Dv7/Zxq7vt8ehSJf3tqbvZd8uUhU9IYAMC7UgBxxq6++urwW7/1WyeNAghyg8etzBZscZ6ZuTGNQuXat/n0+//Eq4PGD0yPIvHw1LXZd0m8vbS6tj6NAgCclgKIwlwBBLkjxxZllw8Yky3YPn39uFBb35DGobKN6RNCvxZKoAHnh3Dr+0Ko3pMeQWLuhr3Z90mcmet2p1EAgNNSAFGYAghyj72xPluoxbnv9TVpFCpfQ30IY/u8cyXQ8T2BfvXZEHatTtO0oKauIby/14jsO+V+3ykAQCspgChMAQQnq2toDJ9rYcPWy/qNDgeP1qVx6Dr2bwlh4bPN+wJteCMEe2G1Snx6YPq98q+/npPGAABOSwFEYQogONnL87Zki7Q4N41clkYBzli/Vxdn3ytX3DA+jQEAnJYCiMIUQHCyLw6enC3SPtBrRNhx4GgaBThjpyqXt+8/kkYBAE5JAURhCiB4x6QVO7LFWZweLyxMowCtsmH34ey7Jc7IRdvSKADAKSmAKEwBBO/4mwemZ4uzS3pUhbU7D6VRgFZr6emCN45weykAcOYUQBSmAIJm8ze2/Jhmm7QCbeV7Q2dm3zHfvH96GgMAOCUFEIUpgKDZD5+YnS3M4izYtC+NAhQyZPyq7Dvmw9eNDPUNnqgGAJwZBRCFKYAgNN3idXH3qmxhds0D/ss80HYmr9yZfc/EWbp1fxoFAGiRAojCFEAQQvcXFmYLsjiTV+5IowCFHThS12LZ/OSbG9IoAECLFEAUpgCiq3vrwNHw/l4jsgXZlwZPTqMAZ+3Pfzkp+775r+cWpDEAgBYpgChMAURXd9OIZdliLM6r87ekUYCzFsue9PsmlkIAAGdCAURhCiC6sng7xkf7jsoWY5+/eYJNWYF2EW/3Sr9z4m1h8fsIAODdKIAoTAFEV3bvpNXZQizO42+sT6MAbSJu+Jx+58SJG0QDALwbBRCFKYDoqmrqGsIfDBqbLcJ+f+CYcKS2Po0DtIl4dWF89Hv63RMfEQ8A8G4UQBSmAKKrempGfhuGRRjQEb55//Tsu+d7Q2emMQCAjAKIwhRAdEUNjY3hylsnZguwS68bFfZV16ZxgDZ1Ywubz18+YEwaAwDIKIAoTAFEVzRi0bZs8RVn4PClaRSgzY1a3PJ30Ppdh9MoAMBJFEAUpgCiK/rq3VOzhdf7eo4IW/cdSaMAbW77/iPZd1Ccl+dtSaMAACdRAFGYAoiu5o3/v737jo/zqvI//ts/9x/sNBYCLOm9EEjAQCChJksJBAghENgsCbCQZIEEiEsSy723uCex4zi247jEiW3Zci9y770XWbbkLluW1cv5zZnHY43OMyNrrlVmnvm8X6/zCkj3jkaj8Wier+49d98p30WX1suTNtmhANBk2nRf4Hsdypi+zQ4DAACogwAIzgiAkG5+O2q176Lr+raZsud4kR0KAE3mz+PW+16LfjJkmR0GAABQBwEQnBEAIZ1szyuU69r6V/889+5aOxQAmtTIJft9r0U3d5gl5ZXVdigAAMBFBEBwRgCEdPLihA2+Cy6ttTkFdigANKk1B0/7Xou0Nhw6Y4cCAABcRAAEZwRASBe5p4vlxnaZvoutXwxfYYcCQJMrqaiSG9v7X5NGLTtghwIAAFxEAARnBEBIF699tNV3oaU1b8cxOxQAmsUP38j2vSbpSkUAAIB4CIDgjAAI6eD0+XK57dXZvgut7/VfIjU1djQANI8O0/zB9Dd6LbTDAAAALiIAgjMCIKSDfnN3+y6ytKasP2yHAkCz0dcg+7qkdaqo3A4FAAAIIwCCMwIgBF1xeZXc22mO7wKrTfcFUlnF8h8ALWf/ifO+1yYttqYCAIB4CIDgjAAIQTcq+4Dv4kpLPw4ALUm3oN6T4Q+o+8zZZYcCAACEEQDBGQEQgkxX+Hy1xwLfxZWuCNKVQQDQ0n47arXvNerXb62ywwAAAMIIgOCMAAhBFq+/hvYEAoBkMGCev0fZXR2zpJoO9QAAIAYCIDgjAEJQ6bXT9/sv8V1Y6WlgeioYACSDRbtO+F6ntHYfO2eHAgAAEADBHQEQGlNRWaVsyyuUWVuPyvDF+2TQ/D2y+fBZO6xZzN9x3HdBpfXaR1vtUABoMQXF5XJdW/9r1Qdrc+1QAAAAAiC4IwBCoo6fK5M1B0/L5HWHpe+cXfLihA3ykyHL5L7Oc30XMFrXt82Ujzbm2Ztpcr8YvsJ3X25slym5p4vtUABoUQ/3WeR7vWo7dYsdBgAAQAAEdwRAsLRxsh5NrNsSxiw/KJ1nbJfn3l0b3k5166uzfRcpDSnddrXzaPNtZ1iXU+C7D1oaVgFAsvnbxI2+16tHBy61wwAAAAiA4I4AKD0VllTI1iNnZeaWfBm2eF/4L8166kysE7Maq77Vd5GcL6u0d6VJaGBlv75usdieV2iHAkCLe3dFju8164Z2mXK+vHleMwEAQOogAIIzAqDgOlpYKqsPnA73keidtUtemLBBHhu8TL7QKfZWreao58evt3ez0e05XhTedma/th61DADJSHul2dcsrZX7T9mhAAAgzREAwRkBUOqqqKqWvceLZMHO4zJ62UHpNH27PDtmrXy332K5pcMs34VEstQ7yw/ab6VRvTxpk+9raq3Yx4UUgOSkW29jvW7rCk0AAIBoBEBwRgCU3M6WVIT/Mjxjc74MXbhXXpmyWZ4cuVLadJ/vu1BoifpGr4Xy9NurpN2HW2TEkv3h0790m5WeBtZnzi7feK2b2s+Sjbln7LfaKPLPloZv335NXfkEAMns58OW+167/jB2nR0GAADSHAEQnBEAJZ8lu0/IL0eulHsy5vguBpq7bn9ttjwycGn4IqTLzB0ydkWOLA7dvwMnz0tVdY2963Xo5596c6XvNrW019CZ4go75bLpfbRfS0uDKQBIZrFevx7oOs8OAwAAaY4ACM4IgJLLwl3Hw40/7UVAU9YXu8yVx4cul79O3Cj95+6WDzccCZ+idbKozN69hOltfLlb7NVKz4xeIzX1Z0gJ0dVSd7yW5fs6erxydWN+IQBoArrS075+aeWdKbFDAQBAGiMAgjMCoOSRe7q4SVb96OlXD/VeJE+/vVo6TNsqI5fsl6xtR2VHfmGznDCjjahvjBNqDV6w1w53prdlb19rwupDdigAJJ0jBSW+1y8tPa0RAAAgggAIzgiAkkNZZbX88I1s3xv/htYdr2fJowOXyp/eWyfdMnfIuFU5snTPCTl46nyjrrJxNXzxPt991tLVTo3RnLm0oiq8ksnevm6fKA89tgCQCvQ1y76O6dawiypKRBZ2E+l7i0jHT4j0+JzIjL+JnD9ROwYAAAQaARCcEQAlh39O3ux702/r/tCFwc+GLZe/f7BRBs7fI9M2HJENh87IqaJye3NJR0MoPaHMfk+R7+v4ucvbbvbeyhzf7Wpxgg6AVPLcu/7XyV8MX+F9UsOfkQ+JdLrCC38i1elKkb43i5w9En1TAAAgoAiA4IwAqOW9vybX94Y/Um8t3S87j56T4vIqOy3laI+eB3st9H2PWk+MWHHJptLx6Dw9jcze5l0ds+RcadNvcQOAxjJskX+15K2vzg4fEy/zOopktK4b/kSq81Ui7/3M3hwAAAggAiA4IwBqWVuOnJVbOviPLdd69aOtdnjK0yPtb47z/factdMOb5Dpm/J8t6XVw/H2AKCl6JZY+1qmpb8rpNd1/uAnujJaiRQdszcJAAAChgAIzgiAWo4eg/71ngt8b/S1fjp0mVRUBbN3TbztWtqset6OxC9efjBoqe+2NGS63G1lANDctDF/rJMgJ2Tv8Ac+sSp3lb1JAAAQMARAcEYA1DL0WPLfjVrte5OvdV/nuZJ/ttROCZT/e3+D7/vW0lPQDhc0/MhjbXRtb0PrlSmb7VAASAmPDPSH2i99sF6kyzX+wMfWqcY7WREAACQnAiA4IwBqGQPm7fa9wdfSv/wu23vSDm95Zw6JbJ0qsm2aSGGe/WzC9K/c3+m32Pf9a/14cLYcLWxYAPbrt1b55l/fNlMOnDxvhwJASmg7dYvvde3hPotEJv3O6/VjQx8t7Q006Av2pgAAQAARAMEZAVDzW7TrRDiksG/wtYYuTLK/3pYViUx51n+hMf1FkcqGhTTx7DleJLe/Ntv3GETq3k5z5DdvrQofgfzRxrxwM2xdORWh/YTsHK0/vbcu6qsAQGqZGONgAN0iW5i3T6T7Z2OcAhb6/xmhOrDU3hQAAAggAiA4IwBqXrq9SYMN++ZeS4//jco3Wp7emdGPxv6Ls15wTHzazkiYHmVvH4f6Shtm/+iNbGk3dYs8PnS57/Nam3LP2C8DAClj17Fzvtc1rcW7T4ic2Cky8pt1X48H3Cmyf5G9GQAAEFAEQHBGANR8yiqr5YdvZPve1Gs91HtR8h1ZvmN66OKilT/8ia6cZXZWwtp96N/u4FpPjlxpbx4AUoqudLzz9Szf65tuHb7o5B6Rg9kieRtrPwYAANICARCcEQA1n39N2ex7Q69126uzZWd+oR3e8j5+QaTL1f7QJ1KdrxGZ+7qdlbDyyupw3x/7uLhU+C/kAJDiYvU304MDAAAACIDgjACoecTq6RCpqeuP2OHJ4YPfeH0lbPBzMQC6WmT6/9lZTs4UV8hLkzbJ3Rmxt8c1pB4dSP8LAMHQO2uX7zVOtw83yzZh/SK7MkUyXxaZ9meRVSNESgrsKAAA0EIIgOCMAKjpbT1yNty7xr6Z1+owbasdnjwWdI7d/+diAHSlyIohdtZl0z5Jc7YdDW930L5IX+u5wPe4xaoZmy//dDIASAZztx/zvcZpNfkJhxr0aO+3jFbesfOdQr8DOoVe67t/RmT/YjsaAAC0AAIgOCMAalq6suXrcQKMnwxZJhVV1XZK8jh9wHvjrxcCNvzR3kBdPilSdNzOahKFJRWyYt8pGZV9QF76YFN4tc+N7WpPUnvtoyQO0gAgQSeLyny/M7SmrD9shzau9x6PHfzr6Y/d/iP0S+2QnQEAAJoZARCcEQA1HW3k+d+jV/vewGvd13mu5J8tsVOSz4ax3hv/6GOHNRTS0ibRLUjDM10tdPp8uf0UAKS8B3st9P3ueLUpw25tKG2Dn+jSYGjWv+wsAADQzAiA4IwAqOkMmLfH9+Zd64Z2mZK996QdnrxyV4lMeFKk940ifW4SmfzfIke32FEAgEb0woQNvt8fP3oj2w5rPNrrR8N9G/xE1/Cv2VkAAKCZEQDBGQFQ09DTqK5vW7tFKbqGLNxrhwMAUIduebW/P25snymlFVV2aONYNdzr7WZDn+ga9lU7CwAANDMCIDgjAGp8ui1JT2uxb9y1tKlxs5ziAgBIaesPFfh+h2itzSmwQxvH4bX+wCe6tCH0zJfsLAAA0MwIgOCMAKhxlVVWh5fo2zfsWg/1XhRuZgwAwKWUh36f3NTef4Lkm0v326GNZ8yP4jSB1sb/V4ucbsKvDQAAGoQACM4IgBrXK1M2+96sa9366mzZmV9ohwMAENdjQ5b5fp/8Zdx6O6zxnD8pMuIbXvP/zld7PYF0W5ieALY7y44GAAAtgAAIzgiAGs8Ha3N9b9Qj1eRH9wIAAqfjx9t8v0++2mOBHda4qqtEtk4Rmf6iyLQ/iyztK1J03I4CAAAthAAIzgiAGse2vEK5pYN/qb5W+w+b8NheAEBgTdtwxPc7Rev4uTI7FAAApAkCIDgjALp8Z0sq5MFeC31v0LV0+b72cQAAIFE5p4p9v1e0srYdtUMBAECaIACCMwKgy1NdUyPPjF7je3OudV/nuZJ/tsROAQCgwfR3if390nPWTjsMAACkCQIgOCMAujwD5+/xvTHXuqFdpizdc9IOBwAgIf/zjv+PDE+OXGmHAQCANEEABGcEQO6W7D4h17fN9L0x1xq8YK8dDgBAwgbF+EPDHa9lSVV1jR0KAADSAAEQnBEAuTlSUCJf6ORflq/17Ji1UsP7cgBAI9DVpPb3jNaO/EI7FAAApAECIDgjAEqcNnX+8eBs35txrW/2XiiFJRV2CgAATvR3SqzVpuNXH7JDAQBAGiAAgjMCoMS1nbrF90Zc69ZXZ/MXWQBAo/tOv8W+3zn/nLzZDgMAAGmAAAjOCIASM2ltru9NeKSmrDtshwMAcNlenrTJ9zvne/2X2GEAACANEADBGQFQw23LKwyv8rFvwrXafbjFDgcAoFGMW5Xj+72j28KKyirtUAAAEHAEQHBGANQw2oPhG70W+t6Aaz02eFm4LxAAAE1he16h73ePVvbek3YoAAAIOAIgOCMAahg9brd31i65rm3dN9/3dZ4reWdK7HAAABpNZeh30O2v+VegDl6w1w4FAAABRwAEZwRAiZm345jc1TEr/Mb7hnaZsnTPCTsEAIBG98SIFb4A6Nkxa+0wAAAQcARAcEYAlLicU8Xy6MCl8gZ/eQUANJPumTt8AdAXu8y1wwAAQMARAMEZAZCbsspqqamxHwUAoGnM3nrUFwBpHTpdbIcCAIAAIwCCMwIgAACS39HCUl/4o/Xxpjw7FAAABBgBEJwRAAEAkBradJ/vC4A6Td9uhwEAgAAjAIIzAiAAAFLD/763zhcA/XToMjsMAAAEGAEQnBEAAQCQGkYs2e8LgLQeGbhUhi/eJ/lnS+0UAAAQMARAcEYABABAalh94LQv/Imu69rOlCdHrpSJa3LlXGmlnQ4AAAKAAAjOCIAAAEgNJRVVckuHWb7gJ1bdHBqnW8b09LDyymp7UwAAIEURAMEZARAAAKmj68wdvrDnUnV3xhx5ZcpmWbn/lNTU2FsEAACphAAIzgiAAABIHRrgTF53WH4+bLkv6GlItem+QHrO2ik7j56zNw0AAFIAARCcEQABAJCaDheUyKD5e+TbfRf7gp6G1CMDlsiwcPPoEnvTAAAgSREAwRkBEAAAqW/LkbPSecZ2eaDrPF/Qc6mKNI9+f02uFJZU2JsGAABJhAAIzgiAAAAIjuqaGsnee1JemrRJ7ngtyxf2XKq0efQfx66TWU3dPLqyVKTgoMi5fPsZAABQDwIgOCMAAgAgmEorqmTG5jx5dsxaual9w04Pi667OmbJvxq7eXRFicjs0PuOrteIdPyEV4PuE9kz144EAAAxEADBGQEQAAABd2ilFGcPl5WT+8mLgyf7gp6GVJvu86XHrJ2yI7/Q3nrDVVWIvP09kU5X1oY/WhmtQ9VKZOsUOwMAABgEQHBGAAQAQEAV5om89W0vZOl8pUjGFeH/Xfz+szJs7lb5Tj+35tHf779Ehi3aJ3lnEmwevfpNL+yJDn+iQ6DunxUpK7KzAABAFAIgOCMAAgAggHSr1cB7RTpf5Q9bdAXOpGfCw7YeOStdZu6QL3eb7wt6GlK/HLlSJqw+JGcb0jx61CPeSh97f6Jrx3Q7CwAARCEAgjMCIAAAAmjVCJFO3oqfuJW34eJwbR69bO9JeVmbR7/u1jz6D2PXSeaWfCmL1zy6/+3++xBdukpJVwkBAIC4CIDgjAAIAIAAGvdE/QGQrgxa2s/OCtMAZ8bmfHnuXffm0f+cvFlW7DPNo9/5r0uvANqVGTUBAABYBEBwRgAEAEAAjX60/rClyzUi8zvZWT4FxeUyblWOPDFihS/oaUh9pdt86Z65Q7bnFYqsGxP/PunHe37e27oGAADiIgCCMwIgAAACaNa/RDpf7Q9aogOXBE/dOlJQIoMX7JXvOjaPfqTfIjk88Lv+lUnak0gbVO+cab8kAAAwCIDgjAAIAIAAOrHLf9z6xcCltUjfmy5rtc22vELp6tA8+qZXPpLBHX4nxRmfqr0/I78hkrPMfgkAABADARCcEQABABBQG97zVtZoc+VI2KK9f3p8TuTIOjvaiTaPXr7vlPxj8ma5M8Hm0V9v+47c32GSvDBhQ7hfEAAAuDQCIDgjAAIAIMDyN4l8+CeRQfeJDPuqSFZ7kcI8O6pRaPPomVvcm0c/3GeRvLl0v5w+X25vGgAAXEAABGcEQAAAoLGdKa6Q8asPOTWP1iPlX5ywQVbtZ1UQAAAWARCcEQABAICmlHemRIYu3Cvf67/EF/Zcqr7dd7G8nX1AirbPFVnU3Tu5bPvHIlUV9ssAAJAWCIDgjAAIAAA0Fz0OvlvmjvDx8DbsiVX3vTJB1r72QLh/UWXGVVLd+Rqvl9HAe0VO7rE3DwBA4BEAwRkBEAAAaG7aPHrhruPhfkE3tsv0BT9a170yQ9a//iWp7GiOjQ+fZBb6WL/bRMrP25sGACDQCIDgjAAIAAC0pGOFpTJo/h5p031BnQDot+26+4OfqKrREGjlMHtzAAAEGgEQnBEAAQCAZKCrghbs9FYF3dAuU4Z2eFrKO0YdYW+qqmNrOf7mz+3NAAAQaARAcEYABAAAks3RwlJZ9+bzUt7xKl/wE6nqjq1k4WsPyYgl++10AAACiwAIzgiAAABAUto6RSSjtS/4iVRFxytlQIf/CW8X+8fkzVJZVWNvAQCAwCEAgjMCIAAAkJSqykUG3CXSyb8NrKZjKynpeI088Mp7F3sG/XLkSikoLre3AgBAoBAAwRkBEAAASFrHd4j0udELgTKuCFWr8Mqf4o7XyG/a9fSdHPZQ70Wy70SRvRUAAAKDAAjOCIAAAEBSKy0UWTZQZPwvRN59TE58/Jr8qNskX/gTqbsz5kj23pP2VgAACAQCIDgjAAIAAKnm+LkyeWzwMl/4E6kb22XK+FWH7DQAAFIeARAa7C9/+Ytcd911F6tVq1YEQAAAIOWUVlTJX8at94U/0dVp+napqqY5NAAgOAiA0GDbt2+XRYsWXaynnnqKAAgAAKSkmhqRfnN3+4Kf6HrqzZXy8aY8KSypsNMBAEg5BEBwxhYwAACQ6qZtOCK3dJjlC3+i64Z2mfLEiBUydOFe2Xn0nL0JAABSAgEQnBEAAQCAIFh/qEC+1GWeL/iJV226L5B2U7fIvB3HpKSiyt5c2jtXWimHC0riVrUuvwIANDsCIDgjAAIAAEFxpKBEHhmwxBf2XKp09dDTb6+Wd5YflPk7jsuUdYfD9Xb2ARkwb0+4OkzbKi9P2hSu37y1Sp4cuTJu/d/7Gy6OjVSnGdsv3lakuszc4RsXq54Zvcb3NWLVg70Wytd7Lqi3Huja8JCsvtIALXNLvv0RAACaGAEQnBEAAQCAIDlfVim/H7PGF1hQTVP/+946OVlUZn8MAIAmQgAEZwRAQArJWSYy658i0/4ssrinyBmOOAaAeBbtOiEvTdokX+wy1xdaUI1b93aaIx9tzLM/AgBAEyAAgjMCICAFVJWLTHpGpOMnRLpcI9LpCpHOV4X+e6XIhrF2NADA2Jh7RgbM2y2PDVnmCy+oxqtnx6yVY4Wl9uFPSGVVjaw+cFqW7zsVXs0FAKiLAAjOCICAFJDV1gt9NACyldFK5GC2nQEAiEO3K01ed1ieH79e7nw9yxdiUJdXd2fMkUlrc+3DXi/tJ71y/ylpO3VLeDVR5LZubJcpjw9dLv3m7pZVoc9XVFXbqQCQdgiA4IwACEhyJWe8lT42+ImUBkNjfmRnAQAaoLK6Jhw89Jy1U77Tb3GdIOOO17IuNk7+waClFxsta3AUac7cZ86ucDPnrjGaOf9t4kZfk2atnw9b7vtYrPr7Bxt9t2lLAxPbWDpWaTPrSGPr+kq3zenjUV9l7z0ZboJtgx9bvx21WvLOlNiHvI5NuWek84zt8pVu833zY9Xtr80O3+7IJftle16hvTkASAsEQHBGAAQkuX0L/aGPra7X2FkAADSpCasPyV0d619BpSusxq3KqTNvz/Gi8Iqeb/Ze6BufaN3Xea48P36DvL8mV3JPF9f5Oo1Jt6NpP6nn3l0bDgunb8qTHfmFUl7JiiQAzY8ACM4IgIAkt2+BP/CxRQDUvLTv0siHQ4/7J0X63S4y428ihTQ/BZB+8s+Who+ot8GMrV+9uVKGLNwrjw5c6vtcY9YTI1bI7mPn7N10Vl1TI72zdvm+TqSuazszvHLsj2PXhVeDzdySLzuPngv3MQqC0ooqOVxQEt6iByB5EADBGQEQkORKCi6xBay1yDs/sLPQVKb+QSTjE17vpcjPoHPo59Pz8yIndtrRAJAWpqw/LPdk1PbuacnSbWLTNhyxdzFh2oBaV/zY229I3dAuU77Xf4n8eZy3XbDvha2CulJJt9rpNjrdTnfg5PlwwJIsgZEGehpidZqxXR4bvExubJ8Z/n6+2mNBeLsegORAAARnBEBACpj1r/qbQO9fbGegKWya4IU/9mcQDoGuEhn2Va+TKQCkoRPnyuQPY9f5wpBE6qb2s8IniemR8ho4DF24V556c6Xc0mGWb+ylqv2HW523aB06XRwOcOxtNnV9udv8cM8pbXytfaBenLAhHCD1nL0zHCCNX3UoHCAt3u31atp3oigcIOlKnURp6LT58FkZtexAuK9Vm+4LfPcnur7UZV74Zwyg5REAwRkBEJACKkNvuCY+5QUNXT4pkqHHwF/trQxaO9qORlN5+7t1V/7EqiPr7SwASCszNueFe/PYACFeXd82M7xFbOKaXDlbUmFvLkwDDl01o0HIjwdnh7de2duJVT96IzsckCRixb5T8oVODb//yVRf7DI3HCA9NmRZOED6y4UVSN0zd4QDpHdX5EiPWTvDW+Vue3W2b/6l6tdvrQpviwPQsgiA4IwACEgh+xeJZL4sMu3PIgu7ipzeb0egKfX8T3/gE10aDm2eaGcBQNo5fb48vKrEBgjR9dOhy8KrT447rCrRoChzS354lc/DfRb5bju6dGvagp3H7U3ENHZFTvjoeXsbkdJVMm26N+zEsqDWoPl77MMGoJkRAMEZARAANNCge/2hj63dWXYWAKStrG1H6wQm3++/RAYv2NvoJ3bN33G83h5EumKoV9YuqaqOvXpFt0O1m7rFNy+69Pj5wgsrlIrKKsNb1PQkNO2X87vQ5+7vOs83J4il/Y1WHzhtHkEAzYkACM4IgACggeZ0EOl0lT/0iVTXT4mUFdlZAJqbnsr30V9Eun/a+7fZ71aRRT287bRodhq6bDh0RvLPJrYVK1G61Uu3fNnAIrp0q9nJorrPA12t9MuRK31jo6vLzB1xw6NoGhCtyymQ91bmSMb0beEm0LoVS7et6dasRLbGtWRpmKUnm2n/Jfs5ra90mx9+3AC0DAIgOCMAAoAGOn9SpO/NMU5l075AoVrzlp0BoLkVHBTpdb13Ol/0v1NtpK99vAiBAk2bPrf7sP6VPNpoObKCZWd+YTiYsWMidXOHWTJ53WHzVS5fcbl3vPqe40XhZs4Ldx0PN3fW4Eh79fSctTPcu+f58RvCAZJul9P72RSrjHRFzw8GLZXXP94Wbr4dvTrrXGmlfKPXQt8crWdGr+HcA6CFEADBGQEQACSgIEfkrW/XvbDsdq3I2lF2JICWMOr7MULaqBBIVwIh8D7ccCR8HLwNLSKlfX46TNsqd7yW5ftcpDRsWX+owN50UtCgSwOk/SfOhwOkpXtOhAMk3ZKmAVLvrF3hAOmvEzeGA6SfD1seDpB0O97XQv/9/Zg14a14y/edCodR9dl0+Ez4dDb7+GiNWHIZvQirQ193x3RvdW1We5GtU0WqYjcBB1AXARCcEQABgIMTO0NvVqeI7F8sUtG02xrQgk7uFpn7usj4J0Q+fkFk2zThT95J7Mwhf+hjS7eDNQbd7rl6pMi0//Ua8697h9eCJLP72Dn5dt/FvtCiIaVbyfLPltqbTFujsg/4HiOtG9tnhrf3JezsYZGhbUQyPuGdbtrlGu8ghUFfEDm1z44GYBAAwRkBEAAAMeiWvowrRDpf7V2YRP47+hF6PSUrDWRt4GNLf4bVlXZmYvI3i/TR7aBXeKuNwhX63/1v80JDJI3z5ZXhbVQ2uKivdHxJRf2rYtLRc++u9T1WWrqiSE9lazD99zf4/tg99XTr5oC7RSoJ34D6EADBGQEQAADGwWwvKLAXJ+ELlNBFy9Tn7Awkg6Nb/T8vW90/Y2clRsO/3jd6gY+9bQ2CwhevKdJnSPuaze8kMuKb3gX5h38UObLejgqEd5YfDK9WseFFdF3fNjO8LQqxnSmukK/2iN0vSRtGN5hu9cpo7f/3c/HfUejf1roxdhaAKARAcEYABACA8d7jsS/wI6Xh0NkjdhZamm7P639H/J+dBjQf/snOSsyq4fFvP/w1Qp/bNMHOSj7Htl1olh21CkMfH70wX/O2HR0IG3PPSJvusQOMO17Pkrnbj9kpMPSEM+2fZB8/LQ3ZGiTzZW9Fpf23Eyl9TmoYCSAuAiA4IwACAMDo8Vn/RUl0ad8KbV6K5LN3vhdi2BUGelHZ6zrviPh4ys5527vOHbWfqTXlWf8JY9HVJXRhO/PvdlZy0S04A++JH2TpY5e/yc4KhILicvntqNV1ggs95WrXsXN2aF3a3+nwWpG8DSJV6X38+bBF+3zhj5aemLb1yFk73G/GX+sPgDSInPJ7OwtAFAIgOCMAAgDA0KDAXpTY2pVpZyFZ7J0n0u+2uj+vt78vcjrOiUXFp0Qm/4934RkZP+QBkZxldqS3/S9W75JIhQOgl+ys5LI7y3+/o0vDso+et7MCo7qmJnxilp6SNXD+Himsr3+NhmXzM7wmxZHHp9unRZYNTL2G8PsWiszrKDK7rcjG8c5Ny/XbtiFapB7qvUiKyurvsVW2ZozUaH81+7y7+PwL/TtcMcROAxCFAAjOCIAAADAm/rr+VR66cuL8CTsLySZvo9fP6fQB+5lapYUiA++tuxVKS1fB6M95/6K647U5eLyVM5F5WybVnZNssvt7QZW979E14ut2Vnr64Dexf976c85qZ0cnp5ICkXf+y7vfGmSFT9wK3f++N3n/RhycKiqXL3eb7wuAtF6YsMEOl5xTxeGTxJ56c6Xc2X6aHO14nVR19D+uNXq/NIAvbcBKIiCNEQDBGQEQAACGbn8JrwaJ0QhaLwZn/8vOQKqa+3rsC/zwzzr0HOh/u0h11IlQ5cXe6qLo1UKR0tBQj7GuirOiRE82OrTC2z54qgHNhrVPz7zXvWPmZ4Wec7mr7Ag3q0bE/561wqfdPWpnpR9dSWYfG/s46c8o2Y35kT/gDN//1iI9r/NWwDlYuf+U3BCnH9B7K3Nk9YHT0nPWTvlW30W+zz/Sbric6vg5qerYOhwE6X8rQ/89l3Gtt9UOQL0IgOCMAAgAgBj0Ir3rf3gXyp2vqe1ZMeW5tO8BEiga8NgLY1v2gvTETu/Id31u6EoaLf3fb3xRpOBg3bEReqpRd9NbatT34zcTX9zLCxj0edepde0WpI+fF6mptqMTo/c/3il3WhpuLeljZ3m0B86cV71QSrdGHd9uRwTH9Bfr71Wjn1vUw85KLodW+u93ne/hqtD30N3OarAB8/b4wp2G1p2vTJbO7f8is177rmS99h3p2f5Pcm/biXLg5Hn7ZQAYBEBwRgAEAEAcekz26pFe09KF3fxBAFJffRf4kdo5w87yVvNseE/k4xdFpv+fyOaJ8Vf+6KlaGrjY0EWDFl1NpFt0om2Z7L8PkdLeKUv71h3vQnv8xFvF1PdWb2tcNG38or1jwmMuBF5drvK+Jw2rgmj8k/6fWZ3HKgX6Pel2v1irfyKl3987P7CzQs/JMyJzOoSenxcCUg03NRTU530U7af05MiVvnAn0bqp/Sx5+u1V4ZPETp8nYAcuhQAIzgiAAABA2hp0r/+i2JaeDOaqrEik66f8txkpDVx0m1c0vdiuL3jodu3lr0KrLPNWE4WDKV3ldiEkGPbV2M2ytSlvffdJA7Cgmf1K/b2S9GenzaCT2ZLe9X8Pus1VG6RH0/5mA+/2vr/osRr6vfktX/PoY4Wl8sUuc32hzqXqvs5z5aVJm2Tmlnw5X15/42gAdREAwRkBEAAASFu6eiVePxwNRjSMuZzTnnbP9t+uLf0aERoY2c/HqsbqPaNhz7p3RFYO9Rpmx/petQdSz//034dIaS+ZQffYWXWdy/f6JyULbTKsK/oK8+xnaul2t/pCLw3Nzh62s5LL3vn++22/h6z2dedoE/x4/yb049o3y1iy+4Rc3zZ2P6Do+l7/JdI7a5eszSmI+VQD0DAEQHBGAAQAANKWrmYY+U3/Ba9eGHf5pMiRdXZGYvS4bQ1I7IV0dGkj3ojy8/7Px6pYAZBeUWuIo6t1dNvZyT12hJuTu/1fP1bZrWy6Smlh19rwSMMU7Xt0qa2Up/Z5j5tWrO/zchQdE5moJ3tF/UyGPOA1545F73/kvkfG63NF///a0XZ08tF+UcO+FrrPMbaB6fegvaXOHKodrz/D6McmVunPM0Z603fOLl/gc3MHb2vXmOUH5XCB27HzAPwIgOCMAAgAAKQ1XZmi/U50a1X4wjh0gT/2J43T4Dh3tf8Cuk5pKPJI3TlD7q//Iry7bgEz/YYKDooM/7r3eQ2vIoHWh3/y9W1JWEMDoOLTtXN01ZCePmWDNX1stffQvgW1YyP05zD1uQvjWtfOHft4/SdV6elokcbU2vMmXmNtDTe06bfd2hT5WgeW2hmeLZO8n0lk/MiHvBPCUoUGPLpCS79Hfez1uaX9i7TJ/e6sumN11ZP9ucYqG/ZdMGH1Ifn9mDXS7sMtksnWLqDJEADBGQEQAADABbolSPvjNBZdgaErTGKtwAiHD6HaNKHunO0f+cddHB+6eF82oO54XTWkzXpjNfvVC34NVS6Hhjk9PlfPdqjQxwfcXXfO2lHxVz5pENHnJv/jPO4JfzijpR8b+VDofpgwQf//h3+8MOZq7/uP1MZxdccq7ekTq/F1+D5d6fW9ibGy5SJd0aSPRSrSEFB/JpN+JzL+l15T+1jb3zRItI+NLX2sbAAJoFkRAMEZARAAAEAT0m1MPT5bN3wIhymhmvL72KFD9gAvQAmfuHVlbSPfzH/4x2sjYrvSxtbRrXXnJGr5G/EDnVgh1tvfrScwulDanyZCt67VN15XrWz+oHa80l40ce9Ta+82o/W+0T/O1uU0/A6KwV+qPygb9ws7A0AzIwCCMwIgAACAJnYmV+TjF0R63+CtBhrxoMj6Mf4wJ5puvVrQxdvapFucjqy3IzzvPhY/CIlctC8fZGclRu+nHnmut6dhlAZOGk5paLOoux3trfCx9yO69P6uG1M7fl5Hrx+NHRcp/Vq62idCj6mPteIpUnr/3vlh7Xi9//Vtq4vUnrm1c9KVboXTrXr2OaWPt24bO7HLzvDoarec5V7vpm0fipw/aUcAaCQEQHBGAAQAAJDC3vq2twrHhhmR0sBmcU87y402cM5q54VSugInXpPmkQ/Vv6JHS09Ii8h8uf7jyjWMmPBU7fj9i/1jbGmgFE37/9gxtk7srDsnXenqrL631n1sdCtj/iY70qOP25Ave+Miq9E0tFvaz44E0AgIgOCMAAgAACCFzfibd7Ftw4xIaTi0Y7qd1bR0xZGuIrH3JXx/Wnk9haKPhddTy+rbxqbf34LOteP3L/KPsaVzoumJXvG+hn58aJu649OdrujRVWc7Z9a/hfDcUZFe18Xu36TBnTbmBtCoCIDgjAAIAAAghelpZfHCFg02BtzhNTBuTtp0eMQ3/IGLbkfTAEi3CEUrOeOFQrG2aWmApduPCnKixhfE71MT/jqt/aerVZR4J6XZ+xTe2vSp+kOORJw/ITK7rcgb94n0vUXk3R+L7Mq0o4Jj1r+8bY32ZxApXdmlP18AjYYACM4IgAAAAFLchrFeCBQdimiwoSszGivYSFRZkdf3KHp10qAviOyZY0d69i30tm1F9/bRVSX6PW2ZbEeLzPqnP8yJlIZM8Y6az2ov0v0z3rhIU+OTe+xIN9q3Sfs8RX8PkV46c9rb0cEw8B7/429r5ww7C8BlIACCMwIgAACAANATrLQ3j/ZqGfmQyPwMbzVKS9PQ5eiW2MeOW6f3i0x/UWTQvd7Kpal/8ObGosfIj3/SCxjCp6Vd4QUvGoStGm5H++nWpcY81l23TA39cvxQSiuIK4F6Xe//PqNLA7BN79tZAC4DARCcEQAFCKctAACAdLN3nsjMv3thkYZeugqnJeSu8ocf0aXb0t77mZ2V+sb80H9imK28jXYWgMtAAARnBEAp7vQBkfd/Vbu8usdnReZ0qNtYEQAAAE1r/ZjYPYyiS3sCBc32j/3fZ6R0C9/Ib9oZAC4TARCcEQClsOM7vD3s0fvMtXTpsTY51GaHAAAAaHra2FobVtsQJLp0e14QzXrF+/6iVwJpf6W+N4sUHLSjAVwmAiA4IwBKYSNjnK4RHQJFH5cKAACApqNb8aMbXtvSQGTu63ZWcOhx8e/+xFvlNPh+kXmh77X4tB0FoBEQAMEZAVCKOrXX/8bCVhCXGQMAACSrJb1jbwPTrVC9bxQpPmVnAEDCCIDgjAAoRenRpvbNhS09ArUxT7cAAABAfDU1Ikv61K4EimyJGv6gyKl9djQAOCEAgjMCoBR1bJs/8LHV8/N2FgAAAJqarvTRnkAbx4vkrrafBYDLQgAEZwRAKUr/wjTwHm8/uQ1+tPTjM/9mZwEAAAAAUhgBEJwRAKWwg9le0BN94oKWngrW7xavGSEAAAAAIDAIgOCMACjFHVrhnbQQCX+078+EJ0UK8+xIAAAAAECKIwCCMwKggDiT64VBJQX2MwAAAACAgCAAgjMCIAAAAAAAUgMBEJwRAAEAAAAAkBoIgOCMAAgAAAAAgNRAAARnBEAAAAAAAKQGAiA4IwACAAAAACA1EADBGQEQAAAAAACpgQAIzgiAAAAAAABIDQRAcEYABAAAAABAaiAAgjMCIAAAAAAAUgMBEJwRAAEAAAAAkBoIgOCMAAgAAAAAgNRAAARnBEAAAAAAAKQGAiA4IwACAAAAACA1EADBGQEQAAAAAACpgQAIzgiAAAAAAABIDQRAcEYABAAAAABAaiAAgjMCIAAAAAAAUgMBEJwRAAEAAAAAkBoIgOCMAAgAAAAAgNRAAARnaR8AFeaJbJkssnG8yJF19rMAAAAAACQNAiA4S9sAqLpKZM6rIp2uEOn4idr/vvktkTO5djQAAAAAAC2OAAjO0jYAmv1KbegTXZ2vFBlwp0jZOTsDAAAAAIAWRQAEZ2kZABUcFMlo7Q9/okOgpf3sLAAAAAAAWhQBEJylZQC0drRIRozVP5HKaCUy6hE7CwAAAACAFkUABGdpGQAtGyjS+Wp/8BNdQ75sZwEAgFiObxdZ2E1k2p9FFvUQObHLjgAAAI2EAAjO0jIA2jPHH/hEl24Bm/qcnQUAAKz5nbyVs/qHlc5Xef/VbdaLe9mRAACgERAAwVlaBkBVFSID7/GCHhv+aOkb2UMr7CwAABBNt1R3bOX/PRr5Xbppgp0BAAAuEwEQnKVlAKTyN4v0+FzdEChyKlh2fzsaAABEq6kR6XOTP/i5GAC1Fhlwh50FoLHkrhLZMFZk80SRs4ftZwEEGAEQnKVtAKQK80Rm/VNk0BdE+t4qMuFJkQNL7CgAAGAV5PhDn1hVdMzOBHA5zuSKjHzY+/cV/uNlKy9wzfyHSHWlHQ0ggAiA4CytAyAAAODm9AF/2BOrzuXbmQBclRV5K+u035b9t6Zh0My/2xkAAogACM4IgAAAQMJqqkV6XeetPrAXoloZoep7s50F4HJom4JOcXpYhv/dhf49ntxjZwEIGAIgOCMAAgAATlYO9S447UVouFp5TaIBNJ53/quef3Of8FYBrR5pZwEIGAIgOCMAAgAATrQR9MyXvAvPLtd4oY8eA6//f04HOxrA5Rr2NX/oE13674/DTIDAIwCCMwIgAABwWQ6vEZn1L5Gpz4nMbityZL0dAaAxTPvf2P1/omvXLDsLQMAQAMEZARAAAACQAg6vjb8FTLd/aYPoqgo7K72VnBHJXU1DegQKARCcEQABAAAAKSLSeyu6GbSuCur5nyL5m+3o9KWBz4Rf1Q3Mhn3FC4OAFEcABGcEQAAAAEAKyVkuMum/RfrdJjL4fpGsdiLnjtpR6ev8idBjc6t/u1zGFd7HDq2wM4CUQgAEZwRAAAAAAAJj+l/rrpCqs1Uu9PE3vmhnACmFAAjOCIAAAACAFqa9ao7vECk+ZT+DRPX4nD/4saWPNZCiCIDgjAAIAAAAaCFnDomM+1ndXjWjHxU5sdOORENoE2wb9sSq/YvtTCBlEADBGQEQACClFeZ5F1DVVfYzAJDczh4W6XWdv1eNnujV7dOEQK763OQPfGyd3m9nASmDAAjOCIAAXJbSsyI7potsHC9ydIv9LNB0tkwW6X977Zv5Hp8VWdKHIAhA6vjgaS/sseGEloZCox+xM9AQ816vpwdQ6PEe+U07A0gpBEBwRgAEwFl2f5Eu19R9Y/Xmt0QKcuxIoHGtGOw93zJa133+6f+f/IwdDQDJp7LMv/LHlm4L0xOtkJjy8yLD2vjDNX28u3+G/j9IeQRAcEYABMCJrrToZC6+w2+urvSOXi0psDOAxnH2yKUvmnZn2VkAkFzO5ftfu2LVsW12JhqirEhkdugap9u13uOovzcmPMnWLwQCARCcEQABSNj5k6E3Ulf736RGSt9kze9kZwGNY9Vw/1916zz/Qs/NqX+wswAguWizYruK1pauACo+bWciURq21VTbjwIpiwAIzgiAACRs69TQm9IYb1Sja+hX7Cygccx9PXTRVE8AqaUn6ABAsvvwT/FXNGoPm7GP2xkAQAAEdwRAABK27p36V2Bo9bvNzgIax6oR9T//dAWQXlQBQLIrOi7S/zZ/w2INhXp+np56AGIiAIIzAiAACctZ5r/oji7tDfTez+wsoHHose8a8tS3Cm3vPDsLAJKThkAf/rF2O5iGPxN/4x0RDwAxEADBGQEQgITpPvrBD8Rftq61K9POAhrP6pHe80z7Y0Q/7/QUML2QAoBUU10pcuaQSFW5/QwA1EEABGcEQACcHN/uLU+PXrYeOZJ7Fq8paAbbPxYZeG/t86/XdSLLBqZeo8+aGpG8DSIHs73VTQAAAPUgAIIzAiAAzvRUjcyXRQbcLdLnJpF3/su7KAeakz4P9a/mqWjHdJG+N9ddxTTuF6Hv6agdCQAAEEYABGcEQAAAtICtU7wtbNozKzoA0lV1A+4SKT1rZwAAABAAwR0BEIA6tPeAbu86uTv1ttJE5CwXWdJbZFEPke0fhb6nCjsCaFmVpSI9/9PfwyhSna8Umfe6nQUAAEAABHcEQADCqqu8wKTbp+v2VFnzlh2ZvEoLRd57/MIF9NW1J6r0v9MLtYBksX+xP/SxNeheOwsAAIAACO4IgNLQgSUiU54VefNb3lHdeoHPiROY8vvaJs51qpXIgs52dHLS8CfWyWSdrvB6FJWcsTOAlrFlsvdvyz5Xo6v7tXYWAAAAARDcEQClGd1SEL4gvnCRrBfG2n9i+Ne5OE5n+xb4Lz6jS4Mh3RKWzHJX+e93dOlzfkkfOwtoGUfW+Z+jdapV6HX5QTsLAACAAAjuCIDSyLYPY1xkXChdNfHBb+0MpIvpL3pbpuzzIvr5sbSvnZVclvaLvfonUhpivftjOwtoGdpfa/CX4j9n9fm6eqSdBQAAQAAEdwRAaWTkQ/EbjoYvOEKfK8yzs9BQJ3aKZLUTGf2oyPu/FtkwNnWaD497ov7nRperRTL/YWclF+1fVF+Ipd/fqEfsLKDl5G8W6fYp79SvOs/V1iJjH/f6cgEAABgEQHBGAJRGIg1x66vdWXYWGmLt6NBF2xVeUKKPo57goxdxw9qIFJ+yo5PPzJdq73us0u9n2UA7K7nsmhV6zGPc94vfw1VeQAckk9P7RT74TVTD8ttFsvuLVFfakQAAAGEEQHBGAJRGun/Wf1FsSxtEIzHaeyZm8+QLoYM2Jk52uav99z26dIXCmVw7K7noBfPg+/2rKcLVygu4Cg7aWQAAAEBKIQCCMwKgNDLxN95KDt/F8YXq8kmR8vN2Fi5Ft3vFDB2iKhWOIM9qf2EFTdRWsEiwtWqEHZ2cTu0V6XvrhRVYV3jfT+Q4+B3T7WgAAAAg5RAAocGGDh0qzzzzzMW6++67gxMAHVgqMu4XoQvAW0T63yHy0fPe8np4NITQC+FYq1X0Y9kD7Aw0hD7f7ONpH9uN4+2s5LR+jMiAO2rv+9AHRHbOsKOSW1mRyPJBXg8V7fmjJ98V5NhRAAAAQEoiAEKDTZo0STIyMi7Wgw8+GIwAaMUQr8mrHmseuXjVVRld/0PkYLYdnb72LxLpdZ33+OjKCH28dKXEgs4iNTV2NBpi4F3+0KdOABR6Xm6ZZGclt+LTIqWF9qMAAAAAWhgBEJwFYgtY3kbvItteeIcvvq8Q6XWDSHmxndW8KkvtR1pORYnI1qneqUl6zHCy93ZpKWePiKwa7j1O2uT5/Ak7wvPxC/GPcg4/B1t7twUAAAAAl4kACM4CEQDN+Oulj3/e/IGd1fT0CF/ditLvNu9+6IqksT/1jv5FctOfm/68dIVU5wvb5nT73MZxdqS3zbDrJ2NvrdP5+vwEAAAAgEZAAARngQiA3v7ehea1cUov3Bd0sbOaVk21yPtP+UMBDQT0NCJO20pe2q8n7oqy0Mf3zrczvP5TPT9fGxRFVgRNfU6kssyOBgAAAAAnBEBwFogAaPwv6/b+saUrOXRFR3PSECH6NKU69yd0X/veTDCQjLQPUp8b6//ZDf+6neXR5sMb3hOZnyGytJ9I3gY7AgAAAAAuCwEQnAUiAFo7yuv1Yy/WI6WrNpr7GO4xP4y/iiRSe+fZWWhpeoy4/TnZ0p+rhj1InPbCyu4vMuQBkS6fFBn8JZFF3UXKz9uRAAAAAGIgAIKzQARAupJm6FdEOl/pv1jXFRvapLe5Rfr+xCu9X2vetrPQ0o5t8/+sYpWekoXEaPPxkQ/5w1rdNjf4fpHSs3YGAAAAAIMACM4CEQApPaFJGyyHLyijQpasdiLVlXZ00xv5sMTdRhS5jzum21loabpCRVem2J9XdPW9xc5CQ+i/xXhbNbVn0kd/tjOQjgrzRA5mi+SuYpssAABADARAcBaYACji5G6v/44ec37uqP1s81k2MP7Frla3T4mUFtpZSAbzXo//s9PtX3o0PBKjIWy3a/2PZ3RpCFRebGciXeiquolP131OdA89Z1a/aUcCANJZ0TGR4zvYjo+0RgAEZ4ELgJKFbncZ1sZrQF0nQLhwKtiGsXYGmov+bOpTVS4y7hfeKq3Izy9yqtdHz3uNopEYXdVhA59YpW/okH703+TQB0L/3i78O6tTrbxAHQCQ3g6t8N5bR34/6Hu0Kc+yLR9piQAIzpI+AMrfJLJlssjhtaEL8wr72eSmPU30F1OnqKPg+9zkrU5C8zq0UmT0o7U/iwF3ec3D49GQZ9s0kQ+eFnn7e6Gf4+9F9syxo9BQ2uT5Uk3Rtc7l25lIBysGx191p9XlGpGi43YWACBd7F/s/Z6w/T41BHrjPpGyc3YGEGgEQHCWtAFQ3kbvhKDoF/neN4rsmmVHJj/d6pWzTOToVlaPtATttaSNh32rC1qJfNQCDcLT1ehHYvwMLpSujNNG7khPox6pPyDUz22aYGcBANJBdZVIv9trV9Hb0lBoXkc7Cwg0AiA4S8oASPv4dP2U/2JRLwL0xX/vfDsDiE3Dt+6fqf/icneWnYWmoKv5dCWHfQOnf9HTgE5DUqSnQV/w/7uMLt2CuWKInQUASAe6C8D+XrDV/w47Cwg0AiA4S8oAaPyT/t45kdKPD7zHzgBi2zyx/vBH/2o06b/tLDSVnOWhN2l31v0Z6KlqhLrpLfyaX88WMK1UXP0JALh8O2f4fyfY0j8wAWmEAAjOki4A0mWekYa79dWpvXYm4Le4V+hNwdX+5090Df+6nYWmVFMtcmS9d1pf7mrvhDCkt50z/f8uI6V9u3T7b2WpnQUASAe6gtj+brA16F47Cwg0AiA4S7oASJu42Rf1WHV4jZ0J+K17p/6VBfq5cU/YWQCa28cveCfvaW+uyL9P/WNA12tEDmbb0QCAdKH9M9/4YvzdAbq1fHFPOwsINAIgOEu6AEj1ut7/4m5f6ItP2VmAn54qVd+KMn0ubXjPzgLQEjaMrT3it+snRSb8SuTETjsKAJButA+QbvOyf9TT/z/iQZGKEjsDCDQCIDhLygBoQRf/C3z0C71eFAANtWxg7D5A+pekUd9nCxIAAECyO7ZNZMyPvK3B+j6u26dFstqJlBfbkUDgEQDBWVIGQJVl3oW5PS1IG/YOvFuk6LidAdRv/RiRnp+vG/7M+Bt/MQIAAEgl+t7tTK79aOPYMV3kzYe9PxzqacRjfiySu8qOAlocARCcJWUApKrKvZUbQx6oPflr7usipWftSKBhtMF4/maRQytFyorsZwEAAJCulvT2/kgY/QdovQbJuEJk61Q7GmhRBEBwlrQBEAAAAAA0tbyNsdsFhAOh0Me7/ofI+RN2FtBiCIDgjAAIAAAAQNrK/IdI56v94c/FlUBXiKx+084CWgwBEJwRAAEAAABIW2N/KtIxzgogrS5Xi8xua2cBLYYACM4IgAAAAACkral/qH8FUOerRJb0sbOAFkMABGcEQAAAAADS1vaP6l8BpH2A9Bh6IEkQAMEZARAAAACAtFVTI/LuY16vH1/4E/rYrH/YGUCLIgCCMwIgAAAAAGmtokRk+ote4BMJf7pcI7K4l0hNtR0NtCgCIDgjAAIAAACAkOLTIgezRXKWi5QX288CSYEACPf5/QsAAAWaSURBVM4IgAAAAAAASA0EQHBGAAQAAAAAQGogAIIzAiAAAAAAAFIDARCcEQABAAAAAJAaCIDgjAAIAAAAAIDUQAAEZwRAAAAAAACkBgIgOCMAAgAAAAAgNRAAwRkBEAAAAAAAqYEACM4IgAAAAAAASA0EQHBGAAQAAAAAQGogAIIzAiAAAAAAAFIDARCcEQABAAAAAJAaCIDgjAAIAAAAAIDUQAAEZwRAAAAAAACkBgIgOCMAAgAAAAAgNRAAwRkBEAAAAAAAqYEACM4IgAAAAAAASA0EQHBGAAQAAAAAQGogAIIzAiAAAAAAAFIDARCcEQABAAAAAJAaCIDgjAAIAAAAAIDUQAAEZ23atJH/9//+H0VRFEVRFEVRFBXQmjx5sr0URIoiAELgDB8+XH71q1/ZDyOObdu2ybXXXms/nNZmzJghDz74oP0w4igsLAy/OaiqqrKfQpR58+bJ/fffbz+MOMrKysLPq+LiYvspRFmyZIncfffd9sOox7/927/J6dOn7YcRx8MPPyzTpk2zH4bx7//+75KXl2c/jDgeeeQRmThxov0wjNatW8uBAwfshwFnBEAIHAKgxBAA+REAJYYAqGEIgBJDANQwBECJIwBKDAFQwxAAJYYAqGEIgNDYCIAQOARAiSEA8iMASgwBUMMQACWGAKhhCIASRwCUGAKghiEASgwBUMMQAKGxEQAhcAiAEkMA5EcAlBgCoIYhAEoMAVDDEAAljgAoMQRADUMAlBgCoIYhAEJjIwBC4Jw7d05OnDhhP4w4Kioq5PDhw/bDaa2kpESOHj1qP4w4ampq5ODBg/bDMEpLSyU/P99+GHFEnlf6X8SnQRkXnYnR51V1dbX9MOLQ34cEsZeWk5PDH0IScOzYMTl//rz9MIxDhw5JZWWl/TDgjAAIAAAAAAAg4AiAAAAAAAAAAo4ACAAAAAAAIOAIgAAAAAAAAAKOAAgAAAAAACDgCIAAAAAAAAACjgAIAAAAAAAg4AiAAAAAAAAAAo4ACAAAAAAAIOAIgAAAAAAAAAKOAAgAAAAAACDgCIAAAAAAAAACjgAIAAAAAAAg4AiAAAAAAAAAAo4ACAAAAAAAIOAIgAAAAAAAAAKOAAgAAAAAACDgCIAAAAAAAAACjgAIAAAAAAAg4AiAAAAAAAAAAo4ACAAAAAAAIOAIgAAAAAAAAAKOAAgAAAAAACDgCIAAAAAAAAACjgAIAAAAAAAg4AiAAAAAAAAAAo4ACAAAAAAAIOAIgAAAAAAAAAKOAAgAAAAAACDgCIAAAAAAAAACjgAIAAAAAAAg4AiAAAAAAAAAAo4ACAAAAAAAIOAIgAAAAAAAAAKOAAgAAAAAACDgCIAAAAAAAAACjgAIAAAAAAAg4AiAAAAAAAAAAo4ACAAAAAAAIOAIgAAAAAAAAAKOAAgAAAAAACDgCIAAAAAAAAACjgAIAAAAAAAg4AiAAAAAAAAAAo4ACAAAAAAAIOAIgAAAAAAAAAKOAAgAAAAAACDgCIAAAAAAAAACjgAIAAAAAAAg4AiAAAAAAAAAAo4ACAAAAAAAIOAIgAAAAAAAAAKOAAgAAAAAACDgCIAAAAAAAAACjgAIAAAAAAAg4AiAAAAAAAAAAo4ACAAAAAAAIOAIgAAAAAAAAAKOAAgAAAAAACDgCIAAAAAAAAACjgAIAAAAAAAg4AiAAAAAAAAAAo4ACAAAAAAAIOAIgAAAAAAAAAKOAAgAAAAAACDgCIAAAAAAAAACjgAIAAAAAAAg4AiAAAAAAAAAAo4ACAAAAAAAIOAIgAAAAAAAAAKOAAgAAAAAACDgCIAAAAAAAAACjgAIAAAAAAAg4AiAAAAAAAAAAo4ACAAAAAAAIOAIgAAAAAAAAAKOAAgAAAAAACDgCIAAAAAAAAACjgAIAAAAAAAg4P4/2U+kgX6aDukAAAAASUVORK5CYII=;" vertex="1" parent="1">
          <mxGeometry x="23.75" y="350" width="262.5" height="175" as="geometry" />
        </mxCell>
        <mxCell id="fV4lutbLEvw6odGB0vFc-5" value="Raw EO data" style="text;html=1;strokeColor=none;fillColor=none;align=center;verticalAlign=middle;whiteSpace=wrap;rounded=0;" vertex="1" parent="1">
          <mxGeometry x="172.49" y="170" width="90" height="40" as="geometry" />
        </mxCell>
        <mxCell id="fV4lutbLEvw6odGB0vFc-6" value="CloudMasking" style="text;html=1;strokeColor=none;fillColor=none;align=center;verticalAlign=middle;whiteSpace=wrap;rounded=0;" vertex="1" parent="1">
          <mxGeometry x="166.23000000000002" y="350" width="87.51" height="50" as="geometry" />
        </mxCell>
        <mxCell id="fV4lutbLEvw6odGB0vFc-7" value="Smoothing" style="text;html=1;strokeColor=none;fillColor=none;align=center;verticalAlign=middle;whiteSpace=wrap;rounded=0;" vertex="1" parent="1">
          <mxGeometry x="172.49" y="590" width="75" height="40" as="geometry" />
        </mxCell>
      </root>
    </mxGraphModel>
  </diagram>
</mxfile>
